<svg width="101" height="101" viewBox="0 0 101 101" fill="none" xmlns="http://www.w3.org/2000/svg">
<path d="M99.1691 63.7234C99.1691 58.8341 95.8854 54.481 91.1847 53.1395L77.152 49.1308V45.0262C78.8709 43.4551 80.1998 41.4704 80.9814 39.2263C82.9032 39.0328 84.7133 38.1757 86.0233 36.7336C87.338 35.2884 88.019 33.3917 88.0237 31.4448H88.0677V22.0089C88.0677 10.7361 78.896 1.56445 67.6233 1.56445C56.3505 1.56445 47.1789 10.7361 47.1789 22.0089V31.4448H47.2229C47.2276 33.3933 47.9101 35.2884 49.2233 36.7336C50.5333 38.1742 52.3434 39.0313 54.2652 39.2263C55.061 41.5113 56.4229 43.5259 58.1874 45.1095V49.1308L44.1547 53.1395C39.454 54.481 36.1703 58.8341 36.1703 63.7234V72.0522C35.1748 71.7974 34.2344 71.3193 33.4858 70.5707L30.07 67.155C28.9503 66.0337 28.3071 64.483 28.3071 62.8978C28.3071 61.3126 28.9503 59.7619 30.07 58.6406L31.9147 56.7943C33.6446 55.066 34.5977 52.7668 34.5977 50.3213V50.0209C34.5977 47.8035 33.7925 45.6631 32.333 43.993L25.4669 36.1454C23.7259 34.1576 21.216 33.0174 18.5755 33.0174C16.3565 33.0174 14.2161 33.8226 12.546 35.2821L6.61236 40.4749C3.40888 43.2774 1.57202 47.3254 1.57202 51.581C1.57202 54.1098 2.22782 56.6119 3.46706 58.8168C11.7502 73.5415 23.7479 85.9827 38.166 94.7943L41.7045 96.9567C43.9675 98.3374 46.5639 99.0687 49.217 99.0687C53.3735 99.0687 57.3256 97.2743 60.0604 94.1479L65.3571 88.0932C66.8181 86.4246 67.6233 84.2842 67.6233 82.0652C67.6233 81.4315 67.5541 80.8055 67.4267 80.1969H99.1691V63.7234ZM82.0602 53.8047L76.6063 63.6196L69.9524 58.0745L75.9646 52.0622L82.0602 53.8047ZM83.6958 34.6184C83.1532 35.2144 82.4613 35.6343 81.7111 35.8891C81.7504 35.4598 81.7771 35.0289 81.7771 34.5901V27.065C83.4693 27.7066 84.7306 29.1975 84.9004 30.9761C85.0294 32.3286 84.6016 33.6229 83.6958 34.6184ZM67.6233 4.70975C77.1614 4.70975 84.9224 12.4708 84.9224 22.0089V25.2879C83.5306 24.2342 81.8023 23.5815 79.934 23.5815H79.014C75.1311 23.5815 71.481 22.0702 68.7352 19.3244L67.6233 18.2125L66.5114 19.3244C63.7656 22.0702 60.1155 23.5815 56.2326 23.5815H55.0421V23.5863C53.276 23.6429 51.6483 24.2845 50.3242 25.2879V22.0089C50.3242 12.4708 58.0852 4.70975 67.6233 4.70975ZM51.5508 34.6184C50.645 33.6229 50.2172 32.3302 50.3462 30.9777C50.516 29.1991 51.7773 27.7082 53.4695 27.0665V34.5901C53.4695 35.0289 53.4962 35.4598 53.5355 35.8891C52.7854 35.6328 52.0934 35.2144 51.5508 34.6184ZM56.6148 34.5901V26.7095C60.6879 26.6231 64.5362 25.1794 67.6233 22.5703C70.7104 25.1794 74.5587 26.6231 78.6318 26.7095V34.5901C78.6318 40.659 73.6937 45.5986 67.6233 45.5986C61.5529 45.5986 56.6148 40.659 56.6148 34.5901ZM67.6233 48.7439C69.9209 48.7439 72.0849 48.1825 74.0067 47.2059V49.5727L67.6233 55.9561L61.3327 49.6655V47.2499C63.2309 48.1982 65.3618 48.7439 67.6233 48.7439ZM59.3024 52.0827L65.2942 58.0745L58.6403 63.6196L53.2005 53.8267L59.3024 52.0827ZM23.0984 38.2151L29.9646 46.0626C30.924 47.1587 31.4524 48.5647 31.4524 50.0209V50.3213C31.4524 51.051 31.3077 51.754 31.0592 52.4192L15.6032 36.9617C16.5043 36.4458 17.525 36.1627 18.5755 36.1627C20.3086 36.1627 21.9567 36.9113 23.0984 38.2151ZM57.6952 92.0783C55.5564 94.5206 52.4661 95.9234 49.217 95.9234C47.1427 95.9234 45.1124 95.3526 43.3447 94.2706L39.8063 92.1082C25.8474 83.5766 14.2287 71.5316 6.20819 57.274C5.23315 55.5394 4.71732 53.5704 4.71732 51.581C4.71732 48.2328 6.16259 45.0482 8.68197 42.8434L13.1389 38.9448L29.2286 55.0345L27.8478 56.4169C26.14 58.1232 25.1618 60.4853 25.1618 62.8978C25.1618 65.3102 26.14 67.6723 27.8463 69.3787L31.2621 72.7945C32.992 74.526 35.2943 75.479 37.743 75.479C40.1916 75.479 42.4939 74.526 44.2239 72.7945L45.6062 71.4121L61.6976 87.5035L57.6952 92.0783ZM63.6807 85.0391L48.2231 69.5816C48.8868 69.3346 49.5913 69.1884 50.321 69.1884H50.6198C52.0761 69.1884 53.482 69.7168 54.5782 70.6761L62.4257 77.5423C63.7294 78.6825 64.478 80.3322 64.478 82.0652C64.478 83.1173 64.1934 84.138 63.6807 85.0391ZM96.0238 77.0516H86.5423V66.0431H83.397V77.0516H66.1136C65.6622 76.3644 65.1275 75.7275 64.4969 75.1755L56.6509 68.3093C54.9792 66.8483 52.8388 66.0431 50.6198 66.0431H50.321C47.8755 66.0431 45.5763 66.9945 43.8464 68.7245L42.0017 70.5707C41.2515 71.3193 40.3127 71.7974 39.3172 72.0522V63.7234C39.3172 60.2306 41.662 57.123 45.0196 56.1637L50.0961 54.7137L57.7361 68.4665L66.0507 61.5374V73.9063H69.1959V61.5374L77.5121 68.4665L85.1646 54.6917L90.3214 56.1653C93.679 57.123 96.0238 60.2321 96.0238 63.725V77.0516Z" fill="white"/>
</svg>
