<svg width="68" height="69" viewBox="0 0 68 69" fill="none" xmlns="http://www.w3.org/2000/svg">
<path d="M64.7908 28.8156C64.7295 28.4496 64.5274 28.1233 64.229 27.9085C63.9306 27.6937 63.5603 27.608 63.1996 27.6702C62.8389 27.7324 62.5173 27.9375 62.3056 28.2403C62.094 28.5431 62.0095 28.9188 62.0708 29.2848C62.3833 31.0058 62.5472 32.7512 62.5604 34.5012C62.5604 34.8672 62.7037 35.2182 62.9587 35.477C63.2138 35.7358 63.5597 35.8812 63.9204 35.8812C64.2811 35.8812 64.627 35.7358 64.8821 35.477C65.1371 35.2182 65.2804 34.8672 65.2804 34.5012C65.2819 32.5951 65.1181 30.6925 64.7908 28.8156Z" fill="#24252A"/>
<path d="M47.4644 60.0578C46.386 60.6514 45.268 61.1679 44.1187 61.6034C43.7581 61.6693 43.4379 61.8779 43.2288 62.1833C43.0196 62.4886 42.9386 62.8658 43.0036 63.2318C43.0685 63.5978 43.274 63.9226 43.575 64.1349C43.8759 64.3471 44.2477 64.4293 44.6083 64.3634C44.7705 64.3897 44.9358 64.3897 45.098 64.3634C46.3423 63.8702 47.559 63.3082 48.7428 62.6798C49.0555 62.4996 49.2871 62.2031 49.3886 61.853C49.4901 61.5028 49.4536 61.1264 49.2868 60.803C49.2186 60.6301 49.1166 60.4729 48.9869 60.341C48.8573 60.2091 48.7026 60.1052 48.5324 60.0356C48.3621 59.9659 48.1797 59.932 47.9961 59.9358C47.8126 59.9397 47.6317 59.9812 47.4644 60.0578Z" fill="#24252A"/>
<path d="M56.4404 52.4403C55.6061 53.4908 54.697 54.4779 53.7204 55.3935C53.5247 55.5849 53.39 55.8314 53.3337 56.1012C53.2774 56.3711 53.3021 56.6518 53.4045 56.9073C53.507 57.1628 53.6825 57.3812 53.9085 57.5345C54.1345 57.6877 54.4006 57.7688 54.6724 57.7671C54.8484 57.7696 55.0231 57.7368 55.1865 57.6705C55.3499 57.6042 55.4987 57.5057 55.6244 57.3807C56.6628 56.3781 57.6265 55.2987 58.5076 54.1515C58.6369 54.0125 58.7363 53.8478 58.7996 53.6678C58.8629 53.4879 58.8886 53.2965 58.8752 53.1059C58.8618 52.9153 58.8095 52.7296 58.7216 52.5605C58.6338 52.3915 58.5123 52.2428 58.3649 52.1239C58.2175 52.005 58.0473 51.9185 57.8652 51.8698C57.6831 51.8211 57.493 51.8113 57.307 51.841C57.1209 51.8708 56.943 51.9394 56.7845 52.0425C56.626 52.1457 56.4903 52.2811 56.386 52.4403H56.4404Z" fill="#24252A"/>
<path d="M63.1588 41.4009C62.9874 41.3502 62.8078 41.3342 62.6302 41.3539C62.4527 41.3736 62.2807 41.4286 62.1241 41.5157C61.9675 41.6028 61.8294 41.7204 61.7175 41.8617C61.6057 42.003 61.5224 42.1653 61.4724 42.3393C61.1129 43.6504 60.6584 44.9327 60.1124 46.1757C60.0358 46.3401 59.9926 46.5184 59.9854 46.7001C59.9783 46.8818 60.0073 47.0631 60.0708 47.2332C60.1343 47.4032 60.2309 47.5586 60.3549 47.6898C60.4789 47.8211 60.6277 47.9257 60.7924 47.9973C60.9718 48.0361 61.1571 48.0361 61.3364 47.9973C61.6019 47.9982 61.8618 47.9203 62.0841 47.7732C62.3064 47.6261 62.4815 47.4162 62.5876 47.1693C63.1785 45.816 63.6783 44.4236 64.0836 43.0017C64.1532 42.666 64.0969 42.316 63.926 42.02C63.755 41.7241 63.4815 41.5034 63.1588 41.4009Z" fill="#24252A"/>
<path d="M61.2005 22.0803H61.3909C61.5858 22.0477 61.7715 21.9724 61.9349 21.8595H62.0709C62.2766 21.6639 62.4429 21.4296 62.5605 21.1695L65.2805 12.8895C65.3394 12.7083 65.3626 12.5171 65.3487 12.3268C65.3348 12.1365 65.2841 11.9508 65.1995 11.7803C65.1149 11.6099 64.998 11.4581 64.8555 11.3335C64.7131 11.2089 64.5479 11.1139 64.3693 11.0541C64.1907 10.9943 64.0022 10.9708 63.8146 10.9849C63.6271 10.999 63.4441 11.0505 63.2761 11.1363C63.1082 11.2222 62.9585 11.3408 62.8357 11.4853C62.7129 11.6298 62.6194 11.7975 62.5605 11.9787L60.7925 17.3055C57.8742 12.8084 53.8949 9.12227 49.216 6.58212C44.5371 4.04197 39.3069 2.72826 34.0005 2.76034C25.7045 2.76034 17.7483 6.10436 11.8822 12.0568C6.01602 18.0092 2.72046 26.0824 2.72046 34.5003C2.72046 42.9183 6.01602 50.9915 11.8822 56.9439C17.7483 62.8963 25.7045 66.2403 34.0005 66.2403C35.2547 66.2364 36.5078 66.1627 37.7541 66.0195C38.1128 65.9712 38.4388 65.7826 38.6624 65.4938C38.886 65.2051 38.9895 64.8391 38.9509 64.4739C38.9035 64.1118 38.7165 63.7836 38.431 63.5611C38.1455 63.3386 37.7847 63.2401 37.4277 63.2871C33.57 63.741 29.6616 63.3918 25.9415 62.2608C22.2214 61.1299 18.7677 59.241 15.7914 56.7095C12.8152 54.1781 10.3791 51.0574 8.63187 47.5381C6.88468 44.0188 5.86318 40.175 5.62981 36.2415C5.39644 32.308 5.95611 28.3675 7.27461 24.661C8.5931 20.9544 10.6427 17.5597 13.2982 14.6842C15.9536 11.8088 19.1591 9.51307 22.7186 7.93744C26.2782 6.3618 30.117 5.53934 34.0005 5.52034C38.9535 5.47427 43.8353 6.71891 48.1786 9.13515C52.522 11.5514 56.1815 15.0583 58.8069 19.3203H53.0405C52.6798 19.3203 52.3338 19.4657 52.0788 19.7245C51.8237 19.9833 51.6805 20.3343 51.6805 20.7003C51.6805 21.0663 51.8237 21.4173 52.0788 21.6761C52.3338 21.9349 52.6798 22.0803 53.0405 22.0803H61.2005Z" fill="#24252A"/>
<path d="M32.6405 15.1808V34.7768L19.4757 47.3072C19.3491 47.4331 19.2484 47.5834 19.1798 47.7493C19.1111 47.9151 19.0757 48.0933 19.0757 48.2732C19.0757 48.4531 19.1111 48.6312 19.1798 48.7971C19.2484 48.963 19.3491 49.1133 19.4757 49.2392C19.5906 49.3747 19.7323 49.4841 19.8917 49.5602C20.051 49.6363 20.2244 49.6774 20.4005 49.6808C20.5728 49.6861 20.7442 49.6544 20.9036 49.5878C21.063 49.5212 21.2067 49.4212 21.3253 49.2944L34.9253 36.3776C35.063 36.2526 35.173 36.0995 35.248 35.9282C35.323 35.7569 35.3614 35.5714 35.3605 35.384V15.1808C35.3605 14.8148 35.2172 14.4638 34.9622 14.205C34.7071 13.9462 34.3612 13.8008 34.0005 13.8008C33.6398 13.8008 33.2939 13.9462 33.0389 14.205C32.7838 14.4638 32.6405 14.8148 32.6405 15.1808Z" fill="#24252A"/>
</svg>
