<svg width="61" height="61" viewBox="0 0 61 61" fill="none" xmlns="http://www.w3.org/2000/svg">
<circle cx="30.5" cy="30.5" r="30.5" fill="#610DFF"/>
<path fill-rule="evenodd" clip-rule="evenodd" d="M26.2367 38.7282C34.9196 38.7282 39.6689 31.6452 39.6689 25.5035C39.6689 25.3019 39.6689 25.1018 39.6551 24.9024C40.5789 24.2455 41.3762 23.4297 42.0102 22.4964C41.1496 22.8724 40.2349 23.1191 39.2996 23.2278C40.2844 22.6467 41.0219 21.7338 41.3751 20.6566C40.4478 21.198 39.4342 21.5801 38.3769 21.7852C36.589 19.9139 33.5988 19.8232 31.697 21.5835C30.4717 22.7185 29.9505 24.4107 30.3314 26.0249C26.5358 25.8368 22.9992 24.0721 20.6015 21.1689C19.3486 23.2928 19.9894 26.0088 22.0638 27.3726C21.3125 27.351 20.5773 27.1519 19.9204 26.7917V26.8507C19.9216 29.0629 21.5058 30.9677 23.7079 31.4061C23.013 31.593 22.2835 31.6201 21.5771 31.4853C22.195 33.3792 23.9679 34.6764 25.987 34.7138C24.3153 36.0074 22.2502 36.7098 20.124 36.7075C19.749 36.7064 19.3739 36.6848 19 36.6407C21.1595 38.0045 23.6711 38.7282 26.2367 38.7248" fill="white"/>
</svg>
