<svg width="92" height="92" viewBox="0 0 92 92" fill="none" xmlns="http://www.w3.org/2000/svg">
<path d="M27.4936 24.3484L25.1562 20.7546C8.98438 31.625 0 44.8328 0 55.7031C0 66.2141 7.728 71.1563 14.2859 71.1563C22.5515 71.1563 28.3906 64.147 28.3906 56.7813C28.3906 50.5828 24.4375 45.2813 19.136 43.3033C17.6094 42.7628 16.1719 42.3143 16.1719 39.7095C16.1719 36.386 18.5984 31.4468 27.4936 24.3484ZM63.1609 24.3484L60.8235 20.7546C44.8299 31.625 35.6673 44.8328 35.6673 55.7031C35.6673 66.2141 43.5735 71.1563 50.1314 71.1563C58.4861 71.1563 64.4173 64.147 64.4173 56.7813C64.4173 50.5828 60.375 45.2813 54.8924 43.3033C53.3657 42.7628 52.0174 42.3143 52.0174 39.7095C52.0174 36.386 54.533 31.4439 63.158 24.3455L63.1609 24.3484Z" fill="black"/>
</svg>
