<svg width="92" height="92" viewBox="0 0 92 92" fill="none" xmlns="http://www.w3.org/2000/svg">
<path d="M27.4936 24.3481L25.1562 20.7544C8.98438 31.6248 0 44.8325 0 55.7029C0 66.2139 7.728 71.156 14.2859 71.156C22.5515 71.156 28.3906 64.1468 28.3906 56.781C28.3906 50.5825 24.4375 45.281 19.136 43.303C17.6094 42.7625 16.1719 42.314 16.1719 39.7093C16.1719 36.3858 18.5984 31.4465 27.4936 24.3481ZM63.1609 24.3481L60.8235 20.7544C44.8299 31.6248 35.6673 44.8325 35.6673 55.7029C35.6673 66.2139 43.5735 71.156 50.1314 71.156C58.4861 71.156 64.4173 64.1468 64.4173 56.781C64.4173 50.5825 60.375 45.281 54.8924 43.303C53.3657 42.7625 52.0174 42.314 52.0174 39.7093C52.0174 36.3858 54.533 31.4436 63.158 24.3453L63.1609 24.3481Z" fill="#6967FF"/>
</svg>
