<svg width="86" height="44" viewBox="0 0 86 44" fill="none" xmlns="http://www.w3.org/2000/svg">
<g clip-path="url(#clip0_2830_3292)">
<path d="M85.7355 25.344C85.5589 25.344 85.3824 25.432 85.3824 25.608C85.3824 25.608 85.3824 25.696 85.3824 25.784C85.1175 26.752 84.9409 27.632 84.676 28.6C84.0579 30.976 83.3516 33.44 82.5569 35.816C82.2037 36.872 81.7622 37.928 81.1442 38.896C80.9676 39.16 80.7027 39.512 80.4378 39.688C80.0846 39.952 79.8197 39.952 79.6431 39.512C79.3782 39.16 79.2899 38.72 79.1134 38.368C78.4953 36.432 78.2304 34.408 77.8772 32.472C77.6123 30.536 77.3474 28.6 77.1709 26.576C76.9943 24.464 76.906 22.352 76.906 20.24C76.906 20.064 76.906 19.976 77.0826 19.8C78.5836 18.216 79.9963 16.544 81.3208 14.872C82.5569 13.288 83.6164 11.528 84.4111 9.68003C85.0292 8.18403 85.4706 6.68803 85.2941 5.01603C85.2058 4.31203 85.1175 3.60803 84.676 2.90403C84.3228 2.28804 83.793 1.93604 82.9984 1.93604C82.5569 1.93604 82.1154 2.02404 81.7622 2.11204C80.7027 2.46404 79.8197 3.16803 79.0251 4.04803C77.7006 5.36803 76.8177 6.86404 76.1113 8.36003C75.0518 10.56 74.2571 12.936 73.7273 15.312C73.1975 17.424 72.9327 19.536 72.7561 21.648C72.6678 22.968 72.6678 24.2 72.6678 25.432C72.6678 25.52 72.6678 25.608 72.6678 25.696C72.138 27.016 71.6082 28.424 70.9902 29.656C70.4604 30.712 69.9306 31.768 69.1359 32.648C68.8711 33 68.6062 33.264 68.253 33.44C67.7232 33.704 67.1051 33.616 66.752 33.088C66.5754 32.824 66.4871 32.472 66.3988 32.12C66.2222 30.976 66.3105 29.832 66.3988 28.688C66.4871 27.368 66.6637 26.136 66.752 24.904C66.752 24.288 66.752 23.672 66.4871 23.144C66.0456 22.264 64.986 21.736 64.1031 21.912C63.6616 22 63.3967 22.264 63.3967 22.616C63.3967 23.232 63.3084 23.936 63.2201 24.552C63.1318 25.608 62.9552 26.752 62.867 27.808C62.7787 28.6 62.7787 28.6 62.2489 29.128C62.1606 29.216 62.0723 29.304 61.984 29.392C60.8361 30.536 59.6 31.504 58.4522 32.56C58.3639 32.648 58.2756 32.56 58.2756 32.472C58.0107 31.944 57.6575 31.416 57.3926 30.8C56.598 29.48 55.715 28.248 54.832 27.016C54.3906 26.312 53.9491 25.608 53.6842 24.816C53.5076 24.288 53.5076 23.76 53.7725 23.32C54.3906 22.264 55.2735 21.56 56.5097 21.296C57.3043 21.12 57.9224 21.296 58.4522 21.912C58.5405 22 58.6288 22.088 58.8054 22.264C58.8936 22.352 58.9819 22.352 59.1585 22.352C59.6 22.352 59.9532 21.912 59.8649 21.472C59.7766 21.12 59.6 20.856 59.3351 20.592C58.3639 19.624 57.1277 19.184 55.8033 19.184C54.1257 19.184 52.713 19.8 51.3885 20.944C50.1524 22.088 49.7992 23.408 50.329 24.992C50.6821 25.872 51.1236 26.752 51.6534 27.544C51.7417 27.632 51.7417 27.72 51.6534 27.896C51.2119 29.216 50.6821 30.536 50.0641 31.768C49.5343 32.824 49.0045 33.968 48.2099 34.936C47.945 35.288 47.5918 35.64 47.1503 35.904C46.8854 36.08 46.6205 36.08 46.3557 36.08C45.8259 35.992 45.561 35.64 45.3844 35.2C45.1195 34.584 45.1195 33.88 45.1195 33.176C45.1195 31.944 45.2961 30.712 45.4727 29.568C45.561 29.216 45.6493 28.776 45.6493 28.424C45.7376 27.632 45.3844 26.928 44.9429 26.312C44.9429 26.224 44.8546 26.224 44.8546 26.136C45.1195 25.696 44.9429 25.256 44.678 24.816C44.06 24.112 43.3536 23.76 42.3824 23.672C41.5877 23.672 40.8813 23.672 40.175 23.936C39.0271 24.288 38.0559 24.816 37.5261 25.96C36.7314 27.632 36.6431 29.392 37.5261 31.152C37.5261 31.24 37.6144 31.328 37.6144 31.416C36.9963 33.968 36.4665 36.52 35.6719 38.984C35.4953 39.6 35.2304 40.216 34.9655 40.832C34.8772 41.008 34.7889 41.184 34.6123 41.096C34.4357 41.096 34.4357 40.832 34.4357 40.656C34.3474 40.04 34.4357 39.424 34.524 38.808C34.7006 37.136 34.9655 35.552 35.1421 33.88C35.3187 32.208 35.4953 30.448 35.407 28.776C35.407 27.808 35.3187 26.84 35.0538 25.96C34.8772 25.432 34.7006 24.992 34.2592 24.552C33.7294 24.024 33.023 23.936 32.3166 24.112C31.3454 24.288 30.5507 24.64 29.6678 25.08C29.5795 25.08 29.4912 25.168 29.4912 25.168C29.4912 25.08 29.4912 24.992 29.4912 24.992C29.6678 23.76 29.9327 22.528 29.8444 21.208C29.8444 20.592 29.7561 20.064 29.4912 19.536C29.138 18.832 28.4316 18.656 27.8136 19.272C27.4604 19.536 27.2838 19.976 27.1072 20.328C26.5774 21.56 26.4891 22.88 26.754 24.2C26.8423 24.64 26.9306 25.168 27.2838 25.52C27.5487 25.872 27.8136 26.048 28.3433 26.048C28.6965 26.048 29.0497 25.96 29.4029 25.872C29.8444 25.696 30.2858 25.432 30.8156 25.256C31.2571 25.08 31.2571 25.08 31.2571 25.608L30.9039 29.744C30.8156 31.064 30.7273 32.384 30.639 33.616C30.4624 35.376 30.4624 37.136 30.8156 38.896C30.9922 39.776 31.1688 40.656 31.6986 41.448C32.1401 42.064 32.6698 42.504 33.3762 42.768C34.3474 43.032 34.7006 42.856 35.2304 42.064C35.6719 41.36 35.9368 40.656 36.2017 39.952C36.9963 37.752 37.6144 35.464 38.1442 33.088C38.2325 32.736 38.3208 32.384 38.409 32.032C38.4973 32.12 38.5856 32.208 38.6739 32.296C39.1154 32.736 39.6452 33 40.2633 32.824C40.5281 32.736 40.8813 32.648 41.0579 32.472C41.4994 32.12 41.8526 31.68 42.2058 31.24C42.2058 31.152 42.2941 31.152 42.3824 31.064C42.3824 32.032 42.5589 33 42.7355 33.88C43.0004 34.848 43.3536 35.728 43.9717 36.432C44.8546 37.488 46.444 37.84 47.7684 36.872C48.2982 36.432 48.7396 35.992 49.1811 35.464C50.0641 34.232 50.7704 32.912 51.3885 31.592C51.83 30.624 52.1832 29.568 52.5364 28.6C52.6247 28.6 52.6247 28.688 52.6247 28.688C53.2427 29.568 53.9491 30.448 54.5672 31.328C55.3618 32.296 56.0682 33.352 56.6863 34.408C56.7745 34.496 56.7745 34.584 56.6863 34.672C56.2448 35.112 55.715 35.552 55.2735 35.992C54.832 36.432 54.4789 36.872 54.1257 37.312C53.2427 38.544 53.331 39.776 53.8608 41.008C54.4789 42.328 55.8916 42.768 57.216 41.976C57.8341 41.536 58.3639 41.008 58.7171 40.392C59.5117 39.16 59.8649 37.752 59.7766 36.344C59.7766 35.376 59.4234 34.408 59.0702 33.528C59.0702 33.44 59.0702 33.352 59.1585 33.264C60.483 32.12 61.8957 30.976 63.1318 29.656C63.1318 29.832 63.1318 29.92 63.1318 30.008C63.1318 30.8 63.2201 31.592 63.3967 32.384C63.6616 33.44 64.1031 34.408 64.986 35.2C65.5158 35.728 66.2222 36.08 67.0168 35.904C67.5466 35.816 67.9881 35.64 68.4296 35.288C69.1359 34.76 69.6657 34.144 70.1072 33.528C71.0785 32.208 71.7848 30.712 72.4029 29.128C72.5795 28.6 72.8444 28.072 73.021 27.544C73.021 27.632 73.021 27.72 73.021 27.72C73.1092 29.04 73.1975 30.36 73.3741 31.68C73.5507 33.352 73.9039 35.024 74.4337 36.608C74.8752 37.928 75.3166 39.072 76.1996 40.216C76.8177 41.096 77.6123 41.712 78.7602 41.976C79.7314 42.24 80.4378 41.976 81.0559 41.184C81.409 40.744 81.6739 40.304 81.9388 39.864C82.6452 38.456 83.2633 37.048 83.7047 35.552C84.5877 32.912 85.2941 30.184 85.9121 27.544C86.0004 27.016 86.177 26.576 86.2653 26.048C86.0887 25.608 85.9121 25.344 85.7355 25.344ZM77.1709 16.456C77.4357 14.52 77.8772 12.584 78.4953 10.736C78.9368 9.41603 79.4665 8.09603 80.2612 6.95203C80.7027 6.24803 81.3208 5.63203 82.0271 5.28003C82.292 5.19203 82.5569 5.10403 82.8218 5.01603C83.6164 4.92803 84.4111 5.72003 84.3228 6.51203C84.2345 7.83203 83.7047 9.06404 83.175 10.208C82.1154 12.32 80.7027 14.256 79.1134 16.104C78.4953 16.896 77.8772 17.6 77.1709 18.304C77.0826 18.392 77.0826 18.392 76.906 18.568C76.9943 17.864 76.9943 17.16 77.1709 16.456ZM28.8731 22.704C28.7848 23.496 28.6965 24.288 28.5199 24.992C28.5199 25.168 28.4316 25.256 28.255 25.256C27.9019 25.256 27.637 25.08 27.4604 24.816C27.2838 24.376 27.1955 24.024 27.1072 23.584C27.1072 23.408 27.1072 23.144 27.1072 22.968C27.1072 22 27.2838 21.12 27.7253 20.24C27.7253 20.152 27.8136 20.064 27.9019 19.976C28.1667 19.712 28.4316 19.712 28.6082 19.976C28.7848 20.24 28.8731 20.504 28.8731 20.768C28.9614 21.472 28.9614 22.088 28.8731 22.704ZM42.4706 27.456C42.0292 28.688 41.4994 29.92 40.793 31.064C40.6164 31.328 40.5281 31.504 40.2633 31.68C39.9984 31.856 39.8218 31.856 39.6452 31.504C39.5569 31.328 39.4686 31.064 39.4686 30.888C39.3803 29.656 39.4686 28.424 39.9984 27.28C40.2633 26.752 40.5281 26.224 41.0579 25.872C41.7643 25.344 42.8238 25.344 43.5302 25.784C42.9121 26.224 42.7355 26.84 42.4706 27.456ZM56.1565 39.776C56.0682 39.952 55.9799 40.04 55.8033 40.216C55.4501 40.48 55.0086 40.48 54.6555 40.128C54.3023 39.864 54.214 39.424 54.1257 38.984C54.0374 38.368 54.214 37.84 54.4789 37.4C55.0086 36.608 55.6267 35.992 56.2448 35.376C56.3331 35.288 56.5097 35.024 56.598 35.112C56.7745 35.112 56.7746 35.376 56.7746 35.552C56.9511 35.992 57.0394 36.432 57.0394 37.048C57.0394 37.84 56.6863 38.808 56.1565 39.776Z" fill="#006ED2"/>
<path d="M24.2808 25.52C23.4861 24.2 22.4266 23.232 21.0139 22.616C20.9256 22.528 20.9256 22.528 21.0139 22.44C21.1904 22 21.367 21.56 21.5436 21.032C21.9851 19.624 22.25 18.128 22.4266 16.544C22.5149 15.488 22.5149 14.344 22.1617 13.288C21.8085 12.232 21.367 11.264 20.5724 10.472C19.5128 9.32799 18.1001 8.88799 16.5108 8.97599C14.7449 9.06399 13.0672 9.67999 11.6545 10.736C10.595 11.528 9.8003 12.496 9.09394 13.552C9.00564 13.64 8.91735 13.728 8.82905 13.64C8.56416 13.464 8.21098 13.288 7.8578 13.112C6.53336 12.672 5.29722 12.848 4.06108 13.376C2.64835 13.904 1.5888 14.96 0.882439 16.192C0.529257 16.72 0.26437 17.336 -0.000517424 17.864C-0.0888131 18.128 -0.000517428 18.392 0.176074 18.48C0.352665 18.568 0.617552 18.48 0.794144 18.216C0.882439 18.128 0.882439 18.04 0.882439 18.04C0.882439 17.864 0.970735 17.688 1.05903 17.512C1.41221 16.72 1.85369 16.016 2.38347 15.4C2.73665 14.96 3.17813 14.608 3.61961 14.344C4.41427 13.904 5.20893 13.992 5.827 14.696C6.44507 15.4 6.79825 16.192 7.15143 17.072C7.15143 17.16 7.15143 17.16 7.15143 17.248C6.35677 19.184 5.7387 21.12 5.20893 23.144C4.41427 26.136 3.88449 29.392 3.7962 32.648C3.7079 33.88 3.7079 35.112 3.97279 36.344C4.14938 37.048 4.32597 37.664 4.76745 38.28C5.12063 38.632 5.47381 38.896 6.00359 38.896C7.06314 38.896 7.94609 38.456 8.65246 37.752C9.53542 36.96 10.0652 35.992 10.5067 34.936C11.5662 32.472 12.0077 30.008 12.2726 27.368C12.4492 25.872 12.4492 24.376 12.2726 22.88C12.1843 21.208 11.9194 19.624 11.4779 17.952C11.1247 16.72 10.595 15.576 9.8003 14.608C9.71201 14.52 9.8003 14.432 9.8003 14.432C10.3301 13.64 10.9481 12.848 11.6545 12.144C12.7141 11.088 13.9502 10.296 15.5395 10.032C15.981 9.94399 16.4225 9.94399 16.864 10.032C17.5703 10.208 18.0118 10.648 18.365 11.264C18.8065 12.056 18.9831 13.024 19.0714 13.904C19.2479 15.136 19.2479 16.368 19.1596 17.688C19.0714 19.184 18.8065 20.68 18.365 22.176C18.2767 22.352 18.1884 22.44 18.0118 22.44C16.5991 22.704 15.4512 23.232 14.48 24.2C14.1268 24.552 13.7736 24.992 13.6853 25.52C13.5087 26.224 14.0385 26.928 14.7449 26.928C15.8044 26.928 16.7757 26.752 17.7469 26.224C18.8948 25.608 19.7777 24.728 20.4841 23.584C20.5724 23.496 20.5724 23.496 20.6607 23.584C21.1022 24.024 21.367 24.552 21.5436 25.08C21.8968 26.048 22.0734 27.016 22.1617 27.984C22.3383 29.568 22.25 31.064 21.8968 32.56C21.8968 32.648 21.8085 32.736 21.7202 32.736C20.9256 33.088 20.1309 33.528 19.3362 33.968C18.8065 34.232 18.2767 34.584 17.7469 34.848C17.7469 34.672 17.6586 34.496 17.5703 34.408C17.2171 33.528 16.6874 32.912 15.8044 32.824C15.098 32.736 14.3917 32.912 13.7736 33.264C12.7141 33.968 12.096 34.936 11.7428 36.08C11.4779 36.96 11.4779 37.84 11.5662 38.632C11.7428 39.776 12.0077 40.92 12.6258 41.888C13.3321 42.944 14.2151 43.648 15.4512 43.736C16.4225 43.824 17.3937 43.648 18.2767 43.296C19.7777 42.68 20.9256 41.624 21.8968 40.48C23.133 38.896 24.0159 37.224 24.7223 35.376C25.3403 33.792 25.7818 32.208 25.7818 30.624C25.7818 28.864 25.252 27.104 24.2808 25.52ZM8.65246 32.12C8.47587 33.616 8.29928 35.112 7.7695 36.52C7.59291 37.048 7.32802 37.576 6.97484 37.928C6.35677 38.544 5.7387 38.456 5.29722 37.84C4.94404 37.312 4.76745 36.696 4.59086 36.08C4.32597 34.848 4.32597 33.528 4.41427 32.296C4.67915 28.072 5.56211 23.848 6.97484 19.888C7.15143 19.36 7.41632 18.92 7.59291 18.48C7.8578 19.184 8.03439 19.976 8.12269 20.68C8.47587 22.792 8.65246 24.904 8.74076 27.016C8.82905 28.776 8.82905 30.448 8.65246 32.12ZM16.3342 25.872C15.8927 26.224 15.3629 26.488 14.8332 26.488C14.3917 26.488 14.1268 26.224 14.2151 25.784C14.3034 25.52 14.3917 25.256 14.5683 24.992C15.3629 23.848 16.5108 23.144 17.9235 22.88C18.0118 22.88 18.1001 22.88 18.1001 22.88C17.6586 23.936 17.2171 25.08 16.3342 25.872ZM16.9523 37.752C16.7757 38.192 16.5108 38.544 16.0693 38.632C15.6278 38.72 15.4512 38.544 15.4512 38.192C15.4512 37.928 15.5395 37.752 15.6278 37.576C15.981 36.96 16.5991 36.52 17.2171 36.08C17.2171 36.608 17.2171 37.224 16.9523 37.752ZM21.4553 34.056C20.9256 35.992 20.2192 37.928 19.0714 39.688C18.5416 40.48 18.0118 41.184 17.3054 41.712C16.6874 42.152 15.981 42.504 15.1863 42.504C14.3034 42.504 13.597 42.064 13.1555 41.36C12.7141 40.656 12.4492 39.952 12.3609 39.16C12.1843 37.928 12.1843 36.784 12.7141 35.64C13.0672 35.024 13.4204 34.408 14.0385 33.968C15.0097 33.264 16.5991 33.44 17.0405 35.024C17.1288 35.464 17.1288 35.464 16.7757 35.728C16.1576 36.168 15.6278 36.608 15.1863 37.136C14.9215 37.4 14.7449 37.752 14.7449 38.192C14.7449 38.72 15.0097 39.072 15.5395 39.16C16.2459 39.248 16.7757 39.072 17.2171 38.456C17.5703 38.016 17.7469 37.4 17.7469 36.784C17.7469 36.432 17.7469 36.08 17.7469 35.728C17.7469 35.64 17.7469 35.552 17.8352 35.552C18.9831 34.76 20.2192 34.144 21.4553 33.528H21.5436C21.5436 33.704 21.5436 33.88 21.4553 34.056Z" fill="#006ED2"/>
<path d="M56.6861 0C56.5978 0 56.5978 0 56.5095 0.088C55.9797 0.352 55.45 0.704 54.8319 0.968C54.7436 1.056 54.7436 1.144 54.7436 1.32C54.7436 2.288 54.7436 3.256 54.7436 4.136C54.7436 4.224 54.7436 4.224 54.7436 4.312C54.3904 3.96 53.9489 3.608 53.5957 3.256C53.5075 3.168 53.4192 3.08 53.3309 3.08C52.8011 3.08 52.2713 3.08 51.7415 3.08C51.6532 3.08 51.5649 3.08 51.5649 3.256C51.5649 3.608 51.5649 3.96 51.5649 4.4C51.5649 4.576 51.6532 4.576 51.7415 4.576C52.0947 4.576 52.4479 4.576 52.8011 4.576C52.8894 4.576 52.9777 4.576 52.9777 4.752C52.9777 4.928 52.9777 5.104 52.9777 5.28C52.9777 5.456 52.8894 5.544 52.8011 5.632C51.5649 6.16 50.0639 5.632 49.9756 4.048C49.8873 2.816 50.7703 1.672 52.183 1.936C52.6245 2.024 53.066 2.2 53.4192 2.464C53.5075 2.464 53.5075 2.552 53.5957 2.464C53.9489 2.024 54.3021 1.672 54.6553 1.232C54.7436 1.144 54.6553 1.144 54.6553 1.056C53.684 0.352 52.8894 0 51.9181 0C49.181 0 46.3555 0 43.6183 0C43.4417 0 43.4417 0.088 43.4417 0.264V6.424C43.4417 6.512 43.4417 6.6 43.4417 6.6C43.1769 6.248 42.912 5.984 42.6471 5.632C42.5588 5.456 42.4705 5.456 42.2056 5.456C41.6758 5.456 41.1461 5.456 40.528 5.456C40.3514 5.456 40.3514 5.368 40.3514 5.28C40.3514 3.608 40.3514 2.024 40.3514 0.352C40.3514 0.264 40.3514 0.176 40.3514 0.176C40.3514 0.176 40.3514 0.176 40.2631 0.176C39.645 0.792 39.1153 1.32 38.4972 1.848C38.4089 1.936 38.4089 2.024 38.4089 2.112V6.336C38.4089 6.424 38.4089 6.512 38.4089 6.512C38.3206 6.512 38.3206 6.424 38.3206 6.424C38.0557 6.16 37.7908 5.896 37.6142 5.632C37.5259 5.456 37.4376 5.456 37.1727 5.456C36.643 5.456 36.2015 5.456 35.6717 5.456C35.4951 5.456 35.4951 5.368 35.4951 5.28C35.4951 3.608 35.4951 2.024 35.4951 0.352V0C34.7888 0.616 34.1707 1.232 33.5526 1.848C32.4048 0 30.0208 -0.352 28.3432 0.44C26.9304 1.144 25.606 3.256 26.8422 5.544H24.7231C24.6348 5.544 24.5465 5.544 24.4582 5.544C24.105 5.544 23.7518 5.368 23.4869 5.104C22.9571 4.576 22.8688 3.872 23.0454 3.168C23.222 2.376 23.7518 1.848 24.5465 1.848C24.8996 1.848 25.2528 1.848 25.606 1.848C25.6943 1.848 25.7826 1.848 25.8709 1.76C26.2241 1.232 26.5773 0.704 26.9304 0.176L27.0187 0.088C26.1358 0.088 25.3411 0.088 24.4582 0.088C22.2508 0.176 20.7498 2.024 21.0146 4.312C21.1912 6.16 22.7806 7.48 24.7231 7.48C26.6656 7.48 28.5198 7.48 30.4623 7.48C31.7867 7.48 32.8463 6.952 33.6409 5.808C33.6409 5.808 33.6409 5.72 33.7292 5.72C33.7292 6.16 33.7292 6.512 33.7292 6.952C33.7292 7.128 33.8175 7.216 33.9941 7.216C39.1153 7.216 44.1481 7.216 49.2693 7.216H49.4458C49.4458 7.128 49.3576 7.128 49.3576 7.04C49.0044 6.6 48.6512 6.16 48.2097 5.632C48.1214 5.544 48.0331 5.456 47.9448 5.456C47.2385 5.456 46.5321 5.456 45.8257 5.456C45.7374 5.456 45.6491 5.456 45.6491 5.28C45.6491 5.016 45.6491 4.752 45.6491 4.488C45.6491 4.312 45.7374 4.312 45.8257 4.312C46.0023 4.312 46.1789 4.312 46.3555 4.312C46.4438 4.312 46.5321 4.312 46.6204 4.136C46.8853 3.696 47.1502 3.256 47.415 2.904C47.415 2.904 47.5033 2.816 47.5033 2.728C46.9736 2.728 46.3555 2.728 45.8257 2.728C45.7374 2.728 45.6491 2.728 45.6491 2.552C45.6491 2.288 45.6491 2.024 45.6491 1.76C45.6491 1.672 45.6491 1.584 45.8257 1.584H48.7395C48.5629 1.848 48.4746 2.112 48.3863 2.376C48.298 2.64 48.2097 2.904 48.2097 3.168C48.1214 4.664 48.5629 5.896 49.8873 6.688C51.2118 7.48 52.6245 7.48 54.0372 6.864C54.3904 6.688 54.7436 6.512 55.0968 6.248C55.0968 6.512 55.0968 6.688 55.0968 6.952C55.0968 7.04 55.0968 7.04 55.1851 7.04C55.45 7.04 55.7148 7.04 55.8914 7.04C55.9797 7.04 56.068 7.04 56.068 6.864C56.3329 6.16 56.5978 5.544 56.951 4.928C57.0393 4.84 57.0393 4.752 57.0393 4.576V0.264C56.6861 0.176 56.7744 0.088 56.6861 0ZM31.875 3.96C31.7867 4.752 31.2569 5.368 30.5506 5.544C29.3144 5.896 28.0783 4.752 28.2549 3.432C28.3432 2.552 28.873 2.024 29.6676 1.848C29.7559 1.848 29.8442 1.848 29.9325 1.848C31.1686 1.76 32.0516 2.816 31.875 3.96Z" fill="#3C477F"/>
<path d="M69.8422 2.728C69.6656 3.256 69.4008 3.696 69.2242 4.224C69.2242 4.312 69.1359 4.312 69.0476 4.312C68.9593 4.312 68.7827 4.312 68.6944 4.312C68.6061 4.312 68.5178 4.312 68.5178 4.488C68.5178 4.752 68.5178 5.016 68.5178 5.28C68.5178 5.368 68.5178 5.456 68.6944 5.456C69.3125 5.456 69.9305 5.456 70.5486 5.456C70.7252 5.456 70.7252 5.544 70.7252 5.632C70.7252 6.072 70.7252 6.512 70.7252 6.952C70.7252 7.128 70.6369 7.128 70.5486 7.128C69.3125 7.128 68.0763 7.128 66.7519 7.128C66.5753 7.128 66.5753 7.04 66.5753 6.952C66.5753 5.28 66.5753 3.696 66.5753 2.024C66.5753 1.76 66.5753 1.76 66.3104 1.76C65.9572 1.76 65.5157 1.76 65.1626 1.76C64.986 1.76 64.986 1.76 64.986 1.936C64.986 3.608 64.986 5.28 64.986 6.952C64.986 7.128 64.8977 7.216 64.7211 7.216C64.2796 7.304 64.103 7.128 63.9264 6.688C63.6615 5.984 63.3084 5.192 62.9552 4.488C62.8669 4.4 62.8669 4.312 62.8669 4.136C62.8669 3.432 62.8669 2.64 62.8669 1.936C62.8669 1.76 62.8669 1.76 62.6903 1.76C62.5137 1.76 62.2488 1.848 62.0722 1.76C61.8956 1.672 61.8956 1.408 61.8073 1.232C61.8073 0.88 61.719 0.528 61.5424 0.176C61.4541 0 61.5424 0 61.6307 0C62.2488 0 62.9552 0 63.5732 0C65.6923 0 67.8114 0 69.9305 0C70.1071 0 70.1954 0.088 70.1954 0.176C70.2837 0.616 70.4603 1.056 70.6369 1.496C70.6369 1.672 70.6369 1.672 70.5486 1.672C69.9305 1.672 69.3125 1.672 68.6944 1.672C68.6061 1.672 68.5178 1.672 68.5178 1.848C68.5178 2.112 68.5178 2.376 68.5178 2.552C68.5178 2.728 68.6061 2.728 68.6944 2.728C69.0476 2.728 69.489 2.728 69.8422 2.728Z" fill="#3C477F"/>
<path d="M63.9247 7.04C62.9535 4.752 61.9822 2.464 61.011 0.176C61.011 0 60.9227 0 60.8344 0C60.3046 0 59.7748 0 59.245 0C59.0685 0 59.0685 0 58.9802 0.176C58.0972 2.2 57.2143 4.224 56.4196 6.336C56.3313 6.6 56.1547 6.864 56.0664 7.216H58.0972C58.1855 7.216 58.1855 7.128 58.2738 7.04C58.3621 6.688 58.5387 6.336 58.7153 6.072C58.7153 5.984 58.8036 5.984 58.8919 5.984H61.3641C61.4524 5.984 61.5407 5.984 61.5407 6.16C61.5407 6.336 61.7173 6.688 61.8056 7.04C61.8056 7.128 61.8939 7.216 62.0705 7.216C62.6886 7.216 63.2184 7.216 63.8364 7.216C64.013 7.128 64.013 7.128 63.9247 7.04ZM59.3333 4.4C59.245 4.4 59.245 4.4 59.245 4.312C59.5099 3.696 59.7748 3.08 60.0397 2.464C60.3046 3.168 60.5695 3.784 60.8344 4.488C60.3046 4.4 59.7748 4.4 59.3333 4.4Z" fill="#3C477F"/>
<path d="M43 10.736C43 9.94397 43 9.23997 43 8.44797C43 8.27197 43 8.27197 43.1766 8.27197C43.7064 8.27197 44.1478 8.27197 44.6776 8.27197C44.8542 8.27197 44.8542 8.35997 44.8542 8.44797C44.8542 9.85597 44.8542 11.176 44.8542 12.584C44.8542 13.024 45.0308 13.288 45.384 13.464C45.7372 13.64 46.0903 13.552 46.4435 13.376C46.7084 13.2 46.7967 12.936 46.7967 12.584C46.7967 11.264 46.7967 9.94397 46.7967 8.62397C46.7967 8.44797 46.885 8.35997 47.0616 8.35997C47.5914 8.35997 48.0329 8.35997 48.5626 8.35997C48.6509 8.35997 48.7392 8.35997 48.7392 8.53597C48.7392 10.032 48.7392 11.528 48.7392 13.024C48.7392 14.344 47.5914 15.488 46.3552 15.576C45.6489 15.664 44.9425 15.576 44.3244 15.136C43.5298 14.608 43.0883 13.816 43.0883 12.848C43 12.144 43 11.44 43 10.736Z" fill="#F8C728"/>
<path d="M43.617 15.4C42.9106 15.4 42.2925 15.4 41.7628 15.4C41.4096 15.4 41.0564 15.312 40.7032 15.224C38.2309 14.52 37.2597 11.44 38.9373 9.50397C39.6437 8.62397 40.6149 8.27197 41.6745 8.27197C41.8511 8.27197 42.0276 8.27197 42.2042 8.27197C42.2925 8.27197 42.3808 8.27197 42.3808 8.44797C42.3808 8.97597 42.3808 9.50397 42.3808 10.032C42.3808 10.12 42.3808 10.208 42.2042 10.208C42.0276 10.208 41.8511 10.208 41.6745 10.208C40.7915 10.296 39.9968 11.088 40.0851 11.968C40.0851 12.936 40.8798 13.728 41.8511 13.64C42.2925 13.64 42.5574 13.728 42.8223 14.168C42.9106 14.608 43.2638 14.96 43.617 15.4Z" fill="#F8C728"/>
<path d="M49.2686 13.64C49.2686 13.112 49.2686 12.584 49.2686 11.968C49.2686 11.792 49.3569 11.704 49.5335 11.704C49.7983 11.704 50.0632 11.704 50.2398 11.704C50.6813 11.704 51.0345 11.352 51.0345 10.912C51.0345 10.472 50.6813 10.12 50.2398 10.032C49.9749 10.032 49.6218 10.032 49.3569 10.032C49.2686 10.032 49.1803 10.032 49.1803 9.85597C49.1803 9.32797 49.1803 8.79997 49.1803 8.27197C49.1803 8.18397 49.1803 8.09597 49.2686 8.09597C49.8866 8.09597 50.593 8.00797 51.2111 8.18397C52.4472 8.44797 53.2419 9.50398 53.2419 10.648C53.2419 11.176 53.2419 11.704 52.977 12.144C52.5355 12.936 51.9174 13.376 51.0345 13.552C50.8579 13.552 50.8579 13.64 50.8579 13.728C50.9462 14.168 50.7696 14.432 50.3281 14.608C49.9749 14.784 49.6218 15.048 49.2686 15.224C49.2686 15.224 49.1803 15.312 49.092 15.312C49.0037 15.312 49.092 15.224 49.092 15.136C49.2686 14.784 49.2686 14.256 49.2686 13.64Z" fill="#F8C728"/>
<path d="M64.3661 15.3121C64.9842 15.3121 65.514 15.5761 66.0437 15.8401C66.7501 16.2801 67.3682 16.8961 67.6331 17.6881C67.7214 17.9521 67.8096 18.3041 67.7214 18.5681C67.6331 18.9201 67.5448 19.0081 67.1916 19.0081C66.8384 19.0081 66.4852 18.8321 66.132 18.7441C65.8671 18.6561 65.514 18.5681 65.2491 18.5681C64.8959 18.5681 64.631 18.3921 64.4544 18.1281C64.1012 17.6001 63.9246 17.0721 63.8363 16.4561C63.8363 16.1921 63.748 16.0161 63.748 15.7521C63.748 15.4001 63.9246 15.2241 64.2778 15.2241C64.2778 15.3121 64.2778 15.3121 64.3661 15.3121Z" fill="#006ED2"/>
<path d="M45.8251 16.9839C46.3548 16.9839 46.8846 16.9839 47.5027 16.9839C47.9442 16.9839 48.209 17.2479 48.209 17.5999C48.209 18.1279 48.0325 18.3919 47.591 18.4799C47.4144 18.4799 47.2378 18.4799 47.0612 18.4799C46.0899 18.4799 45.207 18.4799 44.2357 18.4799C43.8826 18.4799 43.6177 18.3039 43.5294 18.0399C43.4411 17.6879 43.4411 17.3359 43.706 17.1599C43.8826 16.9839 44.0591 16.9839 44.2357 16.9839C44.6772 16.9839 45.207 16.9839 45.8251 16.9839Z" fill="#F8C728"/>
<path d="M45.7373 16.7201C45.5607 16.7201 45.2958 16.7201 45.1192 16.7201C44.8543 16.7201 44.766 16.5441 44.6777 16.3681C44.6777 16.1921 44.8543 16.0161 45.0309 16.0161C45.4724 16.0161 45.9139 16.0161 46.3554 16.0161C46.6202 16.0161 46.7085 16.1921 46.7085 16.3681C46.7085 16.5441 46.5319 16.7201 46.2671 16.7201C46.1788 16.7201 46.0022 16.7201 45.7373 16.7201Z" fill="#F8C728"/>
</g>
<defs>
<clipPath id="clip0_2830_3292">
<rect width="86" height="44" fill="white"/>
</clipPath>
</defs>
</svg>
