<svg width="150" height="41" viewBox="0 0 150 41" fill="none" xmlns="http://www.w3.org/2000/svg">
<path d="M30.0008 19.572C30.0008 24.276 26.3341 28.14 21.4175 28.308C16.5841 28.476 13.0841 24.696 12.5841 20.748C12.2508 18.396 12.8341 16.212 14.1675 14.28C14.6675 13.608 15.1675 13.02 15.6675 12.348C16.4175 11.424 16.9175 10.416 16.9175 9.15595C16.9175 7.64395 17.7508 6.88796 19.2508 6.80396C20.5841 6.80396 21.9175 6.80396 23.2508 6.80396C24.7508 6.80396 25.5841 7.64395 25.5841 9.15595C25.5841 10.5 26.0841 11.508 26.8341 12.432C28.0841 13.944 29.3341 15.456 29.7508 17.472C29.9175 18.228 30.0008 18.9 30.0008 19.572Z" fill="#747675"/>
<path d="M135.916 24.612C135.916 23.436 135.916 22.176 135.916 21C135.916 20.496 136.083 20.328 136.583 20.412C137.749 20.496 138.833 20.328 139.999 20.58C140.916 20.832 141.499 21.336 141.749 22.26C141.999 23.268 141.833 24.192 140.916 24.864C140.499 25.2 140.583 25.284 140.833 25.62C141.583 26.544 141.666 27.72 141.999 28.728C141.999 28.812 141.999 28.896 141.999 28.98C141.583 29.232 141.083 29.064 140.666 29.064C140.416 29.064 140.249 28.896 140.249 28.644C140.083 27.972 139.916 27.384 139.749 26.796C139.583 26.04 139.083 25.704 138.333 25.788C137.916 25.788 137.749 25.956 137.833 26.376C137.833 27.048 137.833 27.72 137.833 28.308C137.916 28.98 137.666 29.148 136.999 29.148C136.416 29.148 135.999 29.232 136.083 28.392C135.999 27.048 135.916 25.872 135.916 24.612Z" fill="#78B8CA"/>
<path d="M134 24.6961C134 25.2841 133.917 25.8721 133.75 26.4601C133.25 28.2241 131.917 29.2321 130.333 29.2321C128.667 29.1481 127.5 28.1401 127 26.3761C126.667 25.0321 126.667 23.6881 127.167 22.4281C127.75 21.0001 128.833 20.3281 130.417 20.3281C132 20.3281 133.083 21.0841 133.583 22.5121C133.917 23.1001 134.083 23.8561 134 24.6961Z" fill="#78B8CA"/>
<path d="M150.001 26.2921C150.001 26.7961 149.917 27.2161 150.001 27.7201C150.084 28.5601 149.751 28.8961 149.001 28.9801C148.084 29.0641 147.167 29.2321 146.334 28.9801C144.501 28.4761 143.417 26.7961 143.501 24.4441C143.584 21.1681 146.167 19.4041 149.167 20.4961C149.417 20.5801 149.917 20.6641 149.667 21.0841C149.417 21.4201 149.584 22.3441 148.751 22.0081C148.334 21.8401 147.917 21.7561 147.501 21.7561C146.417 21.7561 145.751 22.2601 145.501 23.3521C145.251 24.2761 145.251 25.2001 145.584 26.1241C145.917 27.2161 146.917 27.8041 148.001 27.6361C148.334 27.5521 148.417 27.4681 148.417 27.1321C148.417 26.7961 148.417 26.4601 148.417 26.1241C148.501 25.6201 148.417 25.3681 147.751 25.3681C147.084 25.3681 147.334 24.7801 147.334 24.4441C147.251 24.1081 147.501 23.9401 147.834 23.9401H147.917C150.001 23.7721 150.001 23.7721 150.001 26.2921Z" fill="#78B8CA"/>
<path d="M112.333 14.196C112.333 12.264 112.333 10.248 112.333 8.31604C112.333 7.81204 112.417 7.64404 113 7.64404C113.333 7.64404 113.417 7.81204 113.417 8.14804C113.417 10.668 113.417 13.188 113.417 15.708C113.417 15.96 113.5 16.212 113.083 16.212C112.667 16.212 112.25 16.38 112 15.876C111.667 15.288 111.333 14.7 111 14.112C110.167 12.6 109.25 11.172 108.333 9.57604C108.333 10.752 108.333 11.76 108.333 12.768C108.333 13.692 108.333 14.532 108.333 15.456C108.333 15.792 108.5 16.212 107.833 16.212C107.083 16.212 107.25 15.792 107.25 15.372C107.25 13.104 107.25 10.752 107.25 8.48404C107.25 8.23204 107 7.72804 107.5 7.72804C107.917 7.72804 108.417 7.56004 108.75 8.06404C109.833 9.99604 111 11.928 112.083 13.776C112.083 13.944 112.083 14.112 112.333 14.196Z" fill="#6D6F6E"/>
<path d="M102.417 28.9801C101.667 29.1481 101.5 28.8121 101.5 28.0561C101.583 25.7881 101.5 23.5201 101.5 21.2521C101.5 21.0001 101.25 20.5801 101.75 20.4961C102.167 20.4121 102.667 20.3281 102.917 20.9161C104 22.9321 105.25 24.8641 106.333 26.8801C106.333 26.8801 106.417 26.9641 106.5 27.0481C106.5 25.0321 106.5 23.1001 106.5 21.0841C106.5 20.6641 106.583 20.4121 107.083 20.4121C107.417 20.4121 107.583 20.5801 107.583 20.9161C107.583 23.4361 107.583 25.9561 107.583 28.4761C107.583 28.7281 107.667 28.9801 107.25 28.9801C106.833 28.9801 106.417 29.1481 106.167 28.6441C105.083 26.7121 104 24.8641 103 23.0161C102.917 22.8481 102.833 22.7641 102.75 22.5961C102.333 22.6801 102.5 23.0161 102.5 23.1841C102.5 24.8641 102.5 26.5441 102.5 28.2241C102.583 28.5601 102.667 28.8121 102.417 28.9801Z" fill="#6D6F6E"/>
<path d="M59.834 27.2161C59.834 25.0321 59.834 23.1001 59.834 21.0841C59.834 20.7481 59.7506 20.4121 60.334 20.4121C60.834 20.4121 60.9173 20.6641 60.9173 21.0841C60.9173 23.4361 60.9173 25.8721 60.9173 28.2241C60.9173 28.4761 61.084 28.8961 60.6673 28.8961C60.2507 28.9801 59.834 29.0641 59.5006 28.5601C58.4173 26.5441 57.1673 24.6121 56.084 22.5961C56.0007 22.5121 56.0006 22.3441 55.834 22.0921C55.834 23.6881 55.834 25.0321 55.834 26.3761C55.834 27.0481 55.834 27.7201 55.834 28.3921C55.834 28.7281 55.7506 28.8961 55.334 28.8961C55.0006 28.8961 54.834 28.8121 54.834 28.3921C54.834 25.8721 54.834 23.3521 54.834 20.7481C54.834 20.5801 54.834 20.3281 55.084 20.2441C55.5006 20.2441 55.9173 20.0761 56.2506 20.6641C57.334 22.6801 58.584 24.5281 59.584 26.6281C59.584 26.8801 59.6673 26.9641 59.834 27.2161Z" fill="#6D6F6E"/>
<path d="M78.334 10.248C77.9173 8.65203 76.7506 7.72803 75.084 7.72803C74.334 7.72803 73.6673 7.72803 72.9173 7.72803C72.5006 7.72803 72.334 7.89603 72.334 8.31603C72.334 9.57603 72.334 10.752 72.334 12.012C72.334 13.272 72.334 14.448 72.334 15.708C72.334 16.128 72.4173 16.296 72.834 16.296C73.6673 16.296 74.4173 16.296 75.2507 16.296C76.6673 16.212 77.7507 15.372 78.1673 14.028C78.6673 12.684 78.6673 11.508 78.334 10.248ZM77.2506 13.44C76.9173 14.7 76.1673 15.288 74.6673 15.288C73.1673 15.288 73.5006 15.456 73.4173 14.112C73.4173 13.356 73.4173 12.684 73.4173 11.928C73.4173 11.004 73.4173 10.08 73.4173 9.07203C73.4173 8.73603 73.5006 8.56803 73.9173 8.56803C74.2506 8.56803 74.6673 8.56803 75.0006 8.56803C76.2506 8.65203 76.9173 9.15603 77.2506 10.416C77.5006 11.424 77.5006 12.432 77.2506 13.44Z" fill="#6D6F6E"/>
<path d="M123.084 11.6761C123.084 12.6841 122.917 13.5241 122.584 14.2801C122.001 15.6241 121.001 16.3801 119.501 16.3801C118.001 16.3801 117.001 15.6241 116.417 14.2801C115.751 12.7681 115.751 11.2561 116.334 9.74406C116.917 8.23206 118.084 7.56006 119.584 7.56006C121.084 7.56006 122.167 8.48406 122.667 9.91206C123.001 10.5001 123.084 11.1721 123.084 11.6761Z" fill="#6D6F6E"/>
<path d="M89.8333 11.928C89.8333 10.668 89.8333 9.49203 89.8333 8.23203C89.8333 7.98003 89.75 7.72803 90.1667 7.72803C91.0833 7.72803 92.0833 7.64403 93 7.81203C94.5 7.98003 95.4167 8.90403 95.75 10.416C96.0833 11.676 96.0833 12.936 95.5833 14.112C95.0833 15.456 94.0833 16.128 92.6667 16.296C91.8333 16.38 91.0833 16.296 90.25 16.296C89.8333 16.296 89.75 16.128 89.75 15.792C89.8333 14.364 89.8333 13.104 89.8333 11.928Z" fill="#6D6F6E"/>
<path d="M92.417 26.4601C92.417 27.0481 92.417 27.6361 92.417 28.2241C92.417 28.7281 92.2503 28.8961 91.8336 28.9801C89.8336 29.4841 87.8336 28.9801 86.917 27.5521C85.8336 26.0401 85.8336 23.3521 86.8336 21.8401C88.0003 19.9921 90.3336 20.0761 91.917 20.7481C92.2503 20.9161 92.167 21.0841 92.0003 21.2521C91.917 21.4201 91.917 21.8401 91.5003 21.5881C90.917 21.3361 90.3336 21.2521 89.7503 21.2521C88.5836 21.2521 87.7503 21.9241 87.417 23.0161C87.167 23.9401 87.0836 24.8641 87.3336 25.7881C87.7503 27.5521 88.917 28.3921 90.667 28.2241C91.167 28.1401 91.417 28.0561 91.417 27.4681C91.3336 26.7961 91.417 26.1241 91.417 25.5361C91.417 25.1161 91.3336 24.9481 90.917 25.0321C90.7503 25.0321 90.5836 25.0321 90.417 25.0321C90.0836 25.0321 90.0003 24.8641 90.0003 24.5281C90.0003 24.2761 90.0003 24.0241 90.417 24.0241C92.417 23.7721 92.417 23.8561 92.417 25.7881C92.417 26.0401 92.417 26.2921 92.417 26.4601Z" fill="#6D6F6E"/>
<path d="M119.499 28.9801C118.833 28.9801 118.166 28.9801 117.499 28.9801C117.083 28.9801 116.916 28.8121 116.999 28.3921C116.999 25.8721 116.999 23.4361 116.999 20.9161C116.999 20.4961 117.083 20.3281 117.499 20.3281C118.833 20.3281 120.166 20.3281 121.499 20.3281C121.833 20.3281 121.916 20.4121 121.916 20.7481C121.916 21.0841 121.833 21.2521 121.416 21.2521C120.499 21.2521 119.583 21.2521 118.583 21.2521C118.083 21.2521 117.916 21.3361 117.916 21.8401C117.833 23.9401 117.833 23.9401 119.916 23.9401C120.249 23.9401 120.583 23.9401 120.916 23.9401C121.249 23.9401 121.333 24.0241 121.333 24.3601C121.333 24.6961 121.249 24.8641 120.916 24.8641C120.166 24.8641 119.333 24.8641 118.583 24.8641C118.083 24.8641 117.833 24.9481 117.916 25.5361C117.999 26.2921 117.666 27.3001 118.083 27.7201C118.499 28.2241 119.499 27.8041 120.249 27.8881C120.666 27.8881 121.083 27.8881 121.499 27.8881C121.833 27.8881 121.999 27.9721 121.999 28.3921C121.999 28.8121 121.833 28.8961 121.499 28.8961C120.833 28.9801 120.166 28.9801 119.499 28.9801Z" fill="#6E706F"/>
<path d="M94.5827 24.6961C94.5827 23.5201 94.5827 22.3441 94.5827 21.1681C94.5827 20.6641 94.666 20.4121 95.2493 20.4121C96.4993 20.4121 97.7493 20.4121 98.9993 20.4121C99.3327 20.4121 99.4993 20.4121 99.5827 20.8321C99.5827 21.2521 99.416 21.3361 98.9993 21.3361C98.0827 21.3361 97.166 21.3361 96.2493 21.3361C95.8327 21.3361 95.5827 21.4201 95.5827 21.9241C95.4993 24.0241 95.4993 24.0241 97.5827 24.0241C97.916 24.0241 98.2493 24.0241 98.5827 24.0241C98.916 24.0241 98.9993 24.1081 98.9993 24.4441C98.9993 24.7801 98.916 24.9481 98.5827 24.9481C97.8327 24.9481 97.0827 24.9481 96.3327 24.9481C95.7493 24.9481 95.4993 25.0321 95.5827 25.7041C95.666 26.4601 95.2493 27.3841 95.7493 27.8881C96.166 28.3081 97.166 27.9721 97.8327 27.9721C98.2493 27.9721 98.666 27.9721 99.0827 27.9721C99.416 27.9721 99.5827 28.0561 99.5827 28.4761C99.5827 28.8961 99.416 28.9801 99.0827 28.9801C97.7493 28.9801 96.416 28.9801 94.9993 28.9801C94.4993 28.9801 94.416 28.7281 94.416 28.3921C94.5827 27.1321 94.5827 25.9561 94.5827 24.6961Z" fill="#6E706F"/>
<path d="M70.1673 24.7801C70.1673 23.5201 70.1673 22.3441 70.1673 21.0841C70.1673 20.5801 70.334 20.4121 70.7507 20.4121C72.0007 20.4121 73.334 20.4121 74.584 20.4121C74.9173 20.4121 75.084 20.4961 75.084 20.9161C75.084 21.3361 74.9173 21.4201 74.5007 21.4201C73.584 21.4201 72.6673 21.4201 71.6673 21.4201C71.2507 21.4201 71.1673 21.5041 71.084 21.9241C71.0007 24.1081 70.9173 24.1081 73.084 24.1081C73.4173 24.1081 73.7507 24.1081 74.0007 24.1081C74.334 24.1081 74.5007 24.1921 74.5007 24.5281C74.5007 24.9481 74.334 25.0321 74.0007 25.0321C73.2507 25.0321 72.5007 25.0321 71.7507 25.0321C71.2507 25.0321 71.0007 25.1161 71.084 25.7041C71.1673 26.4601 70.7507 27.3841 71.2507 27.8881C71.6673 28.3921 72.6673 27.9721 73.4173 28.0561C73.834 28.0561 74.2507 28.0561 74.6673 28.0561C75.0007 28.0561 75.1673 28.1401 75.1673 28.5601C75.1673 28.9801 75.0007 29.0641 74.6673 29.0641C73.334 29.0641 72.0006 29.0641 70.584 29.0641C70.084 29.0641 70.084 28.8121 70.084 28.3921C70.2507 27.2161 70.1673 25.9561 70.1673 24.7801Z" fill="#6E706F"/>
<path d="M68.2499 11.0042C68.2499 10.0802 68.2499 9.15617 68.2499 8.23217C68.2499 7.89617 68.3333 7.64417 68.7499 7.64417C69.0833 7.64417 69.3333 7.72817 69.3333 8.14817C69.3333 9.99617 69.3333 11.8442 69.3333 13.6082C69.3333 15.2042 68.2499 16.1282 66.7499 16.2962C66.4999 16.2962 66.2499 16.2962 66.0833 16.2962C64.2499 16.2962 63.3333 15.4562 63.2499 13.6082C63.1666 11.7602 63.2499 9.91217 63.2499 8.06417C63.2499 7.56017 63.5833 7.64417 63.8333 7.64417C64.2499 7.64417 64.3333 7.81217 64.3333 8.14817C64.3333 9.82817 64.3333 11.5082 64.3333 13.1882C64.3333 15.3722 65.4999 15.7082 67.2499 15.2882C68.0833 15.1202 68.3333 14.4482 68.3333 13.6922C68.2499 12.7682 68.2499 11.9282 68.2499 11.0042Z" fill="#6D6F6E"/>
<path d="M83.8334 7.72799C84.2501 7.64399 84.5001 7.81199 84.6667 8.31599C85.5001 10.752 86.3334 13.188 87.1667 15.54C87.2501 15.708 87.5834 16.044 87.1667 16.212C86.8334 16.296 86.3334 16.464 86.1667 15.96C86.1667 15.876 86.0834 15.792 86.0834 15.708C85.8334 15.036 85.8334 14.028 85.2501 13.86C84.4167 13.524 83.4167 13.776 82.5001 13.776C82.2501 13.776 82.1667 13.944 82.0834 14.196C81.9167 14.7 81.6667 15.204 81.5001 15.708C81.3334 16.212 81.0834 16.296 80.5834 16.296C80.2501 16.296 80.2501 16.128 80.3334 15.876C81.2501 13.356 82.1667 10.752 83.0834 8.23199C83.2501 7.64399 83.5001 7.64399 83.8334 7.72799Z" fill="#6D6F6E"/>
<path d="M97.666 16.128C98.4993 13.776 99.3327 11.424 100.166 9.07204C100.249 8.82004 100.333 8.56804 100.416 8.31604C100.499 7.89604 100.666 7.64404 101.166 7.64404C101.666 7.64404 101.916 7.81204 102.083 8.31604C102.916 10.752 103.749 13.104 104.583 15.54C104.666 15.708 104.999 16.044 104.499 16.128C104.166 16.212 103.666 16.38 103.499 15.876C103.333 15.372 103.083 14.784 102.916 14.28C102.833 13.86 102.583 13.692 102.166 13.692C101.499 13.692 100.749 13.692 100.083 13.692C99.7494 13.692 99.4994 13.776 99.416 14.196C99.3327 14.616 99.0827 14.952 98.9994 15.372C98.916 16.128 98.4993 16.38 97.666 16.128Z" fill="#6D6F6E"/>
<path d="M50.334 11.7601C50.334 11.3401 50.4173 10.7521 50.584 10.2481C51.4173 7.30805 54.0006 7.14005 55.9173 7.98005C56.084 8.06405 56.4173 8.14805 56.2506 8.48405C56.084 8.73605 56.084 9.07205 55.584 8.90405C52.9173 7.98005 51.584 8.98805 51.5006 11.8441C51.5006 12.4321 51.584 13.0201 51.7506 13.5241C52.334 15.4561 53.9173 16.0441 55.584 14.9521C55.9173 14.7841 56.084 14.5321 56.4173 14.9521C56.584 15.2041 56.584 15.3721 56.334 15.5401C54.4173 17.1361 51.6673 16.4641 50.834 14.1121C50.4173 13.3561 50.334 12.6001 50.334 11.7601Z" fill="#6D6F6E"/>
<path d="M112.75 25.2001C112.75 26.2921 112.75 27.3841 112.75 28.3921C112.75 28.8121 112.75 29.0641 112.25 28.9801C111.75 28.9801 111.667 28.8121 111.667 28.3921C111.667 26.2921 111.667 24.1921 111.667 22.0921C111.667 21.5041 111.583 21.2521 110.917 21.3361C110.5 21.4201 110 21.3361 109.5 21.3361C109.167 21.3361 109 21.2521 109 20.8321C109 20.4121 109.167 20.3281 109.5 20.3281C111.333 20.3281 113.083 20.3281 114.917 20.3281C115.333 20.3281 115.417 20.4961 115.417 20.8321C115.417 21.2521 115.25 21.3361 114.917 21.3361C114.417 21.3361 113.917 21.4201 113.417 21.2521C112.833 21.1681 112.75 21.4201 112.75 21.9241C112.833 23.1001 112.75 24.1081 112.75 25.2001Z" fill="#6E706F"/>
<path d="M65.0006 25.2001C65.0006 24.1081 65.0006 23.0161 65.0006 22.0081C65.0006 21.5041 64.9173 21.3361 64.4173 21.4201C63.9173 21.5041 63.4173 21.4201 62.9173 21.5041C62.584 21.5041 62.334 21.4201 62.334 21.0001C62.334 20.5801 62.5006 20.4961 62.834 20.4961C64.6673 20.4961 66.4173 20.4961 68.2506 20.4961C68.6673 20.4961 68.7506 20.6641 68.7506 21.0001C68.7506 21.4201 68.584 21.5041 68.2506 21.5041C67.7506 21.5041 67.334 21.5881 66.834 21.5041C66.1673 21.3361 66.084 21.6721 66.084 22.2601C66.084 24.3601 66.084 26.3761 66.084 28.4761C66.084 28.8961 66.1673 29.1481 65.584 29.1481C65.0006 29.1481 65.0006 28.8121 65.0006 28.4761C65.0006 27.3001 65.0006 26.2081 65.0006 25.2001Z" fill="#6E706F"/>
<path d="M77.084 24.6961C77.084 23.5201 77.084 22.2601 77.084 21.0841C77.084 20.6641 77.1673 20.4961 77.6673 20.4961C78.1673 20.4961 78.1673 20.7481 78.1673 21.1681C78.1673 23.2681 78.1673 25.3681 78.1673 27.4681C78.1673 28.0561 78.2506 28.2241 78.9173 28.2241C79.6673 28.1401 80.5007 28.2241 81.2507 28.2241C81.584 28.2241 81.7506 28.3081 81.7506 28.7281C81.7506 29.1481 81.584 29.2321 81.2507 29.2321C80.084 29.2321 78.834 29.2321 77.6673 29.2321C77.2506 29.2321 77.1673 29.0641 77.1673 28.6441C77.084 27.2161 77.084 25.9561 77.084 24.6961Z" fill="#6F7170"/>
<path d="M21.2507 5.04004C20.334 5.04004 19.5007 5.04004 18.584 5.04004C18.084 5.04004 17.834 4.87204 17.834 4.36804C17.834 3.86404 18.084 3.69604 18.584 3.69604C20.4173 3.69604 22.2507 3.69604 24.0007 3.69604C24.5007 3.69604 24.7507 3.94804 24.7507 4.36804C24.7507 4.87204 24.4173 5.12404 23.9173 5.04004C23.084 5.04004 22.1673 5.04004 21.2507 5.04004Z" fill="#767877"/>
<path d="M21.334 2.35207C20.5007 2.35207 19.584 2.35207 18.7507 2.35207C18.2507 2.35207 17.834 2.18407 17.834 1.59607C17.834 1.09207 18.1673 0.924072 18.6673 0.924072C20.4173 0.924072 22.1673 0.924072 24.0007 0.924072C24.5007 0.924072 24.7507 1.09207 24.834 1.59607C24.834 2.10007 24.584 2.35207 24.084 2.35207C23.084 2.35207 22.1673 2.35207 21.334 2.35207Z" fill="#757776"/>
<path d="M52.4993 24.7801C52.4993 25.9561 52.4993 27.2161 52.4993 28.3921C52.4993 28.8121 52.4993 29.0641 51.9993 29.0641C51.4993 29.0641 51.416 28.8961 51.416 28.4761C51.416 26.0401 51.416 23.5201 51.416 21.0841C51.416 20.6641 51.4993 20.4961 51.9993 20.4961C52.4993 20.4961 52.4993 20.7481 52.4993 21.1681C52.4993 22.3441 52.4993 23.5201 52.4993 24.7801Z" fill="#6E706F"/>
<path d="M84.2493 24.7801C84.2493 26.0401 84.2493 27.2161 84.2493 28.4761C84.2493 28.8961 84.166 29.0641 83.7493 29.0641C83.3327 29.0641 83.166 28.8961 83.166 28.5601C83.166 26.0401 83.166 23.5201 83.166 21.0841C83.166 20.6641 83.3327 20.5801 83.7493 20.5801C84.166 20.5801 84.2493 20.8321 84.2493 21.1681C84.2493 22.2601 84.2493 23.5201 84.2493 24.7801Z" fill="#707271"/>
<path d="M60.0833 11.928C60.0833 13.104 60.0833 14.364 60.0833 15.54C60.0833 15.876 60.0833 16.212 59.5833 16.212C59.0833 16.212 59 16.044 59 15.624C59 13.188 59 10.668 59 8.23204C59 7.81204 59.0833 7.64404 59.5 7.64404C60 7.64404 60.0833 7.81204 60.0833 8.23204C60.0833 9.49204 60.0833 10.752 60.0833 11.928Z" fill="#707271"/>
<path d="M5.75 33.6842C5.75 32.6762 6.33333 32.0042 7.33333 32.0042C8.16667 32.0042 8.91667 32.8442 8.91667 33.6842C8.91667 34.4402 8.08333 35.2802 7.33333 35.2802C6.5 35.2802 5.75 34.5242 5.75 33.6842Z" fill="#B4DEE2"/>
<path d="M39.7499 25.3682C40.5833 25.3682 41.3333 26.0402 41.4166 26.8802C41.4166 27.7202 40.6666 28.5602 39.7499 28.5602C38.9166 28.5602 38.3333 27.8882 38.2499 26.9642C38.1666 26.2082 38.9999 25.3682 39.7499 25.3682Z" fill="#B4DEE2"/>
<path d="M36.9173 4.95611C36.9173 5.88011 36.334 6.55211 35.5007 6.55211C34.584 6.55211 33.834 5.88011 33.834 4.95611C33.834 4.11611 34.5007 3.44411 35.334 3.36011C36.2507 3.44411 36.834 4.03211 36.9173 4.95611Z" fill="#B4DEE2"/>
<path d="M4.41732 11.2561C4.41732 12.1801 3.83398 12.8521 3.00065 12.8521C2.16732 12.8521 1.33398 12.1801 1.33398 11.3401C1.33398 10.4161 2.00065 9.74414 3.00065 9.74414C3.75065 9.74414 4.41732 10.3321 4.41732 11.2561Z" fill="#B4DEE2"/>
<path d="M19.5 39.48C19.5 38.64 20.25 37.8 21.0833 37.8C21.9167 37.8 22.6667 38.5561 22.6667 39.3961C22.6667 40.2361 22 40.992 21.1667 40.992C20.3333 41.076 19.5833 40.32 19.5 39.48Z" fill="#B3DEE2"/>
<path d="M37.3333 33.6842C37.3333 34.5242 36.5833 35.2802 35.75 35.2802C34.9167 35.2802 34.25 34.5242 34.25 33.6842C34.25 32.8442 35 32.0042 35.8333 32.0042C36.5833 32.0042 37.3333 32.8442 37.3333 33.6842Z" fill="#B4DEE2"/>
<path d="M2.83333 25.4521C3.75 25.4521 4.41667 26.0401 4.41667 26.9641C4.41667 27.8881 3.83333 28.5601 2.91667 28.5601C2.08333 28.5601 1.25 27.8041 1.25 26.9641C1.25 26.0401 1.91667 25.4521 2.83333 25.4521Z" fill="#B4DEE2"/>
<path d="M30.6667 38.136C30.6667 39.06 30.0833 39.732 29.0833 39.732C28.25 39.732 27.5 38.976 27.5 38.136C27.5 37.296 28.25 36.624 29.1667 36.624C30 36.624 30.6667 37.212 30.6667 38.136Z" fill="#B4DEE2"/>
<path d="M15.166 38.136C15.166 38.892 14.416 39.732 13.5827 39.732C12.7493 39.732 11.916 38.976 11.916 38.136C11.916 37.296 12.666 36.54 13.4993 36.54C14.3327 36.54 15.166 37.38 15.166 38.136Z" fill="#B4DEE2"/>
<path d="M42.6659 19.3201C42.6659 20.2441 41.9992 20.8321 41.0825 20.8321C40.2492 20.8321 39.4992 20.1601 39.5825 19.3201C39.5825 18.4801 40.4159 17.6401 41.2492 17.7241C42.0825 17.8081 42.6659 18.4801 42.6659 19.3201Z" fill="#B4DEE2"/>
<path d="M1.58333 20.9161C0.583333 20.9161 0 20.2441 0 19.3201C0 18.3961 0.583333 17.7241 1.5 17.7241C2.33333 17.7241 3.16667 18.4801 3.16667 19.3201C3.08333 20.2441 2.5 20.9161 1.58333 20.9161Z" fill="#B4DEE2"/>
<path d="M38.25 11.7601C38.25 10.8361 38.8333 10.1641 39.8333 10.1641C40.75 10.1641 41.4167 10.9201 41.4167 11.7601C41.4167 12.5161 40.6667 13.3561 39.8333 13.2721C38.9167 13.3561 38.25 12.6841 38.25 11.7601Z" fill="#B4DEE2"/>
<path d="M7.25 6.55211C6.33333 6.55211 5.75 5.88011 5.75 4.87211C5.75 3.94811 6.41667 3.36011 7.33333 3.36011C8.16667 3.36011 8.91667 4.20011 8.91667 4.95611C8.83333 5.96411 8.16667 6.63611 7.25 6.55211Z" fill="#B4DEE2"/>
<path d="M9.00065 13.4402C9.00065 14.1122 8.33398 14.7002 7.75065 14.7002C7.16732 14.7002 6.58398 14.0282 6.58398 13.4402C6.58398 12.7682 7.08398 12.2642 7.75065 12.2642C8.41732 12.2642 9.00065 12.7682 9.00065 13.4402Z" fill="#78B5BF"/>
<path d="M16.834 33.1802C16.834 33.8522 16.2507 34.3562 15.584 34.3562C14.9173 34.3562 14.334 33.7682 14.334 33.0962C14.334 32.5082 14.9173 31.9202 15.584 31.9202C16.334 31.9202 16.9173 32.5082 16.834 33.1802Z" fill="#78B5BF"/>
<path d="M33.75 24.864C33.75 24.192 34.3333 23.688 34.9167 23.688C35.5833 23.688 36.0833 24.276 36.0833 24.948C36.0833 25.62 35.5 26.124 34.8333 26.124C34.1667 26.208 33.75 25.62 33.75 24.864Z" fill="#78B5BF"/>
<path d="M28.2507 33.1802C28.2507 33.8522 27.6673 34.4402 27.0007 34.4402C26.334 34.4402 25.834 33.8522 25.834 33.1802C25.834 32.5082 26.4173 31.9202 27.084 31.9202C27.7507 31.9202 28.2507 32.5082 28.2507 33.1802Z" fill="#77B5BF"/>
<path d="M9.00065 24.948C9.00065 25.62 8.50065 26.208 7.83398 26.208C7.16732 26.208 6.58398 25.704 6.58398 24.948C6.58398 24.276 7.08398 23.772 7.75065 23.688C8.41732 23.688 9.00065 24.276 9.00065 24.948Z" fill="#DA6452"/>
<path d="M12.25 29.904C12.25 30.576 11.6667 31.08 11 31.08C10.3333 31.08 9.75 30.492 9.75 29.82C9.75 29.148 10.3333 28.644 11 28.644C11.75 28.644 12.3333 29.232 12.25 29.904Z" fill="#F7BD3C"/>
<path d="M34.9167 15.0361C34.25 15.0361 33.75 14.5321 33.75 13.8601C33.75 13.1041 34.25 12.6001 34.9167 12.6001C35.5833 12.6001 36.0833 13.1041 36.1667 13.7761C36.0833 14.4481 35.5833 15.0361 34.9167 15.0361Z" fill="#D96351"/>
<path d="M11.084 7.64404C11.7507 7.64404 12.334 8.23204 12.334 8.90404C12.334 9.57604 11.834 10.08 11.084 10.08C10.4173 10.08 9.83398 9.49204 9.83398 8.82004C9.91732 8.14804 10.4173 7.64404 11.084 7.64404Z" fill="#77B5BF"/>
<path d="M31.6667 7.64404C32.3333 7.64404 32.8333 8.23204 32.8333 8.90404C32.8333 9.57604 32.3333 10.08 31.6667 10.08C30.9167 10.08 30.5 9.57604 30.5 8.82004C30.5 8.14804 30.9167 7.64404 31.6667 7.64404Z" fill="#F7BD3C"/>
<path d="M32 28.644C32.6667 28.644 33.1667 29.232 33.1667 29.904C33.1667 30.576 32.6667 31.08 31.9167 31.08C31.25 31.08 30.75 30.492 30.75 29.82C30.8333 29.148 31.3333 28.644 32 28.644Z" fill="#77B5BF"/>
<path d="M6.83283 20.58C6.16616 20.58 5.58283 19.992 5.66616 19.32C5.66616 18.648 6.16616 18.144 6.83283 18.144C7.58283 18.144 7.9995 18.648 7.9995 19.404C7.9995 20.076 7.4995 20.58 6.83283 20.58Z" fill="#AF2D59"/>
<path d="M35.8327 20.5802C35.166 20.5802 34.666 19.9922 34.666 19.3202C34.666 18.6482 35.166 18.1442 35.916 18.2282C36.5827 18.2282 37.0827 18.8162 37.0827 19.4882C37.0827 20.1602 36.4994 20.5802 35.8327 20.5802Z" fill="#AF2D59"/>
<path d="M22.3333 34.104C22.3333 34.86 21.9167 35.364 21.1667 35.364C20.5 35.364 20 34.86 20 34.188C20 33.516 20.5 33.012 21.1667 32.928C21.8333 32.928 22.3333 33.348 22.3333 34.104Z" fill="#77B5BF"/>
<path d="M124.167 27.1321C124.75 27.1321 125.25 27.6361 125.25 28.1401C125.25 28.6441 124.75 29.1481 124.25 29.1481C123.667 29.1481 123.25 28.7281 123.25 28.1401C123.25 27.4681 123.667 27.2161 124.167 27.1321Z" fill="#79B9CB"/>
<path d="M102.416 28.98C102.583 26.88 102.416 24.78 102.499 22.764C102.499 22.596 102.499 22.428 102.499 22.26C102.749 22.344 102.749 22.512 102.749 22.596C102.499 22.848 102.583 23.1 102.583 23.352C102.583 24.948 102.583 26.628 102.583 28.224C102.666 28.476 102.749 28.812 102.416 28.98Z" fill="#D4D5D5"/>
<path d="M28.8336 19.5722C28.8336 22.7642 26.8336 25.7042 23.7503 26.7962C20.7503 27.8882 17.417 26.8802 15.3336 24.3602C13.3336 21.8402 13.167 18.3122 14.8336 15.6242C15.417 14.7002 16.167 13.7762 16.8336 12.9362C17.667 11.9282 18.167 10.7522 18.0836 9.40819C18.0836 8.48419 18.417 8.14819 19.3336 8.14819C20.5836 8.14819 21.8336 8.14819 23.0836 8.14819C24.0003 8.14819 24.3336 8.48419 24.3336 9.40819C24.3336 10.7522 24.7503 11.8442 25.5836 12.8522C26.167 13.6922 26.8336 14.4482 27.417 15.2882C28.417 16.5482 28.8336 17.9762 28.8336 19.5722Z" fill="#FEFEFE"/>
<path d="M137.667 23.1C137.667 22.512 137.5 21.924 138.5 22.008C139.667 22.092 140.167 22.428 140.167 23.184C140.167 24.024 139.75 24.192 138.583 24.276C137.417 24.36 137.583 23.688 137.667 23.1Z" fill="#FDFEFE"/>
<path d="M132.166 24.7801C132.166 25.3681 132.166 26.1241 131.75 26.7961C131.416 27.3841 131 27.6361 130.416 27.6361C129.75 27.6361 129.333 27.3841 129 26.7961C128.333 25.4521 128.333 24.1081 128.833 22.6801C129.083 22.0081 129.666 21.6721 130.416 21.7561C131.166 21.8401 131.583 22.1761 131.833 22.8481C132.166 23.4361 132.166 24.0241 132.166 24.7801Z" fill="#FEFEFE"/>
<path d="M117.166 11.8441C117.166 11.0881 117.249 10.4161 117.583 9.74413C117.999 8.90413 118.583 8.48413 119.583 8.48413C120.499 8.48413 121.166 8.90413 121.583 9.74413C122.333 11.3401 122.249 12.9361 121.416 14.4481C120.583 15.8761 118.749 15.8761 117.916 14.4481C117.333 13.7761 117.166 12.9361 117.166 11.8441Z" fill="#FEFEFE"/>
<path d="M94.8328 11.8442C94.8328 12.2642 94.8328 12.5162 94.7495 12.8522C94.4995 14.6162 93.7495 15.2882 91.9995 15.2882C90.6662 15.2882 90.8328 15.4562 90.8328 14.1122C90.8328 12.5162 90.8328 10.8362 90.8328 9.24016C90.8328 8.73616 90.9995 8.48416 91.4995 8.56816C91.6662 8.56816 91.9162 8.56816 92.0828 8.56816C93.6662 8.56816 94.3328 9.15616 94.6662 10.7522C94.8328 11.1722 94.8328 11.5922 94.8328 11.8442Z" fill="#FEFEFE"/>
<path d="M83.8342 8.82007C84.2509 10.0801 84.5842 11.2561 85.0009 12.3481C85.0842 12.6841 85.0009 12.7681 84.6675 12.7681H84.5842C82.4175 12.9361 82.4175 12.9361 83.0842 10.9201C83.3342 10.3321 83.5842 9.66007 83.8342 8.82007Z" fill="#FBFBFB"/>
<path d="M101.249 8.90405C101.666 10.1641 101.999 11.2561 102.333 12.2641C102.499 12.7681 102.333 12.8521 101.916 12.8521C101.416 12.8521 100.916 12.8521 100.333 12.8521C100.083 12.8521 99.8326 12.8521 99.9993 12.4321C100.416 11.2561 100.833 10.1641 101.249 8.90405Z" fill="#FCFCFC"/>
<path d="M20.6668 25.8721C18.4168 25.6201 16.5001 24.3601 15.5001 22.0081C15.3335 21.5881 15.2501 21.0841 15.7501 20.9161C16.2501 20.7481 16.5835 21.0001 16.7501 21.5041C17.5835 23.3521 19.0001 24.3601 20.9168 24.5281C21.4168 24.5281 21.9168 24.6121 21.8335 25.2841C21.8335 25.8721 21.3335 25.8721 20.6668 25.8721Z" fill="#747675"/>
<path d="M15.5827 20.2441C15.0827 20.1601 14.916 19.9081 14.916 19.5721C14.916 19.1521 15.166 18.9001 15.5827 18.9001C15.9993 18.9001 16.3327 19.1521 16.2493 19.6561C16.2493 20.0761 15.9993 20.2441 15.5827 20.2441Z" fill="#787A79"/>
</svg>
