<svg width="168" height="45" viewBox="0 0 168 45" fill="none" xmlns="http://www.w3.org/2000/svg">
<path d="M157.334 11.8V9.49999C157.334 8.73332 157 8.29999 156.134 8.29999C155.267 8.29999 154.934 8.73332 154.934 9.49999V11.1333L154.4 11.8333L157.334 11.8Z" fill="#EC4C7D"/>
<path d="M148.467 11.8L147.933 11.1V9.46666C147.933 8.7 147.6 8.26666 146.733 8.26666C145.867 8.26666 145.533 8.7 145.533 9.46666V11.7667H148.467V11.8Z" fill="#EC4C7D"/>
<path d="M150.268 20.1667V25.6667C150.268 26.4334 150.601 26.8667 151.468 26.8667C152.334 26.8667 152.668 26.4334 152.668 25.6667V20.1667H150.268Z" fill="#EC4C7D"/>
<path d="M132.234 18.1333C132.101 17.8333 132.034 17.5 132.067 17.1667C132.067 16.5333 132.234 15.9 132.567 15.3333L134.634 11.1667C135.101 10.2667 135.267 10.1667 136.301 10.1667H140.301C140.934 10.2 141.434 9.7 141.467 9.06666C141.467 9.03333 141.467 9 141.467 8.96666C141.501 8.33333 141.034 7.8 140.434 7.76666C140.367 7.76666 140.334 7.76666 140.267 7.76666H136.201C134.367 7.76666 133.334 8.4 132.534 10.0667L130.334 14.5333C129.867 15.3333 129.634 16.2667 129.667 17.2C129.667 17.5333 129.701 17.8333 129.767 18.1667L132.234 18.1333Z" fill="#2D99D5"/>
<path d="M130.501 25.2L128.501 18.1334H126.001L126.501 19.9334H122.734L123.267 18.1334H120.767L118.734 25.2C118.567 25.7667 119.201 26.4 119.867 26.4C120.601 26.4 121.001 25.7667 121.167 25.2L122.067 22.3334H127.167L128.034 25.2C128.201 25.7667 128.567 26.4 129.334 26.4C130.034 26.4 130.667 25.7667 130.501 25.2Z" fill="#EC4C7D"/>
<path d="M124.301 14.5333L124.601 13.4666H124.634L124.934 14.5333H127.434L125.867 9.03331C125.701 8.39998 125.401 7.83331 124.634 7.83331C123.867 7.83331 123.601 8.39998 123.401 9.03331L121.801 14.5333H124.301Z" fill="#EC4C7D"/>
<path d="M110.4 19.2333H110.8L108.767 16.3333H110.967C112.867 16.3333 114.734 15.2 114.734 12.9333V11.2667C114.734 9.13332 112.834 7.79999 110.967 7.79999H108.534V10.2H110.667C111.367 10.2 112.367 10.3333 112.367 11.2667V12.9C112.367 13.8667 111.3 13.9 110.634 13.9H105.334V12.8333H102.934V25.2C102.934 25.9667 103.267 26.4 104.134 26.4C105 26.4 105.334 25.9667 105.334 25.2V16.3333H105.867L110.4 22.8V19.2333Z" fill="#2D99D5"/>
<path d="M63.6004 12.3L65.6337 10.5666C65.9337 10.3333 66.1337 9.96665 66.1671 9.56665C66.2004 8.93331 65.7337 8.36665 65.0671 8.33331C65.0337 8.33331 65.0337 8.33331 65.0004 8.33331C64.6337 8.36665 64.2671 8.53331 64.0337 8.79998L59.9004 12.3H63.6004Z" fill="#EC4C7D"/>
<path d="M65.6005 24.6L57.4005 17.5666L57.9339 17.1H54.3672V25.6666C54.3672 26.4333 54.7005 26.8666 55.5672 26.8666C56.4339 26.8666 56.7672 26.4333 56.7672 25.6666V20.1666L63.7338 26.1666C64.1005 26.4666 64.5339 26.9 65.0339 26.9C65.6672 26.9 66.2005 26.3666 66.1672 25.7C66.1672 25.6666 66.1672 25.6666 66.1672 25.6333C66.1672 25.2 65.9339 24.8333 65.6005 24.6Z" fill="#EC4C7D"/>
<path d="M56.7672 12.3V9.46666C56.7672 8.7 56.4339 8.26666 55.5672 8.26666C54.7005 8.26666 54.3672 8.7 54.3672 9.46666V12.3H56.7672Z" fill="#EC4C7D"/>
<path d="M25.6327 23.6334L25.066 25.6667C24.8994 26.2334 25.5327 26.8667 26.1994 26.8667C26.9327 26.8667 27.3327 26.2334 27.4994 25.6667L28.1327 23.6334H25.6327Z" fill="#EC4C7D"/>
<path d="M36.8008 25.6666L32.2008 9.49999C32.0341 8.86665 31.7341 8.29999 30.9674 8.29999C30.2008 8.29999 29.9341 8.86665 29.7341 9.49999L27.3008 17.9H29.8008L30.9341 13.9333H30.9674L32.1008 17.9H33.4674V22.8L34.3674 25.6666C34.5341 26.2333 34.9341 26.8666 35.6674 26.8666C36.3341 26.8666 36.9675 26.2333 36.8008 25.6666Z" fill="#EC4C7D"/>
<path d="M21.1324 12.8334V8.36669C21.1324 7.60002 20.7991 7.16669 19.9324 7.16669C19.0658 7.16669 18.7324 7.60002 18.7324 8.36669V12.8334H21.1324Z" fill="#00A9DA"/>
<path d="M18.7324 19.4333V24.5333C18.7324 25.3 19.0658 25.7333 19.9324 25.7333C20.7991 25.7333 21.1324 25.3 21.1324 24.5333V19.4333H18.7324Z" fill="#00A9DA"/>
<path d="M14.6007 15.2667H11.734V8.36669C11.734 7.60002 11.4007 7.16669 10.534 7.16669C9.66732 7.16669 9.33398 7.60002 9.33398 8.36669V24.5667C9.33398 25.3333 9.66732 25.7667 10.534 25.7667C11.4007 25.7667 11.734 25.3333 11.734 24.5667V17.6667H14.6007V15.2667Z" fill="#00A9DA"/>
<path d="M12.3336 18.3V25.2C12.3336 25.9667 12.0003 26.4 11.1336 26.4C10.2669 26.4 9.93359 25.9667 9.93359 25.2V8.99999C9.93359 8.23332 10.2669 7.79999 11.1336 7.79999C12.0003 7.79999 12.3336 8.23332 12.3336 8.99999V15.9H19.3336V8.99999C19.3336 8.23332 19.6669 7.79999 20.5336 7.79999C21.4003 7.79999 21.7336 8.23332 21.7336 8.99999V25.2C21.7336 25.9667 21.4003 26.4 20.5336 26.4C19.6669 26.4 19.3336 25.9667 19.3336 25.2V18.3H12.3336Z" fill="#23346C"/>
<path d="M28.7991 9.03331C28.9991 8.39998 29.2658 7.83331 30.0324 7.83331C30.7991 7.83331 31.0991 8.43331 31.2658 9.03331L35.8658 25.2C36.0324 25.7666 35.3991 26.4 34.7324 26.4C33.9991 26.4 33.5991 25.7666 33.4325 25.2L32.5324 22.3333H27.4658L26.5658 25.2C26.3991 25.7666 26.0324 26.4 25.2658 26.4C24.5991 26.4 23.9658 25.7666 24.1324 25.2L28.7991 9.03331ZM30.0324 13.4666L28.1324 19.9333H31.8991L30.0324 13.4666Z" fill="#23346C"/>
<path d="M53.5333 8.99999C53.5333 8.23332 53.8667 7.79999 54.7333 7.79999C55.6 7.79999 55.9333 8.23332 55.9333 8.99999V14.5L63.2 8.33332C63.4667 8.06665 63.8 7.89999 64.1667 7.86665C64.8 7.86665 65.3333 8.43332 65.3 9.06665V9.09999C65.2667 9.49999 65.0667 9.86665 64.7667 10.1L56.5333 17.1333L64.7333 24.1667C65.0667 24.4 65.3 24.7667 65.3333 25.2C65.3667 25.8333 64.9 26.4 64.2333 26.4333C64.2 26.4333 64.2 26.4333 64.1667 26.4333C63.6667 26.4333 63.2667 26 62.8667 25.7L55.9 19.7V25.2333C55.9 26 55.5667 26.4333 54.7 26.4333C53.8333 26.4333 53.5 26 53.5 25.2333L53.5333 8.99999Z" fill="#23346C"/>
<path d="M106.334 25.2C106.334 25.9667 106 26.4 105.134 26.4C104.267 26.4 103.934 25.9667 103.934 25.2V9.19999C103.934 8.43332 104.534 7.83332 105.3 7.79999C105.3 7.79999 105.3 7.79999 105.334 7.79999H112C113.9 7.79999 115.767 9.13332 115.767 11.2667V12.9C115.767 15.1333 113.9 16.3 112 16.3H109.8L115.167 23.9667C115.434 24.3333 115.767 24.7667 115.767 25.2333C115.767 25.8667 115.234 26.3667 114.6 26.3667H114.567C114.134 26.3333 113.734 26.1 113.5 25.7L106.9 16.3333H106.334V25.2ZM106.334 13.9333H111.634C112.3 13.9333 113.334 13.9 113.334 12.9333V11.2667C113.334 10.3 112.367 10.2 111.634 10.2H106.3V13.9333H106.334Z" fill="#23346C"/>
<path d="M122.534 9.03331C122.734 8.39998 123 7.83331 123.734 7.83331C124.467 7.83331 124.8 8.43331 124.967 9.03331L129.567 25.2C129.734 25.7666 129.1 26.4 128.434 26.4C127.7 26.4 127.3 25.7666 127.134 25.2L126.267 22.3333H121.167L120.267 25.2C120.1 25.7666 119.734 26.4 118.967 26.4C118.3 26.4 117.667 25.7666 117.834 25.2L122.534 9.03331ZM123.8 13.4666H123.767L121.9 19.9333H125.667L123.8 13.4666Z" fill="#23346C"/>
<path d="M137.134 26.4C135.334 26.4 134.3 25.6667 133.534 24.1333L131.334 19.7C130.9 18.9333 130.7 18.0667 130.7 17.2C130.667 16.2667 130.9 15.3333 131.367 14.5333L133.567 10.1C134.367 8.43332 135.4 7.79999 137.234 7.79999H141.3C141.9 7.73332 142.467 8.19999 142.534 8.79999C142.534 8.86666 142.534 8.93332 142.534 8.99999C142.567 9.63332 142.1 10.1667 141.467 10.2C141.434 10.2 141.4 10.2 141.334 10.2H137.334C136.3 10.2 136.134 10.3 135.667 11.2L133.6 15.3667C133.267 15.9333 133.1 16.5333 133.1 17.2C133.134 17.7667 133.3 18.3667 133.6 18.8333L135.634 22.9667C136.134 23.9667 136.367 24.0333 137.434 24.0333H141.334C141.967 24 142.5 24.4667 142.534 25.0667C142.534 25.1333 142.534 25.1667 142.534 25.2333C142.567 25.8667 142.1 26.4 141.467 26.4333C141.434 26.4333 141.4 26.4333 141.334 26.4333L137.134 26.4Z" fill="#23346C"/>
<path d="M39.4 18.1333C39.2667 17.8333 39.2 17.5 39.2 17.1667C39.2 16.5333 39.3667 15.9 39.7 15.3333L41.7667 11.1667C42.2333 10.2667 42.4 10.1667 43.4 10.1667H47.4C48.0333 10.2 48.5667 9.7 48.6 9.1C48.6 9.06666 48.6 9 48.6 8.96666C48.6333 8.36666 48.1667 7.83333 47.5667 7.76666C47.5 7.76666 47.4667 7.76666 47.4 7.76666H43.3333C41.5 7.76666 40.4667 8.4 39.6667 10.0667L37.4667 14.5C37 15.3 36.7667 16.2333 36.8 17.1667C36.8 17.5 36.8333 17.8 36.9 18.1333H39.4Z" fill="#2D99D5"/>
<path d="M44.2997 26.4C42.4997 26.4 41.4664 25.6667 40.6997 24.1333L38.4997 19.7C38.0664 18.9333 37.8664 18.0667 37.8664 17.2C37.8331 16.2667 38.0664 15.3333 38.5331 14.5333L40.7331 10.1C41.5331 8.43335 42.5664 7.80002 44.3997 7.80002H48.4664C49.0664 7.76668 49.6331 8.20002 49.6664 8.83335C49.6664 8.90002 49.6664 8.93335 49.6664 9.00002C49.6997 9.63335 49.2331 10.1667 48.5997 10.2C48.5664 10.2 48.5331 10.2 48.4664 10.2H44.4664C43.4331 10.2 43.2664 10.3 42.8331 11.2L40.7664 15.3667C40.4331 15.9333 40.2664 16.5333 40.2664 17.2C40.2997 17.7667 40.4664 18.3667 40.7664 18.8333L42.7997 22.9667C43.2664 23.9333 43.4997 24.0333 44.5997 24.0333H48.4997C49.0997 23.9667 49.6664 24.4333 49.6997 25.0667C49.6997 25.1333 49.6997 25.2 49.6997 25.2667C49.7331 25.9 49.2664 26.4333 48.6331 26.4667C48.5997 26.4667 48.5664 26.4667 48.4997 26.4667H44.2997V26.4Z" fill="#23346C"/>
<path d="M91.0327 18.1333C90.8994 17.8333 90.8327 17.5 90.866 17.1667C90.866 16.5333 91.0327 15.9 91.366 15.3333L93.4327 11.1667C93.8994 10.2667 94.066 10.1667 95.066 10.1667H99.066C99.6994 10.2 100.233 9.73333 100.266 9.1C100.266 9.06666 100.266 9 100.266 8.96666C100.299 8.36666 99.8327 7.83333 99.2327 7.76666C99.166 7.76666 99.1327 7.76666 99.066 7.76666H94.9994C93.166 7.76666 92.1327 8.4 91.3327 10.0667L89.1327 14.5C88.666 15.3 88.4327 16.2333 88.466 17.1667C88.466 17.5 88.4994 17.8 88.566 18.1333H91.0327Z" fill="#EC4C7D"/>
<path d="M95.4658 26.4C93.6658 26.4 92.6324 25.6667 91.8658 24.1334L89.6658 19.7C89.2658 18.9334 89.0324 18.0667 89.0324 17.2C88.9991 16.2667 89.2324 15.3334 89.6991 14.5334L91.8991 10.1C92.6991 8.43335 93.7324 7.80002 95.5658 7.80002H99.6658C100.266 7.76669 100.799 8.23335 100.832 8.83335C100.832 8.86669 100.832 8.93335 100.832 8.96669C100.866 9.60002 100.399 10.1334 99.7658 10.1667C99.7324 10.1667 99.6991 10.1667 99.6324 10.1667H95.6324C94.5991 10.1667 94.4324 10.2667 93.9658 11.1667L91.8991 15.3334C91.5658 15.9 91.3991 16.5 91.3991 17.1667C91.4324 17.7667 91.5991 18.3334 91.8991 18.8L93.9324 22.9334C94.3991 23.9 94.6324 24 95.7324 24H99.6658C100.266 23.9667 100.799 24.4334 100.866 25.0334C100.866 25.1 100.866 25.1334 100.866 25.2C100.899 25.8334 100.432 26.3667 99.7991 26.4C99.7658 26.4 99.7324 26.4 99.6658 26.4H95.4658Z" fill="#23346C"/>
<path d="M151.633 25.2C151.633 25.9667 151.3 26.4 150.433 26.4C149.567 26.4 149.233 25.9667 149.233 25.2V17.5667L144.533 11.4667V8.99999C144.533 8.23332 144.867 7.79999 145.733 7.79999C146.6 7.79999 146.933 8.23332 146.933 8.99999V10.6333L150.433 15.2L153.933 10.6333V8.99999C153.933 8.23332 154.267 7.79999 155.133 7.79999C156 7.79999 156.333 8.23332 156.333 8.99999V11.4333L151.633 17.5667V25.2Z" fill="#23346C"/>
<path d="M66.0007 17.6L66.1673 17.4666L68.634 15.8C68.8673 15.6333 69.034 15.3666 69.034 15.0666C69.034 14.5333 68.6007 14.1 68.0673 14.1C67.8673 14.1 67.7007 14.1666 67.534 14.2666L63.734 16.8333C63.4673 17.0333 63.4007 17.4333 63.6007 17.7C63.634 17.7666 63.7007 17.8 63.734 17.8333L65.934 19.4C65.434 19.0333 65.334 18.3333 65.7007 17.8333C65.8007 17.7666 65.9007 17.6666 66.0007 17.6Z" fill="#2D99D5"/>
<path d="M67.5672 14.5L63.7672 17.0667C63.5005 17.2667 63.4339 17.6667 63.6339 17.9333C63.6672 18 63.7339 18.0333 63.7672 18.0667L67.5672 20.7333C68.0005 21.0333 68.5672 20.9333 68.8672 20.5C68.9672 20.3333 69.0339 20.1667 69.0339 19.9667C69.0339 19.4667 68.4339 19.2333 68.0339 18.9333L66.1672 17.6667L68.6672 16C68.9005 15.8333 69.0672 15.5667 69.0672 15.2667C69.0672 14.7333 68.6339 14.3 68.1339 14.3C67.9005 14.3 67.7339 14.3667 67.5672 14.5Z" fill="#EC4C7D"/>
<path d="M66.0005 17.8L66.1672 17.6666L68.6672 16C68.9005 15.8333 69.0672 15.5666 69.0672 15.2666C69.0672 14.7333 68.6339 14.3333 68.1005 14.3333C67.9005 14.3333 67.7339 14.4 67.5672 14.5L63.7672 17.0666C63.5005 17.2666 63.4339 17.6666 63.6339 17.9333C63.6672 18 63.7339 18.0333 63.7672 18.0666L65.9672 19.6333C65.4672 19.2666 65.3672 18.5666 65.7339 18.0666C65.8005 17.9666 65.9005 17.8666 66.0005 17.8Z" fill="#223469"/>
<path d="M84.3001 17.8333L82.9668 18.7333C82.5335 19 81.9668 19.2666 81.9668 19.7666C81.9668 20.3 82.4001 20.7 82.9001 20.7C83.1001 20.7 83.2668 20.6333 83.4335 20.5333L85.7668 18.9L84.3001 17.8333Z" fill="#23346C"/>
<path d="M83.4667 14.5L87.2667 17.0666C87.5333 17.2666 87.6 17.6666 87.4 17.9333C87.3667 18 87.3 18.0333 87.2667 18.0666L83.4667 20.7333C83.0333 21.0333 82.4667 20.9333 82.1667 20.5C82.0667 20.3333 82 20.1666 82 19.9666C82 19.4666 82.6 19.2333 83 18.9333L84.8667 17.6666L82.4 16C82.1667 15.8333 82 15.5666 82 15.2666C82 14.7333 82.4333 14.3333 82.9667 14.3333C83.1 14.3333 83.3 14.3666 83.4667 14.5Z" fill="#2D99D5"/>
<path d="M85.0001 17.8L84.8335 17.6667L82.3668 16C82.1335 15.8333 81.9668 15.5667 81.9668 15.2667C81.9668 14.7333 82.4001 14.3 82.9001 14.3C83.1001 14.3 83.2668 14.3667 83.4335 14.4667L87.2335 17.0333C87.5001 17.2333 87.5668 17.6333 87.3668 17.9C87.3335 17.9667 87.2668 18 87.2335 18.0333L85.0335 19.6C85.5335 19.2333 85.6335 18.5333 85.3001 18.0333C85.2001 17.9667 85.1001 17.8667 85.0001 17.8Z" fill="#23346C"/>
<path d="M81.0324 14.8334C81.4658 15.6667 81.6991 16.6334 81.6658 17.5667C81.6658 18.7334 81.3324 19.5 80.8658 20.5L78.5991 25.0334C77.9991 26.2334 77.0324 27.0667 75.5991 27.0667C74.1658 27.0667 73.1658 26.2 72.5991 25.0334L70.3324 20.5C69.8324 19.5 69.5324 18.7334 69.5324 17.5667C69.4991 16.6 69.7324 15.6667 70.1658 14.8334L72.6324 9.93336C73.2324 8.76669 74.2324 7.90002 75.5991 7.90002C76.9658 7.90002 77.9991 8.76669 78.5991 9.93336L81.0324 14.8334ZM76.4324 11.1334C76.2324 10.7334 76.0991 10.4 75.5991 10.4C75.0991 10.4 74.9658 10.7334 74.7658 11.1334L72.5324 15.6C72.1658 16.2 71.9658 16.9 71.9658 17.6C71.9658 18.1667 72.0991 18.7334 72.3991 19.2334L74.7658 23.9334C74.9324 24.2667 75.0991 24.6667 75.5991 24.6667C76.0991 24.6667 76.2658 24.2667 76.4324 23.9334L78.7991 19.2334C79.0658 18.7334 79.2324 18.1667 79.2324 17.6C79.2324 16.9 79.0324 16.2 78.6658 15.6L76.4324 11.1334Z" fill="#23346C"/>
</svg>
