<svg width="127" height="34" viewBox="0 0 127 34" fill="none" xmlns="http://www.w3.org/2000/svg">
<g clip-path="url(#clip0_2830_3062)">
<path d="M125.877 31.2532C125.877 30.9132 125.543 30.5732 125.209 30.6412H125.142H124.473V32.7492H124.874V31.8652H125.142L125.61 32.7492H126.078L125.543 31.7972C125.744 31.7972 125.944 31.5252 125.877 31.2532ZM124.807 31.5932V30.9812H125.142C125.342 30.9132 125.476 31.0492 125.543 31.2532C125.543 31.2532 125.543 31.2532 125.543 31.3212C125.543 31.5252 125.342 31.6612 125.142 31.6612C125.142 31.6612 125.142 31.6612 125.075 31.6612L124.807 31.5932ZM125.142 29.8252C124.138 29.8252 123.336 30.7092 123.336 31.7292C123.336 32.7492 124.205 33.5652 125.209 33.5652C126.212 33.5652 127.014 32.6812 127.014 31.6612C127.014 31.1852 126.814 30.7092 126.479 30.3692C126.078 30.0292 125.61 29.8252 125.142 29.8252ZM125.142 33.2932C124.272 33.2932 123.603 32.6132 123.603 31.7292C123.603 30.8452 124.272 30.1652 125.142 30.1652C126.011 30.1652 126.68 30.8452 126.68 31.7292C126.68 32.6132 126.011 33.2932 125.142 33.2932Z" fill="#0077C5"/>
<path d="M0.0136719 7.72497H6.30014V33.293H0.0136719V7.72497ZM26.564 6.97697C23.287 6.90897 20.2775 8.81297 18.8062 11.805H18.6724V7.72497H12.7204V33.293H19.0068V19.217C19.0068 15.817 20.8794 12.281 24.892 12.281C28.8378 12.281 29.5734 16.089 29.5734 19.081V33.293H35.8599V17.313C35.8599 12.077 33.1179 6.97697 26.564 6.97697ZM80.6008 21.801C80.6008 25.201 78.7283 28.737 74.7156 28.737C70.7699 28.737 70.0342 24.929 70.0342 21.937V7.72497H63.7477V23.705C63.7477 28.941 66.4897 34.041 73.0437 34.041C76.3207 34.109 79.397 32.205 80.8683 29.213H81.0021V33.293H86.9542V7.72497H80.6677L80.6008 21.801ZM93.3075 33.293H99.594V7.72497H93.3075V33.293ZM39.0031 13.437H46.0253V33.293H52.3117V13.437H59.3338V7.72497H39.07L39.0031 13.437ZM49.2354 4.39297C48.2991 5.61697 46.6272 5.82097 45.4234 4.93697C44.2196 3.98497 44.0189 2.28497 44.8883 1.06097C45.8246 -0.163032 47.4966 -0.367031 48.7004 0.516969C49.9041 1.46897 50.1048 3.16897 49.2354 4.39297ZM104.008 7.72497V13.437H111.03V33.293H117.316V13.437H124.339V7.72497H104.008ZM114.173 4.39297C113.237 5.61697 111.565 5.82097 110.361 4.93697C109.157 3.98497 108.957 2.28497 109.826 1.06097C110.762 -0.163032 112.434 -0.367031 113.638 0.516969C114.842 1.46897 115.11 3.16897 114.173 4.39297Z" fill="#0077C5"/>
</g>
<defs>
<clipPath id="clip0_2830_3062">
<rect width="127" height="34" fill="white"/>
</clipPath>
</defs>
</svg>
