<svg width="152" height="36" viewBox="0 0 152 36" fill="none" xmlns="http://www.w3.org/2000/svg">
<path fill-rule="evenodd" clip-rule="evenodd" d="M35.9629 3.67212H55.7984V9.07212H49.474V31.9681H42.2872V9.07212H35.9629V3.67212Z" fill="#00619C"/>
<path fill-rule="evenodd" clip-rule="evenodd" d="M52.7793 12.024H59.1036V15.048H59.1755C59.9661 12.528 62.8408 11.592 65.2843 11.592V18.072C64.4219 17.784 63.5594 17.568 62.697 17.568C60.541 17.568 59.8223 18.072 59.2474 19.152V32.04H52.7793V12.024Z" fill="#00619C"/>
<path fill-rule="evenodd" clip-rule="evenodd" d="M67.0098 12.0239H73.406V31.9679H67.0098V12.0239Z" fill="#00619C"/>
<path fill-rule="evenodd" clip-rule="evenodd" d="M75.6324 12.024H81.9568V14.616H82.0286C83.2504 12.672 85.3345 11.448 87.6343 11.448C89.5747 11.232 91.2996 12.672 91.587 14.616H91.6589C92.8806 12.672 94.9648 11.448 97.2646 11.448C99.8518 11.448 101.792 12.816 101.792 15.624V31.824H95.396V17.784C95.396 16.848 95.1085 16.056 93.9587 16.056C93.3118 15.984 92.665 16.344 92.3057 16.92L91.9464 17.424V31.968H85.5501V17.784C85.5501 16.848 85.1908 16.056 83.9691 16.056C83.3223 16.056 82.6754 16.416 82.3161 16.92L81.8849 17.424V31.968H75.5605V12.024H75.6324Z" fill="#00619C"/>
<path fill-rule="evenodd" clip-rule="evenodd" d="M104.021 3.67212H110.418V13.1041H110.49C111.568 12.1681 112.933 11.5921 114.37 11.5201C118.754 11.5201 121.198 15.9841 121.198 21.7441C121.198 26.3521 119.329 32.1841 113.939 32.1841C111.711 32.2561 109.627 31.0321 108.549 29.0161L107.399 31.9681H104.021V3.67212ZM110.418 25.5601C110.202 26.7841 110.993 27.9361 112.143 28.1521C112.286 28.1521 112.43 28.2241 112.574 28.2241C114.299 28.2241 114.658 26.4241 114.658 22.7521V21.1681C114.658 17.2801 114.658 15.0481 112.574 15.0481C111.927 15.1201 111.28 15.4081 110.849 15.9121L110.49 16.2001V25.6321H110.418V25.5601Z" fill="#00619C"/>
<path fill-rule="evenodd" clip-rule="evenodd" d="M122.85 3.67212H129.246V31.9681H122.85V3.67212Z" fill="#00619C"/>
<path fill-rule="evenodd" clip-rule="evenodd" d="M137.295 22.8239C137.295 24.5519 137.582 27.6479 140.241 27.6479C141.822 27.5759 143.116 26.4959 143.475 24.9119L147.715 26.4959C146.494 29.8799 143.332 32.0399 139.738 31.9679C133.629 31.9679 130.898 26.9999 130.898 21.4559C130.898 15.7679 133.845 11.0879 139.738 11.0879C145.847 11.0879 147.931 16.4159 147.931 21.5279V22.8959H137.295V22.8239ZM142.11 19.0079C142.11 17.2079 141.966 14.9759 139.666 14.9759C137.941 14.9759 137.367 17.1359 137.367 19.0079H142.11Z" fill="#00619C"/>
<path fill-rule="evenodd" clip-rule="evenodd" d="M67.0098 3.45605H73.406V9.36005H67.0098V3.45605Z" fill="#00619C"/>
<path fill-rule="evenodd" clip-rule="evenodd" d="M23.098 24.912C23.0261 25.272 22.8824 25.704 22.7387 26.064C22.6668 26.136 22.6668 26.28 22.6668 26.424C22.3793 26.712 22.1637 26.928 22.0918 26.928C20.7982 28.08 19.289 28.944 17.7079 29.448C16.4143 29.808 15.1207 29.952 13.8271 29.952L11.168 31.464C13.5396 32.04 15.9831 31.896 18.2829 31.176C20.1514 30.672 21.8762 29.664 23.3136 28.296C24.7509 27.216 25.9008 25.776 26.6195 24.12C26.7632 23.76 26.9788 23.256 27.1944 22.752L23.098 24.912Z" fill="#00619C"/>
<path fill-rule="evenodd" clip-rule="evenodd" d="M13.4677 5.47196H14.2582C13.9708 5.54396 13.6833 5.61596 13.3958 5.75996L15.8393 7.12796C17.7798 7.05596 19.7202 7.84796 21.0138 9.28796C20.7263 9.28796 20.4389 9.35996 20.0795 9.35996L24.2478 11.592V11.52C24.3916 11.592 24.5353 11.736 24.6072 11.88L27.4819 13.392C27.41 13.32 27.41 13.248 27.41 13.104C27.41 13.032 27.3381 13.032 27.3381 12.96C27.3381 12.888 27.2663 12.816 27.2663 12.672C26.4039 10.368 24.9665 8.42396 23.0261 6.91196C23.0261 6.83996 22.9542 6.83996 22.8824 6.76796C20.7982 5.03996 18.211 4.03196 15.5519 3.81596H15.2644C14.402 3.74396 13.4677 3.74396 12.6053 3.81596C12.6053 3.88796 12.5334 3.88796 12.4615 3.88796C12.1022 3.88796 11.8147 3.95996 11.5273 4.03196C11.3835 4.03196 11.0242 4.10396 10.8086 4.10396L13.324 5.61596C13.1084 5.47196 13.2521 5.47196 13.4677 5.47196Z" fill="#00619C"/>
<path fill-rule="evenodd" clip-rule="evenodd" d="M2.6873 22.3201C2.32796 21.4561 2.11235 20.5921 1.96862 19.7281C1.82488 19.0081 1.75302 18.2161 1.82488 17.4961C1.82488 17.1361 1.89675 16.6321 1.89675 16.2001C2.04049 15.1201 2.32796 14.0401 2.75916 13.0321V9.28809C2.32796 9.93609 1.96862 10.6561 1.60928 11.3761C0.818738 12.8161 0.315664 14.3281 0.171929 15.9121C0.028194 16.3441 -0.0436736 16.9201 0.028194 17.4241C0.028194 18.2161 0.028194 19.0801 0.100062 19.8721C0.315664 21.0961 0.675003 22.2481 1.10621 23.3281C1.39368 24.1921 1.82488 24.9841 2.39983 25.7041C2.39983 25.7761 2.47169 25.7761 2.47169 25.8481C2.54356 25.9201 2.54356 25.9921 2.61543 26.1361V22.0321C2.83103 22.2481 2.6873 22.3201 2.6873 22.3201Z" fill="#00619C"/>
<path fill-rule="evenodd" clip-rule="evenodd" d="M23.4578 15.7681C23.314 16.0561 23.0984 16.3441 22.8828 16.5601C23.6015 17.7121 24.1046 19.0081 24.4639 20.3041C24.6795 20.1601 24.7514 19.9441 24.8232 19.7281C25.9731 17.8561 26.1887 15.5521 25.3982 13.4641C25.3263 13.3921 25.3263 13.3921 25.3263 13.3201C25.2544 13.1041 25.1107 12.8881 25.0388 12.7441C25.0388 12.6721 24.967 12.6001 24.8951 12.4561C24.8951 12.3121 24.7514 12.1681 24.6076 12.0961L24.2483 11.8081C24.4639 13.1761 24.1764 14.5441 23.4578 15.7681Z" fill="#00619C"/>
<path fill-rule="evenodd" clip-rule="evenodd" d="M12.4608 5.54395H12.3889C11.8139 5.61595 11.239 5.75995 10.6641 5.90395C11.0953 6.04795 11.5983 6.26395 12.1014 6.40795C12.4608 6.11995 12.9638 5.90395 13.395 5.68795L12.892 5.54395H12.4608Z" fill="#00619C"/>
<path fill-rule="evenodd" clip-rule="evenodd" d="M27.123 22.8241L35.8909 18.0001L27.3386 13.3921C28.3448 16.4881 28.2729 19.8001 27.123 22.8241Z" fill="#00619C"/>
<path fill-rule="evenodd" clip-rule="evenodd" d="M15.264 7.12793H15.1921C14.9046 7.19993 14.4734 7.27193 14.2578 7.41593C15.5514 8.13593 16.7732 8.99993 17.9231 9.93593C18.7136 9.64793 19.5041 9.57593 20.151 9.35993L15.9826 7.12793C15.767 7.12793 15.4796 7.12793 15.264 7.12793Z" fill="#00619C"/>
<path fill-rule="evenodd" clip-rule="evenodd" d="M19.3609 25.2C14.4021 25.776 9.51508 23.688 6.49664 19.8C5.49049 20.952 4.69995 22.248 4.26874 23.6881C4.19688 24.12 4.19688 24.552 4.26874 24.984C4.41248 25.272 4.62808 25.416 4.77182 25.704C6.28104 27.504 8.3652 28.872 10.665 29.52C11.6711 29.808 12.7491 30.024 13.7553 30.024L23.0981 24.984C23.0981 24.624 23.1699 24.192 23.1699 23.832C21.9482 24.552 20.6546 24.984 19.3609 25.2Z" fill="#00619C"/>
<path fill-rule="evenodd" clip-rule="evenodd" d="M6.64017 16.7041C7.86192 15.6241 9.08367 14.6161 10.4492 13.6801C10.3773 13.4641 10.2336 13.2481 10.1617 13.1041C9.58674 11.4481 9.80235 9.64808 10.6648 8.13608C10.6648 8.06408 10.7366 7.99208 10.7366 7.84808C9.80235 7.48808 8.7962 7.41608 7.86192 7.70408C7.35885 8.13608 6.92764 8.64008 6.64017 9.28808C5.9215 10.3681 5.56216 11.6641 5.63403 12.9601C5.63403 13.8961 5.84963 14.8321 6.1371 15.6961C6.28083 16.0561 6.49644 16.2721 6.64017 16.7041Z" fill="#00619C"/>
<path fill-rule="evenodd" clip-rule="evenodd" d="M11.8142 12.4561C11.8142 12.5281 11.8142 12.6721 11.8861 12.7441C13.1078 11.9521 14.4015 11.2321 15.6951 10.6561C14.6889 9.79209 13.6109 9.07209 12.3892 8.49609C12.3173 8.71209 12.1736 8.92809 12.1017 9.07209C11.4549 10.0801 11.3112 11.3761 11.8142 12.4561Z" fill="#00619C"/>
<path fill-rule="evenodd" clip-rule="evenodd" d="M18.7865 16.6319C19.4333 16.6319 20.0082 16.4159 20.5113 16.1279C19.577 14.6159 18.499 13.2479 17.2054 12.0239C16.9898 12.1679 16.7742 12.2399 16.4867 12.3119C15.1931 12.8159 13.8995 13.4639 12.6777 14.2559C14.187 15.9839 16.4867 16.9199 18.7865 16.6319Z" fill="#00619C"/>
<path fill-rule="evenodd" clip-rule="evenodd" d="M6.85662 5.688C7.93463 4.968 9.08451 4.464 10.3063 4.104L2.83203 0V9.36C3.91005 7.848 5.27553 6.552 6.85662 5.688Z" fill="#00619C"/>
<path fill-rule="evenodd" clip-rule="evenodd" d="M21.9478 14.8319C22.5946 13.8239 22.6664 12.5279 22.2352 11.4479C22.2352 11.3759 22.1634 11.3039 22.1634 11.1599C21.1572 11.1599 20.1511 11.3039 19.2168 11.5199C20.2229 12.5999 21.0854 13.6799 21.8759 14.9039V14.8319H21.9478Z" fill="#00619C"/>
<path fill-rule="evenodd" clip-rule="evenodd" d="M19.0008 23.2559C20.4381 23.1119 21.8036 22.6079 22.9535 21.7439C22.666 20.3039 22.1629 18.9359 21.3724 17.6399C20.6537 18.0719 19.8632 18.2879 19.0008 18.4319C16.0542 18.7919 13.1076 17.5679 11.2391 15.1919C9.94545 16.1279 8.65183 17.2079 7.50195 18.3599C10.2329 21.8879 14.6168 23.7599 19.0008 23.2559Z" fill="#00619C"/>
<path fill-rule="evenodd" clip-rule="evenodd" d="M5.34584 18.216C4.9865 17.568 4.69903 16.992 4.48343 16.272C3.83662 14.472 3.69289 12.528 4.12409 10.728C3.76475 11.16 3.47728 11.664 3.26168 12.24C3.18981 12.528 2.97421 12.816 2.90234 13.104V22.176C3.40542 20.664 4.26783 19.368 5.34584 18.216Z" fill="#00619C"/>
<path fill-rule="evenodd" clip-rule="evenodd" d="M25.5417 21.8879L24.9668 22.4639V23.1839C25.1105 22.8239 25.3261 22.3919 25.5417 21.8879Z" fill="#00619C"/>
<path fill-rule="evenodd" clip-rule="evenodd" d="M3.40697 26.928C3.26324 26.712 3.04763 26.424 2.83203 26.208V36L11.0249 31.464C10.7375 31.464 10.3781 31.392 10.0907 31.32C7.43156 30.528 5.13179 29.016 3.40697 26.928Z" fill="#00619C"/>
<path fill-rule="evenodd" clip-rule="evenodd" d="M148.723 31.896V29.952H148.004V29.592H149.585V29.952H149.082V31.896H148.723Z" fill="#00619C"/>
<path fill-rule="evenodd" clip-rule="evenodd" d="M150.231 31.8961H149.943V29.6641H150.303L151.021 31.3921L151.74 29.6641H152.099V31.8961H151.812V29.9521L151.093 31.8961H150.95L150.231 29.9521V31.8961Z" fill="#00619C"/>
</svg>
