<svg width="298" height="37" viewBox="0 0 298 37" fill="none" xmlns="http://www.w3.org/2000/svg">
<g clip-path="url(#clip0_2830_3032)">
<mask id="mask0_2830_3032" style="mask-type:luminance" maskUnits="userSpaceOnUse" x="0" y="0" width="298" height="37">
<path d="M297.21 0.957031H0.683594V36.8938H297.21V0.957031Z" fill="white"/>
</mask>
<g mask="url(#mask0_2830_3032)">
<path d="M88.9381 19.9145C88.9381 16.365 87.4209 13.2429 82.2987 13.2429C80.2602 13.2089 78.2459 13.6889 76.4418 14.6387L77.2759 17.491C78.5696 16.7228 80.0428 16.3087 81.5472 16.2901C84.1464 16.2901 84.5712 17.7621 84.5712 18.7086V18.9319C78.9054 18.9229 75.3262 20.8842 75.3262 24.8805C75.3235 25.5249 75.4528 26.1629 75.7063 26.7553C75.9597 27.3478 76.3318 27.882 76.7997 28.325C77.2676 28.7681 77.8212 29.1106 78.4266 29.3314C79.0319 29.5522 79.6761 29.6467 80.3193 29.6089C81.1827 29.6403 82.0418 29.4744 82.8314 29.1238C83.621 28.7732 84.3203 28.2471 84.8759 27.5856H84.9741C84.9741 27.5856 85.6197 30.2894 89.1847 29.2564C88.9994 28.0076 88.917 26.7458 88.9381 25.4835M84.7094 23.6629C84.7145 23.9488 84.6793 24.2339 84.6048 24.5099C84.4008 25.1026 84.0145 25.6155 83.5012 25.9752C82.9879 26.3349 82.374 26.523 81.7474 26.5126C81.4676 26.5375 81.1857 26.5013 80.9213 26.4064C80.6569 26.3115 80.4163 26.1602 80.2162 25.9631C80.0161 25.7659 79.8612 25.5276 79.7624 25.2646C79.6636 25.0017 79.6232 24.7204 79.644 24.4402C79.644 22.2891 82.0134 21.6951 84.7107 21.7093L84.7094 23.6629Z" fill="#0F1F41"/>
<path d="M0.683594 8.40974C0.683594 8.40974 4.38418 23.5762 4.97555 26.0385C5.66506 28.9115 6.91236 29.9677 10.4903 29.2562L12.8002 19.8537C13.3865 17.5153 13.779 15.8509 14.1547 13.4764H14.2219C14.4848 15.6229 14.8598 17.7541 15.3452 19.8614C15.3452 19.8614 16.2852 24.1301 16.7655 26.3717C17.2459 28.6132 18.5926 30.0258 22.1008 29.2575L27.6091 8.41104H23.1647L21.2835 17.4236C20.776 20.0474 20.3202 22.0978 19.9651 24.4981H19.9019C19.5791 22.121 19.1723 20.1519 18.6571 17.5967L16.6997 8.41104H12.0681L9.98026 17.3591C9.3863 20.0796 8.83238 22.2773 8.47859 24.5898H8.41015C8.04862 22.4064 7.56571 19.6458 7.04664 17.0117C7.04664 17.0117 5.80192 10.6087 5.36808 8.39941" fill="#0F1F41"/>
<path d="M40.2441 19.9146C40.2441 16.3651 38.7282 13.2429 33.606 13.2429C31.567 13.2087 29.5523 13.6887 27.7478 14.6387L28.582 17.491C29.8758 16.7216 31.3494 16.3066 32.8545 16.2876C35.4537 16.2876 35.8798 17.7596 35.8798 18.706V18.9294C30.2127 18.9203 26.6348 20.8817 26.6348 24.878C26.632 25.5221 26.7611 26.16 27.0143 26.7524C27.2675 27.3447 27.6394 27.8789 28.107 28.3219C28.5746 28.765 29.128 29.1075 29.7332 29.3284C30.3383 29.5493 30.9822 29.6439 31.6253 29.6063C32.4889 29.6379 33.3483 29.4721 34.1381 29.1215C34.928 28.7709 35.6274 28.2447 36.1833 27.583H36.2788C36.2788 27.583 36.9244 30.2868 40.4946 29.2538C40.3071 28.0053 40.2237 26.7433 40.2454 25.4809M36.0167 23.6604C36.0238 23.9463 35.9886 24.2317 35.9121 24.5074C35.7082 25.0998 35.3221 25.6125 34.8091 25.9722C34.2961 26.332 33.6824 26.5202 33.056 26.51C32.7762 26.535 32.4943 26.4987 32.2299 26.4038C31.9655 26.309 31.7249 26.1577 31.5248 25.9605C31.3247 25.7634 31.1698 25.525 31.071 25.2621C30.9722 24.9991 30.9318 24.7178 30.9526 24.4377C30.9526 22.2865 33.3207 21.6926 36.0167 21.7068V23.6604Z" fill="#0F1F41"/>
<path d="M47.3009 24.8302V8.40869H43.0684V29.2577H47.3009" fill="#0F1F41"/>
<path d="M102.689 8.40967V23.7905C102.527 25.3985 102.974 27.0088 103.941 28.3032C104.397 28.742 104.938 29.0839 105.53 29.3082C106.121 29.5326 106.753 29.6348 107.385 29.6086C108.424 29.6172 109.457 29.4643 110.449 29.1554L110.393 25.8474C109.868 25.9785 109.328 26.0427 108.786 26.0385C107.344 26.0385 106.862 25.1153 106.862 23.2107V17.3293H110.547V13.3395H106.862V8.40967" fill="#0F1F41"/>
<path d="M91.7617 13.5965V29.2562H96.126V21.2366C96.1203 20.847 96.1523 20.4579 96.2215 20.0745C96.3551 19.2696 96.7822 18.5427 97.4203 18.0343C98.0585 17.5259 98.8624 17.272 99.6768 17.3216C100.098 17.3254 100.519 17.3625 100.934 17.4327V13.3396C100.619 13.2701 100.297 13.2376 99.9738 13.2427C99.0061 13.2763 98.0737 13.6138 97.3088 14.2074C96.5439 14.801 95.9855 15.6205 95.7128 16.5495H95.5927V13.5965" fill="#0F1F41"/>
<path d="M50.2676 13.5968V29.2565H54.5286V20.0722C54.5182 19.6367 54.586 19.2029 54.7287 18.7913C54.9051 18.2344 55.2465 17.7443 55.7076 17.3857C56.1688 17.0272 56.7279 16.8172 57.3111 16.7835C59.0284 16.7835 59.8315 18.2348 59.8315 20.3317V29.2565H64.0822V19.9599C64.0783 19.5299 64.1383 19.1017 64.2604 18.6893C64.4263 18.1402 64.7638 17.6586 65.2235 17.3154C65.6831 16.9722 66.2407 16.7853 66.8144 16.7822C68.5549 16.7822 69.3968 18.209 69.3968 20.6752V29.2552H73.6513V20.0322C73.6513 15.1669 71.1812 13.2417 68.3935 13.2417C67.3032 13.2216 66.2303 13.5166 65.3036 14.0913C64.511 14.5932 63.8344 15.2583 63.3191 16.0423H63.2571C62.9142 15.1874 62.3154 14.4593 61.5427 13.958C60.7699 13.4566 59.8611 13.2064 58.9406 13.2417C58.025 13.19 57.113 13.3948 56.3074 13.833C55.5017 14.2712 54.8343 14.9254 54.3801 15.7221H54.3168V13.5968" fill="#0F1F41"/>
<path d="M165.692 7.93467C167.381 7.59738 169.125 7.66141 170.785 8.12161C172.445 8.58182 173.973 9.42533 175.247 10.5842C175.306 10.6368 175.354 10.701 175.388 10.7727C175.422 10.8445 175.441 10.9224 175.444 11.0017C175.447 11.0811 175.434 11.1602 175.405 11.2342C175.377 11.3083 175.333 11.3757 175.278 11.4325C175.004 11.7063 174.672 12.0084 174.43 12.2809C174.157 12.583 173.975 12.5546 173.642 12.2512C172.056 10.8186 170.021 9.98311 167.886 9.88826C165.627 9.97072 163.488 10.9261 161.919 12.5534C160.35 14.1807 159.473 16.3531 159.473 18.6136C159.473 20.8741 160.35 23.0465 161.919 24.6738C163.488 26.3011 165.627 27.2564 167.886 27.3389C169.781 27.3749 171.656 26.9377 173.34 26.067V21.8241H169.853C169.78 21.8267 169.707 21.8147 169.639 21.7887C169.57 21.7627 169.508 21.7233 169.455 21.6727C169.402 21.6222 169.359 21.5616 169.33 21.4945C169.301 21.4274 169.285 21.3551 169.284 21.2818V19.5813H175.646V27.0923C175.629 27.2788 175.542 27.452 175.403 27.5777C173.126 28.8913 170.543 29.5812 167.914 29.5778C160.153 29.5778 154.331 21.6757 158.212 13.3823C158.911 11.9273 159.96 10.6681 161.264 9.71705C162.568 8.76603 164.088 8.15279 165.687 7.93209" fill="#0F1F41"/>
<path d="M179.189 8.73804C179.196 8.56358 179.269 8.39815 179.392 8.27468C179.516 8.15122 179.681 8.07878 179.856 8.07178H181.431V28.6109C181.424 28.7855 181.352 28.9511 181.228 29.0746C181.105 29.1982 180.939 29.2705 180.765 29.2772H179.189V8.73804Z" fill="#0F1F41"/>
<path d="M191.704 14.9771C193.165 14.9185 194.61 15.299 195.854 16.0695C197.097 16.8399 198.081 17.965 198.679 19.2998C199.277 20.6346 199.461 22.1179 199.209 23.5585C198.956 24.9991 198.278 26.3311 197.261 27.3827C196.245 28.4343 194.937 29.1575 193.505 29.4589C192.074 29.7603 190.586 29.6261 189.231 29.0738C187.877 28.5214 186.719 27.5762 185.907 26.3598C185.095 25.1434 184.665 23.7117 184.674 22.2491C184.656 20.3567 185.383 18.5331 186.698 17.1724C188.014 15.8117 189.812 15.0231 191.704 14.9771ZM191.704 27.5805C192.768 27.6782 193.837 27.4523 194.771 26.9324C195.705 26.4126 196.46 25.6229 196.938 24.6667C197.416 23.7105 197.594 22.6324 197.449 21.5733C197.304 20.5143 196.843 19.5236 196.126 18.731C195.409 17.9384 194.469 17.3807 193.43 17.1309C192.39 16.8811 191.3 16.9508 190.301 17.3309C189.302 17.7111 188.441 18.3839 187.83 19.2614C187.22 20.1389 186.888 21.1802 186.88 22.2491C186.84 22.9169 186.933 23.5859 187.155 24.2171C187.376 24.8482 187.722 25.429 188.17 25.9253C188.619 26.4216 189.161 26.8236 189.767 27.1078C190.373 27.392 191.029 27.5527 191.697 27.5805" fill="#0F1F41"/>
<path d="M201.826 8.73804C201.826 8.56636 201.892 8.40124 202.011 8.27712C202.129 8.15299 202.291 8.07943 202.463 8.07178H204.038V15.8577C205.241 15.2621 206.569 14.9607 207.912 14.9784C212.091 14.9784 214.516 18.1599 214.516 22.2505C214.516 26.2532 211.82 29.6103 208.245 29.6103C207.426 29.6226 206.612 29.4707 205.853 29.1638C205.093 28.8569 204.403 28.4011 203.822 27.8233C203.714 28.9066 203.048 29.6439 201.822 29.3224L201.826 8.73804ZM204.038 25.2783C204.477 25.942 205.064 26.4951 205.753 26.8944C206.441 27.2938 207.213 27.5286 208.007 27.5806C210.552 27.5806 212.249 25.0059 212.249 22.2776C212.249 19.4899 210.642 17.0069 207.582 17.0069C206.35 17.0306 205.139 17.3311 204.038 17.8862V25.2783Z" fill="#0F1F41"/>
<path d="M222.157 20.3998C223.172 20.4242 224.179 20.5769 225.156 20.8543C225.186 18.2797 223.945 17.0065 221.945 17.0065C220.821 17.0614 219.719 17.3392 218.703 17.8239C218.34 17.9749 218.158 17.7929 218.036 17.461L217.734 16.6437C217.613 16.2202 217.825 16.0368 218.158 15.8858C219.376 15.2944 220.712 14.9854 222.066 14.9819C225.642 14.9819 227.307 17.1034 227.307 20.8595V29.3298C226.044 29.6513 225.385 28.8804 225.277 27.7674C224.708 28.3548 224.025 28.8212 223.271 29.1386C222.516 29.4561 221.706 29.6182 220.887 29.6151C220.294 29.6282 219.704 29.5169 219.157 29.2884C218.609 29.0598 218.115 28.7191 217.707 28.2882C217.299 27.8572 216.986 27.3456 216.787 26.7862C216.589 26.2269 216.51 25.6322 216.555 25.0404C216.555 22.3741 218.555 20.405 222.16 20.405M221.281 27.5854C222.023 27.5863 222.756 27.4174 223.423 27.0918C224.09 26.7662 224.673 26.2924 225.129 25.7067V22.8544C224.189 22.4636 223.177 22.2774 222.159 22.3082C220.222 22.3082 218.766 23.2482 218.766 25.0352C218.749 25.3713 218.802 25.7072 218.922 26.0215C219.042 26.3359 219.226 26.6218 219.463 26.8612C219.699 27.1006 219.983 27.2881 220.296 27.4119C220.608 27.5357 220.944 27.593 221.28 27.5802" fill="#0F1F41"/>
<path d="M231.338 8.73804C231.345 8.56358 231.417 8.39815 231.541 8.27468C231.664 8.15122 231.83 8.07878 232.004 8.07178H233.579V28.6109C233.573 28.7855 233.5 28.9511 233.377 29.0746C233.253 29.1982 233.088 29.2705 232.913 29.2772H231.338V8.73804Z" fill="#0F1F41"/>
<path d="M261.758 14.9757C262.599 14.9514 263.436 15.0996 264.217 15.4113C264.998 15.7229 265.707 16.1913 266.299 16.7876C266.892 17.3839 267.357 18.0954 267.664 18.8782C267.971 19.6609 268.115 20.4984 268.085 21.3388C268.08 21.6224 268.06 21.9056 268.025 22.1871C268.013 22.3491 267.941 22.5009 267.823 22.6129C267.706 22.7248 267.551 22.7889 267.388 22.7927H257.208C257.24 24.0162 257.726 25.184 258.572 26.0688C259.418 26.9536 260.562 27.492 261.783 27.5792C263.134 27.5985 264.458 27.1959 265.57 26.4274C266.056 26.0943 266.267 25.9729 266.63 26.5191L266.993 27.0356C267.265 27.4591 267.387 27.6114 266.873 28.0053C265.381 29.0724 263.587 29.6347 261.753 29.6102C257.512 29.6102 254.967 26.2776 254.967 22.2788C254.967 18.3406 257.512 14.977 261.753 14.977M265.849 21.0043C265.825 19.9351 265.384 18.9176 264.619 18.1696C263.855 17.4216 262.828 17.0024 261.758 17.0016C260.648 17.0078 259.578 17.417 258.746 18.1533C257.915 18.8896 257.379 19.9028 257.239 21.0043H265.849Z" fill="#0F1F41"/>
<path d="M277.212 14.9757C278.179 14.9583 279.136 15.1559 280.017 15.5543C280.897 15.9527 281.678 16.5419 282.302 17.2792C282.366 17.3501 282.414 17.4339 282.442 17.5248C282.471 17.6158 282.48 17.7118 282.468 17.8064C282.457 17.901 282.425 17.9921 282.376 18.0736C282.326 18.155 282.26 18.2249 282.181 18.2786L281.697 18.7331C281.242 19.1269 280.97 18.8247 280.696 18.5213C280.264 18.0177 279.723 17.6195 279.114 17.357C278.505 17.0945 277.844 16.9747 277.181 17.0067C275.877 17.1379 274.668 17.7459 273.784 18.7141C272.901 19.6823 272.407 20.9425 272.395 22.253C272.384 23.5635 272.857 24.8321 273.724 25.8152C274.59 26.7984 275.789 27.427 277.091 27.5804C277.843 27.5887 278.585 27.4103 279.251 27.0613C279.918 26.7122 280.487 26.2034 280.908 25.5803C281.295 25.1258 281.697 25.2472 282.091 25.641L282.273 25.8231C282.575 26.1265 282.696 26.4286 282.455 26.7928C281.87 27.6544 281.085 28.3611 280.166 28.8519C279.248 29.3427 278.224 29.6029 277.183 29.6102C276.229 29.6301 275.282 29.4529 274.401 29.0898C273.519 28.7267 272.722 28.1855 272.059 27.5C271.397 26.8145 270.883 25.9996 270.55 25.1063C270.217 24.2129 270.072 23.2604 270.124 22.3084C270.09 21.3569 270.248 20.4082 270.589 19.5193C270.931 18.6304 271.448 17.8195 272.11 17.135C272.772 16.4506 273.565 15.9067 274.442 15.5359C275.319 15.1651 276.262 14.975 277.214 14.977" fill="#0F1F41"/>
<path d="M285.454 8.73804C285.461 8.56358 285.534 8.39815 285.657 8.27468C285.781 8.15122 285.946 8.07878 286.121 8.07178H287.696V16.768C288.89 15.6136 290.488 14.9719 292.149 14.9797C295.636 14.9797 297.208 17.1309 297.208 21.2201V28.6135C297.202 28.7881 297.129 28.9537 297.006 29.0772C296.882 29.2007 296.717 29.2731 296.542 29.2798H294.936V21.2175C294.936 18.5512 294.148 17.0069 291.997 17.0069C291.181 17.0291 290.379 17.218 289.639 17.562C288.899 17.9059 288.237 18.3977 287.695 19.007V28.6109C287.688 28.7855 287.616 28.9511 287.492 29.0746C287.369 29.1982 287.203 29.2705 287.028 29.2772H285.453L285.454 8.73804Z" fill="#0F1F41"/>
<path d="M255.213 8.06885H241.791V10.0857H242.308C242.328 10.0913 242.349 10.0956 242.369 10.0986H247.64V29.2769H249.944V10.0986H255.214C255.235 10.0957 255.256 10.0914 255.276 10.0857H255.793V8.06885H255.213Z" fill="#0F1F41"/>
<path d="M134.054 0.957031C132.694 0.957031 131.612 1.71884 131.613 2.64334L132.451 10.9755C132.569 11.2994 132.792 11.574 133.085 11.7548C133.379 11.9355 133.724 12.0117 134.067 11.971C134.409 12.0099 134.754 11.9323 135.047 11.7507C135.34 11.5692 135.563 11.2943 135.681 10.9703L136.495 2.6356C136.495 1.71109 135.409 0.957031 134.042 0.957031" fill="#06F27B"/>
<path d="M140.048 15.4535C140.186 15.7706 140.426 16.0321 140.731 16.196C141.035 16.3599 141.386 16.4167 141.727 16.3574L149.351 12.8944C150.153 12.4308 150.265 11.1138 149.582 9.93621C148.899 8.75863 147.7 8.20083 146.9 8.66308L140.105 13.5554C139.884 13.8208 139.758 14.1527 139.749 14.4979C139.739 14.8431 139.846 15.1815 140.052 15.4587" fill="#06F27B"/>
<path d="M134.051 25.8775C134.394 25.8366 134.741 25.9127 135.035 26.0934C135.329 26.274 135.554 26.5487 135.673 26.873L136.512 35.2051C136.512 36.1296 135.431 36.8927 134.069 36.8953C132.707 36.8979 131.626 36.1374 131.625 35.2167L132.438 26.8833C132.555 26.5581 132.779 26.2821 133.073 26.1004C133.366 25.9186 133.713 25.8419 134.056 25.8826" fill="#06F27B"/>
<path d="M140.04 22.417C140.178 22.0995 140.418 21.8376 140.723 21.6736C141.027 21.5096 141.378 21.453 141.719 21.5131L149.355 24.9516C150.158 25.4139 150.275 26.7309 149.594 27.9123C148.914 29.0938 147.717 29.6503 146.915 29.1906L140.104 24.3202C139.882 24.0553 139.755 23.7234 139.745 23.378C139.734 23.0326 139.84 22.6936 140.046 22.4157" fill="#06F27B"/>
<path d="M132.622 16.1934L131.048 15.1605L121.249 8.64247C121.046 8.52833 120.815 8.47331 120.582 8.48365C120.152 8.53766 119.742 8.69728 119.389 8.94827C119.036 9.19926 118.75 9.53381 118.558 9.92205C117.877 11.1035 117.995 12.4205 118.797 12.8828L119.021 12.9874L129.557 18.2116L130.824 18.8456L129.564 19.4808L118.817 24.8471C118.015 25.3106 117.903 26.6276 118.586 27.8052C119.269 28.9828 120.469 29.5406 121.268 29.0783L131.055 22.5216V22.5332L132.625 21.5003C133.064 21.2103 133.425 20.8157 133.674 20.3521C133.923 19.8885 134.053 19.3703 134.052 18.8441C134.051 18.3179 133.92 17.8001 133.669 17.3372C133.419 16.8743 133.058 16.4809 132.618 16.1921" fill="#06F27B"/>
</g>
</g>
<defs>
<clipPath id="clip0_2830_3032">
<rect width="296.526" height="35.9368" fill="white" transform="translate(0.683594 0.957031)"/>
</clipPath>
</defs>
</svg>
