<svg width="92" height="39" viewBox="0 0 92 39" fill="none" xmlns="http://www.w3.org/2000/svg">
<g clip-path="url(#clip0_2830_3076)">
<path d="M61.1259 15.678V13.962H61.3593C62.6813 13.962 63.3035 13.806 63.3035 12.48V3.51001C63.3035 2.18401 62.6813 2.02801 61.3593 2.02801H60.3483V0.312012H69.6027V2.10601H68.4362C66.9586 2.10601 66.7253 2.26201 66.7253 3.51001V13.884H70.4582C72.2468 13.884 73.3356 13.65 73.8022 12.714C74.2688 11.7 74.5021 10.608 74.4243 9.51601H76.213V15.678H61.1259ZM43.9391 15.678V13.962H44.8724C46.1944 13.962 46.7388 13.806 46.7388 12.48V3.51001C46.7388 2.18401 46.0389 2.02801 44.7168 2.02801H43.8614V0.312012H53.1158V2.10601H51.9493C50.4717 2.10601 50.2384 2.26201 50.2384 3.51001V13.884H53.9713C55.7599 13.884 56.8487 13.65 57.3153 12.714C57.8597 11.7 58.093 10.608 57.9374 9.51601H59.7261V15.678H43.9391ZM25.8191 15.678V13.962H26.7523C28.0744 13.962 28.7743 13.806 28.7743 12.558V3.51001C28.7743 2.26201 28.0744 2.10601 26.7523 2.10601H25.8191V0.390012H42.3838V6.31801H40.6729C40.5951 2.73001 39.7396 2.18401 36.5511 2.18401H32.1961V6.78601H33.4404C35.3846 6.78601 35.6179 6.16201 35.7735 3.82201H37.5621V11.544H35.7735C35.6179 8.97001 35.3846 8.50201 33.5182 8.50201H32.2739V13.806H37.1733C39.9729 13.806 40.5951 12.48 40.8284 9.51601H42.5393V15.678H25.8191ZM26.519 2.10601C25.2747 2.10601 24.8081 2.57401 24.3415 3.97801L19.9087 15.678H17.109L13.6095 7.17601L10.2654 15.678H7.388L2.79966 4.13401C2.48859 3.04201 1.55537 2.18401 0.311074 2.10601H0V0.390012H7.77684V2.10601H7.07692C6.1437 2.10601 5.83263 2.34001 5.83263 2.88601C5.83263 3.04201 5.83263 3.19801 5.9104 3.35401C5.9104 3.35401 7.69907 7.48801 9.0989 11.7H9.33221L12.3652 4.05601C12.2096 2.80801 11.8208 2.18401 10.4987 2.18401H9.40997V0.390012H17.5757V2.10601H16.2536C15.5537 2.10601 15.1648 2.26201 15.1648 2.73001C15.1648 2.96401 15.2426 3.19801 15.3204 3.35401C15.3204 3.35401 17.1868 7.87801 18.5089 11.7H18.6644L21.6196 3.97801C21.7751 3.58801 21.7751 3.19801 21.7751 2.80801C21.7751 2.34001 21.3863 2.18401 20.4531 2.18401H19.4421V0.468012H26.9079V2.10601H26.519Z" fill="#CE1141"/>
<path d="M92.0002 11.1541C92.0002 14.6641 89.2005 15.9121 85.1566 15.9121C83.2124 15.8341 81.3459 15.2101 79.7906 14.0401L79.324 15.6781H77.7686V9.59413H79.5573C80.0239 12.5581 82.0458 13.8061 84.8455 13.8841C87.3341 13.9621 89.045 13.3381 89.2005 11.7001C89.4338 9.75013 87.3341 9.90613 85.5454 9.59413L82.9013 9.12613C79.0129 8.50213 77.6908 7.33213 77.613 4.75813C77.5353 1.95013 80.1016 0.0781324 83.5234 0.0781324C85.4677 0.000132434 87.4119 0.546132 88.9672 1.63813L89.6671 0.312132H91.067V5.69413H89.3561C88.9672 2.73013 86.0898 1.87213 83.5234 1.87213C81.7348 1.95013 80.4905 3.04213 80.4905 4.21213C80.4905 5.38213 81.657 5.53813 83.1346 5.77213L86.3231 6.31813C89.4338 6.86413 92.0002 7.48813 92.0002 11.1541Z" fill="#CE1141"/>
<path d="M18.5081 29.3278C18.5858 28.2358 18.3525 27.2218 17.8859 26.2078C17.4193 25.3498 16.3306 25.1158 14.4641 25.1158H10.6535V29.7178H11.9755C13.9197 29.7178 14.153 29.4058 14.153 26.9878H15.5529V34.6318H13.9975C13.9975 32.1358 13.6864 31.5118 11.82 31.5118H10.5757V35.4898C10.5757 36.8158 10.7312 36.8938 12.1311 36.8938H13.9197V38.6098H4.50977V36.8938H5.44299C6.76505 36.8938 7.23166 36.7378 7.23166 35.4898V26.5198C7.23166 25.2718 6.76505 25.1158 5.44299 25.1158H4.50977V23.3218H20.2967V29.2498H18.5081" fill="#CE1141"/>
<path d="M27.5305 38.6878V36.9718H29.1637C30.0969 36.9718 30.4857 36.8938 30.4857 36.3478C30.4857 36.1138 30.408 35.8018 30.2524 35.6458L29.6303 33.8518H23.6421L22.8644 35.7238C22.7089 35.9578 22.7089 36.1918 22.7089 36.4258C22.7089 36.8938 23.0977 36.8938 23.9532 36.8938H25.5863V38.6098H17.5762V36.8938H18.2761C19.5204 36.8938 19.8315 36.5038 20.2981 35.4118L25.2752 23.3218H29.0081L33.9075 35.4118C34.2964 36.5818 34.9185 36.8938 35.6962 36.8938H36.5517V38.6098H27.5305M26.7528 26.1298L24.4198 31.9798H29.0859L26.7528 26.1298Z" fill="#CE1141"/>
<path d="M53.9721 35.0998C53.9721 37.9078 52.6501 38.9998 50.8614 38.9998C48.7616 38.9998 47.3618 38.4538 47.284 36.2698L47.2063 34.4758C47.1285 31.9798 46.2731 31.3558 43.6289 31.3558H42.0736V35.4118C42.0736 36.7378 42.2291 36.8158 43.6289 36.8158H45.0288V38.5318H35.541V36.8158H36.9408C37.8741 36.8158 38.574 36.5038 38.574 35.3338V26.4418C38.574 25.1938 38.4184 25.0378 37.0186 25.0378H35.7743V23.3218H46.3508C50.2392 23.3218 52.1057 24.4918 52.1057 26.9878C52.1057 29.1718 50.3948 30.5758 47.4396 30.8878C50.1615 31.5118 50.5503 32.5258 50.7058 34.5538V35.5678C50.7836 36.4258 51.0947 36.8938 51.6391 36.8938C52.5723 36.8158 52.6501 36.1918 52.5723 34.3978H54.0499L53.9721 35.0998ZM48.5283 27.3778C48.5283 25.5838 47.4396 25.1158 45.3398 25.1158H42.0736V29.7958H45.4176C47.5173 29.7178 48.5283 29.0158 48.5283 27.3778Z" fill="#CE1141"/>
<path d="M67.5813 28.2362C67.0369 26.0522 64.9372 24.6482 62.7597 24.8822C60.1933 24.8822 58.2491 26.9102 58.3269 30.8102C58.3269 34.7882 59.8822 36.8942 62.7597 36.8942C64.7816 36.8942 66.6481 35.8022 66.6481 34.0862V33.3062C66.6481 32.2142 66.4148 32.2142 64.9372 32.2142H64.1595V30.4202H71.2364V32.2142H70.7698C69.6033 32.2142 69.4477 32.1362 69.4477 33.4622V38.6102H68.2034L67.348 37.2842C65.8704 38.3762 64.004 38.9222 62.1375 38.9222C60.1155 39.0002 58.1713 38.1422 56.8493 36.7382C55.2939 35.1782 54.4384 32.9942 54.5162 30.8102C54.2829 26.7542 57.3936 23.2442 61.5154 23.0102C61.7487 23.0102 61.982 23.0102 62.2153 23.0102C64.004 22.9322 65.7149 23.4782 67.1147 24.6482L67.9701 23.0882H69.2144V28.2362H67.5813Z" fill="#CE1141"/>
<path d="M81.6575 38.9219C76.6025 38.9219 72.5586 35.7239 72.5586 30.9659C72.5586 26.2079 76.447 23.0879 81.5797 23.0879C86.6347 23.0879 90.5231 26.2079 90.5231 31.0439C90.5231 35.7239 86.7124 38.9219 81.6575 38.9219ZM86.7902 30.9659C86.7902 26.9879 84.6127 24.8819 81.5797 24.8819C78.5468 24.8819 76.3692 26.9879 76.3692 30.9659C76.3692 34.9439 78.6245 37.0499 81.5797 37.0499C84.4572 37.1279 86.7124 35.0219 86.7902 30.9659Z" fill="#CE1141"/>
</g>
<defs>
<clipPath id="clip0_2830_3076">
<rect width="92" height="39" fill="white"/>
</clipPath>
</defs>
</svg>
