<svg width="20" height="18" viewBox="0 0 20 18" fill="none" xmlns="http://www.w3.org/2000/svg">
<path d="M14.5625 13.6033C13.3423 13.6021 12.3521 14.5854 12.3509 15.7995C12.3497 17.0136 13.338 17.9988 14.5583 18C15.7785 18.0011 16.7687 17.0178 16.7699 15.8038V15.8016C16.7687 14.5888 15.7815 13.6057 14.5625 13.6033Z" fill="black"/>
<path d="M18.4814 3.07658C18.4285 3.06639 18.3748 3.06121 18.3209 3.06113H4.86789L4.65482 1.64292C4.52207 0.701055 3.71233 0.000289829 2.7564 0H1.02415C0.553441 0 0.171875 0.379634 0.171875 0.847957C0.171875 1.31628 0.553441 1.69591 1.02415 1.69591H2.75852C2.86689 1.69513 2.95861 1.77541 2.97159 1.88248L4.28408 10.8326C4.46402 11.9699 5.44725 12.8089 6.60439 12.8126H15.4701C16.5842 12.8141 17.5453 12.0351 17.7691 10.9492L19.1562 4.07019C19.2456 3.6104 18.9435 3.16555 18.4814 3.07658Z" fill="black"/>
<path d="M9.14975 15.7075C9.09785 14.529 8.12032 13.6013 6.93468 13.6054C5.71541 13.6545 4.76692 14.6776 4.81619 15.8907C4.86347 17.0547 5.81516 17.9799 6.98582 18H7.03909C8.25819 17.9468 9.20314 16.9205 9.14975 15.7075Z" fill="black"/>
</svg>
