<svg width="216" height="33" viewBox="0 0 216 33" fill="none" xmlns="http://www.w3.org/2000/svg">
<path d="M8.45783 16.5L0 0H216L207.542 16.5L216 33H0L8.45783 16.5Z" fill="white"/>
<path d="M34.7471 15.538C35.2031 15.61 35.6171 15.796 35.9891 16.096C36.3731 16.396 36.6731 16.768 36.8891 17.212C37.1171 17.656 37.2311 18.13 37.2311 18.634C37.2311 19.27 37.0691 19.846 36.7451 20.362C36.4211 20.866 35.9471 21.268 35.3231 21.568C34.7111 21.856 33.9851 22 33.1451 22H28.4651V9.454H32.9651C33.8171 9.454 34.5431 9.598 35.1431 9.886C35.7431 10.162 36.1931 10.54 36.4931 11.02C36.7931 11.5 36.9431 12.04 36.9431 12.64C36.9431 13.384 36.7391 14.002 36.3311 14.494C35.9351 14.974 35.4071 15.322 34.7471 15.538ZM30.1031 14.872H32.8571C33.6251 14.872 34.2191 14.692 34.6391 14.332C35.0591 13.972 35.2691 13.474 35.2691 12.838C35.2691 12.202 35.0591 11.704 34.6391 11.344C34.2191 10.984 33.6131 10.804 32.8211 10.804H30.1031V14.872ZM33.0011 20.65C33.8171 20.65 34.4531 20.458 34.9091 20.074C35.3651 19.69 35.5931 19.156 35.5931 18.472C35.5931 17.776 35.3531 17.23 34.8731 16.834C34.3931 16.426 33.7511 16.222 32.9471 16.222H30.1031V20.65H33.0011ZM52.2302 9.544V22H50.5922V12.712L46.4522 22H45.3002L41.1422 12.694V22H39.5042V9.544H41.2682L45.8762 19.84L50.4842 9.544H52.2302ZM67.2229 19.21H61.7509L60.7429 22H59.0149L63.5509 9.526H65.4409L69.9589 22H68.2309L67.2229 19.21ZM66.7549 17.878L64.4869 11.542L62.2189 17.878H66.7549ZM80.3238 13.126C80.3238 14.17 79.9638 15.04 79.2438 15.736C78.5358 16.42 77.4498 16.762 75.9858 16.762H73.5738V22H71.9358V9.454H75.9858C77.4018 9.454 78.4758 9.796 79.2078 10.48C79.9518 11.164 80.3238 12.046 80.3238 13.126ZM75.9858 15.412C76.8978 15.412 77.5698 15.214 78.0018 14.818C78.4338 14.422 78.6498 13.858 78.6498 13.126C78.6498 11.578 77.7618 10.804 75.9858 10.804H73.5738V15.412H75.9858ZM83.9976 9.454V22H82.3596V9.454H83.9976ZM93.2261 9.454V22H91.5881V9.454H93.2261ZM100.824 11.956C102.024 11.956 102.996 12.322 103.74 13.054C104.484 13.774 104.856 14.818 104.856 16.186V22H103.236V16.42C103.236 15.436 102.99 14.686 102.498 14.17C102.006 13.642 101.334 13.378 100.482 13.378C99.6178 13.378 98.9278 13.648 98.4118 14.188C97.9078 14.728 97.6558 15.514 97.6558 16.546V22H96.0178V12.136H97.6558V13.54C97.9798 13.036 98.4178 12.646 98.9698 12.37C99.5338 12.094 100.152 11.956 100.824 11.956ZM109.53 13.486V19.3C109.53 19.78 109.632 20.122 109.836 20.326C110.04 20.518 110.394 20.614 110.898 20.614H112.104V22H110.628C109.716 22 109.032 21.79 108.576 21.37C108.12 20.95 107.892 20.26 107.892 19.3V13.486H106.614V12.136H107.892V9.652H109.53V12.136H112.104V13.486H109.53ZM123.088 16.69C123.088 17.002 123.07 17.332 123.034 17.68H115.15C115.21 18.652 115.54 19.414 116.14 19.966C116.752 20.506 117.49 20.776 118.354 20.776C119.062 20.776 119.65 20.614 120.118 20.29C120.598 19.954 120.934 19.51 121.126 18.958H122.89C122.626 19.906 122.098 20.68 121.306 21.28C120.514 21.868 119.53 22.162 118.354 22.162C117.418 22.162 116.578 21.952 115.834 21.532C115.102 21.112 114.526 20.518 114.106 19.75C113.686 18.97 113.476 18.07 113.476 17.05C113.476 16.03 113.68 15.136 114.088 14.368C114.496 13.6 115.066 13.012 115.798 12.604C116.542 12.184 117.394 11.974 118.354 11.974C119.29 11.974 120.118 12.178 120.838 12.586C121.558 12.994 122.11 13.558 122.494 14.278C122.89 14.986 123.088 15.79 123.088 16.69ZM121.396 16.348C121.396 15.724 121.258 15.19 120.982 14.746C120.706 14.29 120.328 13.948 119.848 13.72C119.38 13.48 118.858 13.36 118.282 13.36C117.454 13.36 116.746 13.624 116.158 14.152C115.582 14.68 115.252 15.412 115.168 16.348H121.396ZM129.318 11.974C130.17 11.974 130.914 12.16 131.55 12.532C132.198 12.904 132.678 13.372 132.99 13.936V12.136H134.646V22.216C134.646 23.116 134.454 23.914 134.07 24.61C133.686 25.318 133.134 25.87 132.414 26.266C131.706 26.662 130.878 26.86 129.93 26.86C128.634 26.86 127.554 26.554 126.69 25.942C125.826 25.33 125.316 24.496 125.16 23.44H126.78C126.96 24.04 127.332 24.52 127.896 24.88C128.46 25.252 129.138 25.438 129.93 25.438C130.83 25.438 131.562 25.156 132.126 24.592C132.702 24.028 132.99 23.236 132.99 22.216V20.146C132.666 20.722 132.186 21.202 131.55 21.586C130.914 21.97 130.17 22.162 129.318 22.162C128.442 22.162 127.644 21.946 126.924 21.514C126.216 21.082 125.658 20.476 125.25 19.696C124.842 18.916 124.638 18.028 124.638 17.032C124.638 16.024 124.842 15.142 125.25 14.386C125.658 13.618 126.216 13.024 126.924 12.604C127.644 12.184 128.442 11.974 129.318 11.974ZM132.99 17.05C132.99 16.306 132.84 15.658 132.54 15.106C132.24 14.554 131.832 14.134 131.316 13.846C130.812 13.546 130.254 13.396 129.642 13.396C129.03 13.396 128.472 13.54 127.968 13.828C127.464 14.116 127.062 14.536 126.762 15.088C126.462 15.64 126.312 16.288 126.312 17.032C126.312 17.788 126.462 18.448 126.762 19.012C127.062 19.564 127.464 19.99 127.968 20.29C128.472 20.578 129.03 20.722 129.642 20.722C130.254 20.722 130.812 20.578 131.316 20.29C131.832 19.99 132.24 19.564 132.54 19.012C132.84 18.448 132.99 17.794 132.99 17.05ZM139.052 13.738C139.34 13.174 139.748 12.736 140.276 12.424C140.816 12.112 141.47 11.956 142.238 11.956V13.648H141.806C139.97 13.648 139.052 14.644 139.052 16.636V22H137.414V12.136H139.052V13.738ZM143.517 17.032C143.517 16.024 143.721 15.142 144.129 14.386C144.537 13.618 145.095 13.024 145.803 12.604C146.523 12.184 147.321 11.974 148.197 11.974C149.061 11.974 149.811 12.16 150.447 12.532C151.083 12.904 151.557 13.372 151.869 13.936V12.136H153.525V22H151.869V20.164C151.545 20.74 151.059 21.22 150.411 21.604C149.775 21.976 149.031 22.162 148.179 22.162C147.303 22.162 146.511 21.946 145.803 21.514C145.095 21.082 144.537 20.476 144.129 19.696C143.721 18.916 143.517 18.028 143.517 17.032ZM151.869 17.05C151.869 16.306 151.719 15.658 151.419 15.106C151.119 14.554 150.711 14.134 150.195 13.846C149.691 13.546 149.133 13.396 148.521 13.396C147.909 13.396 147.351 13.54 146.847 13.828C146.343 14.116 145.941 14.536 145.641 15.088C145.341 15.64 145.191 16.288 145.191 17.032C145.191 17.788 145.341 18.448 145.641 19.012C145.941 19.564 146.343 19.99 146.847 20.29C147.351 20.578 147.909 20.722 148.521 20.722C149.133 20.722 149.691 20.578 150.195 20.29C150.711 19.99 151.119 19.564 151.419 19.012C151.719 18.448 151.869 17.794 151.869 17.05ZM158.291 13.486V19.3C158.291 19.78 158.393 20.122 158.597 20.326C158.801 20.518 159.155 20.614 159.659 20.614H160.865V22H159.389C158.477 22 157.793 21.79 157.337 21.37C156.881 20.95 156.653 20.26 156.653 19.3V13.486H155.375V12.136H156.653V9.652H158.291V12.136H160.865V13.486H158.291ZM163.696 10.534C163.384 10.534 163.12 10.426 162.904 10.21C162.688 9.994 162.58 9.73 162.58 9.418C162.58 9.106 162.688 8.842 162.904 8.626C163.12 8.41 163.384 8.302 163.696 8.302C163.996 8.302 164.248 8.41 164.452 8.626C164.668 8.842 164.776 9.106 164.776 9.418C164.776 9.73 164.668 9.994 164.452 10.21C164.248 10.426 163.996 10.534 163.696 10.534ZM164.488 12.136V22H162.85V12.136H164.488ZM171.582 22.162C170.658 22.162 169.818 21.952 169.062 21.532C168.318 21.112 167.73 20.518 167.298 19.75C166.878 18.97 166.668 18.07 166.668 17.05C166.668 16.042 166.884 15.154 167.316 14.386C167.76 13.606 168.36 13.012 169.116 12.604C169.872 12.184 170.718 11.974 171.654 11.974C172.59 11.974 173.436 12.184 174.192 12.604C174.948 13.012 175.542 13.6 175.974 14.368C176.418 15.136 176.64 16.03 176.64 17.05C176.64 18.07 176.412 18.97 175.956 19.75C175.512 20.518 174.906 21.112 174.138 21.532C173.37 21.952 172.518 22.162 171.582 22.162ZM171.582 20.722C172.17 20.722 172.722 20.584 173.238 20.308C173.754 20.032 174.168 19.618 174.48 19.066C174.804 18.514 174.966 17.842 174.966 17.05C174.966 16.258 174.81 15.586 174.498 15.034C174.186 14.482 173.778 14.074 173.274 13.81C172.77 13.534 172.224 13.396 171.636 13.396C171.036 13.396 170.484 13.534 169.98 13.81C169.488 14.074 169.092 14.482 168.792 15.034C168.492 15.586 168.342 16.258 168.342 17.05C168.342 17.854 168.486 18.532 168.774 19.084C169.074 19.636 169.47 20.05 169.962 20.326C170.454 20.59 170.994 20.722 171.582 20.722ZM183.599 11.956C184.799 11.956 185.771 12.322 186.515 13.054C187.259 13.774 187.631 14.818 187.631 16.186V22H186.011V16.42C186.011 15.436 185.765 14.686 185.273 14.17C184.781 13.642 184.109 13.378 183.257 13.378C182.393 13.378 181.703 13.648 181.187 14.188C180.683 14.728 180.431 15.514 180.431 16.546V22H178.793V12.136H180.431V13.54C180.755 13.036 181.193 12.646 181.745 12.37C182.309 12.094 182.927 11.956 183.599 11.956Z" fill="black"/>
</svg>
