<svg width="190" height="36" viewBox="0 0 190 36" fill="none" xmlns="http://www.w3.org/2000/svg">
<path d="M15.8503 3.49837C16.6153 2.14108 18.5699 2.14109 19.3349 3.49838L22.7271 9.51674C23.0125 10.0231 23.5041 10.3802 24.0738 10.4952L30.8459 11.8616C32.3731 12.1698 32.9771 14.0286 31.9227 15.1757L27.2471 20.2616C26.8537 20.6895 26.666 21.2674 26.7327 21.8448L27.5259 28.7076C27.7048 30.2554 26.1235 31.4042 24.7068 30.7558L18.4249 27.8808C17.8964 27.6389 17.2888 27.6389 16.7603 27.8808L10.4784 30.7558C9.06169 31.4042 7.48043 30.2554 7.65931 28.7076L8.45247 21.8448C8.5192 21.2674 8.33144 20.6895 7.93806 20.2616L3.2625 15.1757C2.20804 14.0286 2.81204 12.1698 4.3393 11.8616L11.1114 10.4952C11.6811 10.3802 12.1727 10.0231 12.4581 9.51674L15.8503 3.49837Z" fill="#FFBB00"/>
<path d="M54.5534 3.49837C55.3184 2.14108 57.273 2.14109 58.038 3.49838L61.4302 9.51674C61.7156 10.0231 62.2072 10.3802 62.777 10.4952L69.549 11.8616C71.0763 12.1698 71.6803 14.0286 70.6258 15.1757L65.9503 20.2616C65.5569 20.6895 65.3691 21.2674 65.4358 21.8448L66.229 28.7076C66.4079 30.2554 64.8266 31.4042 63.4099 30.7558L57.128 27.8808C56.5995 27.6389 55.9919 27.6389 55.4634 27.8808L49.1815 30.7558C47.7648 31.4042 46.1836 30.2554 46.3624 28.7076L47.1556 21.8448C47.2223 21.2674 47.0346 20.6895 46.6412 20.2616L41.9656 15.1757C40.9112 14.0286 41.5152 12.1698 43.0424 11.8616L49.8145 10.4952C50.3842 10.3802 50.8758 10.0231 51.1612 9.51674L54.5534 3.49837Z" fill="#FFBB00"/>
<path d="M93.2565 3.49837C94.0216 2.14108 95.9761 2.14109 96.7411 3.49838L100.133 9.51674C100.419 10.0231 100.91 10.3802 101.48 10.4952L108.252 11.8616C109.779 12.1698 110.383 14.0286 109.329 15.1757L104.653 20.2616C104.26 20.6895 104.072 21.2674 104.139 21.8448L104.932 28.7076C105.111 30.2554 103.53 31.4042 102.113 30.7558L95.8312 27.8808C95.3026 27.6389 94.695 27.6389 94.1665 27.8808L87.8847 30.7558C86.4679 31.4042 84.8867 30.2554 85.0656 28.7076L85.8587 21.8448C85.9254 21.2674 85.7377 20.6895 85.3443 20.2616L80.6687 15.1757C79.6143 14.0286 80.2183 12.1698 81.7455 11.8616L88.5176 10.4952C89.0874 10.3802 89.5789 10.0231 89.8643 9.51674L93.2565 3.49837Z" fill="#FFBB00"/>
<path d="M131.96 3.49837C132.725 2.14108 134.679 2.14109 135.444 3.49838L138.836 9.51674C139.122 10.0231 139.613 10.3802 140.183 10.4952L146.955 11.8616C148.483 12.1698 149.087 14.0286 148.032 15.1757L143.357 20.2616C142.963 20.6895 142.775 21.2674 142.842 21.8448L143.635 28.7076C143.814 30.2554 142.233 31.4042 140.816 30.7558L134.534 27.8808C134.006 27.6389 133.398 27.6389 132.87 27.8808L126.588 30.7558C125.171 31.4042 123.59 30.2554 123.769 28.7076L124.562 21.8448C124.629 21.2674 124.441 20.6895 124.047 20.2616L119.372 15.1757C118.317 14.0286 118.921 12.1698 120.449 11.8616L127.221 10.4952C127.79 10.3802 128.282 10.0231 128.567 9.51674L131.96 3.49837Z" fill="#FFBB00"/>
<path d="M170.667 3.49837C171.432 2.14108 173.386 2.14109 174.151 3.49838L177.544 9.51674C177.829 10.0231 178.32 10.3802 178.89 10.4952L185.662 11.8616C187.19 12.1698 187.794 14.0286 186.739 15.1757L182.064 20.2616C181.67 20.6895 181.482 21.2674 181.549 21.8448L182.342 28.7076C182.521 30.2554 180.94 31.4042 179.523 30.7558L173.241 27.8808C172.713 27.6389 172.105 27.6389 171.577 27.8808L165.295 30.7558C163.878 31.4042 162.297 30.2554 162.476 28.7076L163.269 21.8448C163.336 21.2674 163.148 20.6895 162.754 20.2616L158.079 15.1757C157.024 14.0286 157.628 12.1698 159.156 11.8616L165.928 10.4952C166.498 10.3802 166.989 10.0231 167.274 9.51674L170.667 3.49837Z" fill="#FFBB00"/>
</svg>
