<svg width="622" height="567" viewBox="0 0 622 567" fill="none" xmlns="http://www.w3.org/2000/svg">
<path fill-rule="evenodd" clip-rule="evenodd" d="M614.334 566.887H7.6662C3.43212 566.887 0 564.872 0 562.387C0 559.901 3.43212 557.887 7.6662 557.887H614.334C618.568 557.887 622 559.901 622 562.387C622 564.872 618.568 566.887 614.334 566.887Z" fill="#55503F"/>
<path fill-rule="evenodd" clip-rule="evenodd" d="M72.2031 369.614H449.479V354.658H72.2031V369.614Z" fill="#C46C3B"/>
<path fill-rule="evenodd" clip-rule="evenodd" d="M103.629 558.072H120.348V368.329H103.629V558.072Z" fill="#C46C3B"/>
<path fill-rule="evenodd" clip-rule="evenodd" d="M402.809 558.072H419.529V368.329H402.809V558.072Z" fill="#C46C3B"/>
<path fill-rule="evenodd" clip-rule="evenodd" d="M103.629 387.3H120.348V368.329H103.629V387.3Z" fill="#AA5327"/>
<path fill-rule="evenodd" clip-rule="evenodd" d="M402.809 387.3H419.529V368.329H402.809V387.3Z" fill="#AA5327"/>
<path fill-rule="evenodd" clip-rule="evenodd" d="M340.195 347.474H299.141L301.887 320.51H337.449L340.195 347.474Z" fill="#171923"/>
<path fill-rule="evenodd" clip-rule="evenodd" d="M351.532 354.08H288.012C288.012 349.816 291.463 346.361 295.722 346.361H343.822C348.079 346.361 351.532 349.816 351.532 354.08Z" fill="#2A2B3D"/>
<path fill-rule="evenodd" clip-rule="evenodd" d="M388.417 322.83H251.128C243.671 322.83 237.625 316.777 237.625 309.312V226.376C237.625 218.911 243.671 212.858 251.128 212.858H388.417C395.873 212.858 401.917 218.911 401.917 226.376V309.312C401.917 316.777 395.873 322.83 388.417 322.83Z" fill="#2A2B3D"/>
<path fill-rule="evenodd" clip-rule="evenodd" d="M244.613 308.539H394.929V219.147H244.613V308.539Z" fill="#D0E6EF"/>
<path fill-rule="evenodd" clip-rule="evenodd" d="M324.02 316.253C324.02 318.603 322.117 320.51 319.77 320.51C317.421 320.51 315.52 318.603 315.52 316.253C315.52 313.901 317.421 311.998 319.77 311.998C322.117 311.998 324.02 313.901 324.02 316.253Z" fill="#171923"/>
<path fill-rule="evenodd" clip-rule="evenodd" d="M251.656 231.724H387.885V224.718H251.656V231.724Z" fill="white"/>
<path fill-rule="evenodd" clip-rule="evenodd" d="M257.28 228.382C257.28 229.206 256.613 229.874 255.791 229.874C254.968 229.874 254.301 229.206 254.301 228.382C254.301 227.558 254.968 226.89 255.791 226.89C256.613 226.89 257.28 227.558 257.28 228.382Z" fill="#D35473"/>
<path fill-rule="evenodd" clip-rule="evenodd" d="M262.84 228.382C262.84 229.206 262.173 229.874 261.349 229.874C260.528 229.874 259.859 229.206 259.859 228.382C259.859 227.558 260.528 226.89 261.349 226.89C262.173 226.89 262.84 227.558 262.84 228.382Z" fill="#FFC55A"/>
<path fill-rule="evenodd" clip-rule="evenodd" d="M268.401 228.382C268.401 229.206 267.735 229.874 266.912 229.874C266.089 229.874 265.422 229.206 265.422 228.382C265.422 227.558 266.089 226.89 266.912 226.89C267.735 226.89 268.401 227.558 268.401 228.382Z" fill="#54D15F"/>
<path fill-rule="evenodd" clip-rule="evenodd" d="M381.39 227.034H385.927C386.123 227.034 386.282 226.875 386.282 226.678C386.282 226.482 386.123 226.323 385.927 226.323H381.39C381.194 226.323 381.035 226.482 381.035 226.678C381.035 226.875 381.194 227.034 381.39 227.034Z" fill="#61648A"/>
<path fill-rule="evenodd" clip-rule="evenodd" d="M381.39 228.575H385.927C386.123 228.575 386.282 228.416 386.282 228.22C386.282 228.024 386.123 227.865 385.927 227.865H381.39C381.194 227.865 381.035 228.024 381.035 228.22C381.035 228.416 381.194 228.575 381.39 228.575Z" fill="#61648A"/>
<path fill-rule="evenodd" clip-rule="evenodd" d="M381.39 230.118H385.927C386.123 230.118 386.282 229.959 386.282 229.763C386.282 229.567 386.123 229.408 385.927 229.408H381.39C381.194 229.408 381.035 229.567 381.035 229.763C381.035 229.959 381.194 230.118 381.39 230.118Z" fill="#61648A"/>
<path fill-rule="evenodd" clip-rule="evenodd" d="M344.432 240.333H354.989C355.381 240.333 355.699 240.015 355.699 239.623C355.699 239.231 355.381 238.913 354.989 238.913H344.432C344.039 238.913 343.723 239.231 343.723 239.623C343.723 240.015 344.039 240.333 344.432 240.333Z" fill="#54D15F"/>
<path fill-rule="evenodd" clip-rule="evenodd" d="M357.092 240.333H362.042C362.434 240.333 362.752 240.015 362.752 239.623C362.752 239.231 362.434 238.913 362.042 238.913H357.092C356.701 238.913 356.383 239.231 356.383 239.623C356.383 240.015 356.701 240.333 357.092 240.333Z" fill="#2D292A"/>
<path fill-rule="evenodd" clip-rule="evenodd" d="M363.874 240.333H379.495C379.887 240.333 380.205 240.015 380.205 239.623C380.205 239.231 379.887 238.913 379.495 238.913H363.874C363.482 238.913 363.164 239.231 363.164 239.623C363.164 240.015 363.482 240.333 363.874 240.333Z" fill="#54D15F"/>
<path fill-rule="evenodd" clip-rule="evenodd" d="M339.147 247.003H354.65C355.041 247.003 355.359 246.684 355.359 246.292C355.359 245.9 355.041 245.582 354.65 245.582H339.147C338.755 245.582 338.438 245.9 338.438 246.292C338.438 246.684 338.755 247.003 339.147 247.003Z" fill="#FFC55A"/>
<path fill-rule="evenodd" clip-rule="evenodd" d="M356.756 247.003H366.697C367.089 247.003 367.407 246.684 367.407 246.292C367.407 245.9 367.089 245.582 366.697 245.582H356.756C356.365 245.582 356.047 245.9 356.047 246.292C356.047 246.684 356.365 247.003 356.756 247.003Z" fill="#D35473"/>
<path fill-rule="evenodd" clip-rule="evenodd" d="M368.526 247.003H375.165C375.556 247.003 375.874 246.684 375.874 246.292C375.874 245.9 375.556 245.582 375.165 245.582H368.526C368.134 245.582 367.816 245.9 367.816 246.292C367.816 246.684 368.134 247.003 368.526 247.003Z" fill="#54D15F"/>
<path fill-rule="evenodd" clip-rule="evenodd" d="M377.241 247.003H383.881C384.273 247.003 384.59 246.684 384.59 246.292C384.59 245.9 384.273 245.582 383.881 245.582H377.241C376.849 245.582 376.531 245.9 376.531 246.292C376.531 246.684 376.849 247.003 377.241 247.003Z" fill="#D35473"/>
<path fill-rule="evenodd" clip-rule="evenodd" d="M340.538 253.672H349.508C349.9 253.672 350.218 253.354 350.218 252.961C350.218 252.569 349.9 252.251 349.508 252.251H340.538C340.146 252.251 339.828 252.569 339.828 252.961C339.828 253.354 340.146 253.672 340.538 253.672Z" fill="#2D292A"/>
<path fill-rule="evenodd" clip-rule="evenodd" d="M351.616 253.672H358.658C359.049 253.672 359.367 253.354 359.367 252.961C359.367 252.569 359.049 252.251 358.658 252.251H351.616C351.224 252.251 350.906 252.569 350.906 252.961C350.906 253.354 351.224 253.672 351.616 253.672Z" fill="#D35473"/>
<path fill-rule="evenodd" clip-rule="evenodd" d="M360.483 253.672H373.231C373.623 253.672 373.941 253.354 373.941 252.961C373.941 252.569 373.623 252.251 373.231 252.251H360.483C360.091 252.251 359.773 252.569 359.773 252.961C359.773 253.354 360.091 253.672 360.483 253.672Z" fill="#FFC55A"/>
<path fill-rule="evenodd" clip-rule="evenodd" d="M374.944 253.672H378.902C379.294 253.672 379.611 253.354 379.611 252.961C379.611 252.569 379.294 252.251 378.902 252.251H374.944C374.551 252.251 374.234 252.569 374.234 252.961C374.234 253.354 374.551 253.672 374.944 253.672Z" fill="#2D292A"/>
<path fill-rule="evenodd" clip-rule="evenodd" d="M336.303 267.011H338.601C338.993 267.011 339.31 266.693 339.31 266.301C339.31 265.909 338.993 265.591 338.601 265.591H336.303C335.912 265.591 335.594 265.909 335.594 266.301C335.594 266.693 335.912 267.011 336.303 267.011Z" fill="#FFC55A"/>
<path fill-rule="evenodd" clip-rule="evenodd" d="M340.706 267.011H353.733C354.125 267.011 354.443 266.693 354.443 266.301C354.443 265.909 354.125 265.591 353.733 265.591H340.706C340.313 265.591 339.996 265.909 339.996 266.301C339.996 266.693 340.313 267.011 340.706 267.011Z" fill="#54D15F"/>
<path fill-rule="evenodd" clip-rule="evenodd" d="M355.561 267.011H364.93C365.322 267.011 365.64 266.693 365.64 266.301C365.64 265.909 365.322 265.591 364.93 265.591H355.561C355.169 265.591 354.852 265.909 354.852 266.301C354.852 266.693 355.169 267.011 355.561 267.011Z" fill="#D35473"/>
<path fill-rule="evenodd" clip-rule="evenodd" d="M366.338 267.011H378.329C378.72 267.011 379.038 266.693 379.038 266.301C379.038 265.909 378.72 265.591 378.329 265.591H366.338C365.947 265.591 365.629 265.909 365.629 266.301C365.629 266.693 365.947 267.011 366.338 267.011Z" fill="#54D15F"/>
<path fill-rule="evenodd" clip-rule="evenodd" d="M362.807 280.351H380.199C380.59 280.351 380.908 280.033 380.908 279.641C380.908 279.249 380.59 278.93 380.199 278.93H362.807C362.416 278.93 362.098 279.249 362.098 279.641C362.098 280.033 362.416 280.351 362.807 280.351Z" fill="#FFC55A"/>
<path fill-rule="evenodd" clip-rule="evenodd" d="M340.538 273.682H349.508C349.9 273.682 350.218 273.364 350.218 272.972C350.218 272.579 349.9 272.261 349.508 272.261H340.538C340.146 272.261 339.828 272.579 339.828 272.972C339.828 273.364 340.146 273.682 340.538 273.682Z" fill="#54D15F"/>
<path fill-rule="evenodd" clip-rule="evenodd" d="M351.616 273.682H356.404C356.796 273.682 357.114 273.364 357.114 272.972C357.114 272.579 356.796 272.261 356.404 272.261H351.616C351.224 272.261 350.906 272.579 350.906 272.972C350.906 273.364 351.224 273.682 351.616 273.682Z" fill="#D35473"/>
<path fill-rule="evenodd" clip-rule="evenodd" d="M358.233 273.682H367.977C368.37 273.682 368.686 273.364 368.686 272.972C368.686 272.579 368.37 272.261 367.977 272.261H358.233C357.841 272.261 357.523 272.579 357.523 272.972C357.523 273.364 357.841 273.682 358.233 273.682Z" fill="#2D292A"/>
<path fill-rule="evenodd" clip-rule="evenodd" d="M370.249 273.682H379.992C380.384 273.682 380.702 273.364 380.702 272.972C380.702 272.579 380.384 272.261 379.992 272.261H370.249C369.857 272.261 369.539 272.579 369.539 272.972C369.539 273.364 369.857 273.682 370.249 273.682Z" fill="#D35473"/>
<path fill-rule="evenodd" clip-rule="evenodd" d="M340.963 280.351H347.802C348.194 280.351 348.512 280.033 348.512 279.641C348.512 279.249 348.194 278.93 347.802 278.93H340.963C340.572 278.93 340.254 279.249 340.254 279.641C340.254 280.033 340.572 280.351 340.963 280.351Z" fill="#FFC55A"/>
<path fill-rule="evenodd" clip-rule="evenodd" d="M349.909 280.351H352.821C353.213 280.351 353.53 280.033 353.53 279.641C353.53 279.249 353.213 278.93 352.821 278.93H349.909C349.517 278.93 349.199 279.249 349.199 279.641C349.199 280.033 349.517 280.351 349.909 280.351Z" fill="#2D292A"/>
<path fill-rule="evenodd" clip-rule="evenodd" d="M354.651 280.351H360.645C361.038 280.351 361.355 280.033 361.355 279.641C361.355 279.249 361.038 278.93 360.645 278.93H354.651C354.259 278.93 353.941 279.249 353.941 279.641C353.941 280.033 354.259 280.351 354.651 280.351Z" fill="#54D15F"/>
<path fill-rule="evenodd" clip-rule="evenodd" d="M351.616 292.88H358.232C358.624 292.88 358.941 292.563 358.941 292.171C358.941 291.777 358.624 291.46 358.232 291.46H351.616C351.224 291.46 350.906 291.777 350.906 292.171C350.906 292.563 351.224 292.88 351.616 292.88Z" fill="#D35473"/>
<path fill-rule="evenodd" clip-rule="evenodd" d="M360.338 292.88H367.975C368.368 292.88 368.684 292.563 368.684 292.171C368.684 291.777 368.368 291.46 367.975 291.46H360.338C359.945 291.46 359.629 291.777 359.629 292.171C359.629 292.563 359.945 292.88 360.338 292.88Z" fill="#2D292A"/>
<path fill-rule="evenodd" clip-rule="evenodd" d="M369.803 292.88H382.016C382.408 292.88 382.726 292.563 382.726 292.171C382.726 291.777 382.408 291.46 382.016 291.46H369.803C369.41 291.46 369.094 291.777 369.094 292.171C369.094 292.563 369.41 292.88 369.803 292.88Z" fill="#FFC55A"/>
<path fill-rule="evenodd" clip-rule="evenodd" d="M345.549 299.55H350.56C350.952 299.55 351.27 299.232 351.27 298.84C351.27 298.448 350.952 298.129 350.56 298.129H345.549C345.158 298.129 344.84 298.448 344.84 298.84C344.84 299.232 345.158 299.55 345.549 299.55Z" fill="#D35473"/>
<path fill-rule="evenodd" clip-rule="evenodd" d="M352.667 299.55H360.644C361.037 299.55 361.353 299.232 361.353 298.84C361.353 298.448 361.037 298.129 360.644 298.129H352.667C352.275 298.129 351.957 298.448 351.957 298.84C351.957 299.232 352.275 299.55 352.667 299.55Z" fill="#2D292A"/>
<path fill-rule="evenodd" clip-rule="evenodd" d="M362.475 299.55H369.716C370.107 299.55 370.425 299.232 370.425 298.84C370.425 298.448 370.107 298.129 369.716 298.129H362.475C362.082 298.129 361.766 298.448 361.766 298.84C361.766 299.232 362.082 299.55 362.475 299.55Z" fill="#FFC55A"/>
<path fill-rule="evenodd" clip-rule="evenodd" d="M371.784 299.55H383.008C383.399 299.55 383.717 299.232 383.717 298.84C383.717 298.448 383.399 298.129 383.008 298.129H371.784C371.392 298.129 371.074 298.448 371.074 298.84C371.074 299.232 371.392 299.55 371.784 299.55Z" fill="#54D15F"/>
<path fill-rule="evenodd" clip-rule="evenodd" d="M340.274 240.333H338.022C337.63 240.333 337.312 240.015 337.312 239.623C337.312 239.231 337.63 238.913 338.022 238.913H340.274C340.666 238.913 340.984 239.231 340.984 239.623C340.984 240.015 340.666 240.333 340.274 240.333Z" fill="#B0C1CE"/>
<path fill-rule="evenodd" clip-rule="evenodd" d="M334.364 247.003H332.112C331.72 247.003 331.402 246.684 331.402 246.292C331.402 245.9 331.72 245.582 332.112 245.582H334.364C334.756 245.582 335.074 245.9 335.074 246.292C335.074 246.684 334.756 247.003 334.364 247.003Z" fill="#B0C1CE"/>
<path fill-rule="evenodd" clip-rule="evenodd" d="M337.095 253.672H334.842C334.451 253.672 334.133 253.355 334.133 252.961C334.133 252.569 334.451 252.251 334.842 252.251H337.095C337.486 252.251 337.804 252.569 337.804 252.961C337.804 253.355 337.486 253.672 337.095 253.672Z" fill="#B0C1CE"/>
<path fill-rule="evenodd" clip-rule="evenodd" d="M331.726 260.342H329.475C329.082 260.342 328.766 260.024 328.766 259.632C328.766 259.24 329.082 258.922 329.475 258.922H331.726C332.119 258.922 332.437 259.24 332.437 259.632C332.437 260.024 332.119 260.342 331.726 260.342Z" fill="#B0C1CE"/>
<path fill-rule="evenodd" clip-rule="evenodd" d="M332.4 266.075C332.031 265.876 331.679 265.716 331.344 265.591H331.726C332.039 265.591 332.305 265.794 332.4 266.075Z" fill="#B0C1CE"/>
<path fill-rule="evenodd" clip-rule="evenodd" d="M346.151 292.88H343.897C343.504 292.88 343.188 292.563 343.188 292.171C343.188 291.777 343.504 291.46 343.897 291.46H346.151C346.542 291.46 346.86 291.777 346.86 292.171C346.86 292.563 346.542 292.88 346.151 292.88Z" fill="#B0C1CE"/>
<path fill-rule="evenodd" clip-rule="evenodd" d="M340.852 299.55H338.6C338.209 299.55 337.891 299.232 337.891 298.84C337.891 298.448 338.209 298.129 338.6 298.129H340.852C341.244 298.129 341.562 298.448 341.562 298.84C341.562 299.232 341.244 299.55 340.852 299.55Z" fill="#B0C1CE"/>
<path fill-rule="evenodd" clip-rule="evenodd" d="M251.656 270.242H285.764V237.969H251.656V270.242Z" fill="#ABBBCE"/>
<path fill-rule="evenodd" clip-rule="evenodd" d="M290.027 240.896H319.872V237.969H290.027V240.896Z" fill="#61648A"/>
<path fill-rule="evenodd" clip-rule="evenodd" d="M290.027 248.232H319.872V245.306H290.027V248.232Z" fill="#61648A"/>
<path fill-rule="evenodd" clip-rule="evenodd" d="M290.027 255.569H319.872V252.642H290.027V255.569Z" fill="#ABBBCE"/>
<path fill-rule="evenodd" clip-rule="evenodd" d="M290.027 262.905H319.872V259.979H290.027V262.905Z" fill="#ABBBCE"/>
<path fill-rule="evenodd" clip-rule="evenodd" d="M290.027 270.242H319.872V267.316H290.027V270.242Z" fill="#ABBBCE"/>
<path fill-rule="evenodd" clip-rule="evenodd" d="M251.758 298.84H285.765V275.158H251.758V298.84Z" fill="#61648A"/>
<path fill-rule="evenodd" clip-rule="evenodd" d="M290.027 286.311H319.872V275.158H290.027V286.311Z" fill="#D35473"/>
<path fill-rule="evenodd" clip-rule="evenodd" d="M290.027 298.84H319.872V291.935H290.027V298.84Z" fill="#61648A"/>
<path fill-rule="evenodd" clip-rule="evenodd" d="M312.768 532.166C311.064 547.857 308.829 554.836 312.768 557.076C316.708 559.318 339.008 557.076 343.846 557.076C348.682 557.076 348.682 546.875 340.62 542.619C332.559 538.362 330.947 523.142 330.947 523.142L312.768 532.166Z" fill="#2A2B3D"/>
<path fill-rule="evenodd" clip-rule="evenodd" d="M211.53 532.166C209.825 547.857 207.59 554.836 211.53 557.076C215.468 559.318 237.77 557.076 242.606 557.076C247.442 557.076 247.442 546.875 239.382 542.619C231.321 538.362 229.709 523.142 229.709 523.142L211.53 532.166Z" fill="#2A2B3D"/>
<path fill-rule="evenodd" clip-rule="evenodd" d="M238.03 471.652C237.589 488.488 236.37 504.301 234.254 514.119H203.147L191.568 446.177L190.375 439.201C183.777 439.201 178.398 433.859 178.398 427.267V427.054C178.61 413.599 180.939 392.714 192.505 384.686C205.39 375.749 231.233 394.575 233.532 399.221C235.774 403.739 237.321 419.254 237.931 437.88C238.286 448.607 238.328 460.357 238.03 471.652Z" fill="#55597C"/>
<path fill-rule="evenodd" clip-rule="evenodd" d="M215.71 514.119H203.149L191.57 446.177C192.975 443.862 194.536 441.972 196.197 440.935C200.556 438.204 220.986 437.835 231.676 437.835C232.766 437.835 233.756 437.839 234.615 437.845L235.691 439.201H237.975C238.143 444.754 238.23 450.562 238.23 456.423C238.23 461.502 238.165 466.621 238.033 471.652C227.049 476.397 218.078 505.708 215.71 514.119Z" fill="#4B4D6D"/>
<path fill-rule="evenodd" clip-rule="evenodd" d="M340.247 342.577C350.164 338.833 357.068 343.187 358.857 346.258C360.647 349.33 361.67 352.146 360.902 353.682C360.136 355.219 357.579 353.682 357.579 353.682C357.579 353.682 348.884 355.304 342.237 354.365C335.588 353.426 340.247 342.577 340.247 342.577Z" fill="#F4B8AB"/>
<path fill-rule="evenodd" clip-rule="evenodd" d="M350.664 354.658H344.878C344.691 354.634 344.505 354.607 344.32 354.577C345.173 354.634 346.04 354.658 346.902 354.658C349.162 354.658 351.386 354.49 353.213 354.293C352.439 354.438 351.575 354.564 350.664 354.658Z" fill="#EDADC7"/>
<path fill-rule="evenodd" clip-rule="evenodd" d="M347.612 354.82C346.688 354.82 345.764 354.772 344.879 354.658H350.665C349.683 354.759 348.648 354.82 347.612 354.82Z" fill="#D1686B"/>
<path fill-rule="evenodd" clip-rule="evenodd" d="M346.903 354.658C346.042 354.658 345.175 354.634 344.322 354.577C343.828 354.496 343.348 354.394 342.893 354.267C343.253 353.54 343.421 352.621 343.421 351.589C343.419 349.981 343.009 348.104 342.283 346.268C342.178 346.003 342.067 345.738 341.949 345.475C347.333 348.371 356.704 352.451 356.659 353.149C356.64 353.432 355.234 353.918 353.214 354.293C351.388 354.49 349.164 354.658 346.903 354.658Z" fill="#E88C9F"/>
<path fill-rule="evenodd" clip-rule="evenodd" d="M246.054 224.314C249.809 239.711 247.076 257.866 233.892 259.318L233.946 264.737C233.986 268.749 230.769 272.035 226.76 272.075C222.751 272.115 219.468 268.894 219.43 264.88L219.376 259.463C219.376 259.463 208.773 255.077 206.597 248.492C204.42 241.906 206.585 247.435 206.585 247.435L205.379 220.491L246.356 220.083L246.054 224.314Z" fill="#F4B8AB"/>
<path fill-rule="evenodd" clip-rule="evenodd" d="M233.925 262.776C232.195 262.601 230.298 262.502 228.256 262.502L221.27 259.757C221.27 259.757 222.023 259.774 223.245 259.774C225.689 259.774 229.999 259.709 233.891 259.318L233.925 262.776Z" fill="#E88C9F"/>
<path fill-rule="evenodd" clip-rule="evenodd" d="M246.694 227.294C258.329 219.94 256.128 204.766 247.881 210.148C247.881 210.148 234.879 196.758 214.729 204.062C194.579 211.368 192.048 228.263 196.303 238.781C200.557 249.299 226.661 254.77 226.661 254.77L238.731 241.962L246.694 227.294Z" fill="#6D3744"/>
<path fill-rule="evenodd" clip-rule="evenodd" d="M247.88 210.148C249.893 204.283 244.836 196.826 240.13 196.826C235.423 196.826 235.682 204.922 235.682 204.922L243.722 215.574L247.88 210.148Z" fill="#6D3744"/>
<path fill-rule="evenodd" clip-rule="evenodd" d="M239.192 237.341C239.054 239.168 237.662 255.702 233.89 259.315L217.648 259.537C217.648 259.537 199.72 255.881 196.724 240.967C196.376 239.221 196.134 237.606 195.996 236.105C201.288 246.882 223.645 248.695 235.706 235.092C235.706 235.092 237.233 236.043 239.192 237.341Z" fill="#542633"/>
<path fill-rule="evenodd" clip-rule="evenodd" d="M243.742 234.113C240.363 228.088 236.485 230.668 235.738 234.193C234.992 237.719 242.106 246.216 243.833 243.185C245.56 240.156 243.742 234.113 243.742 234.113Z" fill="#F4B8AB"/>
<path fill-rule="evenodd" clip-rule="evenodd" d="M244.336 241.891C244.587 240.878 244.618 239.723 244.545 238.617C244.958 239.937 245.193 241.307 244.601 241.751C244.523 241.811 244.434 241.857 244.336 241.891Z" fill="#E88C9F"/>
<path fill-rule="evenodd" clip-rule="evenodd" d="M243.851 241.965C242.226 241.965 239.398 239.914 239.204 237.184C239.064 235.233 239.536 233.99 240.589 233.99C241.28 233.99 242.221 234.524 243.404 235.743C243.404 235.743 244.082 237.15 244.541 238.617C244.615 239.723 244.583 240.878 244.332 241.891C244.189 241.94 244.027 241.965 243.851 241.965Z" fill="#E88C9F"/>
<path fill-rule="evenodd" clip-rule="evenodd" d="M342.894 354.267C341.317 357.407 300.447 363.701 289.974 361.611C279.487 359.51 271.114 344.293 271.114 344.293V384.686H192.508C192.508 384.686 184.873 347.561 180.616 322.74C178.87 312.525 177.678 304.398 177.834 301.798C178.146 296.557 179.182 293.671 179.991 292.179V292.165C180.545 291.142 180.984 290.787 180.984 290.787C180.984 290.787 190.408 273.482 212.943 270.853L213.467 264.034C231.802 260.368 244.901 264.034 245.426 267.188C245.952 270.328 245.426 273.425 245.426 273.425C245.426 273.425 267.438 267.699 283.162 290.261C298.872 312.823 305.173 330.64 305.173 330.64C305.173 330.64 335.032 336.948 338.706 340.628C340.211 342.134 341.46 344.18 342.283 346.268C343.475 349.28 343.816 352.406 342.894 354.267Z" fill="#D35473"/>
<path fill-rule="evenodd" clip-rule="evenodd" d="M271.111 384.686H192.505C192.505 384.686 184.87 347.561 180.613 322.74L179.988 292.179V292.165C179.988 292.165 199.175 292.804 228.565 293.003C257.956 293.202 259.558 311.416 267.549 322.428C275.553 333.439 280.747 352.051 294.951 352.25C300.295 352.325 307.852 352.711 315.355 352.711C327.778 352.711 340.058 351.65 341.926 346.353L342.28 346.268C343.007 348.104 343.419 349.981 343.419 351.589C343.419 352.62 343.251 353.54 342.891 354.267C342.862 354.321 342.823 354.378 342.772 354.435C340.291 357.178 310.644 362.029 295.842 362.029C293.428 362.029 291.413 361.9 289.971 361.611C279.484 359.51 271.111 344.293 271.111 344.293V384.686Z" fill="#B9425F"/>
<path fill-rule="evenodd" clip-rule="evenodd" d="M335.968 511.732C335.811 512.556 335.656 513.352 335.486 514.119H304.392L291.62 439.201H235.692L192.508 384.686H271.114C272.304 384.686 273.54 384.7 274.816 384.729C296.247 385.112 329.625 388.849 334.776 399.221C336.621 402.957 337.996 414.238 338.75 428.574C340.183 455.228 339.516 492.481 335.968 511.732Z" fill="#61648A"/>
<path fill-rule="evenodd" clip-rule="evenodd" d="M333.24 514.119H304.389L291.617 439.201H235.689L234.613 437.845L219.809 419.154L221.27 396.18L231.928 384.686H271.11C272.301 384.686 273.537 384.7 274.813 384.729C270.577 420.99 295.595 431.607 313.189 431.607C313.981 431.607 314.757 431.585 315.515 431.543C324.867 431.032 333.04 429.725 338.746 428.574C339.207 437.164 339.452 446.854 339.452 456.688C339.45 477.369 338.369 498.685 335.965 511.732L333.24 514.119Z" fill="#525476"/>
<path fill-rule="evenodd" clip-rule="evenodd" d="M335.255 532.166H304.284L301.445 514.119H338.093L335.255 532.166Z" fill="#7D819E"/>
<path fill-rule="evenodd" clip-rule="evenodd" d="M234.019 532.166H203.049L200.211 514.119H236.857L234.019 532.166Z" fill="#7D819E"/>
<path fill-rule="evenodd" clip-rule="evenodd" d="M178.77 553.98H181.589V543.377H178.77V553.98Z" fill="#55597C"/>
<path fill-rule="evenodd" clip-rule="evenodd" d="M198.801 553.98H201.619V543.377H198.801V553.98Z" fill="#55597C"/>
<path fill-rule="evenodd" clip-rule="evenodd" d="M218.832 553.98H221.652V543.377H218.832V553.98Z" fill="#55597C"/>
<path fill-rule="evenodd" clip-rule="evenodd" d="M250.622 439.203H169.148C163.624 439.203 159.148 434.72 159.148 429.191V334.567C159.148 315.491 174.594 300.026 193.649 300.026H226.12C245.175 300.026 260.622 315.491 260.622 334.567V429.191C260.622 434.72 256.145 439.203 250.622 439.203Z" fill="#FFC55A"/>
<path fill-rule="evenodd" clip-rule="evenodd" d="M250.622 439.203H169.148C163.624 439.203 159.148 434.72 159.148 429.191V334.567C159.148 315.491 174.594 300.026 193.649 300.026H226.12C245.175 300.026 260.622 315.491 260.622 334.567V429.191C260.622 434.72 256.145 439.203 250.622 439.203Z" fill="#F49947"/>
<path fill-rule="evenodd" clip-rule="evenodd" d="M233.258 439.203H151.784C146.263 439.203 141.785 434.72 141.785 429.191V334.567C141.785 315.491 157.231 300.026 176.286 300.026H208.757C227.812 300.026 243.259 315.491 243.259 334.567V429.191C243.259 434.72 238.782 439.203 233.258 439.203Z" fill="#FFC55A"/>
<path fill-rule="evenodd" clip-rule="evenodd" d="M266.9 459.544H178.749C173.14 459.544 168.59 454.991 168.59 449.374V449.373C168.59 443.756 173.14 439.203 178.749 439.203H266.9C272.512 439.203 277.06 443.756 277.06 449.373V449.374C277.06 454.991 272.512 459.544 266.9 459.544Z" fill="#F49947"/>
<path fill-rule="evenodd" clip-rule="evenodd" d="M241.045 459.544H152.893C147.283 459.544 142.734 454.991 142.734 449.374V449.373C142.734 443.756 147.283 439.203 152.893 439.203H241.045C246.655 439.203 251.203 443.756 251.203 449.373V449.374C251.203 454.991 246.655 459.544 241.045 459.544Z" fill="#FFC55A"/>
<path fill-rule="evenodd" clip-rule="evenodd" d="M196.324 540.153H204.521V467.779H196.324V540.153Z" fill="#14161E"/>
<path fill-rule="evenodd" clip-rule="evenodd" d="M212.019 467.779H187.863C186.166 467.779 184.789 466.401 184.789 464.703V459.544H215.093V464.703C215.093 466.401 213.717 467.779 212.019 467.779Z" fill="#1F202D"/>
<path fill-rule="evenodd" clip-rule="evenodd" d="M175.777 545.531H224.099V538.331H175.777V545.531Z" fill="#1F202D"/>
<path fill-rule="evenodd" clip-rule="evenodd" d="M185.469 459.544H196.2V380.202H185.469V459.544Z" fill="#2A2B3D"/>
<path fill-rule="evenodd" clip-rule="evenodd" d="M197.568 365.328H184.101C180.95 365.328 178.398 367.884 178.398 371.037V387.296C178.398 390.449 180.95 393.006 184.101 393.006H197.568C200.717 393.006 203.27 390.449 203.27 387.296V371.037C203.27 367.884 200.717 365.328 197.568 365.328Z" fill="#1F202D"/>
<path fill-rule="evenodd" clip-rule="evenodd" d="M191.356 372.237H190.309C187.158 372.237 184.605 374.793 184.605 377.947V380.385C184.605 383.54 187.158 386.095 190.309 386.095H191.356C194.507 386.095 197.06 383.54 197.06 380.385V377.947C197.06 374.793 194.507 372.237 191.356 372.237Z" fill="#2A2B3D"/>
<path fill-rule="evenodd" clip-rule="evenodd" d="M184.577 554.698C184.577 557.13 182.608 559.102 180.177 559.102C177.749 559.102 175.777 557.13 175.777 554.698C175.777 552.266 177.749 550.292 180.177 550.292C182.608 550.292 184.577 552.266 184.577 554.698Z" fill="#14161E"/>
<path fill-rule="evenodd" clip-rule="evenodd" d="M204.611 554.698C204.611 557.13 202.641 559.102 200.212 559.102C197.782 559.102 195.812 557.13 195.812 554.698C195.812 552.266 197.782 550.292 200.212 550.292C202.641 550.292 204.611 552.266 204.611 554.698Z" fill="#14161E"/>
<path fill-rule="evenodd" clip-rule="evenodd" d="M224.642 554.698C224.642 557.13 222.674 559.102 220.243 559.102C217.814 559.102 215.844 557.13 215.844 554.698C215.844 552.266 217.814 550.292 220.243 550.292C222.674 550.292 224.642 552.266 224.642 554.698Z" fill="#14161E"/>
<path fill-rule="evenodd" clip-rule="evenodd" d="M117.678 349.235L75.6619 262.648L121.097 219.428L117.187 215.308L68.7422 261.392L112.572 351.718L117.678 349.235Z" fill="#61648A"/>
<path fill-rule="evenodd" clip-rule="evenodd" d="M80.4144 262.02C80.4144 266.561 76.7389 270.241 72.2033 270.241C67.6692 270.241 63.9922 266.561 63.9922 262.02C63.9922 257.481 67.6692 253.801 72.2033 253.801C76.7389 253.801 80.4144 257.481 80.4144 262.02Z" fill="#61648A"/>
<path fill-rule="evenodd" clip-rule="evenodd" d="M80.4128 262.02H77.5746C77.5731 263.515 76.9771 264.842 76.0007 265.825C75.0201 266.803 73.6947 267.398 72.2017 267.399C70.7088 267.398 69.3847 266.803 68.4027 265.825C67.4263 264.842 66.8303 263.515 66.8289 262.02C66.8303 260.527 67.4263 259.2 68.4027 258.217C69.3847 257.239 70.7088 256.644 72.2017 256.643C73.6947 256.644 75.0201 257.239 76.0007 258.218C76.9785 259.2 77.5731 260.527 77.5746 262.02H83.2511C83.2497 255.911 78.3054 250.961 72.2017 250.96C66.098 250.961 61.1552 255.911 61.1523 262.02C61.1552 268.131 66.098 273.081 72.2017 273.082C78.3054 273.081 83.2497 268.131 83.2511 262.02H80.4128Z" fill="#2A2B3D"/>
<path fill-rule="evenodd" clip-rule="evenodd" d="M116.991 201.688C120.699 199.121 125.797 200.179 128.181 204.01L129.864 206.716L117.089 215.174L115.529 213.381C112.435 209.827 113.118 204.369 116.991 201.688Z" fill="#61648A"/>
<path fill-rule="evenodd" clip-rule="evenodd" d="M153.623 242.925C153.623 246.757 150.521 249.863 146.694 249.863C142.868 249.863 139.766 246.757 139.766 242.925C139.766 239.095 142.868 235.989 146.694 235.989C150.521 235.989 153.623 239.095 153.623 242.925Z" fill="#FFC55A"/>
<path fill-rule="evenodd" clip-rule="evenodd" d="M117.09 215.174L130.022 248.215C130.904 250.466 133.465 251.548 135.682 250.586C141.238 248.175 151.07 243.3 156.213 237.103C157.654 235.366 157.493 232.805 155.851 231.255L129.865 206.716L117.09 215.174Z" fill="#2A2B3D"/>
<path fill-rule="evenodd" clip-rule="evenodd" d="M94.1875 353.858H136.062V347.094H94.1875V353.858Z" fill="#2A2B3D"/>
<path fill-rule="evenodd" clip-rule="evenodd" d="M254.301 169.583H385.927V37.8043H254.301V169.583Z" fill="#D0E6EF"/>
<path fill-rule="evenodd" clip-rule="evenodd" d="M290.828 98.7856H366.855V85.4771H290.828V98.7856Z" fill="#61648A"/>
<path fill-rule="evenodd" clip-rule="evenodd" d="M277.535 98.7856H290.828V85.4771H277.535V98.7856Z" fill="white"/>
<path fill-rule="evenodd" clip-rule="evenodd" d="M290.828 119.337H366.855V106.029H290.828V119.337Z" fill="#61648A"/>
<path fill-rule="evenodd" clip-rule="evenodd" d="M328.137 133.234H366.856V126.58H328.137V133.234Z" fill="#ABBBCE"/>
<path fill-rule="evenodd" clip-rule="evenodd" d="M277.535 119.337H290.828V106.029H277.535V119.337Z" fill="white"/>
<path fill-rule="evenodd" clip-rule="evenodd" d="M374.391 81.9507H439.458V48.8139H374.391V81.9507Z" fill="#D35473"/>
<path fill-rule="evenodd" clip-rule="evenodd" d="M392.923 77.4398L381.875 97.2298L410.946 79.1859L392.923 77.4398Z" fill="#D35473"/>
<path fill-rule="evenodd" clip-rule="evenodd" d="M395.295 65.3816C395.295 67.0695 393.93 68.4377 392.243 68.4377C390.558 68.4377 389.191 67.0695 389.191 65.3816C389.191 63.6951 390.558 62.3269 392.243 62.3269C393.93 62.3269 395.295 63.6951 395.295 65.3816Z" fill="white"/>
<path fill-rule="evenodd" clip-rule="evenodd" d="M409.975 65.3816C409.975 67.0695 408.608 68.4377 406.924 68.4377C405.238 68.4377 403.871 67.0695 403.871 65.3816C403.871 63.6951 405.238 62.3269 406.924 62.3269C408.608 62.3269 409.975 63.6951 409.975 65.3816Z" fill="white"/>
<path fill-rule="evenodd" clip-rule="evenodd" d="M424.656 65.3816C424.656 67.0695 423.289 68.4377 421.605 68.4377C419.917 68.4377 418.551 67.0695 418.551 65.3816C418.551 63.6951 419.917 62.3269 421.605 62.3269C423.289 62.3269 424.656 63.6951 424.656 65.3816Z" fill="white"/>
<path fill-rule="evenodd" clip-rule="evenodd" d="M208.555 162.81H265.421V123.369H208.555V162.81Z" fill="#FFC55A"/>
<path d="M219.616 131.655V130.515L228.789 125.844V127.667L221.753 131.057L221.81 130.943V131.228L221.753 131.114L228.789 134.503V136.327L219.616 131.655ZM237.507 121.514L232.807 138.976H231.269L235.969 121.514H237.507ZM249.156 131.655L239.984 136.327V134.503L247.02 131.114L246.963 131.228V130.943L247.02 131.057L239.984 127.667V125.844L249.156 130.515V131.655Z" fill="white"/>
<path fill-rule="evenodd" clip-rule="evenodd" d="M418.904 523.142C420.607 538.835 422.314 554.836 418.373 557.076C414.435 559.318 392.133 557.076 387.297 557.076C382.46 557.076 382.46 546.875 390.521 542.619C398.582 538.362 400.194 523.142 400.194 523.142H418.904Z" fill="#D35473"/>
<path fill-rule="evenodd" clip-rule="evenodd" d="M516.081 532.166C517.786 547.857 520.021 554.836 516.081 557.076C512.142 559.318 489.84 557.076 485.004 557.076C480.167 557.076 480.167 546.875 488.229 542.619C496.289 538.362 496.328 530.489 496.328 530.489L516.081 532.166Z" fill="#D35473"/>
<path fill-rule="evenodd" clip-rule="evenodd" d="M386.494 145.049C379.906 158.271 380.709 171.754 393.875 172.309C407.043 172.865 386.494 145.049 386.494 145.049Z" fill="#542633"/>
<path fill-rule="evenodd" clip-rule="evenodd" d="M388.569 158.876C392.706 175.117 404.267 190.704 417.295 185.503L419.933 190.586C421.887 194.353 426.521 195.821 430.284 193.864C434.045 191.908 435.511 187.269 433.555 183.501L430.919 178.417C430.919 178.417 438.639 169.049 437.403 161.818C436.168 154.588 436.889 160.827 436.889 160.827L424.643 135.074L386.188 155.075L388.569 158.876Z" fill="#F4B8AB"/>
<path fill-rule="evenodd" clip-rule="evenodd" d="M418.932 188.654L417.297 185.503C423.039 183.144 429.297 179.634 429.297 179.634L424.273 185.511C422.35 186.534 420.537 187.615 418.932 188.654Z" fill="#E88C9F"/>
<path fill-rule="evenodd" clip-rule="evenodd" d="M437.788 157.418C437.362 165.616 435.262 172.72 433.685 174.439C430.281 178.119 418.63 182.197 418.63 182.197C413.322 181.486 404.408 177.622 397.185 171.569C389.523 165.162 383.76 156.31 386.187 146.151C390.318 128.889 415.705 120.677 429.3 131.375C436.566 137.101 438.283 147.984 437.788 157.418Z" fill="#6D3744"/>
<path fill-rule="evenodd" clip-rule="evenodd" d="M437.79 157.418C437.365 165.616 435.264 172.72 433.688 174.439C430.283 178.119 418.632 182.197 418.632 182.197C413.324 181.486 404.411 177.622 397.188 171.569C397.402 168.941 398.126 166.44 399.843 164.906C401.622 163.303 404.617 163.596 407.892 163.887C413.885 164.421 420.817 164.955 422.973 153.895L426.082 152.829C426.082 152.829 432.866 155.472 437.79 157.418Z" fill="#542633"/>
<path fill-rule="evenodd" clip-rule="evenodd" d="M395.59 166.874C395.756 159.566 400.658 160.045 403.103 162.966C405.549 165.887 403.124 177.356 400.009 175.387C396.893 173.418 395.59 166.874 395.59 166.874Z" fill="#F4B8AB"/>
<path fill-rule="evenodd" clip-rule="evenodd" d="M398.73 174.441C398.679 174.441 398.629 174.438 398.581 174.429C397.809 174.31 397.349 172.915 397.078 171.478L397.08 171.48C397.559 172.547 398.162 173.608 398.899 174.428C398.842 174.436 398.785 174.441 398.73 174.441Z" fill="#E88C9F"/>
<path fill-rule="evenodd" clip-rule="evenodd" d="M398.898 174.428C398.161 173.608 397.558 172.547 397.078 171.48L397.077 171.475C396.776 169.877 396.711 168.228 396.711 168.228C397.354 166.008 398.184 165.045 399.027 165.045C399.84 165.045 400.667 165.944 401.349 167.483C402.649 170.416 400.516 174.175 398.898 174.428Z" fill="#E88C9F"/>
<path fill-rule="evenodd" clip-rule="evenodd" d="M427.267 136.297C420.966 139.04 418.169 147.771 422.974 153.898C426.326 158.168 432.278 156.213 432.278 156.213L427.267 136.297Z" fill="#FFC55A"/>
<path fill-rule="evenodd" clip-rule="evenodd" d="M424.106 146.285C422.138 136.614 432.136 128.406 440.882 132.961C443.135 134.135 444.963 135.987 445.92 138.381C449.199 146.589 448.994 157.236 459.035 158.683C459.035 158.683 446.946 171.619 434.853 163.823C428.081 159.456 425.27 151.999 424.106 146.285Z" fill="#6D3744"/>
<path fill-rule="evenodd" clip-rule="evenodd" d="M460.207 183.786C479.741 184.13 500.824 209.184 506.77 225.611C512.718 242.038 497.041 262.02 497.041 262.02L460.207 183.786Z" fill="#424866"/>
<path fill-rule="evenodd" clip-rule="evenodd" d="M341.924 275.498C333.508 264.71 329.651 264.116 326.979 266.196C324.308 268.276 314.216 274.103 312.435 275.498C310.654 276.893 312.732 278.973 315.997 278.379C319.261 277.785 319.261 277.785 319.261 277.785C319.261 277.785 317.777 285.51 321.636 289.076C325.494 292.642 337.663 287.59 337.663 287.59L341.924 275.498Z" fill="#F4B8AB"/>
<path fill-rule="evenodd" clip-rule="evenodd" d="M496.5 347.092C494.613 355.475 489.375 370.706 482.52 389.005C461.049 446.291 423.683 533.526 423.683 533.526L391.91 530.486L440.317 289.664C440.317 289.664 461.377 258.535 477.782 265.568C481.06 266.975 484.097 269.688 486.764 273.425C490.355 278.398 493.321 285.16 495.45 292.989C499.72 308.66 500.658 328.622 496.5 347.092Z" fill="#FFC55A"/>
<path fill-rule="evenodd" clip-rule="evenodd" d="M520.297 532.547L492.979 533.526L477.781 323.593V273.425H508.931C513.955 279.918 518.296 288.897 521.874 300.022H521.888C537.257 347.732 538.647 434.697 520.297 532.547Z" fill="#FFC55A"/>
<path fill-rule="evenodd" clip-rule="evenodd" d="M481.703 391.18L508.116 342.83L484.475 416.065L481.703 391.18Z" fill="#F49947"/>
<path fill-rule="evenodd" clip-rule="evenodd" d="M521.871 300.022C521.446 299.807 512.135 295.404 495.447 292.989C490.266 292.236 484.348 291.682 477.779 291.511C466.766 291.199 453.866 291.98 439.305 294.694L440.314 289.664C440.314 289.664 461.374 258.535 477.779 265.568C481.057 266.975 484.094 269.688 486.761 273.425H508.929C513.953 279.918 518.294 288.897 521.871 300.022Z" fill="#F49947"/>
<path fill-rule="evenodd" clip-rule="evenodd" d="M508.929 273.425L440.314 289.664L417.479 259.317C417.479 259.317 405.148 288.585 396.958 292.918C388.771 297.237 337.029 290.204 337.029 290.204C335.681 288.67 335.553 285.7 335.965 282.504H335.979C336.689 276.735 339.144 270.242 339.144 270.242L379.731 266.392C379.731 266.392 392.021 233.259 396.958 217.361C401.898 201.477 412.341 199.161 412.341 199.161C412.341 199.161 412.541 195.239 412.243 194.117C411.931 192.98 428.832 180.449 440.314 180.449L442.982 182.879C442.982 182.879 453.796 178.176 467.845 187.922C475.237 193.037 486.209 216.381 494.951 237.394V237.408C502.841 256.376 508.929 273.425 508.929 273.425Z" fill="#61648A"/>
<path fill-rule="evenodd" clip-rule="evenodd" d="M385.212 294.32C377.534 294.32 367.575 293.563 358.705 292.698C355.989 292.432 353.376 292.158 350.961 291.891C342.882 291 337.029 290.204 337.029 290.204C336.572 289.684 336.256 289.001 336.053 288.2C335.846 287.383 335.758 286.443 335.758 285.432C335.758 284.504 335.834 283.515 335.965 282.504H335.979C338.551 281.329 341.812 280.887 345.48 280.887C351.049 280.887 357.56 281.904 364.041 282.921C370.524 283.94 376.977 284.957 382.43 284.957C387.968 284.957 392.474 283.907 394.93 280.742C402.741 270.66 410.936 244.472 415.726 244.472C416.383 244.472 416.975 244.965 417.494 246.061C421.78 255.125 430.579 268.836 441.449 271.18C442.369 271.379 443.534 271.478 444.892 271.478C459.552 271.478 496.847 259.93 494.951 237.408C502.841 256.376 508.929 273.425 508.929 273.425L440.314 289.664L417.479 259.317C417.479 259.317 405.148 288.585 396.958 292.918C395.035 293.932 390.708 294.32 385.212 294.32Z" fill="#525476"/>
</svg>
