<svg width="36" height="25" viewBox="0 0 36 25" fill="none" xmlns="http://www.w3.org/2000/svg">
<path d="M5.23047 20.4102C6.76042 19.4661 8.09505 18.2943 9.23438 16.8945C10.4062 15.4948 10.9922 14.2253 10.9922 13.0859C10.9922 12.5326 10.862 12.0768 10.6016 11.7188C9.46224 12.5 8.19271 12.8906 6.79297 12.8906C5.78385 12.8906 4.80729 12.5977 3.86328 12.0117C2.95182 11.3932 2.20312 10.612 1.61719 9.66797C1.0638 8.69141 0.787109 7.69857 0.787109 6.68945C0.787109 5.55013 1.11263 4.47591 1.76367 3.4668C2.44727 2.42513 3.3099 1.59505 4.35156 0.976562C5.42578 0.325521 6.51628 0 7.62305 0C9.08789 0 10.4714 0.390625 11.7734 1.17188C13.0755 1.95312 14.1172 3.07617 14.8984 4.54102C15.7122 6.00586 16.1191 7.73112 16.1191 9.7168C16.1191 11.1491 15.9401 12.4349 15.582 13.5742C15.2565 14.681 14.638 15.8366 13.7266 17.041C12.8151 18.278 11.985 19.3034 11.2363 20.1172C10.5202 20.8984 9.25065 22.2005 7.42773 24.0234L5.23047 20.4102ZM24.2344 20.4102C25.7643 19.4661 27.099 18.2943 28.2383 16.8945C29.4102 15.4948 29.9961 14.2253 29.9961 13.0859C29.9961 12.5326 29.8659 12.0768 29.6055 11.7188C28.4661 12.5 27.1966 12.8906 25.7969 12.8906C24.7878 12.8906 23.8112 12.5977 22.8672 12.0117C21.9557 11.3932 21.207 10.612 20.6211 9.66797C20.0677 8.69141 19.791 7.69857 19.791 6.68945C19.791 5.55013 20.1165 4.47591 20.7676 3.4668C21.4512 2.42513 22.3138 1.59505 23.3555 0.976562C24.4297 0.325521 25.5202 0 26.627 0C28.0918 0 29.4753 0.390625 30.7773 1.17188C32.0794 1.95312 33.1211 3.07617 33.9023 4.54102C34.7161 6.00586 35.123 7.73112 35.123 9.7168C35.123 11.1491 34.944 12.4349 34.5859 13.5742C34.2604 14.681 33.6419 15.8366 32.7305 17.041C31.819 18.278 30.9889 19.3034 30.2402 20.1172C29.5241 20.8984 28.2546 22.2005 26.4316 24.0234L24.2344 20.4102Z" fill="#6967FF"/>
</svg>
