<svg width="24" height="24" viewBox="0 0 24 24" fill="none" xmlns="http://www.w3.org/2000/svg">
<path d="M24 12C24 18.6274 18.6274 24 12 24C5.37258 24 0 18.6274 0 12C0 5.37258 5.37258 0 12 0C18.6274 0 24 5.37258 24 12Z" fill="#C2ACFF"/>
<path fill-rule="evenodd" clip-rule="evenodd" d="M18.0489 8.34857C18.3614 8.66099 18.3614 9.16752 18.0489 9.47994L11.1918 16.3371C10.8794 16.6495 10.3728 16.6495 10.0604 16.3371L6.289 12.5657C5.97658 12.2532 5.97658 11.7467 6.289 11.4343C6.60142 11.1219 7.10795 11.1219 7.42037 11.4343L10.6261 14.64L16.9176 8.34857C17.23 8.03615 17.7365 8.03615 18.0489 8.34857Z" fill="black"/>
</svg>
