<svg width="42" height="42" viewBox="0 0 42 42" fill="none" xmlns="http://www.w3.org/2000/svg">
<path d="M40.6431 20.5715C40.6431 31.6567 31.6567 40.6431 20.5715 40.6431C9.48633 40.6431 0.5 31.6567 0.5 20.5715C0.5 9.48633 9.48633 0.5 20.5715 0.5C31.6567 0.5 40.6431 9.48633 40.6431 20.5715Z" stroke="#6967FF"/>
<path d="M31.7071 21.7071C32.0976 21.3166 32.0976 20.6834 31.7071 20.2929L25.3431 13.9289C24.9526 13.5384 24.3195 13.5384 23.9289 13.9289C23.5384 14.3195 23.5384 14.9526 23.9289 15.3431L29.5858 21L23.9289 26.6569C23.5384 27.0474 23.5384 27.6805 23.9289 28.0711C24.3195 28.4616 24.9526 28.4616 25.3431 28.0711L31.7071 21.7071ZM11 22H31V20H11V22Z" fill="#6967FF"/>
</svg>
