<svg width="90" height="101" viewBox="0 0 90 101" fill="none" xmlns="http://www.w3.org/2000/svg">
<path d="M0.691863 93.0218C0.343418 93.7734 0.670226 94.6651 1.42181 95.0136L13.6696 100.692C14.4211 101.04 15.3129 100.713 15.6613 99.9619C16.0098 99.2103 15.683 98.3185 14.9314 97.9701L4.0445 92.9228L9.09184 82.0359C9.44029 81.2843 9.11348 80.3925 8.3619 80.0441C7.61031 79.6956 6.71856 80.0225 6.37012 80.774L0.691863 93.0218ZM86.4849 0.0173059C81.5015 22.1381 57.4973 71.7359 1.53658 92.2443L2.56887 95.0611C59.7499 74.1055 84.2737 23.483 89.4116 0.676628L86.4849 0.0173059Z" fill="#3041DE"/>
</svg>
