<svg width="178" height="43" viewBox="0 0 178 43" fill="none" xmlns="http://www.w3.org/2000/svg">
<path d="M15.73 11.9162C15.6743 11.757 15.5649 11.572 15.4017 11.361C15.1407 11.0235 14.8337 10.8227 14.4807 10.7586C14.1488 10.6782 13.6951 10.6583 13.1197 10.6988C12.6238 10.7115 12.2368 10.6906 11.9586 10.636C11.7015 10.5651 11.5149 10.3892 11.3987 10.1083C11.2336 9.764 11.2368 9.44125 11.4084 9.14001C11.5799 8.83876 11.9399 8.47605 12.4884 8.05187L21.4743 1.10185C21.9172 0.759244 22.3118 0.572038 22.6581 0.540233C23.0254 0.492115 23.2988 0.584071 23.4783 0.816101C23.5598 0.92157 23.6342 1.08315 23.7015 1.30085C23.7524 1.49744 23.7635 1.70797 23.7348 1.93242C23.7109 2.11946 23.6707 2.28541 23.6142 2.43026C23.5625 2.53771 23.5318 2.62884 23.5223 2.70366C23.3316 3.15453 23.2205 3.57756 23.189 3.97274C23.1576 4.36792 23.2556 4.86518 23.4832 5.46454L28.8497 18.8104C29.9462 21.5358 30.1593 24.0342 29.4889 26.3058C28.8022 28.5562 27.246 30.6195 24.8202 32.4957C23.196 33.7519 21.6349 34.5885 20.1369 35.0054C18.6437 35.3849 17.3023 35.3942 16.1129 35.0331C14.9234 34.672 13.9616 34.0169 13.2274 33.0677C12.8685 32.6036 12.581 32.1011 12.365 31.5603C11.905 30.399 11.8144 29.3229 12.093 28.332C12.3928 27.3247 12.954 26.503 13.7767 25.8667C14.7259 25.1326 15.6739 24.8545 16.6206 25.0325C17.5674 25.2104 18.3833 25.7424 19.0686 26.6283C19.4112 27.0713 19.6905 27.5632 19.9065 28.1041C20.3386 29.1858 20.3698 30.2068 20 31.167C20.5006 31.1169 20.9724 30.9206 21.4154 30.578C21.8583 30.2354 22.0773 29.7121 22.0722 29.0081C22.0671 28.3041 21.8705 27.4615 21.4826 26.4805L15.73 11.9162Z" fill="#DF4B2D"/>
<path d="M46.7788 7.22964V18.7016C46.7788 20.4776 46.2748 21.8456 45.2668 22.8056C44.2748 23.7656 42.9308 24.2456 41.2348 24.2456C39.4588 24.2456 38.0348 23.7416 36.9628 22.7336C35.8908 21.7256 35.3548 20.2936 35.3548 18.4376H39.4348C39.4348 19.1416 39.5788 19.6776 39.8668 20.0456C40.1548 20.3976 40.5708 20.5736 41.1148 20.5736C41.6108 20.5736 41.9948 20.4136 42.2668 20.0936C42.5388 19.7736 42.6748 19.3096 42.6748 18.7016V7.22964H46.7788ZM57.3898 24.2456C56.1578 24.2456 55.0538 24.0456 54.0778 23.6456C53.1018 23.2456 52.3178 22.6536 51.7258 21.8696C51.1498 21.0856 50.8458 20.1416 50.8138 19.0376H55.1818C55.2458 19.6616 55.4618 20.1416 55.8298 20.4776C56.1978 20.7976 56.6778 20.9576 57.2698 20.9576C57.8778 20.9576 58.3578 20.8216 58.7098 20.5496C59.0618 20.2616 59.2378 19.8696 59.2378 19.3736C59.2378 18.9576 59.0938 18.6136 58.8058 18.3416C58.5338 18.0696 58.1898 17.8456 57.7738 17.6696C57.3738 17.4936 56.7978 17.2936 56.0458 17.0696C54.9578 16.7336 54.0698 16.3976 53.3818 16.0616C52.6938 15.7256 52.1018 15.2296 51.6058 14.5736C51.1098 13.9176 50.8618 13.0616 50.8618 12.0056C50.8618 10.4376 51.4298 9.21364 52.5658 8.33364C53.7018 7.43764 55.1818 6.98964 57.0058 6.98964C58.8618 6.98964 60.3578 7.43764 61.4938 8.33364C62.6298 9.21364 63.2378 10.4456 63.3178 12.0296H58.8778C58.8458 11.4856 58.6458 11.0616 58.2778 10.7576C57.9098 10.4376 57.4378 10.2776 56.8618 10.2776C56.3658 10.2776 55.9658 10.4136 55.6618 10.6856C55.3578 10.9416 55.2058 11.3176 55.2058 11.8136C55.2058 12.3576 55.4618 12.7816 55.9738 13.0856C56.4858 13.3896 57.2858 13.7176 58.3738 14.0696C59.4618 14.4376 60.3418 14.7896 61.0138 15.1256C61.7018 15.4616 62.2938 15.9496 62.7898 16.5896C63.2858 17.2296 63.5338 18.0536 63.5338 19.0616C63.5338 20.0216 63.2858 20.8936 62.7898 21.6776C62.3098 22.4616 61.6058 23.0856 60.6778 23.5496C59.7498 24.0136 58.6538 24.2456 57.3898 24.2456ZM71.3634 7.22964V24.0776H67.2594V7.22964H71.3634ZM85.8575 24.0776L82.4255 18.9176L79.4015 24.0776H74.7455L80.1455 15.5096L74.6255 7.22964H79.4015L82.7855 12.3176L85.7615 7.22964H90.4175L85.0655 15.7256L90.6335 24.0776H85.8575ZM99.9898 24.2456C98.7578 24.2456 97.6538 24.0456 96.6778 23.6456C95.7018 23.2456 94.9178 22.6536 94.3258 21.8696C93.7498 21.0856 93.4458 20.1416 93.4138 19.0376H97.7818C97.8458 19.6616 98.0618 20.1416 98.4298 20.4776C98.7978 20.7976 99.2778 20.9576 99.8698 20.9576C100.478 20.9576 100.958 20.8216 101.31 20.5496C101.662 20.2616 101.838 19.8696 101.838 19.3736C101.838 18.9576 101.694 18.6136 101.406 18.3416C101.134 18.0696 100.79 17.8456 100.374 17.6696C99.9738 17.4936 99.3978 17.2936 98.6458 17.0696C97.5578 16.7336 96.6698 16.3976 95.9818 16.0616C95.2938 15.7256 94.7018 15.2296 94.2058 14.5736C93.7098 13.9176 93.4618 13.0616 93.4618 12.0056C93.4618 10.4376 94.0298 9.21364 95.1658 8.33364C96.3018 7.43764 97.7818 6.98964 99.6058 6.98964C101.462 6.98964 102.958 7.43764 104.094 8.33364C105.23 9.21364 105.838 10.4456 105.918 12.0296H101.478C101.446 11.4856 101.246 11.0616 100.878 10.7576C100.51 10.4376 100.038 10.2776 99.4618 10.2776C98.9658 10.2776 98.5658 10.4136 98.2618 10.6856C97.9578 10.9416 97.8058 11.3176 97.8058 11.8136C97.8058 12.3576 98.0618 12.7816 98.5738 13.0856C99.0858 13.3896 99.8858 13.7176 100.974 14.0696C102.062 14.4376 102.942 14.7896 103.614 15.1256C104.302 15.4616 104.894 15.9496 105.39 16.5896C105.886 17.2296 106.134 18.0536 106.134 19.0616C106.134 20.0216 105.886 20.8936 105.39 21.6776C104.91 22.4616 104.206 23.0856 103.278 23.5496C102.35 24.0136 101.254 24.2456 99.9898 24.2456ZM113.963 7.22964V24.0776H109.859V7.22964H113.963ZM129.322 12.5576C129.018 11.9976 128.578 11.5736 128.002 11.2856C127.442 10.9816 126.778 10.8296 126.01 10.8296C124.682 10.8296 123.618 11.2696 122.818 12.1496C122.018 13.0136 121.618 14.1736 121.618 15.6296C121.618 17.1816 122.034 18.3976 122.866 19.2776C123.714 20.1416 124.874 20.5736 126.346 20.5736C127.354 20.5736 128.202 20.3176 128.89 19.8056C129.594 19.2936 130.106 18.5576 130.426 17.5976H125.218V14.5736H134.146V18.3896C133.842 19.4136 133.322 20.3656 132.586 21.2456C131.866 22.1256 130.946 22.8376 129.826 23.3816C128.706 23.9256 127.442 24.1976 126.034 24.1976C124.37 24.1976 122.882 23.8376 121.57 23.1176C120.274 22.3816 119.258 21.3656 118.522 20.0696C117.802 18.7736 117.442 17.2936 117.442 15.6296C117.442 13.9656 117.802 12.4856 118.522 11.1896C119.258 9.87764 120.274 8.86164 121.57 8.14164C122.866 7.40564 124.346 7.03764 126.01 7.03764C128.026 7.03764 129.722 7.52564 131.098 8.50164C132.49 9.47764 133.41 10.8296 133.858 12.5576H129.322ZM156.699 7.22964V24.0776H152.595V13.9736L148.827 24.0776H145.515L141.723 13.9496V24.0776H137.619V7.22964H142.467L147.195 18.8936L151.875 7.22964H156.699ZM171.338 21.1016H165.05L164.042 24.0776H159.746L165.842 7.22964H170.594L176.69 24.0776H172.346L171.338 21.1016ZM170.282 17.9336L168.194 11.7656L166.13 17.9336H170.282Z" fill="black"/>
<path d="M48.1789 35.0722H46.0509L45.6589 36.1572H44.9869L46.7509 31.3062H47.4859L49.2429 36.1572H48.5709L48.1789 35.0722ZM47.9969 34.5542L47.1149 32.0902L46.2329 34.5542H47.9969ZM56.2809 33.6442C56.4582 33.6722 56.6192 33.7446 56.7639 33.8612C56.9132 33.9779 57.0299 34.1226 57.1139 34.2952C57.2026 34.4679 57.2469 34.6522 57.2469 34.8482C57.2469 35.0956 57.1839 35.3196 57.0579 35.5202C56.9319 35.7162 56.7476 35.8726 56.5049 35.9892C56.2669 36.1012 55.9846 36.1572 55.6579 36.1572H53.8379V31.2782H55.5879C55.9192 31.2782 56.2016 31.3342 56.4349 31.4462C56.6682 31.5536 56.8432 31.7006 56.9599 31.8872C57.0766 32.0739 57.1349 32.2839 57.1349 32.5172C57.1349 32.8066 57.0556 33.0469 56.8969 33.2382C56.7429 33.4249 56.5376 33.5602 56.2809 33.6442ZM54.4749 33.3852H55.5459C55.8446 33.3852 56.0756 33.3152 56.2389 33.1752C56.4022 33.0352 56.4839 32.8416 56.4839 32.5942C56.4839 32.3469 56.4022 32.1532 56.2389 32.0132C56.0756 31.8732 55.8399 31.8032 55.5319 31.8032H54.4749V33.3852ZM55.6019 35.6322C55.9192 35.6322 56.1666 35.5576 56.3439 35.4082C56.5212 35.2589 56.6099 35.0512 56.6099 34.7852C56.6099 34.5146 56.5166 34.3022 56.3299 34.1482C56.1432 33.9896 55.8936 33.9102 55.5809 33.9102H54.4749V35.6322H55.6019ZM61.6799 36.1572L60.5179 34.1622H59.7479V36.1572H59.1109V31.2782H60.6859C61.0545 31.2782 61.3649 31.3412 61.6169 31.4672C61.8735 31.5932 62.0649 31.7636 62.1909 31.9782C62.3169 32.1929 62.3799 32.4379 62.3799 32.7132C62.3799 33.0492 62.2819 33.3456 62.0859 33.6022C61.8945 33.8589 61.6052 34.0292 61.2179 34.1132L62.4429 36.1572H61.6799ZM59.7479 33.6512H60.6859C61.0312 33.6512 61.2902 33.5672 61.4629 33.3992C61.6355 33.2266 61.7219 32.9979 61.7219 32.7132C61.7219 32.4239 61.6355 32.1999 61.4629 32.0412C61.2949 31.8826 61.0359 31.8032 60.6859 31.8032H59.7479V33.6512ZM67.2336 35.0722H65.1056L64.7136 36.1572H64.0416L65.8056 31.3062H66.5406L68.2976 36.1572H67.6256L67.2336 35.0722ZM67.0516 34.5542L66.1696 32.0902L65.2876 34.5542H67.0516ZM70.6834 31.2782V36.1572H70.0464V31.2782H70.6834ZM76.5851 36.1572H75.9481L73.3861 32.2722V36.1572H72.7491V31.2712H73.3861L75.9481 35.1492V31.2712H76.5851V36.1572ZM83.6 31.3132V36.1572H82.963V32.5452L81.353 36.1572H80.905L79.288 32.5382V36.1572H78.651V31.3132H79.337L81.129 35.3172L82.921 31.3132H83.6ZM86.2973 31.7962V33.4272H88.0753V33.9522H86.2973V35.6322H88.2853V36.1572H85.6603V31.2712H88.2853V31.7962H86.2973ZM93.1131 35.0722H90.9851L90.5931 36.1572H89.9211L91.6851 31.3062H92.4201L94.1771 36.1572H93.5051L93.1131 35.0722ZM92.9311 34.5542L92.0491 32.0902L91.1671 34.5542H92.9311ZM97.4729 36.2062C97.1509 36.2062 96.8616 36.1502 96.6049 36.0382C96.3529 35.9216 96.1546 35.7629 96.0099 35.5622C95.8653 35.3569 95.7906 35.1212 95.7859 34.8552H96.4649C96.4883 35.0839 96.5816 35.2776 96.7449 35.4362C96.9129 35.5902 97.1556 35.6672 97.4729 35.6672C97.7763 35.6672 98.0143 35.5926 98.1869 35.4432C98.3643 35.2892 98.4529 35.0932 98.4529 34.8552C98.4529 34.6686 98.4016 34.5169 98.2989 34.4002C98.1963 34.2836 98.0679 34.1949 97.9139 34.1342C97.7599 34.0736 97.5523 34.0082 97.2909 33.9382C96.9689 33.8542 96.7099 33.7702 96.5139 33.6862C96.3226 33.6022 96.1569 33.4716 96.0169 33.2942C95.8816 33.1122 95.8139 32.8696 95.8139 32.5662C95.8139 32.3002 95.8816 32.0646 96.0169 31.8592C96.1523 31.6539 96.3413 31.4952 96.5839 31.3832C96.8313 31.2712 97.1136 31.2152 97.4309 31.2152C97.8883 31.2152 98.2616 31.3296 98.5509 31.5582C98.8449 31.7869 99.0106 32.0902 99.0479 32.4682H98.3479C98.3246 32.2816 98.2266 32.1182 98.0539 31.9782C97.8813 31.8336 97.6526 31.7612 97.3679 31.7612C97.1019 31.7612 96.8849 31.8312 96.7169 31.9712C96.5489 32.1066 96.4649 32.2979 96.4649 32.5452C96.4649 32.7226 96.5139 32.8672 96.6119 32.9792C96.7146 33.0912 96.8383 33.1776 96.9829 33.2382C97.1323 33.2942 97.3399 33.3596 97.6059 33.4342C97.9279 33.5229 98.1869 33.6116 98.3829 33.7002C98.5789 33.7842 98.7469 33.9172 98.8869 34.0992C99.0269 34.2766 99.0969 34.5192 99.0969 34.8272C99.0969 35.0652 99.0339 35.2892 98.9079 35.4992C98.7819 35.7092 98.5953 35.8796 98.3479 36.0102C98.1006 36.1409 97.8089 36.2062 97.4729 36.2062ZM101.637 31.2782V34.3652C101.637 34.7992 101.742 35.1212 101.952 35.3312C102.167 35.5412 102.463 35.6462 102.841 35.6462C103.215 35.6462 103.506 35.5412 103.716 35.3312C103.931 35.1212 104.038 34.7992 104.038 34.3652V31.2782H104.675V34.3582C104.675 34.7642 104.594 35.1072 104.43 35.3872C104.267 35.6626 104.045 35.8679 103.765 36.0032C103.49 36.1386 103.18 36.2062 102.834 36.2062C102.489 36.2062 102.176 36.1386 101.896 36.0032C101.621 35.8679 101.402 35.6626 101.238 35.3872C101.08 35.1072 101 34.7642 101 34.3582V31.2782H101.637ZM109.287 36.1572L108.125 34.1622H107.355V36.1572H106.718V31.2782H108.293C108.662 31.2782 108.972 31.3412 109.224 31.4672C109.481 31.5932 109.672 31.7636 109.798 31.9782C109.924 32.1929 109.987 32.4379 109.987 32.7132C109.987 33.0492 109.889 33.3456 109.693 33.6022C109.502 33.8589 109.212 34.0292 108.825 34.1132L110.05 36.1572H109.287ZM107.355 33.6512H108.293C108.638 33.6512 108.897 33.5672 109.07 33.3992C109.243 33.2266 109.329 32.9979 109.329 32.7132C109.329 32.4239 109.243 32.1999 109.07 32.0412C108.902 31.8826 108.643 31.8032 108.293 31.8032H107.355V33.6512ZM112.594 31.7962V33.4272H114.372V33.9522H112.594V35.6322H114.582V36.1572H111.957V31.2712H114.582V31.7962H112.594ZM116.624 31.2782H117.331L116.659 32.8672H116.211L116.624 31.2782ZM120.584 36.2062C120.262 36.2062 119.973 36.1502 119.716 36.0382C119.464 35.9216 119.266 35.7629 119.121 35.5622C118.976 35.3569 118.902 35.1212 118.897 34.8552H119.576C119.599 35.0839 119.693 35.2776 119.856 35.4362C120.024 35.5902 120.267 35.6672 120.584 35.6672C120.887 35.6672 121.125 35.5926 121.298 35.4432C121.475 35.2892 121.564 35.0932 121.564 34.8552C121.564 34.6686 121.513 34.5169 121.41 34.4002C121.307 34.2836 121.179 34.1949 121.025 34.1342C120.871 34.0736 120.663 34.0082 120.402 33.9382C120.08 33.8542 119.821 33.7702 119.625 33.6862C119.434 33.6022 119.268 33.4716 119.128 33.2942C118.993 33.1122 118.925 32.8696 118.925 32.5662C118.925 32.3002 118.993 32.0646 119.128 31.8592C119.263 31.6539 119.452 31.4952 119.695 31.3832C119.942 31.2712 120.225 31.2152 120.542 31.2152C120.999 31.2152 121.373 31.3296 121.662 31.5582C121.956 31.7869 122.122 32.0902 122.159 32.4682H121.459C121.436 32.2816 121.338 32.1182 121.165 31.9782C120.992 31.8336 120.764 31.7612 120.479 31.7612C120.213 31.7612 119.996 31.8312 119.828 31.9712C119.66 32.1066 119.576 32.2979 119.576 32.5452C119.576 32.7226 119.625 32.8672 119.723 32.9792C119.826 33.0912 119.949 33.1776 120.094 33.2382C120.243 33.2942 120.451 33.3596 120.717 33.4342C121.039 33.5229 121.298 33.6116 121.494 33.7002C121.69 33.7842 121.858 33.9172 121.998 34.0992C122.138 34.2766 122.208 34.5192 122.208 34.8272C122.208 35.0652 122.145 35.2892 122.019 35.4992C121.893 35.7092 121.706 35.8796 121.459 36.0102C121.212 36.1409 120.92 36.2062 120.584 36.2062ZM126.733 33.7142C126.733 33.2382 126.841 32.8112 127.055 32.4332C127.27 32.0506 127.562 31.7519 127.93 31.5372C128.304 31.3226 128.717 31.2152 129.169 31.2152C129.701 31.2152 130.166 31.3436 130.562 31.6002C130.959 31.8569 131.248 32.2209 131.43 32.6922H130.667C130.532 32.3982 130.336 32.1719 130.079 32.0132C129.827 31.8546 129.524 31.7752 129.169 31.7752C128.829 31.7752 128.523 31.8546 128.252 32.0132C127.982 32.1719 127.769 32.3982 127.615 32.6922C127.461 32.9816 127.384 33.3222 127.384 33.7142C127.384 34.1016 127.461 34.4422 127.615 34.7362C127.769 35.0256 127.982 35.2496 128.252 35.4082C128.523 35.5669 128.829 35.6462 129.169 35.6462C129.524 35.6462 129.827 35.5692 130.079 35.4152C130.336 35.2566 130.532 35.0302 130.667 34.7362H131.43C131.248 35.2029 130.959 35.5646 130.562 35.8212C130.166 36.0732 129.701 36.1992 129.169 36.1992C128.717 36.1992 128.304 36.0942 127.93 35.8842C127.562 35.6696 127.27 35.3732 127.055 34.9952C126.841 34.6172 126.733 34.1902 126.733 33.7142ZM135.571 36.2062C135.118 36.2062 134.705 36.1012 134.332 35.8912C133.958 35.6766 133.662 35.3802 133.443 35.0022C133.228 34.6196 133.121 34.1902 133.121 33.7142C133.121 33.2382 133.228 32.8112 133.443 32.4332C133.662 32.0506 133.958 31.7542 134.332 31.5442C134.705 31.3296 135.118 31.2222 135.571 31.2222C136.028 31.2222 136.443 31.3296 136.817 31.5442C137.19 31.7542 137.484 32.0482 137.699 32.4262C137.913 32.8042 138.021 33.2336 138.021 33.7142C138.021 34.1949 137.913 34.6242 137.699 35.0022C137.484 35.3802 137.19 35.6766 136.817 35.8912C136.443 36.1012 136.028 36.2062 135.571 36.2062ZM135.571 35.6532C135.911 35.6532 136.217 35.5739 136.488 35.4152C136.763 35.2566 136.978 35.0302 137.132 34.7362C137.29 34.4422 137.37 34.1016 137.37 33.7142C137.37 33.3222 137.29 32.9816 137.132 32.6922C136.978 32.3982 136.765 32.1719 136.495 32.0132C136.224 31.8546 135.916 31.7752 135.571 31.7752C135.225 31.7752 134.917 31.8546 134.647 32.0132C134.376 32.1719 134.161 32.3982 134.003 32.6922C133.849 32.9816 133.772 33.3222 133.772 33.7142C133.772 34.1016 133.849 34.4422 134.003 34.7362C134.161 35.0302 134.376 35.2566 134.647 35.4152C134.922 35.5739 135.23 35.6532 135.571 35.6532ZM144.791 31.3132V36.1572H144.154V32.5452L142.544 36.1572H142.096L140.479 32.5382V36.1572H139.842V31.3132H140.528L142.32 35.3172L144.112 31.3132H144.791ZM150.113 32.7062C150.113 33.1122 149.973 33.4506 149.693 33.7212C149.418 33.9872 148.995 34.1202 148.426 34.1202H147.488V36.1572H146.851V31.2782H148.426C148.977 31.2782 149.394 31.4112 149.679 31.6772C149.968 31.9432 150.113 32.2862 150.113 32.7062ZM148.426 33.5952C148.781 33.5952 149.042 33.5182 149.21 33.3642C149.378 33.2102 149.462 32.9909 149.462 32.7062C149.462 32.1042 149.117 31.8032 148.426 31.8032H147.488V33.5952H148.426ZM154.769 35.0722H152.641L152.249 36.1572H151.577L153.341 31.3062H154.076L155.833 36.1572H155.161L154.769 35.0722ZM154.587 34.5542L153.705 32.0902L152.823 34.5542H154.587ZM161.417 36.1572H160.78L158.218 32.2722V36.1572H157.581V31.2712H158.218L160.78 35.1492V31.2712H161.417V36.1572ZM166.899 31.2782L165.31 34.3162V36.1572H164.673V34.3162L163.077 31.2782H163.784L164.988 33.7492L166.192 31.2782H166.899Z" fill="black"/>
<circle cx="26.894" cy="38.6572" r="3.5" fill="#DEC13C"/>
</svg>
