<svg width="59" height="28" viewBox="0 0 59 28" fill="none" xmlns="http://www.w3.org/2000/svg">
<path d="M51.0522 14L59 28H0V0H59L51.0522 14Z" fill="#48EACD"/>
<path d="M21.044 18H19.448L14.646 10.734V18H13.05V8.256H14.646L19.448 15.508V8.256H21.044V18ZM30.2098 13.954C30.2098 14.2433 30.1912 14.5047 30.1538 14.738H24.2598C24.3065 15.354 24.5352 15.8487 24.9458 16.222C25.3565 16.5953 25.8605 16.782 26.4578 16.782C27.3165 16.782 27.9232 16.4227 28.2778 15.704H29.9998C29.7665 16.4133 29.3418 16.9967 28.7258 17.454C28.1192 17.902 27.3632 18.126 26.4578 18.126C25.7205 18.126 25.0578 17.9627 24.4698 17.636C23.8912 17.3 23.4338 16.8333 23.0978 16.236C22.7712 15.6293 22.6078 14.9293 22.6078 14.136C22.6078 13.3427 22.7665 12.6473 23.0838 12.05C23.4105 11.4433 23.8632 10.9767 24.4418 10.65C25.0298 10.3233 25.7018 10.16 26.4578 10.16C27.1858 10.16 27.8345 10.3187 28.4038 10.636C28.9732 10.9533 29.4165 11.4013 29.7338 11.98C30.0512 12.5493 30.2098 13.2073 30.2098 13.954ZM28.5438 13.45C28.5345 12.862 28.3245 12.3907 27.9138 12.036C27.5032 11.6813 26.9945 11.504 26.3878 11.504C25.8372 11.504 25.3658 11.6813 24.9738 12.036C24.5818 12.3813 24.3485 12.8527 24.2738 13.45H28.5438ZM42.1405 10.286L39.7465 18H38.0665L36.5125 12.302L34.9585 18H33.2785L30.8705 10.286H32.4945L34.1045 16.488L35.7425 10.286H37.4085L38.9765 16.46L40.5725 10.286H42.1405Z" fill="black"/>
</svg>
