<svg width="25" height="23" viewBox="0 0 25 23" fill="none" xmlns="http://www.w3.org/2000/svg">
<path d="M11.7602 1.0251C12.1279 0.285045 13.1836 0.285046 13.5513 1.0251L16.4291 6.81711C16.5747 7.11018 16.8545 7.31345 17.1782 7.36137L23.576 8.30848C24.3935 8.42949 24.7197 9.43353 24.1295 10.0119L19.5102 14.5387C19.2765 14.7677 19.1696 15.0966 19.2241 15.4193L20.3004 21.7967C20.4379 22.6115 19.5838 23.232 18.8514 22.8495L13.1187 19.8551C12.8287 19.7036 12.4828 19.7036 12.1928 19.8551L6.46013 22.8495C5.72767 23.232 4.87358 22.6115 5.0111 21.7967L6.08739 15.4193C6.14184 15.0966 6.03498 14.7677 5.80125 14.5387L1.182 10.0119C0.591795 9.43353 0.918026 8.42949 1.73549 8.30848L8.1333 7.36137C8.45702 7.31345 8.7368 7.11018 8.88241 6.81711L11.7602 1.0251Z" fill="#FFBB00"/>
</svg>
