<svg width="42" height="42" viewBox="0 0 42 42" fill="none" xmlns="http://www.w3.org/2000/svg">
<path d="M41.1431 20.5715C41.1431 31.9329 31.9329 41.1431 20.5715 41.1431C9.21019 41.1431 0 31.9329 0 20.5715C0 9.21019 9.21019 0 20.5715 0C31.9329 0 41.1431 9.21019 41.1431 20.5715Z" fill="#FFBB00"/>
<path fill-rule="evenodd" clip-rule="evenodd" d="M30.9445 14.3122C31.4801 14.8478 31.4801 15.7161 30.9445 16.2517L19.1893 28.0069C18.6538 28.5424 17.7854 28.5424 17.2498 28.0069L10.7845 21.5415C10.2489 21.006 10.2489 20.1376 10.7845 19.602C11.3201 19.0665 12.1884 19.0665 12.724 19.602L18.2196 25.0976L29.005 14.3122C29.5406 13.7766 30.4089 13.7766 30.9445 14.3122Z" fill="black"/>
</svg>
