<svg width="64" height="49" viewBox="0 0 64 49" fill="none" xmlns="http://www.w3.org/2000/svg">
<path d="M36.522 44.8431L38.834 48.2773C54.8301 37.8896 63.7168 25.2682 63.7168 14.8805C63.7168 4.83616 56.0728 0.113455 49.5862 0.113455C41.4104 0.113454 35.6348 6.81151 35.6348 13.8502C35.6348 19.7735 39.5449 24.8397 44.7888 26.7298C46.2988 27.2463 47.7207 27.6749 47.7207 30.164C47.7207 33.34 45.3206 38.0599 36.522 44.8431ZM1.24245 44.8431L3.55442 48.2773C19.3742 37.8896 28.4372 25.2682 28.4372 14.8805C28.4372 4.83616 20.6169 0.113452 14.1303 0.113452C5.8664 0.113451 -0.000263277 6.8115 -0.000263913 13.8502C-0.000264449 19.7735 3.99805 24.8396 9.42108 26.7298C10.9311 27.2463 12.2648 27.6749 12.2648 30.164C12.2648 33.34 9.77655 38.0627 1.2453 44.8459L1.24245 44.8431Z" fill="black"/>
</svg>
