<svg width="629" height="545" viewBox="0 0 629 545" fill="none" xmlns="http://www.w3.org/2000/svg">
<path opacity="0.2" d="M300 145C300 64.9187 364.919 0 445 0C525.081 0 590 64.9187 590 145V400C590 480.081 525.081 545 445 545C364.919 545 300 480.081 300 400V145Z" fill="#5837D0"/>
<path d="M357 275C357 199.889 417.889 139 493 139C568.111 139 629 199.889 629 275V344C629 419.111 568.111 480 493 480C417.889 480 357 419.111 357 344V275Z" fill="#5837D0"/>
<path opacity="0.1" d="M40 295C40 264.624 64.6243 240 95 240C125.376 240 150 264.624 150 295V370C150 400.376 125.376 425 95 425C64.6243 425 40 400.376 40 370V295Z" fill="#5837D0"/>
<path d="M102 304C102 252.085 144.085 210 196 210C247.915 210 290 252.085 290 304V351C290 402.915 247.915 445 196 445C144.085 445 102 402.915 102 351V304Z" fill="#5837D0"/>
<path d="M0 318C0 299.775 14.7746 285 33 285C51.2254 285 66 299.775 66 318V381C66 399.225 51.2254 414 33 414C14.7746 414 0 399.225 0 381V318Z" fill="#5837D0"/>
</svg>
