<svg width="43" height="43" viewBox="0 0 43 43" fill="none" xmlns="http://www.w3.org/2000/svg">
<path d="M43 21.5C43 33.3741 33.3741 43 21.5 43C9.62588 43 0 33.3741 0 21.5C0 9.62588 9.62588 0 21.5 0C33.3741 0 43 9.62588 43 21.5Z" fill="#F33558"/>
<path fill-rule="evenodd" clip-rule="evenodd" d="M32.3432 14.9589C32.903 15.5186 32.903 16.4262 32.3432 16.9859L20.0575 29.2716C19.4978 29.8314 18.5902 29.8314 18.0305 29.2716L11.2733 22.5145C10.7136 21.9547 10.7136 21.0472 11.2733 20.4874C11.8331 19.9277 12.7406 19.9277 13.3004 20.4874L19.044 26.2311L30.3162 14.9589C30.8759 14.3991 31.7835 14.3991 32.3432 14.9589Z" fill="white"/>
</svg>
