<svg width="148" height="40" viewBox="0 0 148 40" fill="none" xmlns="http://www.w3.org/2000/svg">
<path fill-rule="evenodd" clip-rule="evenodd" d="M5.17578 0C2.41436 0 0.175781 2.23858 0.175781 5V35C0.175781 37.7614 2.41436 40 5.17578 40H133.24C135.017 40 136.66 39.0573 137.556 37.5236L146.834 21.6546C147.786 20.0265 147.741 18.0013 146.717 16.4173L137.586 2.28629C136.665 0.860872 135.084 0 133.386 0H5.17578ZM134.352 21C135.902 21 137.159 19.8807 137.159 18.5C137.159 17.1193 135.902 16 134.352 16C132.802 16 131.545 17.1193 131.545 18.5C131.545 19.8807 132.802 21 134.352 21Z" fill="#FFBB00"/>
<path d="M21.7077 25V14.0909H25.5217C26.2816 14.0909 26.9084 14.2223 27.402 14.4851C27.8956 14.7443 28.2631 15.0941 28.5046 15.5344C28.7461 15.9712 28.8668 16.456 28.8668 16.9886C28.8668 17.4574 28.7834 17.8445 28.6165 18.1499C28.4531 18.4553 28.2365 18.6967 27.9666 18.8743C27.7003 19.0518 27.4109 19.1832 27.0984 19.2685V19.375C27.4322 19.3963 27.7678 19.5135 28.1051 19.7266C28.4425 19.9396 28.7248 20.245 28.9521 20.6428C29.1793 21.0405 29.293 21.527 29.293 22.1023C29.293 22.6491 29.1687 23.141 28.9201 23.5778C28.6715 24.0146 28.2791 24.3608 27.7429 24.6165C27.2067 24.8722 26.5089 25 25.6495 25H21.7077ZM23.0288 23.8281H25.6495C26.5124 23.8281 27.125 23.6612 27.4872 23.3274C27.853 22.9901 28.0359 22.5817 28.0359 22.1023C28.0359 21.733 27.9418 21.392 27.7536 21.0795C27.5653 20.7635 27.2972 20.5114 26.9492 20.3232C26.6012 20.1314 26.1893 20.0355 25.7134 20.0355H23.0288V23.8281ZM23.0288 18.8849H25.479C25.8768 18.8849 26.2354 18.8068 26.555 18.6506C26.8782 18.4943 27.1339 18.2741 27.3221 17.9901C27.5138 17.706 27.6097 17.3722 27.6097 16.9886C27.6097 16.5092 27.4428 16.1026 27.109 15.7688C26.7752 15.4315 26.2461 15.2628 25.5217 15.2628H23.0288V18.8849ZM36.4494 21.6548V16.8182H37.7065V25H36.4494V23.6151H36.3642C36.1724 24.0305 35.8741 24.3839 35.4693 24.6751C35.0645 24.9627 34.5531 25.1065 33.9352 25.1065C33.4238 25.1065 32.9693 24.9947 32.5716 24.771C32.1738 24.5437 31.8613 24.2028 31.6341 23.7482C31.4068 23.2901 31.2931 22.7131 31.2931 22.017V16.8182H32.5502V21.9318C32.5502 22.5284 32.7172 23.0043 33.051 23.3594C33.3883 23.7145 33.818 23.892 34.34 23.892C34.6525 23.892 34.9703 23.8121 35.2935 23.6523C35.6202 23.4925 35.8936 23.2475 36.1138 22.9173C36.3375 22.587 36.4494 22.1662 36.4494 21.6548ZM40.8186 28.0682C40.6056 28.0682 40.4156 28.0504 40.2487 28.0149C40.0818 27.983 39.9664 27.951 39.9024 27.919L40.222 26.8111C40.5274 26.8892 40.7973 26.9176 41.0317 26.8963C41.2661 26.875 41.4738 26.7702 41.6549 26.582C41.8396 26.3974 42.0083 26.0973 42.161 25.6818L42.3953 25.0426L39.3698 16.8182H40.7334L42.9919 23.3381H43.0771L45.3357 16.8182H46.6993L43.2263 26.1932C43.07 26.6158 42.8765 26.9656 42.6457 27.2425C42.4149 27.5231 42.1468 27.7308 41.8414 27.8658C41.5395 28.0007 41.1986 28.0682 40.8186 28.0682ZM61.9523 19.5455C61.9523 20.696 61.7446 21.6903 61.3291 22.5284C60.9136 23.3665 60.3437 24.0128 59.6192 24.4673C58.8948 24.9219 58.0674 25.1491 57.137 25.1491C56.2066 25.1491 55.3792 24.9219 54.6547 24.4673C53.9303 24.0128 53.3604 23.3665 52.9449 22.5284C52.5294 21.6903 52.3216 20.696 52.3216 19.5455C52.3216 18.3949 52.5294 17.4006 52.9449 16.5625C53.3604 15.7244 53.9303 15.0781 54.6547 14.6236C55.3792 14.169 56.2066 13.9418 57.137 13.9418C58.0674 13.9418 58.8948 14.169 59.6192 14.6236C60.3437 15.0781 60.9136 15.7244 61.3291 16.5625C61.7446 17.4006 61.9523 18.3949 61.9523 19.5455ZM60.6739 19.5455C60.6739 18.6009 60.5159 17.8036 60.1998 17.1538C59.8873 16.5039 59.463 16.0121 58.9268 15.6783C58.3941 15.3445 57.7975 15.1776 57.137 15.1776C56.4765 15.1776 55.8781 15.3445 55.3419 15.6783C54.8092 16.0121 54.3849 16.5039 54.0688 17.1538C53.7563 17.8036 53.6001 18.6009 53.6001 19.5455C53.6001 20.4901 53.7563 21.2873 54.0688 21.9371C54.3849 22.587 54.8092 23.0788 55.3419 23.4126C55.8781 23.7464 56.4765 23.9134 57.137 23.9134C57.7975 23.9134 58.3941 23.7464 58.9268 23.4126C59.463 23.0788 59.8873 22.587 60.1998 21.9371C60.5159 21.2873 60.6739 20.4901 60.6739 19.5455ZM65.2602 20.0781V25H64.0031V16.8182H65.2176V18.0966H65.3241C65.5159 17.6811 65.8071 17.3473 66.1977 17.0952C66.5883 16.8395 67.0926 16.7116 67.7105 16.7116C68.2645 16.7116 68.7492 16.8253 69.1647 17.0526C69.5802 17.2763 69.9033 17.6172 70.1341 18.0753C70.365 18.5298 70.4804 19.1051 70.4804 19.8011V25H69.2233V19.8864C69.2233 19.2436 69.0564 18.7429 68.7226 18.3842C68.3888 18.022 67.9307 17.8409 67.3483 17.8409C66.947 17.8409 66.5883 17.9279 66.2723 18.1019C65.9598 18.2759 65.713 18.5298 65.5319 18.8636C65.3508 19.1974 65.2602 19.6023 65.2602 20.0781ZM80.3947 26.3636V12.7273H81.2683V26.3636H80.3947ZM82.7118 17.2283C82.6692 16.7987 82.4863 16.4648 82.1632 16.2269C81.84 15.989 81.4015 15.87 80.8475 15.87C80.4711 15.87 80.1532 15.9233 79.894 16.0298C79.6348 16.1328 79.4359 16.2766 79.2974 16.4613C79.1625 16.646 79.095 16.8555 79.095 17.0898C79.0879 17.2852 79.1287 17.4556 79.2175 17.6012C79.3098 17.7468 79.4359 17.8729 79.5957 17.9794C79.7555 18.0824 79.9402 18.1729 80.1497 18.2511C80.3592 18.3256 80.5829 18.3896 80.8208 18.4428L81.801 18.6772C82.2768 18.7837 82.7136 18.9258 83.1113 19.1033C83.5091 19.2809 83.8535 19.4993 84.1447 19.7585C84.4359 20.0178 84.6614 20.3232 84.8212 20.6747C84.9846 21.0263 85.068 21.4293 85.0716 21.8839C85.068 22.5515 84.8976 23.1303 84.5602 23.6204C84.2264 24.1069 83.7434 24.4851 83.1113 24.755C82.4828 25.0213 81.7246 25.1545 80.8368 25.1545C79.9561 25.1545 79.1891 25.0195 78.5357 24.7496C77.8858 24.4798 77.378 24.0803 77.0123 23.5511C76.65 23.0185 76.46 22.3597 76.4423 21.5749H78.6742C78.699 21.9407 78.8038 22.2461 78.9885 22.4911C79.1767 22.7326 79.427 22.9155 79.7395 23.0398C80.0556 23.1605 80.4125 23.2209 80.8102 23.2209C81.2008 23.2209 81.54 23.1641 81.8276 23.0504C82.1188 22.9368 82.3443 22.7788 82.5041 22.5763C82.6639 22.3739 82.7438 22.1413 82.7438 21.8786C82.7438 21.6335 82.671 21.4276 82.5254 21.2607C82.3833 21.0937 82.1738 20.9517 81.8968 20.8345C81.6234 20.7173 81.2878 20.6108 80.8901 20.5149L79.7022 20.2166C78.7825 19.9929 78.0563 19.6431 77.5236 19.1673C76.9909 18.6914 76.7264 18.0504 76.7299 17.2443C76.7264 16.5838 76.9022 16.0067 77.2573 15.5131C77.6159 15.0195 78.1078 14.6342 78.7328 14.3572C79.3578 14.0803 80.068 13.9418 80.8635 13.9418C81.6731 13.9418 82.3798 14.0803 82.9835 14.3572C83.5907 14.6342 84.063 15.0195 84.4004 15.5131C84.7377 16.0067 84.9118 16.5785 84.9224 17.2283H82.7118ZM90.5434 25.1491C89.7906 25.1491 89.1194 25.0107 88.5299 24.7337C87.944 24.4567 87.4788 24.0749 87.1343 23.5884C86.7899 23.1019 86.6105 22.5444 86.5963 21.9158H88.8335C88.8584 22.3384 89.036 22.6811 89.3662 22.9439C89.6965 23.2067 90.0889 23.3381 90.5434 23.3381C90.9056 23.3381 91.2252 23.2582 91.5022 23.0984C91.7828 22.935 92.0012 22.7095 92.1574 22.4219C92.3172 22.1307 92.3971 21.7969 92.3971 21.4205C92.3971 21.0369 92.3154 20.6996 92.1521 20.4084C91.9923 20.1172 91.7703 19.8899 91.4862 19.7266C91.2021 19.5632 90.8772 19.4798 90.5115 19.4762C90.1919 19.4762 89.8811 19.5419 89.5793 19.6733C89.281 19.8047 89.0484 19.984 88.8815 20.2113L86.8307 19.8438L87.3474 14.0909H94.0164V15.9766H89.249L88.9667 18.7092H89.0306C89.2224 18.4393 89.5118 18.2156 89.8989 18.038C90.286 17.8604 90.7192 17.7717 91.1986 17.7717C91.8556 17.7717 92.4415 17.9261 92.9564 18.2351C93.4713 18.544 93.8779 18.9684 94.1762 19.5082C94.4745 20.0444 94.6219 20.6623 94.6183 21.3619C94.6219 22.0969 94.4514 22.7504 94.107 23.3221C93.7661 23.8903 93.2884 24.3377 92.6741 24.6644C92.0633 24.9876 91.3531 25.1491 90.5434 25.1491ZM100.504 25.2397C99.5882 25.2362 98.7998 25.0107 98.1393 24.5632C97.4823 24.1158 96.9763 23.4677 96.6212 22.619C96.2696 21.7702 96.0956 20.7493 96.0992 19.5561C96.0992 18.3665 96.2749 17.3526 96.6265 16.5146C96.9816 15.6765 97.4877 15.0391 98.1446 14.6023C98.8051 14.1619 99.5917 13.9418 100.504 13.9418C101.417 13.9418 102.202 14.1619 102.859 14.6023C103.519 15.0426 104.027 15.6818 104.382 16.5199C104.737 17.3544 104.913 18.3665 104.91 19.5561C104.91 20.7528 104.732 21.7756 104.377 22.6243C104.025 23.473 103.521 24.1211 102.864 24.5685C102.207 25.016 101.421 25.2397 100.504 25.2397ZM100.504 23.3274C101.129 23.3274 101.628 23.0131 102.001 22.3846C102.374 21.756 102.559 20.8132 102.555 19.5561C102.555 18.7287 102.47 18.0398 102.299 17.4893C102.133 16.9389 101.895 16.5252 101.586 16.2482C101.28 15.9712 100.92 15.8327 100.504 15.8327C99.8829 15.8327 99.3857 16.1435 99.0129 16.7649C98.64 17.3864 98.4518 18.3168 98.4482 19.5561C98.4482 20.3942 98.5317 21.0938 98.6986 21.6548C98.8691 22.2124 99.1088 22.6314 99.4177 22.9119C99.7267 23.1889 100.089 23.3274 100.504 23.3274Z" fill="black"/>
</svg>
