<svg width="132" height="40" viewBox="0 0 132 40" fill="none" xmlns="http://www.w3.org/2000/svg">
<path d="M0 5C0 2.23858 2.23858 0 5 0H118.174C119.963 0 121.615 0.955591 122.507 2.50595L130.634 16.6261C131.485 18.105 131.523 19.9159 130.735 21.4294L122.466 37.3092C121.605 38.9628 119.896 40 118.031 40H5C2.23857 40 0 37.7614 0 35V5Z" fill="#7741BB"/>
<path d="M19.321 25V14.0909H23.1349C23.8949 14.0909 24.5217 14.2223 25.0153 14.4851C25.5089 14.7443 25.8764 15.0941 26.1179 15.5344C26.3594 15.9712 26.4801 16.456 26.4801 16.9886C26.4801 17.4574 26.3967 17.8445 26.2298 18.1499C26.0664 18.4553 25.8498 18.6967 25.5799 18.8743C25.3136 19.0518 25.0241 19.1832 24.7116 19.2685V19.375C25.0455 19.3963 25.381 19.5135 25.7184 19.7266C26.0558 19.9396 26.3381 20.245 26.5653 20.6428C26.7926 21.0405 26.9062 21.527 26.9062 22.1023C26.9062 22.6491 26.782 23.141 26.5334 23.5778C26.2848 24.0146 25.8924 24.3608 25.3562 24.6165C24.82 24.8722 24.1222 25 23.2628 25H19.321ZM20.642 23.8281H23.2628C24.1257 23.8281 24.7383 23.6612 25.1005 23.3274C25.4663 22.9901 25.6491 22.5817 25.6491 22.1023C25.6491 21.733 25.555 21.392 25.3668 21.0795C25.1786 20.7635 24.9105 20.5114 24.5625 20.3232C24.2145 20.1314 23.8026 20.0355 23.3267 20.0355H20.642V23.8281ZM20.642 18.8849H23.0923C23.4901 18.8849 23.8487 18.8068 24.1683 18.6506C24.4915 18.4943 24.7472 18.2741 24.9354 17.9901C25.1271 17.706 25.223 17.3722 25.223 16.9886C25.223 16.5092 25.0561 16.1026 24.7223 15.7688C24.3885 15.4315 23.8594 15.2628 23.1349 15.2628H20.642V18.8849ZM34.0627 21.6548V16.8182H35.3198V25H34.0627V23.6151H33.9775C33.7857 24.0305 33.4874 24.3839 33.0826 24.6751C32.6777 24.9627 32.1664 25.1065 31.5485 25.1065C31.0371 25.1065 30.5826 24.9947 30.1848 24.771C29.7871 24.5437 29.4746 24.2028 29.2473 23.7482C29.0201 23.2901 28.9064 22.7131 28.9064 22.017V16.8182H30.1635V21.9318C30.1635 22.5284 30.3304 23.0043 30.6642 23.3594C31.0016 23.7145 31.4313 23.892 31.9533 23.892C32.2658 23.892 32.5836 23.8121 32.9068 23.6523C33.2335 23.4925 33.5069 23.2475 33.7271 22.9173C33.9508 22.587 34.0627 22.1662 34.0627 21.6548ZM38.4319 28.0682C38.2188 28.0682 38.0289 28.0504 37.8619 28.0149C37.695 27.983 37.5796 27.951 37.5157 27.919L37.8353 26.8111C38.1407 26.8892 38.4106 26.9176 38.645 26.8963C38.8794 26.875 39.0871 26.7702 39.2682 26.582C39.4529 26.3974 39.6215 26.0973 39.7742 25.6818L40.0086 25.0426L36.983 16.8182H38.3467L40.6052 23.3381H40.6904L42.949 16.8182H44.3126L40.8396 26.1932C40.6833 26.6158 40.4898 26.9656 40.259 27.2425C40.0281 27.5231 39.76 27.7308 39.4546 27.8658C39.1528 28.0007 38.8119 28.0682 38.4319 28.0682ZM59.5656 19.5455C59.5656 20.696 59.3579 21.6903 58.9424 22.5284C58.5269 23.3665 57.9569 24.0128 57.2325 24.4673C56.5081 24.9219 55.6807 25.1491 54.7503 25.1491C53.8199 25.1491 52.9925 24.9219 52.268 24.4673C51.5436 24.0128 50.9736 23.3665 50.5581 22.5284C50.1427 21.6903 49.9349 20.696 49.9349 19.5455C49.9349 18.3949 50.1427 17.4006 50.5581 16.5625C50.9736 15.7244 51.5436 15.0781 52.268 14.6236C52.9925 14.169 53.8199 13.9418 54.7503 13.9418C55.6807 13.9418 56.5081 14.169 57.2325 14.6236C57.9569 15.0781 58.5269 15.7244 58.9424 16.5625C59.3579 17.4006 59.5656 18.3949 59.5656 19.5455ZM58.2872 19.5455C58.2872 18.6009 58.1292 17.8036 57.8131 17.1538C57.5006 16.5039 57.0763 16.0121 56.54 15.6783C56.0074 15.3445 55.4108 15.1776 54.7503 15.1776C54.0898 15.1776 53.4914 15.3445 52.9552 15.6783C52.4225 16.0121 51.9981 16.5039 51.6821 17.1538C51.3696 17.8036 51.2133 18.6009 51.2133 19.5455C51.2133 20.4901 51.3696 21.2873 51.6821 21.9371C51.9981 22.587 52.4225 23.0788 52.9552 23.4126C53.4914 23.7464 54.0898 23.9134 54.7503 23.9134C55.4108 23.9134 56.0074 23.7464 56.54 23.4126C57.0763 23.0788 57.5006 22.587 57.8131 21.9371C58.1292 21.2873 58.2872 20.4901 58.2872 19.5455ZM62.8735 20.0781V25H61.6164V16.8182H62.8309V18.0966H62.9374C63.1292 17.6811 63.4204 17.3473 63.811 17.0952C64.2016 16.8395 64.7059 16.7116 65.3238 16.7116C65.8778 16.7116 66.3625 16.8253 66.778 17.0526C67.1934 17.2763 67.5166 17.6172 67.7474 18.0753C67.9782 18.5298 68.0937 19.1051 68.0937 19.8011V25H66.8366V19.8864C66.8366 19.2436 66.6697 18.7429 66.3358 18.3842C66.002 18.022 65.5439 17.8409 64.9616 17.8409C64.5603 17.8409 64.2016 17.9279 63.8856 18.1019C63.5731 18.2759 63.3263 18.5298 63.1452 18.8636C62.964 19.1974 62.8735 19.6023 62.8735 20.0781ZM78.008 26.3636V12.7273H78.8816V26.3636H78.008ZM80.3251 17.2283C80.2825 16.7987 80.0996 16.4648 79.7765 16.2269C79.4533 15.989 79.0147 15.87 78.4608 15.87C78.0843 15.87 77.7665 15.9233 77.5073 16.0298C77.248 16.1328 77.0492 16.2766 76.9107 16.4613C76.7757 16.646 76.7083 16.8555 76.7083 17.0898C76.7012 17.2852 76.742 17.4556 76.8308 17.6012C76.9231 17.7468 77.0492 17.8729 77.209 17.9794C77.3688 18.0824 77.5534 18.1729 77.763 18.2511C77.9725 18.3256 78.1962 18.3896 78.4341 18.4428L79.4142 18.6772C79.8901 18.7837 80.3269 18.9258 80.7246 19.1033C81.1223 19.2809 81.4668 19.4993 81.758 19.7585C82.0492 20.0178 82.2747 20.3232 82.4345 20.6747C82.5978 21.0263 82.6813 21.4293 82.6848 21.8839C82.6813 22.5515 82.5108 23.1303 82.1735 23.6204C81.8397 24.1069 81.3567 24.4851 80.7246 24.755C80.0961 25.0213 79.3379 25.1545 78.4501 25.1545C77.5694 25.1545 76.8024 25.0195 76.149 24.7496C75.4991 24.4798 74.9913 24.0803 74.6255 23.5511C74.2633 23.0185 74.0733 22.3597 74.0556 21.5749H76.2875C76.3123 21.9407 76.4171 22.2461 76.6017 22.4911C76.79 22.7326 77.0403 22.9155 77.3528 23.0398C77.6689 23.1605 78.0257 23.2209 78.4235 23.2209C78.8141 23.2209 79.1532 23.1641 79.4409 23.0504C79.7321 22.9368 79.9576 22.7788 80.1174 22.5763C80.2772 22.3739 80.3571 22.1413 80.3571 21.8786C80.3571 21.6335 80.2843 21.4276 80.1387 21.2607C79.9966 21.0937 79.7871 20.9517 79.5101 20.8345C79.2367 20.7173 78.9011 20.6108 78.5034 20.5149L77.3155 20.2166C76.3958 19.9929 75.6696 19.6431 75.1369 19.1673C74.6042 18.6914 74.3397 18.0504 74.3432 17.2443C74.3397 16.5838 74.5154 16.0067 74.8706 15.5131C75.2292 15.0195 75.7211 14.6342 76.3461 14.3572C76.9711 14.0803 77.6813 13.9418 78.4767 13.9418C79.2864 13.9418 79.9931 14.0803 80.5968 14.3572C81.204 14.6342 81.6763 15.0195 82.0137 15.5131C82.351 16.0067 82.525 16.5785 82.5357 17.2283H80.3251ZM88.1567 25.1491C87.4039 25.1491 86.7327 25.0107 86.1432 24.7337C85.5573 24.4567 85.0921 24.0749 84.7476 23.5884C84.4031 23.1019 84.2238 22.5444 84.2096 21.9158H86.4468C86.4717 22.3384 86.6492 22.6811 86.9795 22.9439C87.3097 23.2067 87.7021 23.3381 88.1567 23.3381C88.5189 23.3381 88.8385 23.2582 89.1155 23.0984C89.396 22.935 89.6144 22.7095 89.7707 22.4219C89.9305 22.1307 90.0104 21.7969 90.0104 21.4205C90.0104 21.0369 89.9287 20.6996 89.7654 20.4084C89.6056 20.1172 89.3836 19.8899 89.0995 19.7266C88.8154 19.5632 88.4905 19.4798 88.1247 19.4762C87.8051 19.4762 87.4944 19.5419 87.1926 19.6733C86.8943 19.8047 86.6617 19.984 86.4948 20.2113L84.444 19.8438L84.9607 14.0909H91.6297V15.9766H86.8623L86.58 18.7092H86.6439C86.8357 18.4393 87.1251 18.2156 87.5122 18.038C87.8992 17.8604 88.3325 17.7717 88.8119 17.7717C89.4688 17.7717 90.0548 17.9261 90.5697 18.2351C91.0846 18.544 91.4912 18.9684 91.7895 19.5082C92.0878 20.0444 92.2352 20.6623 92.2316 21.3619C92.2352 22.0969 92.0647 22.7504 91.7203 23.3221C91.3794 23.8903 90.9017 24.3377 90.2874 24.6644C89.6766 24.9876 88.9664 25.1491 88.1567 25.1491ZM98.1176 25.2397C97.2014 25.2362 96.4131 25.0107 95.7526 24.5632C95.0956 24.1158 94.5896 23.4677 94.2345 22.619C93.8829 21.7702 93.7089 20.7493 93.7124 19.5561C93.7124 18.3665 93.8882 17.3526 94.2398 16.5146C94.5949 15.6765 95.1009 15.0391 95.7579 14.6023C96.4184 14.1619 97.205 13.9418 98.1176 13.9418C99.0303 13.9418 99.8151 14.1619 100.472 14.6023C101.133 15.0426 101.64 15.6818 101.995 16.5199C102.351 17.3544 102.526 18.3665 102.523 19.5561C102.523 20.7528 102.345 21.7756 101.99 22.6243C101.639 23.473 101.134 24.1211 100.477 24.5685C99.8204 25.016 99.0338 25.2397 98.1176 25.2397ZM98.1176 23.3274C98.7426 23.3274 99.2416 23.0131 99.6144 22.3846C99.9873 21.756 100.172 20.8132 100.168 19.5561C100.168 18.7287 100.083 18.0398 99.9127 17.4893C99.7458 16.9389 99.5079 16.5252 99.199 16.2482C98.8936 15.9712 98.5331 15.8327 98.1176 15.8327C97.4962 15.8327 96.999 16.1435 96.6262 16.7649C96.2533 17.3864 96.0651 18.3168 96.0615 19.5561C96.0615 20.3942 96.145 21.0938 96.3119 21.6548C96.4823 22.2124 96.722 22.6314 97.031 22.9119C97.3399 23.1889 97.7021 23.3274 98.1176 23.3274Z" fill="white"/>
<circle cx="119.5" cy="18.5" r="2.5" fill="white"/>
</svg>
