<svg width="1280" height="19" viewBox="0 0 1280 19" fill="none" xmlns="http://www.w3.org/2000/svg">
<path d="M1280 9.5L1265 0.839746V18.1603L1280 9.5ZM0 11H2.99065V8H0V11ZM8.97196 11H14.9533V8H8.97196V11ZM20.9346 11H26.9159V8H20.9346V11ZM32.8972 11H38.8785V8H32.8972V11ZM44.8598 11H50.8411V8H44.8598V11ZM56.8224 11H62.8037V8H56.8224V11ZM68.785 11H74.7664V8H68.785V11ZM80.7477 11H86.729V8H80.7477V11ZM92.7103 11H98.6916V8H92.7103V11ZM104.673 11H110.654V8H104.673V11ZM116.636 11H122.617V8H116.636V11ZM128.598 11H134.579V8H128.598V11ZM140.561 11H146.542V8H140.561V11ZM152.523 11H158.505V8H152.523V11ZM164.486 11H170.467V8H164.486V11ZM176.449 11H182.43V8H176.449V11ZM188.411 11H194.393V8H188.411V11ZM200.374 11H206.355V8H200.374V11ZM212.336 11H218.318V8H212.336V11ZM224.299 11H230.28V8H224.299V11ZM236.262 11H242.243V8H236.262V11ZM248.224 11H254.206V8H248.224V11ZM260.187 11H266.168V8H260.187V11ZM272.15 11H278.131V8H272.15V11ZM284.112 11H290.094V8H284.112V11ZM296.075 11H302.056V8H296.075V11ZM308.038 11H314.019V8H308.038V11ZM320 11H325.981V8H320V11ZM331.963 11H337.944V8H331.963V11ZM343.925 11H349.907V8H343.925V11ZM355.888 11H361.869V8H355.888V11ZM367.851 11H373.832V8H367.851V11ZM379.813 11H385.795V8H379.813V11ZM391.776 11H397.757V8H391.776V11ZM403.739 11H409.72V8H403.739V11ZM415.701 11H421.683V8H415.701V11ZM427.664 11H433.645V8H427.664V11ZM439.627 11H445.608V8H439.627V11ZM451.589 11H457.571V8H451.589V11ZM463.552 11H469.533V8H463.552V11ZM475.515 11H481.496V8H475.515V11ZM487.477 11H493.459V8H487.477V11ZM499.44 11H505.421V8H499.44V11ZM511.403 11H517.384V8H511.403V11ZM523.365 11H529.346V8H523.365V11ZM535.328 11H541.309V8H535.328V11ZM547.29 11H553.272V8H547.29V11ZM559.253 11H565.234V8H559.253V11ZM571.216 11H577.197V8H571.216V11ZM583.178 11H589.16V8H583.178V11ZM595.141 11H601.122V8H595.141V11ZM607.104 11H613.085V8H607.104V11ZM619.066 11H625.048V8H619.066V11ZM631.029 11H637.01V8H631.029V11ZM642.992 11H648.973V8H642.992V11ZM654.954 11H660.936V8H654.954V11ZM666.917 11H672.898V8H666.917V11ZM678.88 11H684.861V8H678.88V11ZM690.842 11H696.823V8H690.842V11ZM702.805 11H708.786V8H702.805V11ZM714.767 11H720.749V8H714.767V11ZM726.73 11H732.711V8H726.73V11ZM738.693 11H744.674V8H738.693V11ZM750.655 11H756.637V8H750.655V11ZM762.618 11H768.599V8H762.618V11ZM774.581 11H780.562V8H774.581V11ZM786.543 11H792.525V8H786.543V11ZM798.506 11H804.487V8H798.506V11ZM810.469 11H816.45V8H810.469V11ZM822.431 11H828.413V8H822.431V11ZM834.394 11H840.375V8H834.394V11ZM846.357 11H852.338V8H846.357V11ZM858.319 11H864.301V8H858.319V11ZM870.282 11H876.263V8H870.282V11ZM882.245 11H888.226V8H882.245V11ZM894.207 11H900.188V8H894.207V11ZM906.17 11H912.151V8H906.17V11ZM918.132 11H924.114V8H918.132V11ZM930.095 11H936.076V8H930.095V11ZM942.058 11H948.039V8H942.058V11ZM954.02 11H960.002V8H954.02V11ZM965.983 11H971.964V8H965.983V11ZM977.946 11H983.927V8H977.946V11ZM989.908 11H995.89V8H989.908V11ZM1001.87 11H1007.85V8H1001.87V11ZM1013.83 11H1019.81V8H1013.83V11ZM1025.8 11H1031.78V8H1025.8V11ZM1037.76 11H1043.74V8H1037.76V11ZM1049.72 11H1055.7V8H1049.72V11ZM1061.68 11H1067.67V8H1061.68V11ZM1073.65 11H1079.63V8H1073.65V11ZM1085.61 11H1091.59V8H1085.61V11ZM1097.57 11H1103.55V8H1097.57V11ZM1109.53 11H1115.52V8H1109.53V11ZM1121.5 11H1127.48V8H1121.5V11ZM1133.46 11H1139.44V8H1133.46V11ZM1145.42 11H1151.4V8H1145.42V11ZM1157.39 11H1163.37V8H1157.39V11ZM1169.35 11H1175.33V8H1169.35V11ZM1181.31 11H1187.29V8H1181.31V11ZM1193.27 11H1199.25V8H1193.27V11ZM1205.24 11H1211.22V8H1205.24V11ZM1217.2 11H1223.18V8H1217.2V11ZM1229.16 11H1235.14V8H1229.16V11ZM1241.12 11H1247.11V8H1241.12V11ZM1253.09 11H1259.07V8H1253.09V11ZM1265.05 11H1271.03V8H1265.05V11Z" fill="#C2ACFF"/>
</svg>
