<svg width="30" height="30" viewBox="0 0 30 30" fill="none" xmlns="http://www.w3.org/2000/svg">
<path d="M30 15C30 23.2843 23.2843 30 15 30C6.71573 30 0 23.2843 0 15C0 6.71573 6.71573 0 15 0C23.2843 0 30 6.71573 30 15Z" fill="#FFBB00"/>
<path fill-rule="evenodd" clip-rule="evenodd" d="M22.5631 10.436C22.9537 10.8265 22.9537 11.4596 22.5631 11.8502L13.9917 20.4216C13.6012 20.8121 12.968 20.8121 12.5775 20.4216L7.86321 15.7073C7.47268 15.3168 7.47268 14.6836 7.86321 14.2931C8.25373 13.9026 8.88689 13.9026 9.27742 14.2931L13.2846 18.3003L21.1489 10.436C21.5394 10.0454 22.1726 10.0454 22.5631 10.436Z" fill="black"/>
</svg>
