<svg width="183" height="104" viewBox="0 0 183 104" fill="none" xmlns="http://www.w3.org/2000/svg">
<path opacity="0.2" d="M1.67827 3.16619C1.25639 3.16619 0.894176 3.01705 0.591619 2.71875C0.293324 2.41619 0.144176 2.05398 0.144176 1.6321C0.144176 1.21449 0.293324 0.856534 0.591619 0.558239C0.894176 0.259943 1.25639 0.110795 1.67827 0.110795C2.08736 0.110795 2.44531 0.259943 2.75213 0.558239C3.05895 0.856534 3.21236 1.21449 3.21236 1.6321C3.21236 1.91335 3.13991 2.17116 2.99503 2.40554C2.8544 2.63565 2.66903 2.82102 2.43892 2.96165C2.20881 3.09801 1.95526 3.16619 1.67827 3.16619ZM10.6396 3.16619C10.2177 3.16619 9.8555 3.01705 9.55295 2.71875C9.25465 2.41619 9.1055 2.05398 9.1055 1.6321C9.1055 1.21449 9.25465 0.856534 9.55295 0.558239C9.8555 0.259943 10.2177 0.110795 10.6396 0.110795C11.0487 0.110795 11.4066 0.259943 11.7135 0.558239C12.0203 0.856534 12.1737 1.21449 12.1737 1.6321C12.1737 1.91335 12.1012 2.17116 11.9564 2.40554C11.8157 2.63565 11.6304 2.82102 11.4002 2.96165C11.1701 3.09801 10.9166 3.16619 10.6396 3.16619ZM19.6009 3.16619C19.179 3.16619 18.8168 3.01705 18.5143 2.71875C18.216 2.41619 18.0668 2.05398 18.0668 1.6321C18.0668 1.21449 18.216 0.856534 18.5143 0.558239C18.8168 0.259943 19.179 0.110795 19.6009 0.110795C20.01 0.110795 20.368 0.259943 20.6748 0.558239C20.9816 0.856534 21.135 1.21449 21.135 1.6321C21.135 1.91335 21.0626 2.17116 20.9177 2.40554C20.7771 2.63565 20.5917 2.82102 20.3616 2.96165C20.1315 3.09801 19.8779 3.16619 19.6009 3.16619ZM28.5623 3.16619C28.1404 3.16619 27.7782 3.01705 27.4756 2.71875C27.1773 2.41619 27.0282 2.05398 27.0282 1.6321C27.0282 1.21449 27.1773 0.856534 27.4756 0.558239C27.7782 0.259943 28.1404 0.110795 28.5623 0.110795C28.9713 0.110795 29.3293 0.259943 29.6361 0.558239C29.9429 0.856534 30.0963 1.21449 30.0963 1.6321C30.0963 1.91335 30.0239 2.17116 29.879 2.40554C29.7384 2.63565 29.553 2.82102 29.3229 2.96165C29.0928 3.09801 28.8392 3.16619 28.5623 3.16619ZM37.5236 3.16619C37.1017 3.16619 36.7395 3.01705 36.4369 2.71875C36.1386 2.41619 35.9895 2.05398 35.9895 1.6321C35.9895 1.21449 36.1386 0.856534 36.4369 0.558239C36.7395 0.259943 37.1017 0.110795 37.5236 0.110795C37.9327 0.110795 38.2906 0.259943 38.5974 0.558239C38.9043 0.856534 39.0577 1.21449 39.0577 1.6321C39.0577 1.91335 38.9852 2.17116 38.8403 2.40554C38.6997 2.63565 38.5143 2.82102 38.2842 2.96165C38.0541 3.09801 37.8006 3.16619 37.5236 3.16619ZM46.4849 3.16619C46.063 3.16619 45.7008 3.01705 45.3983 2.71875C45.1 2.41619 44.9508 2.05398 44.9508 1.6321C44.9508 1.21449 45.1 0.856534 45.3983 0.558239C45.7008 0.259943 46.063 0.110795 46.4849 0.110795C46.894 0.110795 47.252 0.259943 47.5588 0.558239C47.8656 0.856534 48.019 1.21449 48.019 1.6321C48.019 1.91335 47.9466 2.17116 47.8017 2.40554C47.661 2.63565 47.4757 2.82102 47.2456 2.96165C47.0154 3.09801 46.7619 3.16619 46.4849 3.16619ZM55.4462 3.16619C55.0244 3.16619 54.6621 3.01705 54.3596 2.71875C54.0613 2.41619 53.9121 2.05398 53.9121 1.6321C53.9121 1.21449 54.0613 0.856534 54.3596 0.558239C54.6621 0.259943 55.0244 0.110795 55.4462 0.110795C55.8553 0.110795 56.2133 0.259943 56.5201 0.558239C56.8269 0.856534 56.9803 1.21449 56.9803 1.6321C56.9803 1.91335 56.9079 2.17116 56.763 2.40554C56.6224 2.63565 56.437 2.82102 56.2069 2.96165C55.9768 3.09801 55.7232 3.16619 55.4462 3.16619ZM64.4076 3.16619C63.9857 3.16619 63.6235 3.01705 63.3209 2.71875C63.0226 2.41619 62.8735 2.05398 62.8735 1.6321C62.8735 1.21449 63.0226 0.856534 63.3209 0.558239C63.6235 0.259943 63.9857 0.110795 64.4076 0.110795C64.8167 0.110795 65.1746 0.259943 65.4814 0.558239C65.7882 0.856534 65.9417 1.21449 65.9417 1.6321C65.9417 1.91335 65.8692 2.17116 65.7243 2.40554C65.5837 2.63565 65.3983 2.82102 65.1682 2.96165C64.9381 3.09801 64.6846 3.16619 64.4076 3.16619ZM73.3689 3.16619C72.947 3.16619 72.5848 3.01705 72.2822 2.71875C71.984 2.41619 71.8348 2.05398 71.8348 1.6321C71.8348 1.21449 71.984 0.856534 72.2822 0.558239C72.5848 0.259943 72.947 0.110795 73.3689 0.110795C73.778 0.110795 74.1359 0.259943 74.4428 0.558239C74.7496 0.856534 74.903 1.21449 74.903 1.6321C74.903 1.91335 74.8305 2.17116 74.6857 2.40554C74.545 2.63565 74.3597 2.82102 74.1295 2.96165C73.8994 3.09801 73.6459 3.16619 73.3689 3.16619ZM82.3302 3.16619C81.9083 3.16619 81.5461 3.01705 81.2436 2.71875C80.9453 2.41619 80.7961 2.05398 80.7961 1.6321C80.7961 1.21449 80.9453 0.856534 81.2436 0.558239C81.5461 0.259943 81.9083 0.110795 82.3302 0.110795C82.7393 0.110795 83.0973 0.259943 83.4041 0.558239C83.7109 0.856534 83.8643 1.21449 83.8643 1.6321C83.8643 1.91335 83.7919 2.17116 83.647 2.40554C83.5064 2.63565 83.321 2.82102 83.0909 2.96165C82.8608 3.09801 82.6072 3.16619 82.3302 3.16619ZM91.2915 3.16619C90.8697 3.16619 90.5075 3.01705 90.2049 2.71875C89.9066 2.41619 89.7575 2.05398 89.7575 1.6321C89.7575 1.21449 89.9066 0.856534 90.2049 0.558239C90.5075 0.259943 90.8697 0.110795 91.2915 0.110795C91.7006 0.110795 92.0586 0.259943 92.3654 0.558239C92.6722 0.856534 92.8256 1.21449 92.8256 1.6321C92.8256 1.91335 92.7532 2.17116 92.6083 2.40554C92.4677 2.63565 92.2823 2.82102 92.0522 2.96165C91.8221 3.09801 91.5685 3.16619 91.2915 3.16619ZM100.253 3.16619C99.831 3.16619 99.4688 3.01705 99.1662 2.71875C98.8679 2.41619 98.7188 2.05398 98.7188 1.6321C98.7188 1.21449 98.8679 0.856534 99.1662 0.558239C99.4688 0.259943 99.831 0.110795 100.253 0.110795C100.662 0.110795 101.02 0.259943 101.327 0.558239C101.634 0.856534 101.787 1.21449 101.787 1.6321C101.787 1.91335 101.715 2.17116 101.57 2.40554C101.429 2.63565 101.244 2.82102 101.014 2.96165C100.783 3.09801 100.53 3.16619 100.253 3.16619ZM109.214 3.16619C108.792 3.16619 108.43 3.01705 108.128 2.71875C107.829 2.41619 107.68 2.05398 107.68 1.6321C107.68 1.21449 107.829 0.856534 108.128 0.558239C108.43 0.259943 108.792 0.110795 109.214 0.110795C109.623 0.110795 109.981 0.259943 110.288 0.558239C110.595 0.856534 110.748 1.21449 110.748 1.6321C110.748 1.91335 110.676 2.17116 110.531 2.40554C110.39 2.63565 110.205 2.82102 109.975 2.96165C109.745 3.09801 109.491 3.16619 109.214 3.16619ZM118.176 3.16619C117.754 3.16619 117.391 3.01705 117.089 2.71875C116.791 2.41619 116.641 2.05398 116.641 1.6321C116.641 1.21449 116.791 0.856534 117.089 0.558239C117.391 0.259943 117.754 0.110795 118.176 0.110795C118.585 0.110795 118.943 0.259943 119.249 0.558239C119.556 0.856534 119.71 1.21449 119.71 1.6321C119.71 1.91335 119.637 2.17116 119.492 2.40554C119.352 2.63565 119.166 2.82102 118.936 2.96165C118.706 3.09801 118.453 3.16619 118.176 3.16619ZM127.137 3.16619C126.715 3.16619 126.353 3.01705 126.05 2.71875C125.752 2.41619 125.603 2.05398 125.603 1.6321C125.603 1.21449 125.752 0.856534 126.05 0.558239C126.353 0.259943 126.715 0.110795 127.137 0.110795C127.546 0.110795 127.904 0.259943 128.211 0.558239C128.518 0.856534 128.671 1.21449 128.671 1.6321C128.671 1.91335 128.599 2.17116 128.454 2.40554C128.313 2.63565 128.128 2.82102 127.898 2.96165C127.667 3.09801 127.414 3.16619 127.137 3.16619ZM136.098 3.16619C135.676 3.16619 135.314 3.01705 135.012 2.71875C134.713 2.41619 134.564 2.05398 134.564 1.6321C134.564 1.21449 134.713 0.856534 135.012 0.558239C135.314 0.259943 135.676 0.110795 136.098 0.110795C136.507 0.110795 136.865 0.259943 137.172 0.558239C137.479 0.856534 137.632 1.21449 137.632 1.6321C137.632 1.91335 137.56 2.17116 137.415 2.40554C137.274 2.63565 137.089 2.82102 136.859 2.96165C136.629 3.09801 136.375 3.16619 136.098 3.16619ZM145.06 3.16619C144.638 3.16619 144.275 3.01705 143.973 2.71875C143.675 2.41619 143.525 2.05398 143.525 1.6321C143.525 1.21449 143.675 0.856534 143.973 0.558239C144.275 0.259943 144.638 0.110795 145.06 0.110795C145.469 0.110795 145.827 0.259943 146.133 0.558239C146.44 0.856534 146.594 1.21449 146.594 1.6321C146.594 1.91335 146.521 2.17116 146.376 2.40554C146.236 2.63565 146.05 2.82102 145.82 2.96165C145.59 3.09801 145.337 3.16619 145.06 3.16619ZM154.021 3.16619C153.599 3.16619 153.237 3.01705 152.934 2.71875C152.636 2.41619 152.487 2.05398 152.487 1.6321C152.487 1.21449 152.636 0.856534 152.934 0.558239C153.237 0.259943 153.599 0.110795 154.021 0.110795C154.43 0.110795 154.788 0.259943 155.095 0.558239C155.402 0.856534 155.555 1.21449 155.555 1.6321C155.555 1.91335 155.482 2.17116 155.338 2.40554C155.197 2.63565 155.012 2.82102 154.781 2.96165C154.551 3.09801 154.298 3.16619 154.021 3.16619ZM162.982 3.16619C162.56 3.16619 162.198 3.01705 161.896 2.71875C161.597 2.41619 161.448 2.05398 161.448 1.6321C161.448 1.21449 161.597 0.856534 161.896 0.558239C162.198 0.259943 162.56 0.110795 162.982 0.110795C163.391 0.110795 163.749 0.259943 164.056 0.558239C164.363 0.856534 164.516 1.21449 164.516 1.6321C164.516 1.91335 164.444 2.17116 164.299 2.40554C164.158 2.63565 163.973 2.82102 163.743 2.96165C163.513 3.09801 163.259 3.16619 162.982 3.16619ZM171.943 3.16619C171.522 3.16619 171.159 3.01705 170.857 2.71875C170.559 2.41619 170.409 2.05398 170.409 1.6321C170.409 1.21449 170.559 0.856534 170.857 0.558239C171.159 0.259943 171.522 0.110795 171.943 0.110795C172.353 0.110795 172.711 0.259943 173.017 0.558239C173.324 0.856534 173.478 1.21449 173.478 1.6321C173.478 1.91335 173.405 2.17116 173.26 2.40554C173.12 2.63565 172.934 2.82102 172.704 2.96165C172.474 3.09801 172.22 3.16619 171.943 3.16619ZM180.905 3.16619C180.483 3.16619 180.121 3.01705 179.818 2.71875C179.52 2.41619 179.371 2.05398 179.371 1.6321C179.371 1.21449 179.52 0.856534 179.818 0.558239C180.121 0.259943 180.483 0.110795 180.905 0.110795C181.314 0.110795 181.672 0.259943 181.979 0.558239C182.286 0.856534 182.439 1.21449 182.439 1.6321C182.439 1.91335 182.366 2.17116 182.222 2.40554C182.081 2.63565 181.896 2.82102 181.665 2.96165C181.435 3.09801 181.182 3.16619 180.905 3.16619ZM1.67827 23.1662C1.25639 23.1662 0.894176 23.017 0.591619 22.7188C0.293324 22.4162 0.144176 22.054 0.144176 21.6321C0.144176 21.2145 0.293324 20.8565 0.591619 20.5582C0.894176 20.2599 1.25639 20.1108 1.67827 20.1108C2.08736 20.1108 2.44531 20.2599 2.75213 20.5582C3.05895 20.8565 3.21236 21.2145 3.21236 21.6321C3.21236 21.9134 3.13991 22.1712 2.99503 22.4055C2.8544 22.6357 2.66903 22.821 2.43892 22.9616C2.20881 23.098 1.95526 23.1662 1.67827 23.1662ZM10.6396 23.1662C10.2177 23.1662 9.8555 23.017 9.55295 22.7188C9.25465 22.4162 9.1055 22.054 9.1055 21.6321C9.1055 21.2145 9.25465 20.8565 9.55295 20.5582C9.8555 20.2599 10.2177 20.1108 10.6396 20.1108C11.0487 20.1108 11.4066 20.2599 11.7135 20.5582C12.0203 20.8565 12.1737 21.2145 12.1737 21.6321C12.1737 21.9134 12.1012 22.1712 11.9564 22.4055C11.8157 22.6357 11.6304 22.821 11.4002 22.9616C11.1701 23.098 10.9166 23.1662 10.6396 23.1662ZM19.6009 23.1662C19.179 23.1662 18.8168 23.017 18.5143 22.7188C18.216 22.4162 18.0668 22.054 18.0668 21.6321C18.0668 21.2145 18.216 20.8565 18.5143 20.5582C18.8168 20.2599 19.179 20.1108 19.6009 20.1108C20.01 20.1108 20.368 20.2599 20.6748 20.5582C20.9816 20.8565 21.135 21.2145 21.135 21.6321C21.135 21.9134 21.0626 22.1712 20.9177 22.4055C20.7771 22.6357 20.5917 22.821 20.3616 22.9616C20.1315 23.098 19.8779 23.1662 19.6009 23.1662ZM28.5623 23.1662C28.1404 23.1662 27.7782 23.017 27.4756 22.7188C27.1773 22.4162 27.0282 22.054 27.0282 21.6321C27.0282 21.2145 27.1773 20.8565 27.4756 20.5582C27.7782 20.2599 28.1404 20.1108 28.5623 20.1108C28.9713 20.1108 29.3293 20.2599 29.6361 20.5582C29.9429 20.8565 30.0963 21.2145 30.0963 21.6321C30.0963 21.9134 30.0239 22.1712 29.879 22.4055C29.7384 22.6357 29.553 22.821 29.3229 22.9616C29.0928 23.098 28.8392 23.1662 28.5623 23.1662ZM37.5236 23.1662C37.1017 23.1662 36.7395 23.017 36.4369 22.7188C36.1386 22.4162 35.9895 22.054 35.9895 21.6321C35.9895 21.2145 36.1386 20.8565 36.4369 20.5582C36.7395 20.2599 37.1017 20.1108 37.5236 20.1108C37.9327 20.1108 38.2906 20.2599 38.5974 20.5582C38.9043 20.8565 39.0577 21.2145 39.0577 21.6321C39.0577 21.9134 38.9852 22.1712 38.8403 22.4055C38.6997 22.6357 38.5143 22.821 38.2842 22.9616C38.0541 23.098 37.8006 23.1662 37.5236 23.1662ZM46.4849 23.1662C46.063 23.1662 45.7008 23.017 45.3983 22.7188C45.1 22.4162 44.9508 22.054 44.9508 21.6321C44.9508 21.2145 45.1 20.8565 45.3983 20.5582C45.7008 20.2599 46.063 20.1108 46.4849 20.1108C46.894 20.1108 47.252 20.2599 47.5588 20.5582C47.8656 20.8565 48.019 21.2145 48.019 21.6321C48.019 21.9134 47.9466 22.1712 47.8017 22.4055C47.661 22.6357 47.4757 22.821 47.2456 22.9616C47.0154 23.098 46.7619 23.1662 46.4849 23.1662ZM55.4462 23.1662C55.0244 23.1662 54.6621 23.017 54.3596 22.7188C54.0613 22.4162 53.9121 22.054 53.9121 21.6321C53.9121 21.2145 54.0613 20.8565 54.3596 20.5582C54.6621 20.2599 55.0244 20.1108 55.4462 20.1108C55.8553 20.1108 56.2133 20.2599 56.5201 20.5582C56.8269 20.8565 56.9803 21.2145 56.9803 21.6321C56.9803 21.9134 56.9079 22.1712 56.763 22.4055C56.6224 22.6357 56.437 22.821 56.2069 22.9616C55.9768 23.098 55.7232 23.1662 55.4462 23.1662ZM64.4076 23.1662C63.9857 23.1662 63.6235 23.017 63.3209 22.7188C63.0226 22.4162 62.8735 22.054 62.8735 21.6321C62.8735 21.2145 63.0226 20.8565 63.3209 20.5582C63.6235 20.2599 63.9857 20.1108 64.4076 20.1108C64.8167 20.1108 65.1746 20.2599 65.4814 20.5582C65.7882 20.8565 65.9417 21.2145 65.9417 21.6321C65.9417 21.9134 65.8692 22.1712 65.7243 22.4055C65.5837 22.6357 65.3983 22.821 65.1682 22.9616C64.9381 23.098 64.6846 23.1662 64.4076 23.1662ZM73.3689 23.1662C72.947 23.1662 72.5848 23.017 72.2822 22.7188C71.984 22.4162 71.8348 22.054 71.8348 21.6321C71.8348 21.2145 71.984 20.8565 72.2822 20.5582C72.5848 20.2599 72.947 20.1108 73.3689 20.1108C73.778 20.1108 74.1359 20.2599 74.4428 20.5582C74.7496 20.8565 74.903 21.2145 74.903 21.6321C74.903 21.9134 74.8305 22.1712 74.6857 22.4055C74.545 22.6357 74.3597 22.821 74.1295 22.9616C73.8994 23.098 73.6459 23.1662 73.3689 23.1662ZM82.3302 23.1662C81.9083 23.1662 81.5461 23.017 81.2436 22.7188C80.9453 22.4162 80.7961 22.054 80.7961 21.6321C80.7961 21.2145 80.9453 20.8565 81.2436 20.5582C81.5461 20.2599 81.9083 20.1108 82.3302 20.1108C82.7393 20.1108 83.0973 20.2599 83.4041 20.5582C83.7109 20.8565 83.8643 21.2145 83.8643 21.6321C83.8643 21.9134 83.7919 22.1712 83.647 22.4055C83.5064 22.6357 83.321 22.821 83.0909 22.9616C82.8608 23.098 82.6072 23.1662 82.3302 23.1662ZM91.2915 23.1662C90.8697 23.1662 90.5075 23.017 90.2049 22.7188C89.9066 22.4162 89.7575 22.054 89.7575 21.6321C89.7575 21.2145 89.9066 20.8565 90.2049 20.5582C90.5075 20.2599 90.8697 20.1108 91.2915 20.1108C91.7006 20.1108 92.0586 20.2599 92.3654 20.5582C92.6722 20.8565 92.8256 21.2145 92.8256 21.6321C92.8256 21.9134 92.7532 22.1712 92.6083 22.4055C92.4677 22.6357 92.2823 22.821 92.0522 22.9616C91.8221 23.098 91.5685 23.1662 91.2915 23.1662ZM100.253 23.1662C99.831 23.1662 99.4688 23.017 99.1662 22.7188C98.8679 22.4162 98.7188 22.054 98.7188 21.6321C98.7188 21.2145 98.8679 20.8565 99.1662 20.5582C99.4688 20.2599 99.831 20.1108 100.253 20.1108C100.662 20.1108 101.02 20.2599 101.327 20.5582C101.634 20.8565 101.787 21.2145 101.787 21.6321C101.787 21.9134 101.715 22.1712 101.57 22.4055C101.429 22.6357 101.244 22.821 101.014 22.9616C100.783 23.098 100.53 23.1662 100.253 23.1662ZM109.214 23.1662C108.792 23.1662 108.43 23.017 108.128 22.7188C107.829 22.4162 107.68 22.054 107.68 21.6321C107.68 21.2145 107.829 20.8565 108.128 20.5582C108.43 20.2599 108.792 20.1108 109.214 20.1108C109.623 20.1108 109.981 20.2599 110.288 20.5582C110.595 20.8565 110.748 21.2145 110.748 21.6321C110.748 21.9134 110.676 22.1712 110.531 22.4055C110.39 22.6357 110.205 22.821 109.975 22.9616C109.745 23.098 109.491 23.1662 109.214 23.1662ZM118.176 23.1662C117.754 23.1662 117.391 23.017 117.089 22.7188C116.791 22.4162 116.641 22.054 116.641 21.6321C116.641 21.2145 116.791 20.8565 117.089 20.5582C117.391 20.2599 117.754 20.1108 118.176 20.1108C118.585 20.1108 118.943 20.2599 119.249 20.5582C119.556 20.8565 119.71 21.2145 119.71 21.6321C119.71 21.9134 119.637 22.1712 119.492 22.4055C119.352 22.6357 119.166 22.821 118.936 22.9616C118.706 23.098 118.453 23.1662 118.176 23.1662ZM127.137 23.1662C126.715 23.1662 126.353 23.017 126.05 22.7188C125.752 22.4162 125.603 22.054 125.603 21.6321C125.603 21.2145 125.752 20.8565 126.05 20.5582C126.353 20.2599 126.715 20.1108 127.137 20.1108C127.546 20.1108 127.904 20.2599 128.211 20.5582C128.518 20.8565 128.671 21.2145 128.671 21.6321C128.671 21.9134 128.599 22.1712 128.454 22.4055C128.313 22.6357 128.128 22.821 127.898 22.9616C127.667 23.098 127.414 23.1662 127.137 23.1662ZM136.098 23.1662C135.676 23.1662 135.314 23.017 135.012 22.7188C134.713 22.4162 134.564 22.054 134.564 21.6321C134.564 21.2145 134.713 20.8565 135.012 20.5582C135.314 20.2599 135.676 20.1108 136.098 20.1108C136.507 20.1108 136.865 20.2599 137.172 20.5582C137.479 20.8565 137.632 21.2145 137.632 21.6321C137.632 21.9134 137.56 22.1712 137.415 22.4055C137.274 22.6357 137.089 22.821 136.859 22.9616C136.629 23.098 136.375 23.1662 136.098 23.1662ZM145.06 23.1662C144.638 23.1662 144.275 23.017 143.973 22.7188C143.675 22.4162 143.525 22.054 143.525 21.6321C143.525 21.2145 143.675 20.8565 143.973 20.5582C144.275 20.2599 144.638 20.1108 145.06 20.1108C145.469 20.1108 145.827 20.2599 146.133 20.5582C146.44 20.8565 146.594 21.2145 146.594 21.6321C146.594 21.9134 146.521 22.1712 146.376 22.4055C146.236 22.6357 146.05 22.821 145.82 22.9616C145.59 23.098 145.337 23.1662 145.06 23.1662ZM154.021 23.1662C153.599 23.1662 153.237 23.017 152.934 22.7188C152.636 22.4162 152.487 22.054 152.487 21.6321C152.487 21.2145 152.636 20.8565 152.934 20.5582C153.237 20.2599 153.599 20.1108 154.021 20.1108C154.43 20.1108 154.788 20.2599 155.095 20.5582C155.402 20.8565 155.555 21.2145 155.555 21.6321C155.555 21.9134 155.482 22.1712 155.338 22.4055C155.197 22.6357 155.012 22.821 154.781 22.9616C154.551 23.098 154.298 23.1662 154.021 23.1662ZM162.982 23.1662C162.56 23.1662 162.198 23.017 161.896 22.7188C161.597 22.4162 161.448 22.054 161.448 21.6321C161.448 21.2145 161.597 20.8565 161.896 20.5582C162.198 20.2599 162.56 20.1108 162.982 20.1108C163.391 20.1108 163.749 20.2599 164.056 20.5582C164.363 20.8565 164.516 21.2145 164.516 21.6321C164.516 21.9134 164.444 22.1712 164.299 22.4055C164.158 22.6357 163.973 22.821 163.743 22.9616C163.513 23.098 163.259 23.1662 162.982 23.1662ZM171.943 23.1662C171.522 23.1662 171.159 23.017 170.857 22.7188C170.559 22.4162 170.409 22.054 170.409 21.6321C170.409 21.2145 170.559 20.8565 170.857 20.5582C171.159 20.2599 171.522 20.1108 171.943 20.1108C172.353 20.1108 172.711 20.2599 173.017 20.5582C173.324 20.8565 173.478 21.2145 173.478 21.6321C173.478 21.9134 173.405 22.1712 173.26 22.4055C173.12 22.6357 172.934 22.821 172.704 22.9616C172.474 23.098 172.22 23.1662 171.943 23.1662ZM180.905 23.1662C180.483 23.1662 180.121 23.017 179.818 22.7188C179.52 22.4162 179.371 22.054 179.371 21.6321C179.371 21.2145 179.52 20.8565 179.818 20.5582C180.121 20.2599 180.483 20.1108 180.905 20.1108C181.314 20.1108 181.672 20.2599 181.979 20.5582C182.286 20.8565 182.439 21.2145 182.439 21.6321C182.439 21.9134 182.366 22.1712 182.222 22.4055C182.081 22.6357 181.896 22.821 181.665 22.9616C181.435 23.098 181.182 23.1662 180.905 23.1662ZM1.67827 43.1662C1.25639 43.1662 0.894176 43.017 0.591619 42.7188C0.293324 42.4162 0.144176 42.054 0.144176 41.6321C0.144176 41.2145 0.293324 40.8565 0.591619 40.5582C0.894176 40.2599 1.25639 40.1108 1.67827 40.1108C2.08736 40.1108 2.44531 40.2599 2.75213 40.5582C3.05895 40.8565 3.21236 41.2145 3.21236 41.6321C3.21236 41.9134 3.13991 42.1712 2.99503 42.4055C2.8544 42.6357 2.66903 42.821 2.43892 42.9616C2.20881 43.098 1.95526 43.1662 1.67827 43.1662ZM10.6396 43.1662C10.2177 43.1662 9.8555 43.017 9.55295 42.7188C9.25465 42.4162 9.1055 42.054 9.1055 41.6321C9.1055 41.2145 9.25465 40.8565 9.55295 40.5582C9.8555 40.2599 10.2177 40.1108 10.6396 40.1108C11.0487 40.1108 11.4066 40.2599 11.7135 40.5582C12.0203 40.8565 12.1737 41.2145 12.1737 41.6321C12.1737 41.9134 12.1012 42.1712 11.9564 42.4055C11.8157 42.6357 11.6304 42.821 11.4002 42.9616C11.1701 43.098 10.9166 43.1662 10.6396 43.1662ZM19.6009 43.1662C19.179 43.1662 18.8168 43.017 18.5143 42.7188C18.216 42.4162 18.0668 42.054 18.0668 41.6321C18.0668 41.2145 18.216 40.8565 18.5143 40.5582C18.8168 40.2599 19.179 40.1108 19.6009 40.1108C20.01 40.1108 20.368 40.2599 20.6748 40.5582C20.9816 40.8565 21.135 41.2145 21.135 41.6321C21.135 41.9134 21.0626 42.1712 20.9177 42.4055C20.7771 42.6357 20.5917 42.821 20.3616 42.9616C20.1315 43.098 19.8779 43.1662 19.6009 43.1662ZM28.5623 43.1662C28.1404 43.1662 27.7782 43.017 27.4756 42.7188C27.1773 42.4162 27.0282 42.054 27.0282 41.6321C27.0282 41.2145 27.1773 40.8565 27.4756 40.5582C27.7782 40.2599 28.1404 40.1108 28.5623 40.1108C28.9713 40.1108 29.3293 40.2599 29.6361 40.5582C29.9429 40.8565 30.0963 41.2145 30.0963 41.6321C30.0963 41.9134 30.0239 42.1712 29.879 42.4055C29.7384 42.6357 29.553 42.821 29.3229 42.9616C29.0928 43.098 28.8392 43.1662 28.5623 43.1662ZM37.5236 43.1662C37.1017 43.1662 36.7395 43.017 36.4369 42.7188C36.1386 42.4162 35.9895 42.054 35.9895 41.6321C35.9895 41.2145 36.1386 40.8565 36.4369 40.5582C36.7395 40.2599 37.1017 40.1108 37.5236 40.1108C37.9327 40.1108 38.2906 40.2599 38.5974 40.5582C38.9043 40.8565 39.0577 41.2145 39.0577 41.6321C39.0577 41.9134 38.9852 42.1712 38.8403 42.4055C38.6997 42.6357 38.5143 42.821 38.2842 42.9616C38.0541 43.098 37.8006 43.1662 37.5236 43.1662ZM46.4849 43.1662C46.063 43.1662 45.7008 43.017 45.3983 42.7188C45.1 42.4162 44.9508 42.054 44.9508 41.6321C44.9508 41.2145 45.1 40.8565 45.3983 40.5582C45.7008 40.2599 46.063 40.1108 46.4849 40.1108C46.894 40.1108 47.252 40.2599 47.5588 40.5582C47.8656 40.8565 48.019 41.2145 48.019 41.6321C48.019 41.9134 47.9466 42.1712 47.8017 42.4055C47.661 42.6357 47.4757 42.821 47.2456 42.9616C47.0154 43.098 46.7619 43.1662 46.4849 43.1662ZM55.4462 43.1662C55.0244 43.1662 54.6621 43.017 54.3596 42.7188C54.0613 42.4162 53.9121 42.054 53.9121 41.6321C53.9121 41.2145 54.0613 40.8565 54.3596 40.5582C54.6621 40.2599 55.0244 40.1108 55.4462 40.1108C55.8553 40.1108 56.2133 40.2599 56.5201 40.5582C56.8269 40.8565 56.9803 41.2145 56.9803 41.6321C56.9803 41.9134 56.9079 42.1712 56.763 42.4055C56.6224 42.6357 56.437 42.821 56.2069 42.9616C55.9768 43.098 55.7232 43.1662 55.4462 43.1662ZM64.4076 43.1662C63.9857 43.1662 63.6235 43.017 63.3209 42.7188C63.0226 42.4162 62.8735 42.054 62.8735 41.6321C62.8735 41.2145 63.0226 40.8565 63.3209 40.5582C63.6235 40.2599 63.9857 40.1108 64.4076 40.1108C64.8167 40.1108 65.1746 40.2599 65.4814 40.5582C65.7882 40.8565 65.9417 41.2145 65.9417 41.6321C65.9417 41.9134 65.8692 42.1712 65.7243 42.4055C65.5837 42.6357 65.3983 42.821 65.1682 42.9616C64.9381 43.098 64.6846 43.1662 64.4076 43.1662ZM73.3689 43.1662C72.947 43.1662 72.5848 43.017 72.2822 42.7188C71.984 42.4162 71.8348 42.054 71.8348 41.6321C71.8348 41.2145 71.984 40.8565 72.2822 40.5582C72.5848 40.2599 72.947 40.1108 73.3689 40.1108C73.778 40.1108 74.1359 40.2599 74.4428 40.5582C74.7496 40.8565 74.903 41.2145 74.903 41.6321C74.903 41.9134 74.8305 42.1712 74.6857 42.4055C74.545 42.6357 74.3597 42.821 74.1295 42.9616C73.8994 43.098 73.6459 43.1662 73.3689 43.1662ZM82.3302 43.1662C81.9083 43.1662 81.5461 43.017 81.2436 42.7188C80.9453 42.4162 80.7961 42.054 80.7961 41.6321C80.7961 41.2145 80.9453 40.8565 81.2436 40.5582C81.5461 40.2599 81.9083 40.1108 82.3302 40.1108C82.7393 40.1108 83.0973 40.2599 83.4041 40.5582C83.7109 40.8565 83.8643 41.2145 83.8643 41.6321C83.8643 41.9134 83.7919 42.1712 83.647 42.4055C83.5064 42.6357 83.321 42.821 83.0909 42.9616C82.8608 43.098 82.6072 43.1662 82.3302 43.1662ZM91.2915 43.1662C90.8697 43.1662 90.5075 43.017 90.2049 42.7188C89.9066 42.4162 89.7575 42.054 89.7575 41.6321C89.7575 41.2145 89.9066 40.8565 90.2049 40.5582C90.5075 40.2599 90.8697 40.1108 91.2915 40.1108C91.7006 40.1108 92.0586 40.2599 92.3654 40.5582C92.6722 40.8565 92.8256 41.2145 92.8256 41.6321C92.8256 41.9134 92.7532 42.1712 92.6083 42.4055C92.4677 42.6357 92.2823 42.821 92.0522 42.9616C91.8221 43.098 91.5685 43.1662 91.2915 43.1662ZM100.253 43.1662C99.831 43.1662 99.4688 43.017 99.1662 42.7188C98.8679 42.4162 98.7188 42.054 98.7188 41.6321C98.7188 41.2145 98.8679 40.8565 99.1662 40.5582C99.4688 40.2599 99.831 40.1108 100.253 40.1108C100.662 40.1108 101.02 40.2599 101.327 40.5582C101.634 40.8565 101.787 41.2145 101.787 41.6321C101.787 41.9134 101.715 42.1712 101.57 42.4055C101.429 42.6357 101.244 42.821 101.014 42.9616C100.783 43.098 100.53 43.1662 100.253 43.1662ZM109.214 43.1662C108.792 43.1662 108.43 43.017 108.128 42.7188C107.829 42.4162 107.68 42.054 107.68 41.6321C107.68 41.2145 107.829 40.8565 108.128 40.5582C108.43 40.2599 108.792 40.1108 109.214 40.1108C109.623 40.1108 109.981 40.2599 110.288 40.5582C110.595 40.8565 110.748 41.2145 110.748 41.6321C110.748 41.9134 110.676 42.1712 110.531 42.4055C110.39 42.6357 110.205 42.821 109.975 42.9616C109.745 43.098 109.491 43.1662 109.214 43.1662ZM118.176 43.1662C117.754 43.1662 117.391 43.017 117.089 42.7188C116.791 42.4162 116.641 42.054 116.641 41.6321C116.641 41.2145 116.791 40.8565 117.089 40.5582C117.391 40.2599 117.754 40.1108 118.176 40.1108C118.585 40.1108 118.943 40.2599 119.249 40.5582C119.556 40.8565 119.71 41.2145 119.71 41.6321C119.71 41.9134 119.637 42.1712 119.492 42.4055C119.352 42.6357 119.166 42.821 118.936 42.9616C118.706 43.098 118.453 43.1662 118.176 43.1662ZM127.137 43.1662C126.715 43.1662 126.353 43.017 126.05 42.7188C125.752 42.4162 125.603 42.054 125.603 41.6321C125.603 41.2145 125.752 40.8565 126.05 40.5582C126.353 40.2599 126.715 40.1108 127.137 40.1108C127.546 40.1108 127.904 40.2599 128.211 40.5582C128.518 40.8565 128.671 41.2145 128.671 41.6321C128.671 41.9134 128.599 42.1712 128.454 42.4055C128.313 42.6357 128.128 42.821 127.898 42.9616C127.667 43.098 127.414 43.1662 127.137 43.1662ZM136.098 43.1662C135.676 43.1662 135.314 43.017 135.012 42.7188C134.713 42.4162 134.564 42.054 134.564 41.6321C134.564 41.2145 134.713 40.8565 135.012 40.5582C135.314 40.2599 135.676 40.1108 136.098 40.1108C136.507 40.1108 136.865 40.2599 137.172 40.5582C137.479 40.8565 137.632 41.2145 137.632 41.6321C137.632 41.9134 137.56 42.1712 137.415 42.4055C137.274 42.6357 137.089 42.821 136.859 42.9616C136.629 43.098 136.375 43.1662 136.098 43.1662ZM145.06 43.1662C144.638 43.1662 144.275 43.017 143.973 42.7188C143.675 42.4162 143.525 42.054 143.525 41.6321C143.525 41.2145 143.675 40.8565 143.973 40.5582C144.275 40.2599 144.638 40.1108 145.06 40.1108C145.469 40.1108 145.827 40.2599 146.133 40.5582C146.44 40.8565 146.594 41.2145 146.594 41.6321C146.594 41.9134 146.521 42.1712 146.376 42.4055C146.236 42.6357 146.05 42.821 145.82 42.9616C145.59 43.098 145.337 43.1662 145.06 43.1662ZM154.021 43.1662C153.599 43.1662 153.237 43.017 152.934 42.7188C152.636 42.4162 152.487 42.054 152.487 41.6321C152.487 41.2145 152.636 40.8565 152.934 40.5582C153.237 40.2599 153.599 40.1108 154.021 40.1108C154.43 40.1108 154.788 40.2599 155.095 40.5582C155.402 40.8565 155.555 41.2145 155.555 41.6321C155.555 41.9134 155.482 42.1712 155.338 42.4055C155.197 42.6357 155.012 42.821 154.781 42.9616C154.551 43.098 154.298 43.1662 154.021 43.1662ZM162.982 43.1662C162.56 43.1662 162.198 43.017 161.896 42.7188C161.597 42.4162 161.448 42.054 161.448 41.6321C161.448 41.2145 161.597 40.8565 161.896 40.5582C162.198 40.2599 162.56 40.1108 162.982 40.1108C163.391 40.1108 163.749 40.2599 164.056 40.5582C164.363 40.8565 164.516 41.2145 164.516 41.6321C164.516 41.9134 164.444 42.1712 164.299 42.4055C164.158 42.6357 163.973 42.821 163.743 42.9616C163.513 43.098 163.259 43.1662 162.982 43.1662ZM171.943 43.1662C171.522 43.1662 171.159 43.017 170.857 42.7188C170.559 42.4162 170.409 42.054 170.409 41.6321C170.409 41.2145 170.559 40.8565 170.857 40.5582C171.159 40.2599 171.522 40.1108 171.943 40.1108C172.353 40.1108 172.711 40.2599 173.017 40.5582C173.324 40.8565 173.478 41.2145 173.478 41.6321C173.478 41.9134 173.405 42.1712 173.26 42.4055C173.12 42.6357 172.934 42.821 172.704 42.9616C172.474 43.098 172.22 43.1662 171.943 43.1662ZM180.905 43.1662C180.483 43.1662 180.121 43.017 179.818 42.7188C179.52 42.4162 179.371 42.054 179.371 41.6321C179.371 41.2145 179.52 40.8565 179.818 40.5582C180.121 40.2599 180.483 40.1108 180.905 40.1108C181.314 40.1108 181.672 40.2599 181.979 40.5582C182.286 40.8565 182.439 41.2145 182.439 41.6321C182.439 41.9134 182.366 42.1712 182.222 42.4055C182.081 42.6357 181.896 42.821 181.665 42.9616C181.435 43.098 181.182 43.1662 180.905 43.1662ZM1.67827 63.1662C1.25639 63.1662 0.894176 63.017 0.591619 62.7188C0.293324 62.4162 0.144176 62.054 0.144176 61.6321C0.144176 61.2145 0.293324 60.8565 0.591619 60.5582C0.894176 60.2599 1.25639 60.1108 1.67827 60.1108C2.08736 60.1108 2.44531 60.2599 2.75213 60.5582C3.05895 60.8565 3.21236 61.2145 3.21236 61.6321C3.21236 61.9134 3.13991 62.1712 2.99503 62.4055C2.8544 62.6357 2.66903 62.821 2.43892 62.9616C2.20881 63.098 1.95526 63.1662 1.67827 63.1662ZM10.6396 63.1662C10.2177 63.1662 9.8555 63.017 9.55295 62.7188C9.25465 62.4162 9.1055 62.054 9.1055 61.6321C9.1055 61.2145 9.25465 60.8565 9.55295 60.5582C9.8555 60.2599 10.2177 60.1108 10.6396 60.1108C11.0487 60.1108 11.4066 60.2599 11.7135 60.5582C12.0203 60.8565 12.1737 61.2145 12.1737 61.6321C12.1737 61.9134 12.1012 62.1712 11.9564 62.4055C11.8157 62.6357 11.6304 62.821 11.4002 62.9616C11.1701 63.098 10.9166 63.1662 10.6396 63.1662ZM19.6009 63.1662C19.179 63.1662 18.8168 63.017 18.5143 62.7188C18.216 62.4162 18.0668 62.054 18.0668 61.6321C18.0668 61.2145 18.216 60.8565 18.5143 60.5582C18.8168 60.2599 19.179 60.1108 19.6009 60.1108C20.01 60.1108 20.368 60.2599 20.6748 60.5582C20.9816 60.8565 21.135 61.2145 21.135 61.6321C21.135 61.9134 21.0626 62.1712 20.9177 62.4055C20.7771 62.6357 20.5917 62.821 20.3616 62.9616C20.1315 63.098 19.8779 63.1662 19.6009 63.1662ZM28.5623 63.1662C28.1404 63.1662 27.7782 63.017 27.4756 62.7188C27.1773 62.4162 27.0282 62.054 27.0282 61.6321C27.0282 61.2145 27.1773 60.8565 27.4756 60.5582C27.7782 60.2599 28.1404 60.1108 28.5623 60.1108C28.9713 60.1108 29.3293 60.2599 29.6361 60.5582C29.9429 60.8565 30.0963 61.2145 30.0963 61.6321C30.0963 61.9134 30.0239 62.1712 29.879 62.4055C29.7384 62.6357 29.553 62.821 29.3229 62.9616C29.0928 63.098 28.8392 63.1662 28.5623 63.1662ZM37.5236 63.1662C37.1017 63.1662 36.7395 63.017 36.4369 62.7188C36.1386 62.4162 35.9895 62.054 35.9895 61.6321C35.9895 61.2145 36.1386 60.8565 36.4369 60.5582C36.7395 60.2599 37.1017 60.1108 37.5236 60.1108C37.9327 60.1108 38.2906 60.2599 38.5974 60.5582C38.9043 60.8565 39.0577 61.2145 39.0577 61.6321C39.0577 61.9134 38.9852 62.1712 38.8403 62.4055C38.6997 62.6357 38.5143 62.821 38.2842 62.9616C38.0541 63.098 37.8006 63.1662 37.5236 63.1662ZM46.4849 63.1662C46.063 63.1662 45.7008 63.017 45.3983 62.7188C45.1 62.4162 44.9508 62.054 44.9508 61.6321C44.9508 61.2145 45.1 60.8565 45.3983 60.5582C45.7008 60.2599 46.063 60.1108 46.4849 60.1108C46.894 60.1108 47.252 60.2599 47.5588 60.5582C47.8656 60.8565 48.019 61.2145 48.019 61.6321C48.019 61.9134 47.9466 62.1712 47.8017 62.4055C47.661 62.6357 47.4757 62.821 47.2456 62.9616C47.0154 63.098 46.7619 63.1662 46.4849 63.1662ZM55.4462 63.1662C55.0244 63.1662 54.6621 63.017 54.3596 62.7188C54.0613 62.4162 53.9121 62.054 53.9121 61.6321C53.9121 61.2145 54.0613 60.8565 54.3596 60.5582C54.6621 60.2599 55.0244 60.1108 55.4462 60.1108C55.8553 60.1108 56.2133 60.2599 56.5201 60.5582C56.8269 60.8565 56.9803 61.2145 56.9803 61.6321C56.9803 61.9134 56.9079 62.1712 56.763 62.4055C56.6224 62.6357 56.437 62.821 56.2069 62.9616C55.9768 63.098 55.7232 63.1662 55.4462 63.1662ZM64.4076 63.1662C63.9857 63.1662 63.6235 63.017 63.3209 62.7188C63.0226 62.4162 62.8735 62.054 62.8735 61.6321C62.8735 61.2145 63.0226 60.8565 63.3209 60.5582C63.6235 60.2599 63.9857 60.1108 64.4076 60.1108C64.8167 60.1108 65.1746 60.2599 65.4814 60.5582C65.7882 60.8565 65.9417 61.2145 65.9417 61.6321C65.9417 61.9134 65.8692 62.1712 65.7243 62.4055C65.5837 62.6357 65.3983 62.821 65.1682 62.9616C64.9381 63.098 64.6846 63.1662 64.4076 63.1662ZM73.3689 63.1662C72.947 63.1662 72.5848 63.017 72.2822 62.7188C71.984 62.4162 71.8348 62.054 71.8348 61.6321C71.8348 61.2145 71.984 60.8565 72.2822 60.5582C72.5848 60.2599 72.947 60.1108 73.3689 60.1108C73.778 60.1108 74.1359 60.2599 74.4428 60.5582C74.7496 60.8565 74.903 61.2145 74.903 61.6321C74.903 61.9134 74.8305 62.1712 74.6857 62.4055C74.545 62.6357 74.3597 62.821 74.1295 62.9616C73.8994 63.098 73.6459 63.1662 73.3689 63.1662ZM82.3302 63.1662C81.9083 63.1662 81.5461 63.017 81.2436 62.7188C80.9453 62.4162 80.7961 62.054 80.7961 61.6321C80.7961 61.2145 80.9453 60.8565 81.2436 60.5582C81.5461 60.2599 81.9083 60.1108 82.3302 60.1108C82.7393 60.1108 83.0973 60.2599 83.4041 60.5582C83.7109 60.8565 83.8643 61.2145 83.8643 61.6321C83.8643 61.9134 83.7919 62.1712 83.647 62.4055C83.5064 62.6357 83.321 62.821 83.0909 62.9616C82.8608 63.098 82.6072 63.1662 82.3302 63.1662ZM91.2915 63.1662C90.8697 63.1662 90.5075 63.017 90.2049 62.7188C89.9066 62.4162 89.7575 62.054 89.7575 61.6321C89.7575 61.2145 89.9066 60.8565 90.2049 60.5582C90.5075 60.2599 90.8697 60.1108 91.2915 60.1108C91.7006 60.1108 92.0586 60.2599 92.3654 60.5582C92.6722 60.8565 92.8256 61.2145 92.8256 61.6321C92.8256 61.9134 92.7532 62.1712 92.6083 62.4055C92.4677 62.6357 92.2823 62.821 92.0522 62.9616C91.8221 63.098 91.5685 63.1662 91.2915 63.1662ZM100.253 63.1662C99.831 63.1662 99.4688 63.017 99.1662 62.7188C98.8679 62.4162 98.7188 62.054 98.7188 61.6321C98.7188 61.2145 98.8679 60.8565 99.1662 60.5582C99.4688 60.2599 99.831 60.1108 100.253 60.1108C100.662 60.1108 101.02 60.2599 101.327 60.5582C101.634 60.8565 101.787 61.2145 101.787 61.6321C101.787 61.9134 101.715 62.1712 101.57 62.4055C101.429 62.6357 101.244 62.821 101.014 62.9616C100.783 63.098 100.53 63.1662 100.253 63.1662ZM109.214 63.1662C108.792 63.1662 108.43 63.017 108.128 62.7188C107.829 62.4162 107.68 62.054 107.68 61.6321C107.68 61.2145 107.829 60.8565 108.128 60.5582C108.43 60.2599 108.792 60.1108 109.214 60.1108C109.623 60.1108 109.981 60.2599 110.288 60.5582C110.595 60.8565 110.748 61.2145 110.748 61.6321C110.748 61.9134 110.676 62.1712 110.531 62.4055C110.39 62.6357 110.205 62.821 109.975 62.9616C109.745 63.098 109.491 63.1662 109.214 63.1662ZM118.176 63.1662C117.754 63.1662 117.391 63.017 117.089 62.7188C116.791 62.4162 116.641 62.054 116.641 61.6321C116.641 61.2145 116.791 60.8565 117.089 60.5582C117.391 60.2599 117.754 60.1108 118.176 60.1108C118.585 60.1108 118.943 60.2599 119.249 60.5582C119.556 60.8565 119.71 61.2145 119.71 61.6321C119.71 61.9134 119.637 62.1712 119.492 62.4055C119.352 62.6357 119.166 62.821 118.936 62.9616C118.706 63.098 118.453 63.1662 118.176 63.1662ZM127.137 63.1662C126.715 63.1662 126.353 63.017 126.05 62.7188C125.752 62.4162 125.603 62.054 125.603 61.6321C125.603 61.2145 125.752 60.8565 126.05 60.5582C126.353 60.2599 126.715 60.1108 127.137 60.1108C127.546 60.1108 127.904 60.2599 128.211 60.5582C128.518 60.8565 128.671 61.2145 128.671 61.6321C128.671 61.9134 128.599 62.1712 128.454 62.4055C128.313 62.6357 128.128 62.821 127.898 62.9616C127.667 63.098 127.414 63.1662 127.137 63.1662ZM136.098 63.1662C135.676 63.1662 135.314 63.017 135.012 62.7188C134.713 62.4162 134.564 62.054 134.564 61.6321C134.564 61.2145 134.713 60.8565 135.012 60.5582C135.314 60.2599 135.676 60.1108 136.098 60.1108C136.507 60.1108 136.865 60.2599 137.172 60.5582C137.479 60.8565 137.632 61.2145 137.632 61.6321C137.632 61.9134 137.56 62.1712 137.415 62.4055C137.274 62.6357 137.089 62.821 136.859 62.9616C136.629 63.098 136.375 63.1662 136.098 63.1662ZM145.06 63.1662C144.638 63.1662 144.275 63.017 143.973 62.7188C143.675 62.4162 143.525 62.054 143.525 61.6321C143.525 61.2145 143.675 60.8565 143.973 60.5582C144.275 60.2599 144.638 60.1108 145.06 60.1108C145.469 60.1108 145.827 60.2599 146.133 60.5582C146.44 60.8565 146.594 61.2145 146.594 61.6321C146.594 61.9134 146.521 62.1712 146.376 62.4055C146.236 62.6357 146.05 62.821 145.82 62.9616C145.59 63.098 145.337 63.1662 145.06 63.1662ZM154.021 63.1662C153.599 63.1662 153.237 63.017 152.934 62.7188C152.636 62.4162 152.487 62.054 152.487 61.6321C152.487 61.2145 152.636 60.8565 152.934 60.5582C153.237 60.2599 153.599 60.1108 154.021 60.1108C154.43 60.1108 154.788 60.2599 155.095 60.5582C155.402 60.8565 155.555 61.2145 155.555 61.6321C155.555 61.9134 155.482 62.1712 155.338 62.4055C155.197 62.6357 155.012 62.821 154.781 62.9616C154.551 63.098 154.298 63.1662 154.021 63.1662ZM162.982 63.1662C162.56 63.1662 162.198 63.017 161.896 62.7188C161.597 62.4162 161.448 62.054 161.448 61.6321C161.448 61.2145 161.597 60.8565 161.896 60.5582C162.198 60.2599 162.56 60.1108 162.982 60.1108C163.391 60.1108 163.749 60.2599 164.056 60.5582C164.363 60.8565 164.516 61.2145 164.516 61.6321C164.516 61.9134 164.444 62.1712 164.299 62.4055C164.158 62.6357 163.973 62.821 163.743 62.9616C163.513 63.098 163.259 63.1662 162.982 63.1662ZM171.943 63.1662C171.522 63.1662 171.159 63.017 170.857 62.7188C170.559 62.4162 170.409 62.054 170.409 61.6321C170.409 61.2145 170.559 60.8565 170.857 60.5582C171.159 60.2599 171.522 60.1108 171.943 60.1108C172.353 60.1108 172.711 60.2599 173.017 60.5582C173.324 60.8565 173.478 61.2145 173.478 61.6321C173.478 61.9134 173.405 62.1712 173.26 62.4055C173.12 62.6357 172.934 62.821 172.704 62.9616C172.474 63.098 172.22 63.1662 171.943 63.1662ZM180.905 63.1662C180.483 63.1662 180.121 63.017 179.818 62.7188C179.52 62.4162 179.371 62.054 179.371 61.6321C179.371 61.2145 179.52 60.8565 179.818 60.5582C180.121 60.2599 180.483 60.1108 180.905 60.1108C181.314 60.1108 181.672 60.2599 181.979 60.5582C182.286 60.8565 182.439 61.2145 182.439 61.6321C182.439 61.9134 182.366 62.1712 182.222 62.4055C182.081 62.6357 181.896 62.821 181.665 62.9616C181.435 63.098 181.182 63.1662 180.905 63.1662ZM1.67827 83.1662C1.25639 83.1662 0.894176 83.017 0.591619 82.7188C0.293324 82.4162 0.144176 82.054 0.144176 81.6321C0.144176 81.2145 0.293324 80.8565 0.591619 80.5582C0.894176 80.2599 1.25639 80.1108 1.67827 80.1108C2.08736 80.1108 2.44531 80.2599 2.75213 80.5582C3.05895 80.8565 3.21236 81.2145 3.21236 81.6321C3.21236 81.9134 3.13991 82.1712 2.99503 82.4055C2.8544 82.6357 2.66903 82.821 2.43892 82.9616C2.20881 83.098 1.95526 83.1662 1.67827 83.1662ZM10.6396 83.1662C10.2177 83.1662 9.8555 83.017 9.55295 82.7188C9.25465 82.4162 9.1055 82.054 9.1055 81.6321C9.1055 81.2145 9.25465 80.8565 9.55295 80.5582C9.8555 80.2599 10.2177 80.1108 10.6396 80.1108C11.0487 80.1108 11.4066 80.2599 11.7135 80.5582C12.0203 80.8565 12.1737 81.2145 12.1737 81.6321C12.1737 81.9134 12.1012 82.1712 11.9564 82.4055C11.8157 82.6357 11.6304 82.821 11.4002 82.9616C11.1701 83.098 10.9166 83.1662 10.6396 83.1662ZM19.6009 83.1662C19.179 83.1662 18.8168 83.017 18.5143 82.7188C18.216 82.4162 18.0668 82.054 18.0668 81.6321C18.0668 81.2145 18.216 80.8565 18.5143 80.5582C18.8168 80.2599 19.179 80.1108 19.6009 80.1108C20.01 80.1108 20.368 80.2599 20.6748 80.5582C20.9816 80.8565 21.135 81.2145 21.135 81.6321C21.135 81.9134 21.0626 82.1712 20.9177 82.4055C20.7771 82.6357 20.5917 82.821 20.3616 82.9616C20.1315 83.098 19.8779 83.1662 19.6009 83.1662ZM28.5623 83.1662C28.1404 83.1662 27.7782 83.017 27.4756 82.7188C27.1773 82.4162 27.0282 82.054 27.0282 81.6321C27.0282 81.2145 27.1773 80.8565 27.4756 80.5582C27.7782 80.2599 28.1404 80.1108 28.5623 80.1108C28.9713 80.1108 29.3293 80.2599 29.6361 80.5582C29.9429 80.8565 30.0963 81.2145 30.0963 81.6321C30.0963 81.9134 30.0239 82.1712 29.879 82.4055C29.7384 82.6357 29.553 82.821 29.3229 82.9616C29.0928 83.098 28.8392 83.1662 28.5623 83.1662ZM37.5236 83.1662C37.1017 83.1662 36.7395 83.017 36.4369 82.7188C36.1386 82.4162 35.9895 82.054 35.9895 81.6321C35.9895 81.2145 36.1386 80.8565 36.4369 80.5582C36.7395 80.2599 37.1017 80.1108 37.5236 80.1108C37.9327 80.1108 38.2906 80.2599 38.5974 80.5582C38.9043 80.8565 39.0577 81.2145 39.0577 81.6321C39.0577 81.9134 38.9852 82.1712 38.8403 82.4055C38.6997 82.6357 38.5143 82.821 38.2842 82.9616C38.0541 83.098 37.8006 83.1662 37.5236 83.1662ZM46.4849 83.1662C46.063 83.1662 45.7008 83.017 45.3983 82.7188C45.1 82.4162 44.9508 82.054 44.9508 81.6321C44.9508 81.2145 45.1 80.8565 45.3983 80.5582C45.7008 80.2599 46.063 80.1108 46.4849 80.1108C46.894 80.1108 47.252 80.2599 47.5588 80.5582C47.8656 80.8565 48.019 81.2145 48.019 81.6321C48.019 81.9134 47.9466 82.1712 47.8017 82.4055C47.661 82.6357 47.4757 82.821 47.2456 82.9616C47.0154 83.098 46.7619 83.1662 46.4849 83.1662ZM55.4462 83.1662C55.0244 83.1662 54.6621 83.017 54.3596 82.7188C54.0613 82.4162 53.9121 82.054 53.9121 81.6321C53.9121 81.2145 54.0613 80.8565 54.3596 80.5582C54.6621 80.2599 55.0244 80.1108 55.4462 80.1108C55.8553 80.1108 56.2133 80.2599 56.5201 80.5582C56.8269 80.8565 56.9803 81.2145 56.9803 81.6321C56.9803 81.9134 56.9079 82.1712 56.763 82.4055C56.6224 82.6357 56.437 82.821 56.2069 82.9616C55.9768 83.098 55.7232 83.1662 55.4462 83.1662ZM64.4076 83.1662C63.9857 83.1662 63.6235 83.017 63.3209 82.7188C63.0226 82.4162 62.8735 82.054 62.8735 81.6321C62.8735 81.2145 63.0226 80.8565 63.3209 80.5582C63.6235 80.2599 63.9857 80.1108 64.4076 80.1108C64.8167 80.1108 65.1746 80.2599 65.4814 80.5582C65.7882 80.8565 65.9417 81.2145 65.9417 81.6321C65.9417 81.9134 65.8692 82.1712 65.7243 82.4055C65.5837 82.6357 65.3983 82.821 65.1682 82.9616C64.9381 83.098 64.6846 83.1662 64.4076 83.1662ZM73.3689 83.1662C72.947 83.1662 72.5848 83.017 72.2822 82.7188C71.984 82.4162 71.8348 82.054 71.8348 81.6321C71.8348 81.2145 71.984 80.8565 72.2822 80.5582C72.5848 80.2599 72.947 80.1108 73.3689 80.1108C73.778 80.1108 74.1359 80.2599 74.4428 80.5582C74.7496 80.8565 74.903 81.2145 74.903 81.6321C74.903 81.9134 74.8305 82.1712 74.6857 82.4055C74.545 82.6357 74.3597 82.821 74.1295 82.9616C73.8994 83.098 73.6459 83.1662 73.3689 83.1662ZM82.3302 83.1662C81.9083 83.1662 81.5461 83.017 81.2436 82.7188C80.9453 82.4162 80.7961 82.054 80.7961 81.6321C80.7961 81.2145 80.9453 80.8565 81.2436 80.5582C81.5461 80.2599 81.9083 80.1108 82.3302 80.1108C82.7393 80.1108 83.0973 80.2599 83.4041 80.5582C83.7109 80.8565 83.8643 81.2145 83.8643 81.6321C83.8643 81.9134 83.7919 82.1712 83.647 82.4055C83.5064 82.6357 83.321 82.821 83.0909 82.9616C82.8608 83.098 82.6072 83.1662 82.3302 83.1662ZM91.2915 83.1662C90.8697 83.1662 90.5075 83.017 90.2049 82.7188C89.9066 82.4162 89.7575 82.054 89.7575 81.6321C89.7575 81.2145 89.9066 80.8565 90.2049 80.5582C90.5075 80.2599 90.8697 80.1108 91.2915 80.1108C91.7006 80.1108 92.0586 80.2599 92.3654 80.5582C92.6722 80.8565 92.8256 81.2145 92.8256 81.6321C92.8256 81.9134 92.7532 82.1712 92.6083 82.4055C92.4677 82.6357 92.2823 82.821 92.0522 82.9616C91.8221 83.098 91.5685 83.1662 91.2915 83.1662ZM100.253 83.1662C99.831 83.1662 99.4688 83.017 99.1662 82.7188C98.8679 82.4162 98.7188 82.054 98.7188 81.6321C98.7188 81.2145 98.8679 80.8565 99.1662 80.5582C99.4688 80.2599 99.831 80.1108 100.253 80.1108C100.662 80.1108 101.02 80.2599 101.327 80.5582C101.634 80.8565 101.787 81.2145 101.787 81.6321C101.787 81.9134 101.715 82.1712 101.57 82.4055C101.429 82.6357 101.244 82.821 101.014 82.9616C100.783 83.098 100.53 83.1662 100.253 83.1662ZM109.214 83.1662C108.792 83.1662 108.43 83.017 108.128 82.7188C107.829 82.4162 107.68 82.054 107.68 81.6321C107.68 81.2145 107.829 80.8565 108.128 80.5582C108.43 80.2599 108.792 80.1108 109.214 80.1108C109.623 80.1108 109.981 80.2599 110.288 80.5582C110.595 80.8565 110.748 81.2145 110.748 81.6321C110.748 81.9134 110.676 82.1712 110.531 82.4055C110.39 82.6357 110.205 82.821 109.975 82.9616C109.745 83.098 109.491 83.1662 109.214 83.1662ZM118.176 83.1662C117.754 83.1662 117.391 83.017 117.089 82.7188C116.791 82.4162 116.641 82.054 116.641 81.6321C116.641 81.2145 116.791 80.8565 117.089 80.5582C117.391 80.2599 117.754 80.1108 118.176 80.1108C118.585 80.1108 118.943 80.2599 119.249 80.5582C119.556 80.8565 119.71 81.2145 119.71 81.6321C119.71 81.9134 119.637 82.1712 119.492 82.4055C119.352 82.6357 119.166 82.821 118.936 82.9616C118.706 83.098 118.453 83.1662 118.176 83.1662ZM127.137 83.1662C126.715 83.1662 126.353 83.017 126.05 82.7188C125.752 82.4162 125.603 82.054 125.603 81.6321C125.603 81.2145 125.752 80.8565 126.05 80.5582C126.353 80.2599 126.715 80.1108 127.137 80.1108C127.546 80.1108 127.904 80.2599 128.211 80.5582C128.518 80.8565 128.671 81.2145 128.671 81.6321C128.671 81.9134 128.599 82.1712 128.454 82.4055C128.313 82.6357 128.128 82.821 127.898 82.9616C127.667 83.098 127.414 83.1662 127.137 83.1662ZM136.098 83.1662C135.676 83.1662 135.314 83.017 135.012 82.7188C134.713 82.4162 134.564 82.054 134.564 81.6321C134.564 81.2145 134.713 80.8565 135.012 80.5582C135.314 80.2599 135.676 80.1108 136.098 80.1108C136.507 80.1108 136.865 80.2599 137.172 80.5582C137.479 80.8565 137.632 81.2145 137.632 81.6321C137.632 81.9134 137.56 82.1712 137.415 82.4055C137.274 82.6357 137.089 82.821 136.859 82.9616C136.629 83.098 136.375 83.1662 136.098 83.1662ZM145.06 83.1662C144.638 83.1662 144.275 83.017 143.973 82.7188C143.675 82.4162 143.525 82.054 143.525 81.6321C143.525 81.2145 143.675 80.8565 143.973 80.5582C144.275 80.2599 144.638 80.1108 145.06 80.1108C145.469 80.1108 145.827 80.2599 146.133 80.5582C146.44 80.8565 146.594 81.2145 146.594 81.6321C146.594 81.9134 146.521 82.1712 146.376 82.4055C146.236 82.6357 146.05 82.821 145.82 82.9616C145.59 83.098 145.337 83.1662 145.06 83.1662ZM154.021 83.1662C153.599 83.1662 153.237 83.017 152.934 82.7188C152.636 82.4162 152.487 82.054 152.487 81.6321C152.487 81.2145 152.636 80.8565 152.934 80.5582C153.237 80.2599 153.599 80.1108 154.021 80.1108C154.43 80.1108 154.788 80.2599 155.095 80.5582C155.402 80.8565 155.555 81.2145 155.555 81.6321C155.555 81.9134 155.482 82.1712 155.338 82.4055C155.197 82.6357 155.012 82.821 154.781 82.9616C154.551 83.098 154.298 83.1662 154.021 83.1662ZM162.982 83.1662C162.56 83.1662 162.198 83.017 161.896 82.7188C161.597 82.4162 161.448 82.054 161.448 81.6321C161.448 81.2145 161.597 80.8565 161.896 80.5582C162.198 80.2599 162.56 80.1108 162.982 80.1108C163.391 80.1108 163.749 80.2599 164.056 80.5582C164.363 80.8565 164.516 81.2145 164.516 81.6321C164.516 81.9134 164.444 82.1712 164.299 82.4055C164.158 82.6357 163.973 82.821 163.743 82.9616C163.513 83.098 163.259 83.1662 162.982 83.1662ZM171.943 83.1662C171.522 83.1662 171.159 83.017 170.857 82.7188C170.559 82.4162 170.409 82.054 170.409 81.6321C170.409 81.2145 170.559 80.8565 170.857 80.5582C171.159 80.2599 171.522 80.1108 171.943 80.1108C172.353 80.1108 172.711 80.2599 173.017 80.5582C173.324 80.8565 173.478 81.2145 173.478 81.6321C173.478 81.9134 173.405 82.1712 173.26 82.4055C173.12 82.6357 172.934 82.821 172.704 82.9616C172.474 83.098 172.22 83.1662 171.943 83.1662ZM180.905 83.1662C180.483 83.1662 180.121 83.017 179.818 82.7188C179.52 82.4162 179.371 82.054 179.371 81.6321C179.371 81.2145 179.52 80.8565 179.818 80.5582C180.121 80.2599 180.483 80.1108 180.905 80.1108C181.314 80.1108 181.672 80.2599 181.979 80.5582C182.286 80.8565 182.439 81.2145 182.439 81.6321C182.439 81.9134 182.366 82.1712 182.222 82.4055C182.081 82.6357 181.896 82.821 181.665 82.9616C181.435 83.098 181.182 83.1662 180.905 83.1662ZM1.67827 103.166C1.25639 103.166 0.894176 103.017 0.591619 102.719C0.293324 102.416 0.144176 102.054 0.144176 101.632C0.144176 101.214 0.293324 100.857 0.591619 100.558C0.894176 100.26 1.25639 100.111 1.67827 100.111C2.08736 100.111 2.44531 100.26 2.75213 100.558C3.05895 100.857 3.21236 101.214 3.21236 101.632C3.21236 101.913 3.13991 102.171 2.99503 102.406C2.8544 102.636 2.66903 102.821 2.43892 102.962C2.20881 103.098 1.95526 103.166 1.67827 103.166ZM10.6396 103.166C10.2177 103.166 9.8555 103.017 9.55295 102.719C9.25465 102.416 9.1055 102.054 9.1055 101.632C9.1055 101.214 9.25465 100.857 9.55295 100.558C9.8555 100.26 10.2177 100.111 10.6396 100.111C11.0487 100.111 11.4066 100.26 11.7135 100.558C12.0203 100.857 12.1737 101.214 12.1737 101.632C12.1737 101.913 12.1012 102.171 11.9564 102.406C11.8157 102.636 11.6304 102.821 11.4002 102.962C11.1701 103.098 10.9166 103.166 10.6396 103.166ZM19.6009 103.166C19.179 103.166 18.8168 103.017 18.5143 102.719C18.216 102.416 18.0668 102.054 18.0668 101.632C18.0668 101.214 18.216 100.857 18.5143 100.558C18.8168 100.26 19.179 100.111 19.6009 100.111C20.01 100.111 20.368 100.26 20.6748 100.558C20.9816 100.857 21.135 101.214 21.135 101.632C21.135 101.913 21.0626 102.171 20.9177 102.406C20.7771 102.636 20.5917 102.821 20.3616 102.962C20.1315 103.098 19.8779 103.166 19.6009 103.166ZM28.5623 103.166C28.1404 103.166 27.7782 103.017 27.4756 102.719C27.1773 102.416 27.0282 102.054 27.0282 101.632C27.0282 101.214 27.1773 100.857 27.4756 100.558C27.7782 100.26 28.1404 100.111 28.5623 100.111C28.9713 100.111 29.3293 100.26 29.6361 100.558C29.9429 100.857 30.0963 101.214 30.0963 101.632C30.0963 101.913 30.0239 102.171 29.879 102.406C29.7384 102.636 29.553 102.821 29.3229 102.962C29.0928 103.098 28.8392 103.166 28.5623 103.166ZM37.5236 103.166C37.1017 103.166 36.7395 103.017 36.4369 102.719C36.1386 102.416 35.9895 102.054 35.9895 101.632C35.9895 101.214 36.1386 100.857 36.4369 100.558C36.7395 100.26 37.1017 100.111 37.5236 100.111C37.9327 100.111 38.2906 100.26 38.5974 100.558C38.9043 100.857 39.0577 101.214 39.0577 101.632C39.0577 101.913 38.9852 102.171 38.8403 102.406C38.6997 102.636 38.5143 102.821 38.2842 102.962C38.0541 103.098 37.8006 103.166 37.5236 103.166ZM46.4849 103.166C46.063 103.166 45.7008 103.017 45.3983 102.719C45.1 102.416 44.9508 102.054 44.9508 101.632C44.9508 101.214 45.1 100.857 45.3983 100.558C45.7008 100.26 46.063 100.111 46.4849 100.111C46.894 100.111 47.252 100.26 47.5588 100.558C47.8656 100.857 48.019 101.214 48.019 101.632C48.019 101.913 47.9466 102.171 47.8017 102.406C47.661 102.636 47.4757 102.821 47.2456 102.962C47.0154 103.098 46.7619 103.166 46.4849 103.166ZM55.4462 103.166C55.0244 103.166 54.6621 103.017 54.3596 102.719C54.0613 102.416 53.9121 102.054 53.9121 101.632C53.9121 101.214 54.0613 100.857 54.3596 100.558C54.6621 100.26 55.0244 100.111 55.4462 100.111C55.8553 100.111 56.2133 100.26 56.5201 100.558C56.8269 100.857 56.9803 101.214 56.9803 101.632C56.9803 101.913 56.9079 102.171 56.763 102.406C56.6224 102.636 56.437 102.821 56.2069 102.962C55.9768 103.098 55.7232 103.166 55.4462 103.166ZM64.4076 103.166C63.9857 103.166 63.6235 103.017 63.3209 102.719C63.0226 102.416 62.8735 102.054 62.8735 101.632C62.8735 101.214 63.0226 100.857 63.3209 100.558C63.6235 100.26 63.9857 100.111 64.4076 100.111C64.8167 100.111 65.1746 100.26 65.4814 100.558C65.7882 100.857 65.9417 101.214 65.9417 101.632C65.9417 101.913 65.8692 102.171 65.7243 102.406C65.5837 102.636 65.3983 102.821 65.1682 102.962C64.9381 103.098 64.6846 103.166 64.4076 103.166ZM73.3689 103.166C72.947 103.166 72.5848 103.017 72.2822 102.719C71.984 102.416 71.8348 102.054 71.8348 101.632C71.8348 101.214 71.984 100.857 72.2822 100.558C72.5848 100.26 72.947 100.111 73.3689 100.111C73.778 100.111 74.1359 100.26 74.4428 100.558C74.7496 100.857 74.903 101.214 74.903 101.632C74.903 101.913 74.8305 102.171 74.6857 102.406C74.545 102.636 74.3597 102.821 74.1295 102.962C73.8994 103.098 73.6459 103.166 73.3689 103.166ZM82.3302 103.166C81.9083 103.166 81.5461 103.017 81.2436 102.719C80.9453 102.416 80.7961 102.054 80.7961 101.632C80.7961 101.214 80.9453 100.857 81.2436 100.558C81.5461 100.26 81.9083 100.111 82.3302 100.111C82.7393 100.111 83.0973 100.26 83.4041 100.558C83.7109 100.857 83.8643 101.214 83.8643 101.632C83.8643 101.913 83.7919 102.171 83.647 102.406C83.5064 102.636 83.321 102.821 83.0909 102.962C82.8608 103.098 82.6072 103.166 82.3302 103.166ZM91.2915 103.166C90.8697 103.166 90.5075 103.017 90.2049 102.719C89.9066 102.416 89.7575 102.054 89.7575 101.632C89.7575 101.214 89.9066 100.857 90.2049 100.558C90.5075 100.26 90.8697 100.111 91.2915 100.111C91.7006 100.111 92.0586 100.26 92.3654 100.558C92.6722 100.857 92.8256 101.214 92.8256 101.632C92.8256 101.913 92.7532 102.171 92.6083 102.406C92.4677 102.636 92.2823 102.821 92.0522 102.962C91.8221 103.098 91.5685 103.166 91.2915 103.166ZM100.253 103.166C99.831 103.166 99.4688 103.017 99.1662 102.719C98.8679 102.416 98.7188 102.054 98.7188 101.632C98.7188 101.214 98.8679 100.857 99.1662 100.558C99.4688 100.26 99.831 100.111 100.253 100.111C100.662 100.111 101.02 100.26 101.327 100.558C101.634 100.857 101.787 101.214 101.787 101.632C101.787 101.913 101.715 102.171 101.57 102.406C101.429 102.636 101.244 102.821 101.014 102.962C100.783 103.098 100.53 103.166 100.253 103.166ZM109.214 103.166C108.792 103.166 108.43 103.017 108.128 102.719C107.829 102.416 107.68 102.054 107.68 101.632C107.68 101.214 107.829 100.857 108.128 100.558C108.43 100.26 108.792 100.111 109.214 100.111C109.623 100.111 109.981 100.26 110.288 100.558C110.595 100.857 110.748 101.214 110.748 101.632C110.748 101.913 110.676 102.171 110.531 102.406C110.39 102.636 110.205 102.821 109.975 102.962C109.745 103.098 109.491 103.166 109.214 103.166ZM118.176 103.166C117.754 103.166 117.391 103.017 117.089 102.719C116.791 102.416 116.641 102.054 116.641 101.632C116.641 101.214 116.791 100.857 117.089 100.558C117.391 100.26 117.754 100.111 118.176 100.111C118.585 100.111 118.943 100.26 119.249 100.558C119.556 100.857 119.71 101.214 119.71 101.632C119.71 101.913 119.637 102.171 119.492 102.406C119.352 102.636 119.166 102.821 118.936 102.962C118.706 103.098 118.453 103.166 118.176 103.166ZM127.137 103.166C126.715 103.166 126.353 103.017 126.05 102.719C125.752 102.416 125.603 102.054 125.603 101.632C125.603 101.214 125.752 100.857 126.05 100.558C126.353 100.26 126.715 100.111 127.137 100.111C127.546 100.111 127.904 100.26 128.211 100.558C128.518 100.857 128.671 101.214 128.671 101.632C128.671 101.913 128.599 102.171 128.454 102.406C128.313 102.636 128.128 102.821 127.898 102.962C127.667 103.098 127.414 103.166 127.137 103.166ZM136.098 103.166C135.676 103.166 135.314 103.017 135.012 102.719C134.713 102.416 134.564 102.054 134.564 101.632C134.564 101.214 134.713 100.857 135.012 100.558C135.314 100.26 135.676 100.111 136.098 100.111C136.507 100.111 136.865 100.26 137.172 100.558C137.479 100.857 137.632 101.214 137.632 101.632C137.632 101.913 137.56 102.171 137.415 102.406C137.274 102.636 137.089 102.821 136.859 102.962C136.629 103.098 136.375 103.166 136.098 103.166ZM145.06 103.166C144.638 103.166 144.275 103.017 143.973 102.719C143.675 102.416 143.525 102.054 143.525 101.632C143.525 101.214 143.675 100.857 143.973 100.558C144.275 100.26 144.638 100.111 145.06 100.111C145.469 100.111 145.827 100.26 146.133 100.558C146.44 100.857 146.594 101.214 146.594 101.632C146.594 101.913 146.521 102.171 146.376 102.406C146.236 102.636 146.05 102.821 145.82 102.962C145.59 103.098 145.337 103.166 145.06 103.166ZM154.021 103.166C153.599 103.166 153.237 103.017 152.934 102.719C152.636 102.416 152.487 102.054 152.487 101.632C152.487 101.214 152.636 100.857 152.934 100.558C153.237 100.26 153.599 100.111 154.021 100.111C154.43 100.111 154.788 100.26 155.095 100.558C155.402 100.857 155.555 101.214 155.555 101.632C155.555 101.913 155.482 102.171 155.338 102.406C155.197 102.636 155.012 102.821 154.781 102.962C154.551 103.098 154.298 103.166 154.021 103.166ZM162.982 103.166C162.56 103.166 162.198 103.017 161.896 102.719C161.597 102.416 161.448 102.054 161.448 101.632C161.448 101.214 161.597 100.857 161.896 100.558C162.198 100.26 162.56 100.111 162.982 100.111C163.391 100.111 163.749 100.26 164.056 100.558C164.363 100.857 164.516 101.214 164.516 101.632C164.516 101.913 164.444 102.171 164.299 102.406C164.158 102.636 163.973 102.821 163.743 102.962C163.513 103.098 163.259 103.166 162.982 103.166ZM171.943 103.166C171.522 103.166 171.159 103.017 170.857 102.719C170.559 102.416 170.409 102.054 170.409 101.632C170.409 101.214 170.559 100.857 170.857 100.558C171.159 100.26 171.522 100.111 171.943 100.111C172.353 100.111 172.711 100.26 173.017 100.558C173.324 100.857 173.478 101.214 173.478 101.632C173.478 101.913 173.405 102.171 173.26 102.406C173.12 102.636 172.934 102.821 172.704 102.962C172.474 103.098 172.22 103.166 171.943 103.166ZM180.905 103.166C180.483 103.166 180.121 103.017 179.818 102.719C179.52 102.416 179.371 102.054 179.371 101.632C179.371 101.214 179.52 100.857 179.818 100.558C180.121 100.26 180.483 100.111 180.905 100.111C181.314 100.111 181.672 100.26 181.979 100.558C182.286 100.857 182.439 101.214 182.439 101.632C182.439 101.913 182.366 102.171 182.222 102.406C182.081 102.636 181.896 102.821 181.665 102.962C181.435 103.098 181.182 103.166 180.905 103.166Z" fill="black"/>
</svg>
