<svg width="29" height="29" viewBox="0 0 29 29" fill="none" xmlns="http://www.w3.org/2000/svg">
<path d="M13.0164 0.881348C5.84322 0.881348 0 6.52114 0 13.4446C0 20.3681 5.84322 26.0189 13.0164 26.0189C16.0803 26.0189 18.8981 24.9825 21.1252 23.2618L26.547 28.4922C26.8206 28.7453 27.1861 28.885 27.5651 28.8813C27.9441 28.8775 28.3065 28.7307 28.5747 28.4722C28.8429 28.2137 28.9955 27.8642 28.9999 27.4984C29.0043 27.1326 28.8601 26.7797 28.5982 26.5152L23.1764 21.2821C24.9606 19.1293 26.0356 16.4053 26.0356 13.4446C26.0356 6.52114 20.1896 0.881348 13.0164 0.881348ZM13.0164 3.67384C18.626 3.67384 23.1396 8.03033 23.1396 13.4446C23.1396 18.859 18.626 23.2264 13.0164 23.2264C7.40679 23.2264 2.89316 18.859 2.89316 13.4446C2.89316 8.03033 7.40679 3.67384 13.0164 3.67384Z" fill="white"/>
</svg>
