<svg width="207" height="274" viewBox="0 0 207 274" fill="none" xmlns="http://www.w3.org/2000/svg">
<path d="M15.6778 102.547L16.009 101.603L15.6778 102.547ZM188.15 133L187.218 133.362L188.15 133ZM187.246 273.428C187.482 273.927 188.078 274.14 188.577 273.904L196.713 270.055C197.212 269.819 197.425 269.222 197.189 268.723C196.953 268.224 196.356 268.011 195.857 268.247L188.626 271.668L185.204 264.437C184.968 263.938 184.372 263.725 183.873 263.961C183.373 264.197 183.16 264.793 183.396 265.292L187.246 273.428ZM165.533 0.444839C151.652 21.2422 127.478 51.2611 100.1 73.7121C86.412 84.9373 71.9617 94.2381 57.6309 99.5636C43.3057 104.887 29.1598 106.218 16.009 101.603L15.3467 103.49C29.0654 108.305 43.7105 106.87 58.3275 101.438C72.9389 96.0086 87.5822 86.5641 101.369 75.2586C128.94 52.6482 153.241 22.4645 167.197 1.55516L165.533 0.444839ZM16.009 101.603C7.66188 98.6738 3.76263 95.1902 2.82985 91.836C1.92065 88.5667 3.70501 84.8464 8.2881 81.0447C17.3997 73.4864 36.4016 66.6729 59.1233 64.3682C104.535 59.7621 163.854 73.2266 187.218 133.362L189.082 132.638C165.243 71.2801 104.739 57.7312 58.9215 62.3784C36.0289 64.7004 16.5651 71.5802 7.0112 79.5053C2.26156 83.4453 -0.336723 87.9141 0.902976 92.3719C2.11909 96.7448 6.9003 100.526 15.3467 103.49L16.009 101.603ZM187.218 133.362C206.046 181.823 206.762 214.512 202.465 236.079C200.316 246.866 196.907 254.899 193.85 260.761C192.32 263.695 190.877 266.086 189.71 268.026C188.57 269.922 187.628 271.488 187.208 272.663L189.091 273.337C189.428 272.396 190.233 271.038 191.424 269.057C192.59 267.119 194.062 264.68 195.623 261.685C198.751 255.69 202.233 247.477 204.426 236.47C208.813 214.451 208.016 181.371 189.082 132.638L187.218 133.362Z" fill="black"/>
</svg>
