<svg width="19" height="16" viewBox="0 0 19 16" fill="none" xmlns="http://www.w3.org/2000/svg">
<path d="M16.5312 8.38477C17.6706 8.38477 18.2402 8.99512 18.2402 10.2158V13.4873C18.2402 14.708 17.6706 15.3184 16.5312 15.3184H12.7227C11.5833 15.3184 11.0137 14.708 11.0137 13.4873V10.2158C11.0137 8.11621 11.152 6.3584 11.4287 4.94238C11.7054 3.51009 12.4134 2.35449 13.5527 1.47559C14.3828 0.84082 15.0339 0.775716 15.5059 1.28027L16.4336 2.28125C17.0195 2.89974 16.93 3.51009 16.165 4.1123C15.6442 4.51921 15.2943 5.04818 15.1152 5.69922C14.9362 6.35026 14.8467 7.24544 14.8467 8.38477H16.5312ZM6.27734 8.38477C7.41667 8.38477 7.98633 8.99512 7.98633 10.2158V13.4873C7.98633 14.708 7.41667 15.3184 6.27734 15.3184H2.46875C1.32943 15.3184 0.759766 14.708 0.759766 13.4873V10.2158C0.759766 8.11621 0.898112 6.3584 1.1748 4.94238C1.4515 3.51009 2.15951 2.35449 3.29883 1.47559C4.12891 0.84082 4.77995 0.775716 5.25195 1.28027L6.17969 2.28125C6.76562 2.89974 6.67611 3.51009 5.91113 4.1123C5.3903 4.51921 5.04036 5.04818 4.86133 5.69922C4.68229 6.35026 4.59277 7.24544 4.59277 8.38477H6.27734Z" fill="black"/>
</svg>
