<svg width="29" height="30" viewBox="0 0 29 30" fill="none" xmlns="http://www.w3.org/2000/svg">
<path d="M13.0164 0.84082C5.84322 0.84082 0 6.64779 0 13.7765C0 20.9052 5.84322 26.7235 13.0164 26.7235C16.0803 26.7235 18.8981 25.6564 21.1252 23.8847L26.547 29.2701C26.8206 29.5308 27.1861 29.6746 27.5651 29.6707C27.9441 29.6669 28.3065 29.5157 28.5747 29.2496C28.8429 28.9834 28.9955 28.6235 28.9999 28.2469C29.0043 27.8702 28.8601 27.5068 28.5982 27.2346L23.1764 21.8463C24.9606 19.6297 26.0356 16.8249 26.0356 13.7765C26.0356 6.64779 20.1896 0.84082 13.0164 0.84082ZM13.0164 3.71609C18.626 3.71609 23.1396 8.20172 23.1396 13.7765C23.1396 19.3513 18.626 23.8482 13.0164 23.8482C7.40679 23.8482 2.89316 19.3513 2.89316 13.7765C2.89316 8.20172 7.40679 3.71609 13.0164 3.71609Z" fill="black"/>
</svg>
