<svg width="1000" height="350" viewBox="0 0 1000 350" fill="none" xmlns="http://www.w3.org/2000/svg">
<rect width="1000" height="350" rx="30" fill="#F4FAFF"/>
<path d="M42.6783 192.166C42.2564 192.166 41.8942 192.017 41.5916 191.719C41.2933 191.416 41.1442 191.054 41.1442 190.632C41.1442 190.214 41.2933 189.857 41.5916 189.558C41.8942 189.26 42.2564 189.111 42.6783 189.111C43.0874 189.111 43.4453 189.26 43.7521 189.558C44.0589 189.857 44.2124 190.214 44.2124 190.632C44.2124 190.913 44.1399 191.171 43.995 191.406C43.8544 191.636 43.669 191.821 43.4389 191.962C43.2088 192.098 42.9553 192.166 42.6783 192.166ZM51.6396 192.166C51.2177 192.166 50.8555 192.017 50.5529 191.719C50.2547 191.416 50.1055 191.054 50.1055 190.632C50.1055 190.214 50.2547 189.857 50.5529 189.558C50.8555 189.26 51.2177 189.111 51.6396 189.111C52.0487 189.111 52.4066 189.26 52.7135 189.558C53.0203 189.857 53.1737 190.214 53.1737 190.632C53.1737 190.913 53.1012 191.171 52.9564 191.406C52.8157 191.636 52.6304 191.821 52.4002 191.962C52.1701 192.098 51.9166 192.166 51.6396 192.166ZM60.6009 192.166C60.179 192.166 59.8168 192.017 59.5143 191.719C59.216 191.416 59.0668 191.054 59.0668 190.632C59.0668 190.214 59.216 189.857 59.5143 189.558C59.8168 189.26 60.179 189.111 60.6009 189.111C61.01 189.111 61.368 189.26 61.6748 189.558C61.9816 189.857 62.135 190.214 62.135 190.632C62.135 190.913 62.0626 191.171 61.9177 191.406C61.7771 191.636 61.5917 191.821 61.3616 191.962C61.1315 192.098 60.8779 192.166 60.6009 192.166ZM69.5623 192.166C69.1404 192.166 68.7782 192.017 68.4756 191.719C68.1773 191.416 68.0282 191.054 68.0282 190.632C68.0282 190.214 68.1773 189.857 68.4756 189.558C68.7782 189.26 69.1404 189.111 69.5623 189.111C69.9713 189.111 70.3293 189.26 70.6361 189.558C70.9429 189.857 71.0963 190.214 71.0963 190.632C71.0963 190.913 71.0239 191.171 70.879 191.406C70.7384 191.636 70.553 191.821 70.3229 191.962C70.0928 192.098 69.8392 192.166 69.5623 192.166ZM78.5236 192.166C78.1017 192.166 77.7395 192.017 77.4369 191.719C77.1386 191.416 76.9895 191.054 76.9895 190.632C76.9895 190.214 77.1386 189.857 77.4369 189.558C77.7395 189.26 78.1017 189.111 78.5236 189.111C78.9327 189.111 79.2906 189.26 79.5974 189.558C79.9043 189.857 80.0577 190.214 80.0577 190.632C80.0577 190.913 79.9852 191.171 79.8403 191.406C79.6997 191.636 79.5143 191.821 79.2842 191.962C79.0541 192.098 78.8006 192.166 78.5236 192.166ZM87.4849 192.166C87.063 192.166 86.7008 192.017 86.3983 191.719C86.1 191.416 85.9508 191.054 85.9508 190.632C85.9508 190.214 86.1 189.857 86.3983 189.558C86.7008 189.26 87.063 189.111 87.4849 189.111C87.894 189.111 88.252 189.26 88.5588 189.558C88.8656 189.857 89.019 190.214 89.019 190.632C89.019 190.913 88.9466 191.171 88.8017 191.406C88.661 191.636 88.4757 191.821 88.2456 191.962C88.0154 192.098 87.7619 192.166 87.4849 192.166ZM96.4462 192.166C96.0244 192.166 95.6621 192.017 95.3596 191.719C95.0613 191.416 94.9121 191.054 94.9121 190.632C94.9121 190.214 95.0613 189.857 95.3596 189.558C95.6621 189.26 96.0244 189.111 96.4462 189.111C96.8553 189.111 97.2133 189.26 97.5201 189.558C97.8269 189.857 97.9803 190.214 97.9803 190.632C97.9803 190.913 97.9079 191.171 97.763 191.406C97.6224 191.636 97.437 191.821 97.2069 191.962C96.9768 192.098 96.7232 192.166 96.4462 192.166ZM105.408 192.166C104.986 192.166 104.623 192.017 104.321 191.719C104.023 191.416 103.873 191.054 103.873 190.632C103.873 190.214 104.023 189.857 104.321 189.558C104.623 189.26 104.986 189.111 105.408 189.111C105.817 189.111 106.175 189.26 106.481 189.558C106.788 189.857 106.942 190.214 106.942 190.632C106.942 190.913 106.869 191.171 106.724 191.406C106.584 191.636 106.398 191.821 106.168 191.962C105.938 192.098 105.685 192.166 105.408 192.166ZM114.369 192.166C113.947 192.166 113.585 192.017 113.282 191.719C112.984 191.416 112.835 191.054 112.835 190.632C112.835 190.214 112.984 189.857 113.282 189.558C113.585 189.26 113.947 189.111 114.369 189.111C114.778 189.111 115.136 189.26 115.443 189.558C115.75 189.857 115.903 190.214 115.903 190.632C115.903 190.913 115.831 191.171 115.686 191.406C115.545 191.636 115.36 191.821 115.13 191.962C114.899 192.098 114.646 192.166 114.369 192.166ZM123.33 192.166C122.908 192.166 122.546 192.017 122.244 191.719C121.945 191.416 121.796 191.054 121.796 190.632C121.796 190.214 121.945 189.857 122.244 189.558C122.546 189.26 122.908 189.111 123.33 189.111C123.739 189.111 124.097 189.26 124.404 189.558C124.711 189.857 124.864 190.214 124.864 190.632C124.864 190.913 124.792 191.171 124.647 191.406C124.506 191.636 124.321 191.821 124.091 191.962C123.861 192.098 123.607 192.166 123.33 192.166ZM132.292 192.166C131.87 192.166 131.507 192.017 131.205 191.719C130.907 191.416 130.757 191.054 130.757 190.632C130.757 190.214 130.907 189.857 131.205 189.558C131.507 189.26 131.87 189.111 132.292 189.111C132.701 189.111 133.059 189.26 133.365 189.558C133.672 189.857 133.826 190.214 133.826 190.632C133.826 190.913 133.753 191.171 133.608 191.406C133.468 191.636 133.282 191.821 133.052 191.962C132.822 192.098 132.569 192.166 132.292 192.166ZM141.253 192.166C140.831 192.166 140.469 192.017 140.166 191.719C139.868 191.416 139.719 191.054 139.719 190.632C139.719 190.214 139.868 189.857 140.166 189.558C140.469 189.26 140.831 189.111 141.253 189.111C141.662 189.111 142.02 189.26 142.327 189.558C142.634 189.857 142.787 190.214 142.787 190.632C142.787 190.913 142.715 191.171 142.57 191.406C142.429 191.636 142.244 191.821 142.014 191.962C141.783 192.098 141.53 192.166 141.253 192.166ZM150.214 192.166C149.792 192.166 149.43 192.017 149.128 191.719C148.829 191.416 148.68 191.054 148.68 190.632C148.68 190.214 148.829 189.857 149.128 189.558C149.43 189.26 149.792 189.111 150.214 189.111C150.623 189.111 150.981 189.26 151.288 189.558C151.595 189.857 151.748 190.214 151.748 190.632C151.748 190.913 151.676 191.171 151.531 191.406C151.39 191.636 151.205 191.821 150.975 191.962C150.745 192.098 150.491 192.166 150.214 192.166ZM159.176 192.166C158.754 192.166 158.391 192.017 158.089 191.719C157.791 191.416 157.641 191.054 157.641 190.632C157.641 190.214 157.791 189.857 158.089 189.558C158.391 189.26 158.754 189.111 159.176 189.111C159.585 189.111 159.943 189.26 160.249 189.558C160.556 189.857 160.71 190.214 160.71 190.632C160.71 190.913 160.637 191.171 160.492 191.406C160.352 191.636 160.166 191.821 159.936 191.962C159.706 192.098 159.453 192.166 159.176 192.166ZM168.137 192.166C167.715 192.166 167.353 192.017 167.05 191.719C166.752 191.416 166.603 191.054 166.603 190.632C166.603 190.214 166.752 189.857 167.05 189.558C167.353 189.26 167.715 189.111 168.137 189.111C168.546 189.111 168.904 189.26 169.211 189.558C169.518 189.857 169.671 190.214 169.671 190.632C169.671 190.913 169.599 191.171 169.454 191.406C169.313 191.636 169.128 191.821 168.898 191.962C168.667 192.098 168.414 192.166 168.137 192.166ZM177.098 192.166C176.676 192.166 176.314 192.017 176.012 191.719C175.713 191.416 175.564 191.054 175.564 190.632C175.564 190.214 175.713 189.857 176.012 189.558C176.314 189.26 176.676 189.111 177.098 189.111C177.507 189.111 177.865 189.26 178.172 189.558C178.479 189.857 178.632 190.214 178.632 190.632C178.632 190.913 178.56 191.171 178.415 191.406C178.274 191.636 178.089 191.821 177.859 191.962C177.629 192.098 177.375 192.166 177.098 192.166ZM186.06 192.166C185.638 192.166 185.275 192.017 184.973 191.719C184.675 191.416 184.525 191.054 184.525 190.632C184.525 190.214 184.675 189.857 184.973 189.558C185.275 189.26 185.638 189.111 186.06 189.111C186.469 189.111 186.827 189.26 187.133 189.558C187.44 189.857 187.594 190.214 187.594 190.632C187.594 190.913 187.521 191.171 187.376 191.406C187.236 191.636 187.05 191.821 186.82 191.962C186.59 192.098 186.337 192.166 186.06 192.166ZM195.021 192.166C194.599 192.166 194.237 192.017 193.934 191.719C193.636 191.416 193.487 191.054 193.487 190.632C193.487 190.214 193.636 189.857 193.934 189.558C194.237 189.26 194.599 189.111 195.021 189.111C195.43 189.111 195.788 189.26 196.095 189.558C196.402 189.857 196.555 190.214 196.555 190.632C196.555 190.913 196.482 191.171 196.338 191.406C196.197 191.636 196.012 191.821 195.781 191.962C195.551 192.098 195.298 192.166 195.021 192.166ZM203.982 192.166C203.56 192.166 203.198 192.017 202.896 191.719C202.597 191.416 202.448 191.054 202.448 190.632C202.448 190.214 202.597 189.857 202.896 189.558C203.198 189.26 203.56 189.111 203.982 189.111C204.391 189.111 204.749 189.26 205.056 189.558C205.363 189.857 205.516 190.214 205.516 190.632C205.516 190.913 205.444 191.171 205.299 191.406C205.158 191.636 204.973 191.821 204.743 191.962C204.513 192.098 204.259 192.166 203.982 192.166ZM212.943 192.166C212.522 192.166 212.159 192.017 211.857 191.719C211.559 191.416 211.409 191.054 211.409 190.632C211.409 190.214 211.559 189.857 211.857 189.558C212.159 189.26 212.522 189.111 212.943 189.111C213.353 189.111 213.711 189.26 214.017 189.558C214.324 189.857 214.478 190.214 214.478 190.632C214.478 190.913 214.405 191.171 214.26 191.406C214.12 191.636 213.934 191.821 213.704 191.962C213.474 192.098 213.22 192.166 212.943 192.166ZM221.905 192.166C221.483 192.166 221.121 192.017 220.818 191.719C220.52 191.416 220.371 191.054 220.371 190.632C220.371 190.214 220.52 189.857 220.818 189.558C221.121 189.26 221.483 189.111 221.905 189.111C222.314 189.111 222.672 189.26 222.979 189.558C223.286 189.857 223.439 190.214 223.439 190.632C223.439 190.913 223.366 191.171 223.222 191.406C223.081 191.636 222.896 191.821 222.665 191.962C222.435 192.098 222.182 192.166 221.905 192.166ZM42.6783 212.166C42.2564 212.166 41.8942 212.017 41.5916 211.719C41.2933 211.416 41.1442 211.054 41.1442 210.632C41.1442 210.214 41.2933 209.857 41.5916 209.558C41.8942 209.26 42.2564 209.111 42.6783 209.111C43.0874 209.111 43.4453 209.26 43.7521 209.558C44.0589 209.857 44.2124 210.214 44.2124 210.632C44.2124 210.913 44.1399 211.171 43.995 211.406C43.8544 211.636 43.669 211.821 43.4389 211.962C43.2088 212.098 42.9553 212.166 42.6783 212.166ZM51.6396 212.166C51.2177 212.166 50.8555 212.017 50.5529 211.719C50.2547 211.416 50.1055 211.054 50.1055 210.632C50.1055 210.214 50.2547 209.857 50.5529 209.558C50.8555 209.26 51.2177 209.111 51.6396 209.111C52.0487 209.111 52.4066 209.26 52.7135 209.558C53.0203 209.857 53.1737 210.214 53.1737 210.632C53.1737 210.913 53.1012 211.171 52.9564 211.406C52.8157 211.636 52.6304 211.821 52.4002 211.962C52.1701 212.098 51.9166 212.166 51.6396 212.166ZM60.6009 212.166C60.179 212.166 59.8168 212.017 59.5143 211.719C59.216 211.416 59.0668 211.054 59.0668 210.632C59.0668 210.214 59.216 209.857 59.5143 209.558C59.8168 209.26 60.179 209.111 60.6009 209.111C61.01 209.111 61.368 209.26 61.6748 209.558C61.9816 209.857 62.135 210.214 62.135 210.632C62.135 210.913 62.0626 211.171 61.9177 211.406C61.7771 211.636 61.5917 211.821 61.3616 211.962C61.1315 212.098 60.8779 212.166 60.6009 212.166ZM69.5623 212.166C69.1404 212.166 68.7782 212.017 68.4756 211.719C68.1773 211.416 68.0282 211.054 68.0282 210.632C68.0282 210.214 68.1773 209.857 68.4756 209.558C68.7782 209.26 69.1404 209.111 69.5623 209.111C69.9713 209.111 70.3293 209.26 70.6361 209.558C70.9429 209.857 71.0963 210.214 71.0963 210.632C71.0963 210.913 71.0239 211.171 70.879 211.406C70.7384 211.636 70.553 211.821 70.3229 211.962C70.0928 212.098 69.8392 212.166 69.5623 212.166ZM78.5236 212.166C78.1017 212.166 77.7395 212.017 77.4369 211.719C77.1386 211.416 76.9895 211.054 76.9895 210.632C76.9895 210.214 77.1386 209.857 77.4369 209.558C77.7395 209.26 78.1017 209.111 78.5236 209.111C78.9327 209.111 79.2906 209.26 79.5974 209.558C79.9043 209.857 80.0577 210.214 80.0577 210.632C80.0577 210.913 79.9852 211.171 79.8403 211.406C79.6997 211.636 79.5143 211.821 79.2842 211.962C79.0541 212.098 78.8006 212.166 78.5236 212.166ZM87.4849 212.166C87.063 212.166 86.7008 212.017 86.3983 211.719C86.1 211.416 85.9508 211.054 85.9508 210.632C85.9508 210.214 86.1 209.857 86.3983 209.558C86.7008 209.26 87.063 209.111 87.4849 209.111C87.894 209.111 88.252 209.26 88.5588 209.558C88.8656 209.857 89.019 210.214 89.019 210.632C89.019 210.913 88.9466 211.171 88.8017 211.406C88.661 211.636 88.4757 211.821 88.2456 211.962C88.0154 212.098 87.7619 212.166 87.4849 212.166ZM96.4462 212.166C96.0244 212.166 95.6621 212.017 95.3596 211.719C95.0613 211.416 94.9121 211.054 94.9121 210.632C94.9121 210.214 95.0613 209.857 95.3596 209.558C95.6621 209.26 96.0244 209.111 96.4462 209.111C96.8553 209.111 97.2133 209.26 97.5201 209.558C97.8269 209.857 97.9803 210.214 97.9803 210.632C97.9803 210.913 97.9079 211.171 97.763 211.406C97.6224 211.636 97.437 211.821 97.2069 211.962C96.9768 212.098 96.7232 212.166 96.4462 212.166ZM105.408 212.166C104.986 212.166 104.623 212.017 104.321 211.719C104.023 211.416 103.873 211.054 103.873 210.632C103.873 210.214 104.023 209.857 104.321 209.558C104.623 209.26 104.986 209.111 105.408 209.111C105.817 209.111 106.175 209.26 106.481 209.558C106.788 209.857 106.942 210.214 106.942 210.632C106.942 210.913 106.869 211.171 106.724 211.406C106.584 211.636 106.398 211.821 106.168 211.962C105.938 212.098 105.685 212.166 105.408 212.166ZM114.369 212.166C113.947 212.166 113.585 212.017 113.282 211.719C112.984 211.416 112.835 211.054 112.835 210.632C112.835 210.214 112.984 209.857 113.282 209.558C113.585 209.26 113.947 209.111 114.369 209.111C114.778 209.111 115.136 209.26 115.443 209.558C115.75 209.857 115.903 210.214 115.903 210.632C115.903 210.913 115.831 211.171 115.686 211.406C115.545 211.636 115.36 211.821 115.13 211.962C114.899 212.098 114.646 212.166 114.369 212.166ZM123.33 212.166C122.908 212.166 122.546 212.017 122.244 211.719C121.945 211.416 121.796 211.054 121.796 210.632C121.796 210.214 121.945 209.857 122.244 209.558C122.546 209.26 122.908 209.111 123.33 209.111C123.739 209.111 124.097 209.26 124.404 209.558C124.711 209.857 124.864 210.214 124.864 210.632C124.864 210.913 124.792 211.171 124.647 211.406C124.506 211.636 124.321 211.821 124.091 211.962C123.861 212.098 123.607 212.166 123.33 212.166ZM132.292 212.166C131.87 212.166 131.507 212.017 131.205 211.719C130.907 211.416 130.757 211.054 130.757 210.632C130.757 210.214 130.907 209.857 131.205 209.558C131.507 209.26 131.87 209.111 132.292 209.111C132.701 209.111 133.059 209.26 133.365 209.558C133.672 209.857 133.826 210.214 133.826 210.632C133.826 210.913 133.753 211.171 133.608 211.406C133.468 211.636 133.282 211.821 133.052 211.962C132.822 212.098 132.569 212.166 132.292 212.166ZM141.253 212.166C140.831 212.166 140.469 212.017 140.166 211.719C139.868 211.416 139.719 211.054 139.719 210.632C139.719 210.214 139.868 209.857 140.166 209.558C140.469 209.26 140.831 209.111 141.253 209.111C141.662 209.111 142.02 209.26 142.327 209.558C142.634 209.857 142.787 210.214 142.787 210.632C142.787 210.913 142.715 211.171 142.57 211.406C142.429 211.636 142.244 211.821 142.014 211.962C141.783 212.098 141.53 212.166 141.253 212.166ZM150.214 212.166C149.792 212.166 149.43 212.017 149.128 211.719C148.829 211.416 148.68 211.054 148.68 210.632C148.68 210.214 148.829 209.857 149.128 209.558C149.43 209.26 149.792 209.111 150.214 209.111C150.623 209.111 150.981 209.26 151.288 209.558C151.595 209.857 151.748 210.214 151.748 210.632C151.748 210.913 151.676 211.171 151.531 211.406C151.39 211.636 151.205 211.821 150.975 211.962C150.745 212.098 150.491 212.166 150.214 212.166ZM159.176 212.166C158.754 212.166 158.391 212.017 158.089 211.719C157.791 211.416 157.641 211.054 157.641 210.632C157.641 210.214 157.791 209.857 158.089 209.558C158.391 209.26 158.754 209.111 159.176 209.111C159.585 209.111 159.943 209.26 160.249 209.558C160.556 209.857 160.71 210.214 160.71 210.632C160.71 210.913 160.637 211.171 160.492 211.406C160.352 211.636 160.166 211.821 159.936 211.962C159.706 212.098 159.453 212.166 159.176 212.166ZM168.137 212.166C167.715 212.166 167.353 212.017 167.05 211.719C166.752 211.416 166.603 211.054 166.603 210.632C166.603 210.214 166.752 209.857 167.05 209.558C167.353 209.26 167.715 209.111 168.137 209.111C168.546 209.111 168.904 209.26 169.211 209.558C169.518 209.857 169.671 210.214 169.671 210.632C169.671 210.913 169.599 211.171 169.454 211.406C169.313 211.636 169.128 211.821 168.898 211.962C168.667 212.098 168.414 212.166 168.137 212.166ZM177.098 212.166C176.676 212.166 176.314 212.017 176.012 211.719C175.713 211.416 175.564 211.054 175.564 210.632C175.564 210.214 175.713 209.857 176.012 209.558C176.314 209.26 176.676 209.111 177.098 209.111C177.507 209.111 177.865 209.26 178.172 209.558C178.479 209.857 178.632 210.214 178.632 210.632C178.632 210.913 178.56 211.171 178.415 211.406C178.274 211.636 178.089 211.821 177.859 211.962C177.629 212.098 177.375 212.166 177.098 212.166ZM186.06 212.166C185.638 212.166 185.275 212.017 184.973 211.719C184.675 211.416 184.525 211.054 184.525 210.632C184.525 210.214 184.675 209.857 184.973 209.558C185.275 209.26 185.638 209.111 186.06 209.111C186.469 209.111 186.827 209.26 187.133 209.558C187.44 209.857 187.594 210.214 187.594 210.632C187.594 210.913 187.521 211.171 187.376 211.406C187.236 211.636 187.05 211.821 186.82 211.962C186.59 212.098 186.337 212.166 186.06 212.166ZM195.021 212.166C194.599 212.166 194.237 212.017 193.934 211.719C193.636 211.416 193.487 211.054 193.487 210.632C193.487 210.214 193.636 209.857 193.934 209.558C194.237 209.26 194.599 209.111 195.021 209.111C195.43 209.111 195.788 209.26 196.095 209.558C196.402 209.857 196.555 210.214 196.555 210.632C196.555 210.913 196.482 211.171 196.338 211.406C196.197 211.636 196.012 211.821 195.781 211.962C195.551 212.098 195.298 212.166 195.021 212.166ZM203.982 212.166C203.56 212.166 203.198 212.017 202.896 211.719C202.597 211.416 202.448 211.054 202.448 210.632C202.448 210.214 202.597 209.857 202.896 209.558C203.198 209.26 203.56 209.111 203.982 209.111C204.391 209.111 204.749 209.26 205.056 209.558C205.363 209.857 205.516 210.214 205.516 210.632C205.516 210.913 205.444 211.171 205.299 211.406C205.158 211.636 204.973 211.821 204.743 211.962C204.513 212.098 204.259 212.166 203.982 212.166ZM212.943 212.166C212.522 212.166 212.159 212.017 211.857 211.719C211.559 211.416 211.409 211.054 211.409 210.632C211.409 210.214 211.559 209.857 211.857 209.558C212.159 209.26 212.522 209.111 212.943 209.111C213.353 209.111 213.711 209.26 214.017 209.558C214.324 209.857 214.478 210.214 214.478 210.632C214.478 210.913 214.405 211.171 214.26 211.406C214.12 211.636 213.934 211.821 213.704 211.962C213.474 212.098 213.22 212.166 212.943 212.166ZM221.905 212.166C221.483 212.166 221.121 212.017 220.818 211.719C220.52 211.416 220.371 211.054 220.371 210.632C220.371 210.214 220.52 209.857 220.818 209.558C221.121 209.26 221.483 209.111 221.905 209.111C222.314 209.111 222.672 209.26 222.979 209.558C223.286 209.857 223.439 210.214 223.439 210.632C223.439 210.913 223.366 211.171 223.222 211.406C223.081 211.636 222.896 211.821 222.665 211.962C222.435 212.098 222.182 212.166 221.905 212.166ZM42.6783 232.166C42.2564 232.166 41.8942 232.017 41.5916 231.719C41.2933 231.416 41.1442 231.054 41.1442 230.632C41.1442 230.214 41.2933 229.857 41.5916 229.558C41.8942 229.26 42.2564 229.111 42.6783 229.111C43.0874 229.111 43.4453 229.26 43.7521 229.558C44.0589 229.857 44.2124 230.214 44.2124 230.632C44.2124 230.913 44.1399 231.171 43.995 231.406C43.8544 231.636 43.669 231.821 43.4389 231.962C43.2088 232.098 42.9553 232.166 42.6783 232.166ZM51.6396 232.166C51.2177 232.166 50.8555 232.017 50.5529 231.719C50.2547 231.416 50.1055 231.054 50.1055 230.632C50.1055 230.214 50.2547 229.857 50.5529 229.558C50.8555 229.26 51.2177 229.111 51.6396 229.111C52.0487 229.111 52.4066 229.26 52.7135 229.558C53.0203 229.857 53.1737 230.214 53.1737 230.632C53.1737 230.913 53.1012 231.171 52.9564 231.406C52.8157 231.636 52.6304 231.821 52.4002 231.962C52.1701 232.098 51.9166 232.166 51.6396 232.166ZM60.6009 232.166C60.179 232.166 59.8168 232.017 59.5143 231.719C59.216 231.416 59.0668 231.054 59.0668 230.632C59.0668 230.214 59.216 229.857 59.5143 229.558C59.8168 229.26 60.179 229.111 60.6009 229.111C61.01 229.111 61.368 229.26 61.6748 229.558C61.9816 229.857 62.135 230.214 62.135 230.632C62.135 230.913 62.0626 231.171 61.9177 231.406C61.7771 231.636 61.5917 231.821 61.3616 231.962C61.1315 232.098 60.8779 232.166 60.6009 232.166ZM69.5623 232.166C69.1404 232.166 68.7782 232.017 68.4756 231.719C68.1773 231.416 68.0282 231.054 68.0282 230.632C68.0282 230.214 68.1773 229.857 68.4756 229.558C68.7782 229.26 69.1404 229.111 69.5623 229.111C69.9713 229.111 70.3293 229.26 70.6361 229.558C70.9429 229.857 71.0963 230.214 71.0963 230.632C71.0963 230.913 71.0239 231.171 70.879 231.406C70.7384 231.636 70.553 231.821 70.3229 231.962C70.0928 232.098 69.8392 232.166 69.5623 232.166ZM78.5236 232.166C78.1017 232.166 77.7395 232.017 77.4369 231.719C77.1386 231.416 76.9895 231.054 76.9895 230.632C76.9895 230.214 77.1386 229.857 77.4369 229.558C77.7395 229.26 78.1017 229.111 78.5236 229.111C78.9327 229.111 79.2906 229.26 79.5974 229.558C79.9043 229.857 80.0577 230.214 80.0577 230.632C80.0577 230.913 79.9852 231.171 79.8403 231.406C79.6997 231.636 79.5143 231.821 79.2842 231.962C79.0541 232.098 78.8006 232.166 78.5236 232.166ZM87.4849 232.166C87.063 232.166 86.7008 232.017 86.3983 231.719C86.1 231.416 85.9508 231.054 85.9508 230.632C85.9508 230.214 86.1 229.857 86.3983 229.558C86.7008 229.26 87.063 229.111 87.4849 229.111C87.894 229.111 88.252 229.26 88.5588 229.558C88.8656 229.857 89.019 230.214 89.019 230.632C89.019 230.913 88.9466 231.171 88.8017 231.406C88.661 231.636 88.4757 231.821 88.2456 231.962C88.0154 232.098 87.7619 232.166 87.4849 232.166ZM96.4462 232.166C96.0244 232.166 95.6621 232.017 95.3596 231.719C95.0613 231.416 94.9121 231.054 94.9121 230.632C94.9121 230.214 95.0613 229.857 95.3596 229.558C95.6621 229.26 96.0244 229.111 96.4462 229.111C96.8553 229.111 97.2133 229.26 97.5201 229.558C97.8269 229.857 97.9803 230.214 97.9803 230.632C97.9803 230.913 97.9079 231.171 97.763 231.406C97.6224 231.636 97.437 231.821 97.2069 231.962C96.9768 232.098 96.7232 232.166 96.4462 232.166ZM105.408 232.166C104.986 232.166 104.623 232.017 104.321 231.719C104.023 231.416 103.873 231.054 103.873 230.632C103.873 230.214 104.023 229.857 104.321 229.558C104.623 229.26 104.986 229.111 105.408 229.111C105.817 229.111 106.175 229.26 106.481 229.558C106.788 229.857 106.942 230.214 106.942 230.632C106.942 230.913 106.869 231.171 106.724 231.406C106.584 231.636 106.398 231.821 106.168 231.962C105.938 232.098 105.685 232.166 105.408 232.166ZM114.369 232.166C113.947 232.166 113.585 232.017 113.282 231.719C112.984 231.416 112.835 231.054 112.835 230.632C112.835 230.214 112.984 229.857 113.282 229.558C113.585 229.26 113.947 229.111 114.369 229.111C114.778 229.111 115.136 229.26 115.443 229.558C115.75 229.857 115.903 230.214 115.903 230.632C115.903 230.913 115.831 231.171 115.686 231.406C115.545 231.636 115.36 231.821 115.13 231.962C114.899 232.098 114.646 232.166 114.369 232.166ZM123.33 232.166C122.908 232.166 122.546 232.017 122.244 231.719C121.945 231.416 121.796 231.054 121.796 230.632C121.796 230.214 121.945 229.857 122.244 229.558C122.546 229.26 122.908 229.111 123.33 229.111C123.739 229.111 124.097 229.26 124.404 229.558C124.711 229.857 124.864 230.214 124.864 230.632C124.864 230.913 124.792 231.171 124.647 231.406C124.506 231.636 124.321 231.821 124.091 231.962C123.861 232.098 123.607 232.166 123.33 232.166ZM132.292 232.166C131.87 232.166 131.507 232.017 131.205 231.719C130.907 231.416 130.757 231.054 130.757 230.632C130.757 230.214 130.907 229.857 131.205 229.558C131.507 229.26 131.87 229.111 132.292 229.111C132.701 229.111 133.059 229.26 133.365 229.558C133.672 229.857 133.826 230.214 133.826 230.632C133.826 230.913 133.753 231.171 133.608 231.406C133.468 231.636 133.282 231.821 133.052 231.962C132.822 232.098 132.569 232.166 132.292 232.166ZM141.253 232.166C140.831 232.166 140.469 232.017 140.166 231.719C139.868 231.416 139.719 231.054 139.719 230.632C139.719 230.214 139.868 229.857 140.166 229.558C140.469 229.26 140.831 229.111 141.253 229.111C141.662 229.111 142.02 229.26 142.327 229.558C142.634 229.857 142.787 230.214 142.787 230.632C142.787 230.913 142.715 231.171 142.57 231.406C142.429 231.636 142.244 231.821 142.014 231.962C141.783 232.098 141.53 232.166 141.253 232.166ZM150.214 232.166C149.792 232.166 149.43 232.017 149.128 231.719C148.829 231.416 148.68 231.054 148.68 230.632C148.68 230.214 148.829 229.857 149.128 229.558C149.43 229.26 149.792 229.111 150.214 229.111C150.623 229.111 150.981 229.26 151.288 229.558C151.595 229.857 151.748 230.214 151.748 230.632C151.748 230.913 151.676 231.171 151.531 231.406C151.39 231.636 151.205 231.821 150.975 231.962C150.745 232.098 150.491 232.166 150.214 232.166ZM159.176 232.166C158.754 232.166 158.391 232.017 158.089 231.719C157.791 231.416 157.641 231.054 157.641 230.632C157.641 230.214 157.791 229.857 158.089 229.558C158.391 229.26 158.754 229.111 159.176 229.111C159.585 229.111 159.943 229.26 160.249 229.558C160.556 229.857 160.71 230.214 160.71 230.632C160.71 230.913 160.637 231.171 160.492 231.406C160.352 231.636 160.166 231.821 159.936 231.962C159.706 232.098 159.453 232.166 159.176 232.166ZM168.137 232.166C167.715 232.166 167.353 232.017 167.05 231.719C166.752 231.416 166.603 231.054 166.603 230.632C166.603 230.214 166.752 229.857 167.05 229.558C167.353 229.26 167.715 229.111 168.137 229.111C168.546 229.111 168.904 229.26 169.211 229.558C169.518 229.857 169.671 230.214 169.671 230.632C169.671 230.913 169.599 231.171 169.454 231.406C169.313 231.636 169.128 231.821 168.898 231.962C168.667 232.098 168.414 232.166 168.137 232.166ZM177.098 232.166C176.676 232.166 176.314 232.017 176.012 231.719C175.713 231.416 175.564 231.054 175.564 230.632C175.564 230.214 175.713 229.857 176.012 229.558C176.314 229.26 176.676 229.111 177.098 229.111C177.507 229.111 177.865 229.26 178.172 229.558C178.479 229.857 178.632 230.214 178.632 230.632C178.632 230.913 178.56 231.171 178.415 231.406C178.274 231.636 178.089 231.821 177.859 231.962C177.629 232.098 177.375 232.166 177.098 232.166ZM186.06 232.166C185.638 232.166 185.275 232.017 184.973 231.719C184.675 231.416 184.525 231.054 184.525 230.632C184.525 230.214 184.675 229.857 184.973 229.558C185.275 229.26 185.638 229.111 186.06 229.111C186.469 229.111 186.827 229.26 187.133 229.558C187.44 229.857 187.594 230.214 187.594 230.632C187.594 230.913 187.521 231.171 187.376 231.406C187.236 231.636 187.05 231.821 186.82 231.962C186.59 232.098 186.337 232.166 186.06 232.166ZM195.021 232.166C194.599 232.166 194.237 232.017 193.934 231.719C193.636 231.416 193.487 231.054 193.487 230.632C193.487 230.214 193.636 229.857 193.934 229.558C194.237 229.26 194.599 229.111 195.021 229.111C195.43 229.111 195.788 229.26 196.095 229.558C196.402 229.857 196.555 230.214 196.555 230.632C196.555 230.913 196.482 231.171 196.338 231.406C196.197 231.636 196.012 231.821 195.781 231.962C195.551 232.098 195.298 232.166 195.021 232.166ZM203.982 232.166C203.56 232.166 203.198 232.017 202.896 231.719C202.597 231.416 202.448 231.054 202.448 230.632C202.448 230.214 202.597 229.857 202.896 229.558C203.198 229.26 203.56 229.111 203.982 229.111C204.391 229.111 204.749 229.26 205.056 229.558C205.363 229.857 205.516 230.214 205.516 230.632C205.516 230.913 205.444 231.171 205.299 231.406C205.158 231.636 204.973 231.821 204.743 231.962C204.513 232.098 204.259 232.166 203.982 232.166ZM212.943 232.166C212.522 232.166 212.159 232.017 211.857 231.719C211.559 231.416 211.409 231.054 211.409 230.632C211.409 230.214 211.559 229.857 211.857 229.558C212.159 229.26 212.522 229.111 212.943 229.111C213.353 229.111 213.711 229.26 214.017 229.558C214.324 229.857 214.478 230.214 214.478 230.632C214.478 230.913 214.405 231.171 214.26 231.406C214.12 231.636 213.934 231.821 213.704 231.962C213.474 232.098 213.22 232.166 212.943 232.166ZM221.905 232.166C221.483 232.166 221.121 232.017 220.818 231.719C220.52 231.416 220.371 231.054 220.371 230.632C220.371 230.214 220.52 229.857 220.818 229.558C221.121 229.26 221.483 229.111 221.905 229.111C222.314 229.111 222.672 229.26 222.979 229.558C223.286 229.857 223.439 230.214 223.439 230.632C223.439 230.913 223.366 231.171 223.222 231.406C223.081 231.636 222.896 231.821 222.665 231.962C222.435 232.098 222.182 232.166 221.905 232.166ZM42.6783 252.166C42.2564 252.166 41.8942 252.017 41.5916 251.719C41.2933 251.416 41.1442 251.054 41.1442 250.632C41.1442 250.214 41.2933 249.857 41.5916 249.558C41.8942 249.26 42.2564 249.111 42.6783 249.111C43.0874 249.111 43.4453 249.26 43.7521 249.558C44.0589 249.857 44.2124 250.214 44.2124 250.632C44.2124 250.913 44.1399 251.171 43.995 251.406C43.8544 251.636 43.669 251.821 43.4389 251.962C43.2088 252.098 42.9553 252.166 42.6783 252.166ZM51.6396 252.166C51.2177 252.166 50.8555 252.017 50.5529 251.719C50.2547 251.416 50.1055 251.054 50.1055 250.632C50.1055 250.214 50.2547 249.857 50.5529 249.558C50.8555 249.26 51.2177 249.111 51.6396 249.111C52.0487 249.111 52.4066 249.26 52.7135 249.558C53.0203 249.857 53.1737 250.214 53.1737 250.632C53.1737 250.913 53.1012 251.171 52.9564 251.406C52.8157 251.636 52.6304 251.821 52.4002 251.962C52.1701 252.098 51.9166 252.166 51.6396 252.166ZM60.6009 252.166C60.179 252.166 59.8168 252.017 59.5143 251.719C59.216 251.416 59.0668 251.054 59.0668 250.632C59.0668 250.214 59.216 249.857 59.5143 249.558C59.8168 249.26 60.179 249.111 60.6009 249.111C61.01 249.111 61.368 249.26 61.6748 249.558C61.9816 249.857 62.135 250.214 62.135 250.632C62.135 250.913 62.0626 251.171 61.9177 251.406C61.7771 251.636 61.5917 251.821 61.3616 251.962C61.1315 252.098 60.8779 252.166 60.6009 252.166ZM69.5623 252.166C69.1404 252.166 68.7782 252.017 68.4756 251.719C68.1773 251.416 68.0282 251.054 68.0282 250.632C68.0282 250.214 68.1773 249.857 68.4756 249.558C68.7782 249.26 69.1404 249.111 69.5623 249.111C69.9713 249.111 70.3293 249.26 70.6361 249.558C70.9429 249.857 71.0963 250.214 71.0963 250.632C71.0963 250.913 71.0239 251.171 70.879 251.406C70.7384 251.636 70.553 251.821 70.3229 251.962C70.0928 252.098 69.8392 252.166 69.5623 252.166ZM78.5236 252.166C78.1017 252.166 77.7395 252.017 77.4369 251.719C77.1386 251.416 76.9895 251.054 76.9895 250.632C76.9895 250.214 77.1386 249.857 77.4369 249.558C77.7395 249.26 78.1017 249.111 78.5236 249.111C78.9327 249.111 79.2906 249.26 79.5974 249.558C79.9043 249.857 80.0577 250.214 80.0577 250.632C80.0577 250.913 79.9852 251.171 79.8403 251.406C79.6997 251.636 79.5143 251.821 79.2842 251.962C79.0541 252.098 78.8006 252.166 78.5236 252.166ZM87.4849 252.166C87.063 252.166 86.7008 252.017 86.3983 251.719C86.1 251.416 85.9508 251.054 85.9508 250.632C85.9508 250.214 86.1 249.857 86.3983 249.558C86.7008 249.26 87.063 249.111 87.4849 249.111C87.894 249.111 88.252 249.26 88.5588 249.558C88.8656 249.857 89.019 250.214 89.019 250.632C89.019 250.913 88.9466 251.171 88.8017 251.406C88.661 251.636 88.4757 251.821 88.2456 251.962C88.0154 252.098 87.7619 252.166 87.4849 252.166ZM96.4462 252.166C96.0244 252.166 95.6621 252.017 95.3596 251.719C95.0613 251.416 94.9121 251.054 94.9121 250.632C94.9121 250.214 95.0613 249.857 95.3596 249.558C95.6621 249.26 96.0244 249.111 96.4462 249.111C96.8553 249.111 97.2133 249.26 97.5201 249.558C97.8269 249.857 97.9803 250.214 97.9803 250.632C97.9803 250.913 97.9079 251.171 97.763 251.406C97.6224 251.636 97.437 251.821 97.2069 251.962C96.9768 252.098 96.7232 252.166 96.4462 252.166ZM105.408 252.166C104.986 252.166 104.623 252.017 104.321 251.719C104.023 251.416 103.873 251.054 103.873 250.632C103.873 250.214 104.023 249.857 104.321 249.558C104.623 249.26 104.986 249.111 105.408 249.111C105.817 249.111 106.175 249.26 106.481 249.558C106.788 249.857 106.942 250.214 106.942 250.632C106.942 250.913 106.869 251.171 106.724 251.406C106.584 251.636 106.398 251.821 106.168 251.962C105.938 252.098 105.685 252.166 105.408 252.166ZM114.369 252.166C113.947 252.166 113.585 252.017 113.282 251.719C112.984 251.416 112.835 251.054 112.835 250.632C112.835 250.214 112.984 249.857 113.282 249.558C113.585 249.26 113.947 249.111 114.369 249.111C114.778 249.111 115.136 249.26 115.443 249.558C115.75 249.857 115.903 250.214 115.903 250.632C115.903 250.913 115.831 251.171 115.686 251.406C115.545 251.636 115.36 251.821 115.13 251.962C114.899 252.098 114.646 252.166 114.369 252.166ZM123.33 252.166C122.908 252.166 122.546 252.017 122.244 251.719C121.945 251.416 121.796 251.054 121.796 250.632C121.796 250.214 121.945 249.857 122.244 249.558C122.546 249.26 122.908 249.111 123.33 249.111C123.739 249.111 124.097 249.26 124.404 249.558C124.711 249.857 124.864 250.214 124.864 250.632C124.864 250.913 124.792 251.171 124.647 251.406C124.506 251.636 124.321 251.821 124.091 251.962C123.861 252.098 123.607 252.166 123.33 252.166ZM132.292 252.166C131.87 252.166 131.507 252.017 131.205 251.719C130.907 251.416 130.757 251.054 130.757 250.632C130.757 250.214 130.907 249.857 131.205 249.558C131.507 249.26 131.87 249.111 132.292 249.111C132.701 249.111 133.059 249.26 133.365 249.558C133.672 249.857 133.826 250.214 133.826 250.632C133.826 250.913 133.753 251.171 133.608 251.406C133.468 251.636 133.282 251.821 133.052 251.962C132.822 252.098 132.569 252.166 132.292 252.166ZM141.253 252.166C140.831 252.166 140.469 252.017 140.166 251.719C139.868 251.416 139.719 251.054 139.719 250.632C139.719 250.214 139.868 249.857 140.166 249.558C140.469 249.26 140.831 249.111 141.253 249.111C141.662 249.111 142.02 249.26 142.327 249.558C142.634 249.857 142.787 250.214 142.787 250.632C142.787 250.913 142.715 251.171 142.57 251.406C142.429 251.636 142.244 251.821 142.014 251.962C141.783 252.098 141.53 252.166 141.253 252.166ZM150.214 252.166C149.792 252.166 149.43 252.017 149.128 251.719C148.829 251.416 148.68 251.054 148.68 250.632C148.68 250.214 148.829 249.857 149.128 249.558C149.43 249.26 149.792 249.111 150.214 249.111C150.623 249.111 150.981 249.26 151.288 249.558C151.595 249.857 151.748 250.214 151.748 250.632C151.748 250.913 151.676 251.171 151.531 251.406C151.39 251.636 151.205 251.821 150.975 251.962C150.745 252.098 150.491 252.166 150.214 252.166ZM159.176 252.166C158.754 252.166 158.391 252.017 158.089 251.719C157.791 251.416 157.641 251.054 157.641 250.632C157.641 250.214 157.791 249.857 158.089 249.558C158.391 249.26 158.754 249.111 159.176 249.111C159.585 249.111 159.943 249.26 160.249 249.558C160.556 249.857 160.71 250.214 160.71 250.632C160.71 250.913 160.637 251.171 160.492 251.406C160.352 251.636 160.166 251.821 159.936 251.962C159.706 252.098 159.453 252.166 159.176 252.166ZM168.137 252.166C167.715 252.166 167.353 252.017 167.05 251.719C166.752 251.416 166.603 251.054 166.603 250.632C166.603 250.214 166.752 249.857 167.05 249.558C167.353 249.26 167.715 249.111 168.137 249.111C168.546 249.111 168.904 249.26 169.211 249.558C169.518 249.857 169.671 250.214 169.671 250.632C169.671 250.913 169.599 251.171 169.454 251.406C169.313 251.636 169.128 251.821 168.898 251.962C168.667 252.098 168.414 252.166 168.137 252.166ZM177.098 252.166C176.676 252.166 176.314 252.017 176.012 251.719C175.713 251.416 175.564 251.054 175.564 250.632C175.564 250.214 175.713 249.857 176.012 249.558C176.314 249.26 176.676 249.111 177.098 249.111C177.507 249.111 177.865 249.26 178.172 249.558C178.479 249.857 178.632 250.214 178.632 250.632C178.632 250.913 178.56 251.171 178.415 251.406C178.274 251.636 178.089 251.821 177.859 251.962C177.629 252.098 177.375 252.166 177.098 252.166ZM186.06 252.166C185.638 252.166 185.275 252.017 184.973 251.719C184.675 251.416 184.525 251.054 184.525 250.632C184.525 250.214 184.675 249.857 184.973 249.558C185.275 249.26 185.638 249.111 186.06 249.111C186.469 249.111 186.827 249.26 187.133 249.558C187.44 249.857 187.594 250.214 187.594 250.632C187.594 250.913 187.521 251.171 187.376 251.406C187.236 251.636 187.05 251.821 186.82 251.962C186.59 252.098 186.337 252.166 186.06 252.166ZM195.021 252.166C194.599 252.166 194.237 252.017 193.934 251.719C193.636 251.416 193.487 251.054 193.487 250.632C193.487 250.214 193.636 249.857 193.934 249.558C194.237 249.26 194.599 249.111 195.021 249.111C195.43 249.111 195.788 249.26 196.095 249.558C196.402 249.857 196.555 250.214 196.555 250.632C196.555 250.913 196.482 251.171 196.338 251.406C196.197 251.636 196.012 251.821 195.781 251.962C195.551 252.098 195.298 252.166 195.021 252.166ZM203.982 252.166C203.56 252.166 203.198 252.017 202.896 251.719C202.597 251.416 202.448 251.054 202.448 250.632C202.448 250.214 202.597 249.857 202.896 249.558C203.198 249.26 203.56 249.111 203.982 249.111C204.391 249.111 204.749 249.26 205.056 249.558C205.363 249.857 205.516 250.214 205.516 250.632C205.516 250.913 205.444 251.171 205.299 251.406C205.158 251.636 204.973 251.821 204.743 251.962C204.513 252.098 204.259 252.166 203.982 252.166ZM212.943 252.166C212.522 252.166 212.159 252.017 211.857 251.719C211.559 251.416 211.409 251.054 211.409 250.632C211.409 250.214 211.559 249.857 211.857 249.558C212.159 249.26 212.522 249.111 212.943 249.111C213.353 249.111 213.711 249.26 214.017 249.558C214.324 249.857 214.478 250.214 214.478 250.632C214.478 250.913 214.405 251.171 214.26 251.406C214.12 251.636 213.934 251.821 213.704 251.962C213.474 252.098 213.22 252.166 212.943 252.166ZM221.905 252.166C221.483 252.166 221.121 252.017 220.818 251.719C220.52 251.416 220.371 251.054 220.371 250.632C220.371 250.214 220.52 249.857 220.818 249.558C221.121 249.26 221.483 249.111 221.905 249.111C222.314 249.111 222.672 249.26 222.979 249.558C223.286 249.857 223.439 250.214 223.439 250.632C223.439 250.913 223.366 251.171 223.222 251.406C223.081 251.636 222.896 251.821 222.665 251.962C222.435 252.098 222.182 252.166 221.905 252.166ZM42.6783 272.166C42.2564 272.166 41.8942 272.017 41.5916 271.719C41.2933 271.416 41.1442 271.054 41.1442 270.632C41.1442 270.214 41.2933 269.857 41.5916 269.558C41.8942 269.26 42.2564 269.111 42.6783 269.111C43.0874 269.111 43.4453 269.26 43.7521 269.558C44.0589 269.857 44.2124 270.214 44.2124 270.632C44.2124 270.913 44.1399 271.171 43.995 271.406C43.8544 271.636 43.669 271.821 43.4389 271.962C43.2088 272.098 42.9553 272.166 42.6783 272.166ZM51.6396 272.166C51.2177 272.166 50.8555 272.017 50.5529 271.719C50.2547 271.416 50.1055 271.054 50.1055 270.632C50.1055 270.214 50.2547 269.857 50.5529 269.558C50.8555 269.26 51.2177 269.111 51.6396 269.111C52.0487 269.111 52.4066 269.26 52.7135 269.558C53.0203 269.857 53.1737 270.214 53.1737 270.632C53.1737 270.913 53.1012 271.171 52.9564 271.406C52.8157 271.636 52.6304 271.821 52.4002 271.962C52.1701 272.098 51.9166 272.166 51.6396 272.166ZM60.6009 272.166C60.179 272.166 59.8168 272.017 59.5143 271.719C59.216 271.416 59.0668 271.054 59.0668 270.632C59.0668 270.214 59.216 269.857 59.5143 269.558C59.8168 269.26 60.179 269.111 60.6009 269.111C61.01 269.111 61.368 269.26 61.6748 269.558C61.9816 269.857 62.135 270.214 62.135 270.632C62.135 270.913 62.0626 271.171 61.9177 271.406C61.7771 271.636 61.5917 271.821 61.3616 271.962C61.1315 272.098 60.8779 272.166 60.6009 272.166ZM69.5623 272.166C69.1404 272.166 68.7782 272.017 68.4756 271.719C68.1773 271.416 68.0282 271.054 68.0282 270.632C68.0282 270.214 68.1773 269.857 68.4756 269.558C68.7782 269.26 69.1404 269.111 69.5623 269.111C69.9713 269.111 70.3293 269.26 70.6361 269.558C70.9429 269.857 71.0963 270.214 71.0963 270.632C71.0963 270.913 71.0239 271.171 70.879 271.406C70.7384 271.636 70.553 271.821 70.3229 271.962C70.0928 272.098 69.8392 272.166 69.5623 272.166ZM78.5236 272.166C78.1017 272.166 77.7395 272.017 77.4369 271.719C77.1386 271.416 76.9895 271.054 76.9895 270.632C76.9895 270.214 77.1386 269.857 77.4369 269.558C77.7395 269.26 78.1017 269.111 78.5236 269.111C78.9327 269.111 79.2906 269.26 79.5974 269.558C79.9043 269.857 80.0577 270.214 80.0577 270.632C80.0577 270.913 79.9852 271.171 79.8403 271.406C79.6997 271.636 79.5143 271.821 79.2842 271.962C79.0541 272.098 78.8006 272.166 78.5236 272.166ZM87.4849 272.166C87.063 272.166 86.7008 272.017 86.3983 271.719C86.1 271.416 85.9508 271.054 85.9508 270.632C85.9508 270.214 86.1 269.857 86.3983 269.558C86.7008 269.26 87.063 269.111 87.4849 269.111C87.894 269.111 88.252 269.26 88.5588 269.558C88.8656 269.857 89.019 270.214 89.019 270.632C89.019 270.913 88.9466 271.171 88.8017 271.406C88.661 271.636 88.4757 271.821 88.2456 271.962C88.0154 272.098 87.7619 272.166 87.4849 272.166ZM96.4462 272.166C96.0244 272.166 95.6621 272.017 95.3596 271.719C95.0613 271.416 94.9121 271.054 94.9121 270.632C94.9121 270.214 95.0613 269.857 95.3596 269.558C95.6621 269.26 96.0244 269.111 96.4462 269.111C96.8553 269.111 97.2133 269.26 97.5201 269.558C97.8269 269.857 97.9803 270.214 97.9803 270.632C97.9803 270.913 97.9079 271.171 97.763 271.406C97.6224 271.636 97.437 271.821 97.2069 271.962C96.9768 272.098 96.7232 272.166 96.4462 272.166ZM105.408 272.166C104.986 272.166 104.623 272.017 104.321 271.719C104.023 271.416 103.873 271.054 103.873 270.632C103.873 270.214 104.023 269.857 104.321 269.558C104.623 269.26 104.986 269.111 105.408 269.111C105.817 269.111 106.175 269.26 106.481 269.558C106.788 269.857 106.942 270.214 106.942 270.632C106.942 270.913 106.869 271.171 106.724 271.406C106.584 271.636 106.398 271.821 106.168 271.962C105.938 272.098 105.685 272.166 105.408 272.166ZM114.369 272.166C113.947 272.166 113.585 272.017 113.282 271.719C112.984 271.416 112.835 271.054 112.835 270.632C112.835 270.214 112.984 269.857 113.282 269.558C113.585 269.26 113.947 269.111 114.369 269.111C114.778 269.111 115.136 269.26 115.443 269.558C115.75 269.857 115.903 270.214 115.903 270.632C115.903 270.913 115.831 271.171 115.686 271.406C115.545 271.636 115.36 271.821 115.13 271.962C114.899 272.098 114.646 272.166 114.369 272.166ZM123.33 272.166C122.908 272.166 122.546 272.017 122.244 271.719C121.945 271.416 121.796 271.054 121.796 270.632C121.796 270.214 121.945 269.857 122.244 269.558C122.546 269.26 122.908 269.111 123.33 269.111C123.739 269.111 124.097 269.26 124.404 269.558C124.711 269.857 124.864 270.214 124.864 270.632C124.864 270.913 124.792 271.171 124.647 271.406C124.506 271.636 124.321 271.821 124.091 271.962C123.861 272.098 123.607 272.166 123.33 272.166ZM132.292 272.166C131.87 272.166 131.507 272.017 131.205 271.719C130.907 271.416 130.757 271.054 130.757 270.632C130.757 270.214 130.907 269.857 131.205 269.558C131.507 269.26 131.87 269.111 132.292 269.111C132.701 269.111 133.059 269.26 133.365 269.558C133.672 269.857 133.826 270.214 133.826 270.632C133.826 270.913 133.753 271.171 133.608 271.406C133.468 271.636 133.282 271.821 133.052 271.962C132.822 272.098 132.569 272.166 132.292 272.166ZM141.253 272.166C140.831 272.166 140.469 272.017 140.166 271.719C139.868 271.416 139.719 271.054 139.719 270.632C139.719 270.214 139.868 269.857 140.166 269.558C140.469 269.26 140.831 269.111 141.253 269.111C141.662 269.111 142.02 269.26 142.327 269.558C142.634 269.857 142.787 270.214 142.787 270.632C142.787 270.913 142.715 271.171 142.57 271.406C142.429 271.636 142.244 271.821 142.014 271.962C141.783 272.098 141.53 272.166 141.253 272.166ZM150.214 272.166C149.792 272.166 149.43 272.017 149.128 271.719C148.829 271.416 148.68 271.054 148.68 270.632C148.68 270.214 148.829 269.857 149.128 269.558C149.43 269.26 149.792 269.111 150.214 269.111C150.623 269.111 150.981 269.26 151.288 269.558C151.595 269.857 151.748 270.214 151.748 270.632C151.748 270.913 151.676 271.171 151.531 271.406C151.39 271.636 151.205 271.821 150.975 271.962C150.745 272.098 150.491 272.166 150.214 272.166ZM159.176 272.166C158.754 272.166 158.391 272.017 158.089 271.719C157.791 271.416 157.641 271.054 157.641 270.632C157.641 270.214 157.791 269.857 158.089 269.558C158.391 269.26 158.754 269.111 159.176 269.111C159.585 269.111 159.943 269.26 160.249 269.558C160.556 269.857 160.71 270.214 160.71 270.632C160.71 270.913 160.637 271.171 160.492 271.406C160.352 271.636 160.166 271.821 159.936 271.962C159.706 272.098 159.453 272.166 159.176 272.166ZM168.137 272.166C167.715 272.166 167.353 272.017 167.05 271.719C166.752 271.416 166.603 271.054 166.603 270.632C166.603 270.214 166.752 269.857 167.05 269.558C167.353 269.26 167.715 269.111 168.137 269.111C168.546 269.111 168.904 269.26 169.211 269.558C169.518 269.857 169.671 270.214 169.671 270.632C169.671 270.913 169.599 271.171 169.454 271.406C169.313 271.636 169.128 271.821 168.898 271.962C168.667 272.098 168.414 272.166 168.137 272.166ZM177.098 272.166C176.676 272.166 176.314 272.017 176.012 271.719C175.713 271.416 175.564 271.054 175.564 270.632C175.564 270.214 175.713 269.857 176.012 269.558C176.314 269.26 176.676 269.111 177.098 269.111C177.507 269.111 177.865 269.26 178.172 269.558C178.479 269.857 178.632 270.214 178.632 270.632C178.632 270.913 178.56 271.171 178.415 271.406C178.274 271.636 178.089 271.821 177.859 271.962C177.629 272.098 177.375 272.166 177.098 272.166ZM186.06 272.166C185.638 272.166 185.275 272.017 184.973 271.719C184.675 271.416 184.525 271.054 184.525 270.632C184.525 270.214 184.675 269.857 184.973 269.558C185.275 269.26 185.638 269.111 186.06 269.111C186.469 269.111 186.827 269.26 187.133 269.558C187.44 269.857 187.594 270.214 187.594 270.632C187.594 270.913 187.521 271.171 187.376 271.406C187.236 271.636 187.05 271.821 186.82 271.962C186.59 272.098 186.337 272.166 186.06 272.166ZM195.021 272.166C194.599 272.166 194.237 272.017 193.934 271.719C193.636 271.416 193.487 271.054 193.487 270.632C193.487 270.214 193.636 269.857 193.934 269.558C194.237 269.26 194.599 269.111 195.021 269.111C195.43 269.111 195.788 269.26 196.095 269.558C196.402 269.857 196.555 270.214 196.555 270.632C196.555 270.913 196.482 271.171 196.338 271.406C196.197 271.636 196.012 271.821 195.781 271.962C195.551 272.098 195.298 272.166 195.021 272.166ZM203.982 272.166C203.56 272.166 203.198 272.017 202.896 271.719C202.597 271.416 202.448 271.054 202.448 270.632C202.448 270.214 202.597 269.857 202.896 269.558C203.198 269.26 203.56 269.111 203.982 269.111C204.391 269.111 204.749 269.26 205.056 269.558C205.363 269.857 205.516 270.214 205.516 270.632C205.516 270.913 205.444 271.171 205.299 271.406C205.158 271.636 204.973 271.821 204.743 271.962C204.513 272.098 204.259 272.166 203.982 272.166ZM212.943 272.166C212.522 272.166 212.159 272.017 211.857 271.719C211.559 271.416 211.409 271.054 211.409 270.632C211.409 270.214 211.559 269.857 211.857 269.558C212.159 269.26 212.522 269.111 212.943 269.111C213.353 269.111 213.711 269.26 214.017 269.558C214.324 269.857 214.478 270.214 214.478 270.632C214.478 270.913 214.405 271.171 214.26 271.406C214.12 271.636 213.934 271.821 213.704 271.962C213.474 272.098 213.22 272.166 212.943 272.166ZM221.905 272.166C221.483 272.166 221.121 272.017 220.818 271.719C220.52 271.416 220.371 271.054 220.371 270.632C220.371 270.214 220.52 269.857 220.818 269.558C221.121 269.26 221.483 269.111 221.905 269.111C222.314 269.111 222.672 269.26 222.979 269.558C223.286 269.857 223.439 270.214 223.439 270.632C223.439 270.913 223.366 271.171 223.222 271.406C223.081 271.636 222.896 271.821 222.665 271.962C222.435 272.098 222.182 272.166 221.905 272.166ZM42.6783 292.166C42.2564 292.166 41.8942 292.017 41.5916 291.719C41.2933 291.416 41.1442 291.054 41.1442 290.632C41.1442 290.214 41.2933 289.857 41.5916 289.558C41.8942 289.26 42.2564 289.111 42.6783 289.111C43.0874 289.111 43.4453 289.26 43.7521 289.558C44.0589 289.857 44.2124 290.214 44.2124 290.632C44.2124 290.913 44.1399 291.171 43.995 291.406C43.8544 291.636 43.669 291.821 43.4389 291.962C43.2088 292.098 42.9553 292.166 42.6783 292.166ZM51.6396 292.166C51.2177 292.166 50.8555 292.017 50.5529 291.719C50.2547 291.416 50.1055 291.054 50.1055 290.632C50.1055 290.214 50.2547 289.857 50.5529 289.558C50.8555 289.26 51.2177 289.111 51.6396 289.111C52.0487 289.111 52.4066 289.26 52.7135 289.558C53.0203 289.857 53.1737 290.214 53.1737 290.632C53.1737 290.913 53.1012 291.171 52.9564 291.406C52.8157 291.636 52.6304 291.821 52.4002 291.962C52.1701 292.098 51.9166 292.166 51.6396 292.166ZM60.6009 292.166C60.179 292.166 59.8168 292.017 59.5143 291.719C59.216 291.416 59.0668 291.054 59.0668 290.632C59.0668 290.214 59.216 289.857 59.5143 289.558C59.8168 289.26 60.179 289.111 60.6009 289.111C61.01 289.111 61.368 289.26 61.6748 289.558C61.9816 289.857 62.135 290.214 62.135 290.632C62.135 290.913 62.0626 291.171 61.9177 291.406C61.7771 291.636 61.5917 291.821 61.3616 291.962C61.1315 292.098 60.8779 292.166 60.6009 292.166ZM69.5623 292.166C69.1404 292.166 68.7782 292.017 68.4756 291.719C68.1773 291.416 68.0282 291.054 68.0282 290.632C68.0282 290.214 68.1773 289.857 68.4756 289.558C68.7782 289.26 69.1404 289.111 69.5623 289.111C69.9713 289.111 70.3293 289.26 70.6361 289.558C70.9429 289.857 71.0963 290.214 71.0963 290.632C71.0963 290.913 71.0239 291.171 70.879 291.406C70.7384 291.636 70.553 291.821 70.3229 291.962C70.0928 292.098 69.8392 292.166 69.5623 292.166ZM78.5236 292.166C78.1017 292.166 77.7395 292.017 77.4369 291.719C77.1386 291.416 76.9895 291.054 76.9895 290.632C76.9895 290.214 77.1386 289.857 77.4369 289.558C77.7395 289.26 78.1017 289.111 78.5236 289.111C78.9327 289.111 79.2906 289.26 79.5974 289.558C79.9043 289.857 80.0577 290.214 80.0577 290.632C80.0577 290.913 79.9852 291.171 79.8403 291.406C79.6997 291.636 79.5143 291.821 79.2842 291.962C79.0541 292.098 78.8006 292.166 78.5236 292.166ZM87.4849 292.166C87.063 292.166 86.7008 292.017 86.3983 291.719C86.1 291.416 85.9508 291.054 85.9508 290.632C85.9508 290.214 86.1 289.857 86.3983 289.558C86.7008 289.26 87.063 289.111 87.4849 289.111C87.894 289.111 88.252 289.26 88.5588 289.558C88.8656 289.857 89.019 290.214 89.019 290.632C89.019 290.913 88.9466 291.171 88.8017 291.406C88.661 291.636 88.4757 291.821 88.2456 291.962C88.0154 292.098 87.7619 292.166 87.4849 292.166ZM96.4462 292.166C96.0244 292.166 95.6621 292.017 95.3596 291.719C95.0613 291.416 94.9121 291.054 94.9121 290.632C94.9121 290.214 95.0613 289.857 95.3596 289.558C95.6621 289.26 96.0244 289.111 96.4462 289.111C96.8553 289.111 97.2133 289.26 97.5201 289.558C97.8269 289.857 97.9803 290.214 97.9803 290.632C97.9803 290.913 97.9079 291.171 97.763 291.406C97.6224 291.636 97.437 291.821 97.2069 291.962C96.9768 292.098 96.7232 292.166 96.4462 292.166ZM105.408 292.166C104.986 292.166 104.623 292.017 104.321 291.719C104.023 291.416 103.873 291.054 103.873 290.632C103.873 290.214 104.023 289.857 104.321 289.558C104.623 289.26 104.986 289.111 105.408 289.111C105.817 289.111 106.175 289.26 106.481 289.558C106.788 289.857 106.942 290.214 106.942 290.632C106.942 290.913 106.869 291.171 106.724 291.406C106.584 291.636 106.398 291.821 106.168 291.962C105.938 292.098 105.685 292.166 105.408 292.166ZM114.369 292.166C113.947 292.166 113.585 292.017 113.282 291.719C112.984 291.416 112.835 291.054 112.835 290.632C112.835 290.214 112.984 289.857 113.282 289.558C113.585 289.26 113.947 289.111 114.369 289.111C114.778 289.111 115.136 289.26 115.443 289.558C115.75 289.857 115.903 290.214 115.903 290.632C115.903 290.913 115.831 291.171 115.686 291.406C115.545 291.636 115.36 291.821 115.13 291.962C114.899 292.098 114.646 292.166 114.369 292.166ZM123.33 292.166C122.908 292.166 122.546 292.017 122.244 291.719C121.945 291.416 121.796 291.054 121.796 290.632C121.796 290.214 121.945 289.857 122.244 289.558C122.546 289.26 122.908 289.111 123.33 289.111C123.739 289.111 124.097 289.26 124.404 289.558C124.711 289.857 124.864 290.214 124.864 290.632C124.864 290.913 124.792 291.171 124.647 291.406C124.506 291.636 124.321 291.821 124.091 291.962C123.861 292.098 123.607 292.166 123.33 292.166ZM132.292 292.166C131.87 292.166 131.507 292.017 131.205 291.719C130.907 291.416 130.757 291.054 130.757 290.632C130.757 290.214 130.907 289.857 131.205 289.558C131.507 289.26 131.87 289.111 132.292 289.111C132.701 289.111 133.059 289.26 133.365 289.558C133.672 289.857 133.826 290.214 133.826 290.632C133.826 290.913 133.753 291.171 133.608 291.406C133.468 291.636 133.282 291.821 133.052 291.962C132.822 292.098 132.569 292.166 132.292 292.166ZM141.253 292.166C140.831 292.166 140.469 292.017 140.166 291.719C139.868 291.416 139.719 291.054 139.719 290.632C139.719 290.214 139.868 289.857 140.166 289.558C140.469 289.26 140.831 289.111 141.253 289.111C141.662 289.111 142.02 289.26 142.327 289.558C142.634 289.857 142.787 290.214 142.787 290.632C142.787 290.913 142.715 291.171 142.57 291.406C142.429 291.636 142.244 291.821 142.014 291.962C141.783 292.098 141.53 292.166 141.253 292.166ZM150.214 292.166C149.792 292.166 149.43 292.017 149.128 291.719C148.829 291.416 148.68 291.054 148.68 290.632C148.68 290.214 148.829 289.857 149.128 289.558C149.43 289.26 149.792 289.111 150.214 289.111C150.623 289.111 150.981 289.26 151.288 289.558C151.595 289.857 151.748 290.214 151.748 290.632C151.748 290.913 151.676 291.171 151.531 291.406C151.39 291.636 151.205 291.821 150.975 291.962C150.745 292.098 150.491 292.166 150.214 292.166ZM159.176 292.166C158.754 292.166 158.391 292.017 158.089 291.719C157.791 291.416 157.641 291.054 157.641 290.632C157.641 290.214 157.791 289.857 158.089 289.558C158.391 289.26 158.754 289.111 159.176 289.111C159.585 289.111 159.943 289.26 160.249 289.558C160.556 289.857 160.71 290.214 160.71 290.632C160.71 290.913 160.637 291.171 160.492 291.406C160.352 291.636 160.166 291.821 159.936 291.962C159.706 292.098 159.453 292.166 159.176 292.166ZM168.137 292.166C167.715 292.166 167.353 292.017 167.05 291.719C166.752 291.416 166.603 291.054 166.603 290.632C166.603 290.214 166.752 289.857 167.05 289.558C167.353 289.26 167.715 289.111 168.137 289.111C168.546 289.111 168.904 289.26 169.211 289.558C169.518 289.857 169.671 290.214 169.671 290.632C169.671 290.913 169.599 291.171 169.454 291.406C169.313 291.636 169.128 291.821 168.898 291.962C168.667 292.098 168.414 292.166 168.137 292.166ZM177.098 292.166C176.676 292.166 176.314 292.017 176.012 291.719C175.713 291.416 175.564 291.054 175.564 290.632C175.564 290.214 175.713 289.857 176.012 289.558C176.314 289.26 176.676 289.111 177.098 289.111C177.507 289.111 177.865 289.26 178.172 289.558C178.479 289.857 178.632 290.214 178.632 290.632C178.632 290.913 178.56 291.171 178.415 291.406C178.274 291.636 178.089 291.821 177.859 291.962C177.629 292.098 177.375 292.166 177.098 292.166ZM186.06 292.166C185.638 292.166 185.275 292.017 184.973 291.719C184.675 291.416 184.525 291.054 184.525 290.632C184.525 290.214 184.675 289.857 184.973 289.558C185.275 289.26 185.638 289.111 186.06 289.111C186.469 289.111 186.827 289.26 187.133 289.558C187.44 289.857 187.594 290.214 187.594 290.632C187.594 290.913 187.521 291.171 187.376 291.406C187.236 291.636 187.05 291.821 186.82 291.962C186.59 292.098 186.337 292.166 186.06 292.166ZM195.021 292.166C194.599 292.166 194.237 292.017 193.934 291.719C193.636 291.416 193.487 291.054 193.487 290.632C193.487 290.214 193.636 289.857 193.934 289.558C194.237 289.26 194.599 289.111 195.021 289.111C195.43 289.111 195.788 289.26 196.095 289.558C196.402 289.857 196.555 290.214 196.555 290.632C196.555 290.913 196.482 291.171 196.338 291.406C196.197 291.636 196.012 291.821 195.781 291.962C195.551 292.098 195.298 292.166 195.021 292.166ZM203.982 292.166C203.56 292.166 203.198 292.017 202.896 291.719C202.597 291.416 202.448 291.054 202.448 290.632C202.448 290.214 202.597 289.857 202.896 289.558C203.198 289.26 203.56 289.111 203.982 289.111C204.391 289.111 204.749 289.26 205.056 289.558C205.363 289.857 205.516 290.214 205.516 290.632C205.516 290.913 205.444 291.171 205.299 291.406C205.158 291.636 204.973 291.821 204.743 291.962C204.513 292.098 204.259 292.166 203.982 292.166ZM212.943 292.166C212.522 292.166 212.159 292.017 211.857 291.719C211.559 291.416 211.409 291.054 211.409 290.632C211.409 290.214 211.559 289.857 211.857 289.558C212.159 289.26 212.522 289.111 212.943 289.111C213.353 289.111 213.711 289.26 214.017 289.558C214.324 289.857 214.478 290.214 214.478 290.632C214.478 290.913 214.405 291.171 214.26 291.406C214.12 291.636 213.934 291.821 213.704 291.962C213.474 292.098 213.22 292.166 212.943 292.166ZM221.905 292.166C221.483 292.166 221.121 292.017 220.818 291.719C220.52 291.416 220.371 291.054 220.371 290.632C220.371 290.214 220.52 289.857 220.818 289.558C221.121 289.26 221.483 289.111 221.905 289.111C222.314 289.111 222.672 289.26 222.979 289.558C223.286 289.857 223.439 290.214 223.439 290.632C223.439 290.913 223.366 291.171 223.222 291.406C223.081 291.636 222.896 291.821 222.665 291.962C222.435 292.098 222.182 292.166 221.905 292.166Z" fill="black"/>
</svg>
