<svg width="178" height="43" viewBox="0 0 178 43" fill="none" xmlns="http://www.w3.org/2000/svg">
<path d="M15.7299 11.9162C15.6742 11.757 15.5648 11.572 15.4016 11.361C15.1406 11.0235 14.8336 10.8227 14.4806 10.7586C14.1487 10.6782 13.695 10.6583 13.1195 10.6988C12.6237 10.7115 12.2366 10.6906 11.9585 10.636C11.7014 10.5651 11.5148 10.3892 11.3986 10.1083C11.2335 9.764 11.2367 9.44125 11.4082 9.14001C11.5798 8.83876 11.9398 8.47605 12.4882 8.05187L21.4741 1.10185C21.9171 0.759244 22.3117 0.572038 22.6579 0.540233C23.0253 0.492115 23.2987 0.584071 23.4781 0.816101C23.5597 0.92157 23.6341 1.08315 23.7013 1.30085C23.7523 1.49744 23.7634 1.70797 23.7347 1.93242C23.7108 2.11946 23.6706 2.28541 23.6141 2.43026C23.5623 2.53771 23.5317 2.62884 23.5221 2.70366C23.3314 3.15453 23.2204 3.57756 23.1889 3.97274C23.1574 4.36792 23.2555 4.86518 23.4831 5.46454L28.8496 18.8104C29.9461 21.5358 30.1592 24.0342 29.4888 26.3058C28.8021 28.5562 27.2458 30.6195 24.8201 32.4957C23.1958 33.7519 21.6347 34.5885 20.1368 35.0054C18.6436 35.3849 17.3022 35.3942 16.1127 35.0331C14.9232 34.672 13.9614 34.0169 13.2273 33.0677C12.8683 32.6036 12.5809 32.1011 12.3648 31.5603C11.9049 30.399 11.8142 29.3229 12.0929 28.332C12.3927 27.3247 12.9539 26.503 13.7765 25.8667C14.7258 25.1326 15.6737 24.8545 16.6205 25.0325C17.5672 25.2104 18.3832 25.7424 19.0684 26.6283C19.411 27.0713 19.6903 27.5632 19.9064 28.1041C20.3385 29.1858 20.3696 30.2068 19.9998 31.167C20.5005 31.1169 20.9723 30.9206 21.4152 30.578C21.8582 30.2354 22.0771 29.7121 22.072 29.0081C22.0669 28.3041 21.8704 27.4615 21.4825 26.4805L15.7299 11.9162Z" fill="#DF4B2D"/>
<path d="M46.7788 7.23012V18.7021C46.7788 20.4781 46.2748 21.8461 45.2668 22.8061C44.2748 23.7661 42.9308 24.2461 41.2348 24.2461C39.4588 24.2461 38.0348 23.7421 36.9628 22.7341C35.8908 21.7261 35.3548 20.2941 35.3548 18.4381H39.4348C39.4348 19.1421 39.5788 19.6781 39.8668 20.0461C40.1548 20.3981 40.5708 20.5741 41.1148 20.5741C41.6108 20.5741 41.9948 20.4141 42.2668 20.0941C42.5388 19.7741 42.6748 19.3101 42.6748 18.7021V7.23012H46.7788ZM57.3898 24.2461C56.1578 24.2461 55.0538 24.0461 54.0778 23.6461C53.1018 23.2461 52.3178 22.6541 51.7258 21.8701C51.1498 21.0861 50.8458 20.1421 50.8138 19.0381H55.1818C55.2458 19.6621 55.4618 20.1421 55.8298 20.4781C56.1978 20.7981 56.6778 20.9581 57.2698 20.9581C57.8778 20.9581 58.3578 20.8221 58.7098 20.5501C59.0618 20.2621 59.2378 19.8701 59.2378 19.3741C59.2378 18.9581 59.0938 18.6141 58.8058 18.3421C58.5338 18.0701 58.1898 17.8461 57.7738 17.6701C57.3738 17.4941 56.7978 17.2941 56.0458 17.0701C54.9578 16.7341 54.0698 16.3981 53.3818 16.0621C52.6938 15.7261 52.1018 15.2301 51.6058 14.5741C51.1098 13.9181 50.8618 13.0621 50.8618 12.0061C50.8618 10.4381 51.4298 9.21412 52.5658 8.33412C53.7018 7.43812 55.1818 6.99012 57.0058 6.99012C58.8618 6.99012 60.3578 7.43812 61.4938 8.33412C62.6298 9.21412 63.2378 10.4461 63.3178 12.0301H58.8778C58.8458 11.4861 58.6458 11.0621 58.2778 10.7581C57.9098 10.4381 57.4378 10.2781 56.8618 10.2781C56.3658 10.2781 55.9658 10.4141 55.6618 10.6861C55.3578 10.9421 55.2058 11.3181 55.2058 11.8141C55.2058 12.3581 55.4618 12.7821 55.9738 13.0861C56.4858 13.3901 57.2858 13.7181 58.3738 14.0701C59.4618 14.4381 60.3418 14.7901 61.0138 15.1261C61.7018 15.4621 62.2938 15.9501 62.7898 16.5901C63.2858 17.2301 63.5338 18.0541 63.5338 19.0621C63.5338 20.0221 63.2858 20.8941 62.7898 21.6781C62.3098 22.4621 61.6058 23.0861 60.6778 23.5501C59.7498 24.0141 58.6538 24.2461 57.3898 24.2461ZM71.3634 7.23012V24.0781H67.2594V7.23012H71.3634ZM85.8575 24.0781L82.4255 18.9181L79.4015 24.0781H74.7455L80.1455 15.5101L74.6255 7.23012H79.4015L82.7855 12.3181L85.7615 7.23012H90.4175L85.0655 15.7261L90.6335 24.0781H85.8575ZM99.9898 24.2461C98.7578 24.2461 97.6538 24.0461 96.6778 23.6461C95.7018 23.2461 94.9178 22.6541 94.3258 21.8701C93.7498 21.0861 93.4458 20.1421 93.4138 19.0381H97.7818C97.8458 19.6621 98.0618 20.1421 98.4298 20.4781C98.7978 20.7981 99.2778 20.9581 99.8698 20.9581C100.478 20.9581 100.958 20.8221 101.31 20.5501C101.662 20.2621 101.838 19.8701 101.838 19.3741C101.838 18.9581 101.694 18.6141 101.406 18.3421C101.134 18.0701 100.79 17.8461 100.374 17.6701C99.9738 17.4941 99.3978 17.2941 98.6458 17.0701C97.5578 16.7341 96.6698 16.3981 95.9818 16.0621C95.2938 15.7261 94.7018 15.2301 94.2058 14.5741C93.7098 13.9181 93.4618 13.0621 93.4618 12.0061C93.4618 10.4381 94.0298 9.21412 95.1658 8.33412C96.3018 7.43812 97.7818 6.99012 99.6058 6.99012C101.462 6.99012 102.958 7.43812 104.094 8.33412C105.23 9.21412 105.838 10.4461 105.918 12.0301H101.478C101.446 11.4861 101.246 11.0621 100.878 10.7581C100.51 10.4381 100.038 10.2781 99.4618 10.2781C98.9658 10.2781 98.5658 10.4141 98.2618 10.6861C97.9578 10.9421 97.8058 11.3181 97.8058 11.8141C97.8058 12.3581 98.0618 12.7821 98.5738 13.0861C99.0858 13.3901 99.8858 13.7181 100.974 14.0701C102.062 14.4381 102.942 14.7901 103.614 15.1261C104.302 15.4621 104.894 15.9501 105.39 16.5901C105.886 17.2301 106.134 18.0541 106.134 19.0621C106.134 20.0221 105.886 20.8941 105.39 21.6781C104.91 22.4621 104.206 23.0861 103.278 23.5501C102.35 24.0141 101.254 24.2461 99.9898 24.2461ZM113.963 7.23012V24.0781H109.859V7.23012H113.963ZM129.322 12.5581C129.018 11.9981 128.578 11.5741 128.002 11.2861C127.442 10.9821 126.778 10.8301 126.01 10.8301C124.682 10.8301 123.618 11.2701 122.818 12.1501C122.018 13.0141 121.618 14.1741 121.618 15.6301C121.618 17.1821 122.034 18.3981 122.866 19.2781C123.714 20.1421 124.874 20.5741 126.346 20.5741C127.354 20.5741 128.202 20.3181 128.89 19.8061C129.594 19.2941 130.106 18.5581 130.426 17.5981H125.218V14.5741H134.146V18.3901C133.842 19.4141 133.322 20.3661 132.586 21.2461C131.866 22.1261 130.946 22.8381 129.826 23.3821C128.706 23.9261 127.442 24.1981 126.034 24.1981C124.37 24.1981 122.882 23.8381 121.57 23.1181C120.274 22.3821 119.258 21.3661 118.522 20.0701C117.802 18.7741 117.442 17.2941 117.442 15.6301C117.442 13.9661 117.802 12.4861 118.522 11.1901C119.258 9.87812 120.274 8.86212 121.57 8.14212C122.866 7.40612 124.346 7.03812 126.01 7.03812C128.026 7.03812 129.722 7.52612 131.098 8.50212C132.49 9.47812 133.41 10.8301 133.858 12.5581H129.322ZM156.699 7.23012V24.0781H152.595V13.9741L148.827 24.0781H145.515L141.723 13.9501V24.0781H137.619V7.23012H142.467L147.195 18.8941L151.875 7.23012H156.699ZM171.338 21.1021H165.05L164.042 24.0781H159.746L165.842 7.23012H170.594L176.69 24.0781H172.346L171.338 21.1021ZM170.282 17.9341L168.194 11.7661L166.13 17.9341H170.282Z" fill="black"/>
<path d="M48.1789 35.0732H46.0509L45.6589 36.1582H44.9869L46.7509 31.3072H47.4859L49.2429 36.1582H48.5709L48.1789 35.0732ZM47.9969 34.5552L47.1149 32.0912L46.2329 34.5552H47.9969ZM56.2809 33.6452C56.4582 33.6732 56.6192 33.7455 56.7639 33.8622C56.9132 33.9789 57.0299 34.1235 57.1139 34.2962C57.2026 34.4689 57.2469 34.6532 57.2469 34.8492C57.2469 35.0965 57.1839 35.3205 57.0579 35.5212C56.9319 35.7172 56.7476 35.8735 56.5049 35.9902C56.2669 36.1022 55.9846 36.1582 55.6579 36.1582H53.8379V31.2792H55.5879C55.9192 31.2792 56.2016 31.3352 56.4349 31.4472C56.6682 31.5545 56.8432 31.7015 56.9599 31.8882C57.0766 32.0749 57.1349 32.2849 57.1349 32.5182C57.1349 32.8075 57.0556 33.0479 56.8969 33.2392C56.7429 33.4259 56.5376 33.5612 56.2809 33.6452ZM54.4749 33.3862H55.5459C55.8446 33.3862 56.0756 33.3162 56.2389 33.1762C56.4022 33.0362 56.4839 32.8425 56.4839 32.5952C56.4839 32.3479 56.4022 32.1542 56.2389 32.0142C56.0756 31.8742 55.8399 31.8042 55.5319 31.8042H54.4749V33.3862ZM55.6019 35.6332C55.9192 35.6332 56.1666 35.5585 56.3439 35.4092C56.5212 35.2599 56.6099 35.0522 56.6099 34.7862C56.6099 34.5155 56.5166 34.3032 56.3299 34.1492C56.1432 33.9905 55.8936 33.9112 55.5809 33.9112H54.4749V35.6332H55.6019ZM61.6799 36.1582L60.5179 34.1632H59.7479V36.1582H59.1109V31.2792H60.6859C61.0545 31.2792 61.3649 31.3422 61.6169 31.4682C61.8735 31.5942 62.0649 31.7645 62.1909 31.9792C62.3169 32.1939 62.3799 32.4389 62.3799 32.7142C62.3799 33.0502 62.2819 33.3465 62.0859 33.6032C61.8945 33.8599 61.6052 34.0302 61.2179 34.1142L62.4429 36.1582H61.6799ZM59.7479 33.6522H60.6859C61.0312 33.6522 61.2902 33.5682 61.4629 33.4002C61.6355 33.2275 61.7219 32.9989 61.7219 32.7142C61.7219 32.4249 61.6355 32.2009 61.4629 32.0422C61.2949 31.8835 61.0359 31.8042 60.6859 31.8042H59.7479V33.6522ZM67.2336 35.0732H65.1056L64.7136 36.1582H64.0416L65.8056 31.3072H66.5406L68.2976 36.1582H67.6256L67.2336 35.0732ZM67.0516 34.5552L66.1696 32.0912L65.2876 34.5552H67.0516ZM70.6834 31.2792V36.1582H70.0464V31.2792H70.6834ZM76.5851 36.1582H75.9481L73.3861 32.2732V36.1582H72.7491V31.2722H73.3861L75.9481 35.1502V31.2722H76.5851V36.1582ZM83.6 31.3142V36.1582H82.963V32.5462L81.353 36.1582H80.905L79.288 32.5392V36.1582H78.651V31.3142H79.337L81.129 35.3182L82.921 31.3142H83.6ZM86.2973 31.7972V33.4282H88.0753V33.9532H86.2973V35.6332H88.2853V36.1582H85.6603V31.2722H88.2853V31.7972H86.2973ZM93.1131 35.0732H90.9851L90.5931 36.1582H89.9211L91.6851 31.3072H92.4201L94.1771 36.1582H93.5051L93.1131 35.0732ZM92.9311 34.5552L92.0491 32.0912L91.1671 34.5552H92.9311ZM97.4729 36.2072C97.1509 36.2072 96.8616 36.1512 96.6049 36.0392C96.3529 35.9225 96.1546 35.7639 96.0099 35.5632C95.8653 35.3579 95.7906 35.1222 95.7859 34.8562H96.4649C96.4883 35.0849 96.5816 35.2785 96.7449 35.4372C96.9129 35.5912 97.1556 35.6682 97.4729 35.6682C97.7763 35.6682 98.0143 35.5935 98.1869 35.4442C98.3643 35.2902 98.4529 35.0942 98.4529 34.8562C98.4529 34.6695 98.4016 34.5179 98.2989 34.4012C98.1963 34.2845 98.0679 34.1959 97.9139 34.1352C97.7599 34.0745 97.5523 34.0092 97.2909 33.9392C96.9689 33.8552 96.7099 33.7712 96.5139 33.6872C96.3226 33.6032 96.1569 33.4725 96.0169 33.2952C95.8816 33.1132 95.8139 32.8705 95.8139 32.5672C95.8139 32.3012 95.8816 32.0655 96.0169 31.8602C96.1523 31.6549 96.3413 31.4962 96.5839 31.3842C96.8313 31.2722 97.1136 31.2162 97.4309 31.2162C97.8883 31.2162 98.2616 31.3305 98.5509 31.5592C98.8449 31.7879 99.0106 32.0912 99.0479 32.4692H98.3479C98.3246 32.2825 98.2266 32.1192 98.0539 31.9792C97.8813 31.8345 97.6526 31.7622 97.3679 31.7622C97.1019 31.7622 96.8849 31.8322 96.7169 31.9722C96.5489 32.1075 96.4649 32.2989 96.4649 32.5462C96.4649 32.7235 96.5139 32.8682 96.6119 32.9802C96.7146 33.0922 96.8383 33.1785 96.9829 33.2392C97.1323 33.2952 97.3399 33.3605 97.6059 33.4352C97.9279 33.5239 98.1869 33.6125 98.3829 33.7012C98.5789 33.7852 98.7469 33.9182 98.8869 34.1002C99.0269 34.2775 99.0969 34.5202 99.0969 34.8282C99.0969 35.0662 99.0339 35.2902 98.9079 35.5002C98.7819 35.7102 98.5953 35.8805 98.3479 36.0112C98.1006 36.1419 97.8089 36.2072 97.4729 36.2072ZM101.637 31.2792V34.3662C101.637 34.8002 101.742 35.1222 101.952 35.3322C102.167 35.5422 102.463 35.6472 102.841 35.6472C103.215 35.6472 103.506 35.5422 103.716 35.3322C103.931 35.1222 104.038 34.8002 104.038 34.3662V31.2792H104.675V34.3592C104.675 34.7652 104.594 35.1082 104.43 35.3882C104.267 35.6635 104.045 35.8689 103.765 36.0042C103.49 36.1395 103.18 36.2072 102.834 36.2072C102.489 36.2072 102.176 36.1395 101.896 36.0042C101.621 35.8689 101.402 35.6635 101.238 35.3882C101.08 35.1082 101 34.7652 101 34.3592V31.2792H101.637ZM109.287 36.1582L108.125 34.1632H107.355V36.1582H106.718V31.2792H108.293C108.662 31.2792 108.972 31.3422 109.224 31.4682C109.481 31.5942 109.672 31.7645 109.798 31.9792C109.924 32.1939 109.987 32.4389 109.987 32.7142C109.987 33.0502 109.889 33.3465 109.693 33.6032C109.502 33.8599 109.212 34.0302 108.825 34.1142L110.05 36.1582H109.287ZM107.355 33.6522H108.293C108.638 33.6522 108.897 33.5682 109.07 33.4002C109.243 33.2275 109.329 32.9989 109.329 32.7142C109.329 32.4249 109.243 32.2009 109.07 32.0422C108.902 31.8835 108.643 31.8042 108.293 31.8042H107.355V33.6522ZM112.594 31.7972V33.4282H114.372V33.9532H112.594V35.6332H114.582V36.1582H111.957V31.2722H114.582V31.7972H112.594ZM116.624 31.2792H117.331L116.659 32.8682H116.211L116.624 31.2792ZM120.584 36.2072C120.262 36.2072 119.973 36.1512 119.716 36.0392C119.464 35.9225 119.266 35.7639 119.121 35.5632C118.976 35.3579 118.902 35.1222 118.897 34.8562H119.576C119.599 35.0849 119.693 35.2785 119.856 35.4372C120.024 35.5912 120.267 35.6682 120.584 35.6682C120.887 35.6682 121.125 35.5935 121.298 35.4442C121.475 35.2902 121.564 35.0942 121.564 34.8562C121.564 34.6695 121.513 34.5179 121.41 34.4012C121.307 34.2845 121.179 34.1959 121.025 34.1352C120.871 34.0745 120.663 34.0092 120.402 33.9392C120.08 33.8552 119.821 33.7712 119.625 33.6872C119.434 33.6032 119.268 33.4725 119.128 33.2952C118.993 33.1132 118.925 32.8705 118.925 32.5672C118.925 32.3012 118.993 32.0655 119.128 31.8602C119.263 31.6549 119.452 31.4962 119.695 31.3842C119.942 31.2722 120.225 31.2162 120.542 31.2162C120.999 31.2162 121.373 31.3305 121.662 31.5592C121.956 31.7879 122.122 32.0912 122.159 32.4692H121.459C121.436 32.2825 121.338 32.1192 121.165 31.9792C120.992 31.8345 120.764 31.7622 120.479 31.7622C120.213 31.7622 119.996 31.8322 119.828 31.9722C119.66 32.1075 119.576 32.2989 119.576 32.5462C119.576 32.7235 119.625 32.8682 119.723 32.9802C119.826 33.0922 119.949 33.1785 120.094 33.2392C120.243 33.2952 120.451 33.3605 120.717 33.4352C121.039 33.5239 121.298 33.6125 121.494 33.7012C121.69 33.7852 121.858 33.9182 121.998 34.1002C122.138 34.2775 122.208 34.5202 122.208 34.8282C122.208 35.0662 122.145 35.2902 122.019 35.5002C121.893 35.7102 121.706 35.8805 121.459 36.0112C121.212 36.1419 120.92 36.2072 120.584 36.2072ZM126.733 33.7152C126.733 33.2392 126.841 32.8122 127.055 32.4342C127.27 32.0515 127.562 31.7529 127.93 31.5382C128.304 31.3235 128.717 31.2162 129.169 31.2162C129.701 31.2162 130.166 31.3445 130.562 31.6012C130.959 31.8579 131.248 32.2219 131.43 32.6932H130.667C130.532 32.3992 130.336 32.1729 130.079 32.0142C129.827 31.8555 129.524 31.7762 129.169 31.7762C128.829 31.7762 128.523 31.8555 128.252 32.0142C127.982 32.1729 127.769 32.3992 127.615 32.6932C127.461 32.9825 127.384 33.3232 127.384 33.7152C127.384 34.1025 127.461 34.4432 127.615 34.7372C127.769 35.0265 127.982 35.2505 128.252 35.4092C128.523 35.5679 128.829 35.6472 129.169 35.6472C129.524 35.6472 129.827 35.5702 130.079 35.4162C130.336 35.2575 130.532 35.0312 130.667 34.7372H131.43C131.248 35.2039 130.959 35.5655 130.562 35.8222C130.166 36.0742 129.701 36.2002 129.169 36.2002C128.717 36.2002 128.304 36.0952 127.93 35.8852C127.562 35.6705 127.27 35.3742 127.055 34.9962C126.841 34.6182 126.733 34.1912 126.733 33.7152ZM135.571 36.2072C135.118 36.2072 134.705 36.1022 134.332 35.8922C133.958 35.6775 133.662 35.3812 133.443 35.0032C133.228 34.6205 133.121 34.1912 133.121 33.7152C133.121 33.2392 133.228 32.8122 133.443 32.4342C133.662 32.0515 133.958 31.7552 134.332 31.5452C134.705 31.3305 135.118 31.2232 135.571 31.2232C136.028 31.2232 136.443 31.3305 136.817 31.5452C137.19 31.7552 137.484 32.0492 137.699 32.4272C137.913 32.8052 138.021 33.2345 138.021 33.7152C138.021 34.1959 137.913 34.6252 137.699 35.0032C137.484 35.3812 137.19 35.6775 136.817 35.8922C136.443 36.1022 136.028 36.2072 135.571 36.2072ZM135.571 35.6542C135.911 35.6542 136.217 35.5749 136.488 35.4162C136.763 35.2575 136.978 35.0312 137.132 34.7372C137.29 34.4432 137.37 34.1025 137.37 33.7152C137.37 33.3232 137.29 32.9825 137.132 32.6932C136.978 32.3992 136.765 32.1729 136.495 32.0142C136.224 31.8555 135.916 31.7762 135.571 31.7762C135.225 31.7762 134.917 31.8555 134.647 32.0142C134.376 32.1729 134.161 32.3992 134.003 32.6932C133.849 32.9825 133.772 33.3232 133.772 33.7152C133.772 34.1025 133.849 34.4432 134.003 34.7372C134.161 35.0312 134.376 35.2575 134.647 35.4162C134.922 35.5749 135.23 35.6542 135.571 35.6542ZM144.791 31.3142V36.1582H144.154V32.5462L142.544 36.1582H142.096L140.479 32.5392V36.1582H139.842V31.3142H140.528L142.32 35.3182L144.112 31.3142H144.791ZM150.113 32.7072C150.113 33.1132 149.973 33.4515 149.693 33.7222C149.418 33.9882 148.995 34.1212 148.426 34.1212H147.488V36.1582H146.851V31.2792H148.426C148.977 31.2792 149.394 31.4122 149.679 31.6782C149.968 31.9442 150.113 32.2872 150.113 32.7072ZM148.426 33.5962C148.781 33.5962 149.042 33.5192 149.21 33.3652C149.378 33.2112 149.462 32.9919 149.462 32.7072C149.462 32.1052 149.117 31.8042 148.426 31.8042H147.488V33.5962H148.426ZM154.769 35.0732H152.641L152.249 36.1582H151.577L153.341 31.3072H154.076L155.833 36.1582H155.161L154.769 35.0732ZM154.587 34.5552L153.705 32.0912L152.823 34.5552H154.587ZM161.417 36.1582H160.78L158.218 32.2732V36.1582H157.581V31.2722H158.218L160.78 35.1502V31.2722H161.417V36.1582ZM166.899 31.2792L165.31 34.3172V36.1582H164.673V34.3172L163.077 31.2792H163.784L164.988 33.7502L166.192 31.2792H166.899Z" fill="black"/>
<circle cx="26.894" cy="38.6572" r="3.5" fill="#DEC13C"/>
</svg>
