<svg width="117" height="36" viewBox="0 0 117 36" fill="none" xmlns="http://www.w3.org/2000/svg">
<g clip-path="url(#clip0_2830_3016)">
<path fill-rule="evenodd" clip-rule="evenodd" d="M72.1198 28.0028C65.3586 33.0033 55.5689 35.6796 47.1174 35.6796C35.8487 35.7501 24.9322 31.5243 16.6215 23.9884C15.9876 23.4249 16.5511 22.6502 17.3258 23.0728C26.6225 28.4254 37.1164 31.2426 47.8217 31.2426C55.8506 31.1722 63.7387 29.5523 71.1338 26.4534C72.2606 25.9604 73.1762 27.1577 72.1198 28.0028Z" fill="#FF9900"/>
<path fill-rule="evenodd" clip-rule="evenodd" d="M74.8675 24.7631C74.0223 23.6362 69.1627 24.27 66.9794 24.4813C66.3455 24.5518 66.2047 23.9883 66.8385 23.5658C70.7121 20.819 77.0508 21.5937 77.7551 22.5093C78.4594 23.4249 77.5438 29.834 73.9519 32.8624C73.3884 33.3554 72.8954 33.0737 73.1067 32.4398C73.9519 30.4678 75.783 25.8899 74.8675 24.7631Z" fill="#FF9900"/>
<path fill-rule="evenodd" clip-rule="evenodd" d="M67.1905 4.33861V1.6623C67.1905 1.31015 67.4722 1.02844 67.8243 0.958008H79.6565C80.0086 0.958008 80.3608 1.23972 80.3608 1.59187C80.3608 1.59187 80.3608 1.59187 80.3608 1.6623V3.91604C80.2199 4.5499 79.9382 5.11333 79.4452 5.60634L73.3178 14.41C75.642 14.2691 77.9662 14.7621 80.079 15.889C80.4312 16.1003 80.7129 16.5229 80.7129 16.9454V19.7626C80.7129 20.1148 80.2903 20.6078 79.8678 20.3965C75.9237 18.354 71.2754 18.354 67.4018 20.3965C66.9792 20.6078 66.5566 20.1852 66.5566 19.7626V17.0863C66.4862 16.4524 66.6975 15.8186 66.9792 15.2551L74.0925 5.04291H67.8948C67.4722 4.97248 67.1905 4.69076 67.1905 4.33861Z" fill="#221F1F"/>
<path fill-rule="evenodd" clip-rule="evenodd" d="M24.0168 20.8891H20.4249C20.0727 20.8891 19.791 20.6073 19.791 20.2552V1.7323C19.791 1.38016 20.0727 1.02801 20.4953 1.09844H23.8759C24.2281 1.09844 24.5098 1.38016 24.5098 1.7323V4.1269H24.5802C25.2141 2.01402 27.1157 0.605436 29.299 0.675866C31.5527 0.675866 32.9613 1.80273 33.9473 4.1269C34.6516 2.01402 36.694 0.605436 38.9478 0.675866C40.5676 0.675866 42.1171 1.38016 43.1031 2.71831C44.23 4.26776 44.0187 6.5215 44.0187 8.56394V20.1848C44.0187 20.5369 43.737 20.8891 43.3144 20.8891H39.7225C39.3704 20.8891 39.0886 20.6073 39.0886 20.1848V10.3247C39.1591 9.19781 39.0886 8.00051 39.0182 6.87364C38.8773 5.8172 37.9618 5.11291 36.9053 5.25377C35.9193 5.25377 35.0742 5.88763 34.722 6.80321C34.4403 7.93008 34.2994 9.12738 34.3699 10.3247V20.1848C34.3699 20.5369 34.0882 20.8891 33.6656 20.8891H30.0737C29.7215 20.8891 29.4398 20.6073 29.4398 20.1848V10.3247C29.4398 8.28223 29.792 5.18334 27.2565 5.18334C24.6506 5.18334 24.7915 8.14137 24.7915 10.3247V20.1848C24.7211 20.6073 24.4393 20.8891 24.0168 20.8891C24.0872 20.8891 24.0872 20.8891 24.0168 20.8891Z" fill="#221F1F"/>
<path fill-rule="evenodd" clip-rule="evenodd" d="M90.5017 0.67627C95.8543 0.67627 98.7419 5.25417 98.7419 11.1702C98.7419 16.8046 95.5726 21.312 90.5017 21.312C85.2899 21.312 82.4023 16.7341 82.4023 10.9589C82.4023 5.11331 85.2899 0.67627 90.5017 0.67627ZM90.5721 4.40902C87.8958 4.40902 87.755 8.07134 87.755 10.3251C87.755 12.5788 87.755 17.4384 90.5721 17.4384C93.3893 17.4384 93.4597 13.5648 93.4597 11.1702C93.5302 9.47993 93.3189 7.86005 92.8963 6.24018C92.685 5.11331 91.699 4.33859 90.5721 4.40902Z" fill="#221F1F"/>
<path fill-rule="evenodd" clip-rule="evenodd" d="M105.644 20.8893H102.052C101.7 20.8893 101.418 20.6076 101.418 20.185V1.66209C101.488 1.30994 101.77 1.02822 102.122 1.02822H105.432C105.714 1.02822 105.996 1.23951 106.066 1.52123V4.3384H106.137C107.123 1.80294 108.531 0.605646 111.067 0.605646C112.757 0.535217 114.377 1.38037 115.293 2.78895C116.208 4.3384 116.208 6.80342 116.208 8.63458V20.3258C116.138 20.678 115.856 20.8893 115.504 20.8893H111.912C111.56 20.8893 111.348 20.6076 111.278 20.3258V10.184C111.278 8.14158 111.489 5.18355 109.024 5.18355C108.109 5.25398 107.264 5.81741 106.911 6.66256C106.489 7.78943 106.278 8.98673 106.348 10.184V20.185C106.348 20.6076 106.066 20.8893 105.644 20.8893Z" fill="#221F1F"/>
<path fill-rule="evenodd" clip-rule="evenodd" d="M57.7523 12.0152C57.8932 13.3533 57.6819 14.6915 57.0481 15.8183C56.555 16.8044 55.6395 17.4382 54.583 17.4382C53.1744 17.4382 52.3997 16.3818 52.3997 14.8323C52.3997 11.7334 55.1465 11.17 57.7523 11.17V12.0152ZM61.3442 20.8188C61.1329 21.0301 60.7808 21.0301 60.4991 20.8893C59.6539 20.185 58.9496 19.4102 58.4566 18.4947C57.0481 20.2554 54.7943 21.2414 52.5406 21.1005C49.5121 21.1005 47.188 19.1989 47.188 15.4662C47.1175 12.8603 48.5965 10.5361 50.9911 9.55014C53.1744 8.84585 55.4282 8.42327 57.7523 8.28241V7.78941C57.8932 6.87383 57.6819 5.95825 57.3298 5.18352C56.8368 4.54966 56.1325 4.19752 55.2873 4.26794C53.9492 4.19752 52.6814 5.1131 52.3997 6.45125C52.3293 6.8034 52.118 7.08511 51.7659 7.15554L48.3148 6.8034C47.9627 6.73297 47.7514 6.45125 47.7514 6.0991C47.7514 6.0991 47.7514 6.09911 47.7514 6.02868C48.5261 1.80292 52.3997 0.464764 55.7803 0.464764C57.7523 0.394334 59.6539 1.0282 61.2034 2.29592C62.9641 3.9158 62.7528 6.0991 62.7528 8.4937V14.128C62.7528 15.3958 63.2458 16.5931 64.091 17.5086C64.3727 17.7904 64.3727 18.2129 64.091 18.4947C63.3867 19.0581 62.119 20.185 61.3442 20.8188Z" fill="#221F1F"/>
<path fill-rule="evenodd" clip-rule="evenodd" d="M10.6352 12.0152C10.776 13.3533 10.5647 14.6915 9.93087 15.8183C9.43786 16.8044 8.52228 17.4382 7.46584 17.4382C6.05726 17.4382 5.28253 16.3818 5.28253 14.8323C5.28253 11.7334 8.02928 11.17 10.6352 11.17V12.0152ZM14.2271 20.8188C14.0158 21.0301 13.6636 21.0301 13.3819 20.8893C12.5367 20.185 11.8325 19.4102 11.3395 18.4947C9.93087 20.2554 7.67713 21.2414 5.42339 21.1005C2.39493 21.1005 0.0707679 19.1989 0.0707679 15.4662C0.000338592 12.8603 1.47935 10.5361 3.87395 9.55014C6.05726 8.84585 8.31099 8.42327 10.6352 8.28241V7.78941C10.776 6.87383 10.5647 5.95825 10.2126 5.18352C9.71958 4.54966 9.01529 4.19752 8.17013 4.26794C6.76155 4.19752 5.56425 5.1131 5.28253 6.45125C5.2121 6.8034 4.93039 7.08511 4.64867 7.15554L1.12721 6.8034C0.775061 6.73297 0.563773 6.45125 0.563773 6.0991C1.40892 1.73249 5.2121 0.464764 8.66314 0.464764C10.6352 0.394334 12.5367 1.0282 14.0862 2.29592C15.8469 3.9158 15.6356 6.0991 15.6356 8.4937V14.128C15.6356 15.3958 16.1286 16.5931 16.9738 17.5086C17.2555 17.7904 17.2555 18.2129 16.9738 18.4947C16.2695 19.0581 14.9313 20.185 14.2271 20.8188Z" fill="#221F1F"/>
</g>
<defs>
<clipPath id="clip0_2830_3016">
<rect width="116.208" height="35.2146" fill="white" transform="translate(0 0.464844)"/>
</clipPath>
</defs>
</svg>
