<svg width="190" height="36" viewBox="0 0 190 36" fill="none" xmlns="http://www.w3.org/2000/svg">
<path d="M16.7214 3.58216C17.104 2.90352 18.0812 2.90352 18.4637 3.58217L21.8559 9.60053C22.284 10.3601 23.0214 10.8958 23.876 11.0682L30.6481 12.4346C31.4117 12.5887 31.7137 13.5181 31.1865 14.0916L26.5109 19.1776C25.9209 19.8195 25.6392 20.6863 25.7393 21.5524L26.5325 28.4152C26.6219 29.1891 25.8313 29.7635 25.1229 29.4393L18.8411 26.5642C18.0483 26.2014 17.1369 26.2014 16.3441 26.5642L10.0622 29.4393C9.35389 29.7635 8.56326 29.1891 8.65269 28.4152L9.44585 21.5524C9.54595 20.6863 9.26431 19.8195 8.67424 19.1776L3.99868 14.0916C3.47146 13.5181 3.77345 12.5887 4.53708 12.4346L11.3091 11.0682C12.1638 10.8958 12.9011 10.3601 13.3292 9.60053L16.7214 3.58216Z" fill="#FFDA56" stroke="black" stroke-width="2"/>
<path d="M55.4246 3.58216C55.8071 2.90352 56.7844 2.90352 57.1669 3.58217L60.5591 9.60053C60.9872 10.3601 61.7245 10.8958 62.5792 11.0682L69.3512 12.4346C70.1149 12.5887 70.4169 13.5181 69.8896 14.0916L65.2141 19.1776C64.624 19.8195 64.3424 20.6863 64.4425 21.5524L65.2356 28.4152C65.3251 29.1891 64.5344 29.7635 63.8261 29.4393L57.5442 26.5642C56.7514 26.2014 55.84 26.2014 55.0472 26.5642L48.7654 29.4393C48.057 29.7635 47.2664 29.1891 47.3558 28.4152L48.149 21.5524C48.2491 20.6863 47.9674 19.8195 47.3774 19.1776L42.7018 14.0916C42.1746 13.5181 42.4766 12.5887 43.2402 12.4346L50.0123 11.0682C50.8669 10.8958 51.6043 10.3601 52.0324 9.60053L55.4246 3.58216Z" fill="#FFDA56" stroke="black" stroke-width="2"/>
<path d="M94.1277 3.58216C94.5102 2.90352 95.4875 2.90352 95.87 3.58217L99.2622 9.60053C99.6903 10.3601 100.428 10.8958 101.282 11.0682L108.054 12.4346C108.818 12.5887 109.12 13.5181 108.593 14.0916L103.917 19.1776C103.327 19.8195 103.045 20.6863 103.146 21.5524L103.939 28.4152C104.028 29.1891 103.238 29.7635 102.529 29.4393L96.2473 26.5642C95.4545 26.2014 94.5431 26.2014 93.7504 26.5642L87.4685 29.4393C86.7601 29.7635 85.9695 29.1891 86.0589 28.4152L86.8521 21.5524C86.9522 20.6863 86.6706 19.8195 86.0805 19.1776L81.4049 14.0916C80.8777 13.5181 81.1797 12.5887 81.9433 12.4346L88.7154 11.0682C89.57 10.8958 90.3074 10.3601 90.7355 9.60053L94.1277 3.58216Z" fill="#FFDA56" stroke="black" stroke-width="2"/>
<path d="M132.831 3.58216C133.213 2.90352 134.191 2.90352 134.573 3.58217L137.965 9.60053C138.393 10.3601 139.131 10.8958 139.985 11.0682L146.757 12.4346C147.521 12.5887 147.823 13.5181 147.296 14.0916L142.62 19.1776C142.03 19.8195 141.749 20.6863 141.849 21.5524L142.642 28.4152C142.731 29.1891 141.941 29.7635 141.232 29.4393L134.95 26.5642C134.158 26.2014 133.246 26.2014 132.453 26.5642L126.172 29.4393C125.463 29.7635 124.673 29.1891 124.762 28.4152L125.555 21.5524C125.655 20.6863 125.374 19.8195 124.784 19.1776L120.108 14.0916C119.581 13.5181 119.883 12.5887 120.646 12.4346L127.419 11.0682C128.273 10.8958 129.011 10.3601 129.439 9.60053L132.831 3.58216Z" fill="#FFDA56" stroke="black" stroke-width="2"/>
<path d="M171.538 3.58216C171.92 2.90352 172.898 2.90352 173.28 3.58217L176.672 9.60053C177.1 10.3601 177.838 10.8958 178.692 11.0682L185.465 12.4346C186.228 12.5887 186.53 13.5181 186.003 14.0916L181.327 19.1776C180.737 19.8195 180.456 20.6863 180.556 21.5524L181.349 28.4152C181.438 29.1891 180.648 29.7635 179.939 29.4393L173.657 26.5642C172.865 26.2014 171.953 26.2014 171.161 26.5642L164.879 29.4393C164.17 29.7635 163.38 29.1891 163.469 28.4152L164.262 21.5524C164.362 20.6863 164.081 19.8195 163.491 19.1776L158.815 14.0916C158.288 13.5181 158.59 12.5887 159.353 12.4346L166.126 11.0682C166.98 10.8958 167.718 10.3601 168.146 9.60053L171.538 3.58216Z" fill="#FFDA56" stroke="black" stroke-width="2"/>
</svg>
