<svg width="122" height="32" viewBox="0 0 122 32" fill="none" xmlns="http://www.w3.org/2000/svg">
<path d="M14.64 0.00187302H5.15081C4.50135 0.00187302 3.94916 0.466345 3.84784 1.09751L0.00996466 25.0482C-0.0663677 25.5206 0.305569 25.9468 0.792512 25.9468H5.3228C5.97214 25.9468 6.52433 25.4825 6.62565 24.8502L7.66072 18.3904C7.76069 17.7579 8.31423 17.2935 8.96222 17.2935H11.9662C18.217 17.2935 21.8245 14.3162 22.7667 8.41628C23.1912 5.83502 22.7847 3.80697 21.5567 2.38663C20.2081 0.826807 17.816 0.00187302 14.64 0.00187302ZM15.7348 8.74956C15.2158 12.1011 12.6142 12.1011 10.0986 12.1011H8.66673L9.67125 5.84195C9.73098 5.46359 10.0639 5.18499 10.4525 5.18499H11.1087C12.8223 5.18499 14.4388 5.18499 15.274 6.14636C15.7722 6.72005 15.9249 7.57222 15.7348 8.74956Z" fill="#283B82"/>
<path d="M43.0042 8.64162H38.4602C38.0732 8.64162 37.7388 8.92025 37.6789 9.29858L37.478 10.5496L37.1601 10.0961C36.1764 8.69072 33.9826 8.22101 31.7931 8.22101C26.7717 8.22101 22.4829 11.9644 21.6476 17.2157C21.2134 19.8351 21.8308 22.3399 23.3404 24.0865C24.7251 25.6926 26.7065 26.3618 29.064 26.3618C33.11 26.3618 35.3536 23.8012 35.3536 23.8012L35.151 25.044C35.0746 25.5193 35.4466 25.9454 35.9309 25.9454H40.0238C40.6746 25.9454 41.2241 25.481 41.3268 24.8488L43.7826 9.54025C43.8605 9.06905 43.4899 8.64162 43.0042 8.64162ZM36.6703 17.3468C36.232 19.902 34.1713 21.6175 31.5436 21.6175C30.224 21.6175 29.1694 21.2008 28.4922 20.4114C27.8207 19.6275 27.5654 18.5117 27.7791 17.2689C28.1884 14.7355 30.2837 12.9642 32.8712 12.9642C34.1618 12.9642 35.2106 13.3862 35.9016 14.1823C36.5941 14.9867 36.8686 16.1094 36.6703 17.3468Z" fill="#283B82"/>
<path d="M67.2066 8.64179H62.6404C62.2047 8.64179 61.7953 8.85485 61.5484 9.21138L55.2504 18.3426L52.5809 9.5678C52.413 9.0187 51.8983 8.64179 51.3155 8.64179H46.8283C46.2829 8.64179 45.9042 9.16619 46.0776 9.67152L51.1074 24.2001L46.3787 30.7707C46.0067 31.2882 46.3813 32 47.024 32H51.5847C52.0175 32 52.4228 31.7923 52.6683 31.4427L67.8559 9.86421C68.2196 9.34785 67.8464 8.64179 67.2066 8.64179Z" fill="#283B82"/>
<path d="M82.3236 0.00187302H72.833C72.1851 0.00187302 71.6327 0.466345 71.5314 1.09751L67.6935 25.0482C67.6174 25.5206 67.9891 25.9468 68.4734 25.9468H73.3436C73.7958 25.9468 74.1832 25.6219 74.2538 25.1793L75.3429 18.3904C75.4428 17.7579 75.9966 17.2935 76.6445 17.2935H79.6472C85.8991 17.2935 89.5054 14.3162 90.4489 8.41628C90.875 5.83502 90.4657 3.80697 89.2376 2.38663C87.8903 0.826807 85.4996 0.00187302 82.3236 0.00187302ZM83.4184 8.74956C82.9008 12.1011 80.2994 12.1011 77.7822 12.1011H76.3518L77.3578 5.84195C77.4174 5.46359 77.7475 5.18499 78.1374 5.18499H78.7937C80.5061 5.18499 82.1238 5.18499 82.959 6.14636C83.4572 6.72005 83.6083 7.57222 83.4184 8.74956Z" fill="#469BDB"/>
<path d="M110.688 8.64162H106.147C105.757 8.64162 105.425 8.92025 105.367 9.29858L105.166 10.5496L104.846 10.0961C103.863 8.69072 101.67 8.22101 99.481 8.22101C94.4593 8.22101 90.1722 11.9644 89.3367 17.2157C88.9039 19.8351 89.5185 22.3399 91.0282 24.0865C92.4158 25.6926 94.3942 26.3618 96.7516 26.3618C100.798 26.3618 103.041 23.8012 103.041 23.8012L102.839 25.044C102.762 25.5193 103.134 25.9454 103.621 25.9454H107.713C108.361 25.9454 108.913 25.481 109.015 24.8488L111.472 9.54025C111.547 9.06905 111.175 8.64162 110.688 8.64162ZM104.354 17.3468C103.918 19.902 101.855 21.6175 99.2271 21.6175C97.9101 21.6175 96.8529 21.2008 96.1758 20.4114C95.5044 19.6275 95.2517 18.5117 95.4627 17.2689C95.8747 14.7355 97.9672 12.9642 100.555 12.9642C101.845 12.9642 102.894 13.3862 103.585 14.1823C104.28 14.9867 104.555 16.1094 104.354 17.3468Z" fill="#469BDB"/>
<path d="M116.045 0.65897L112.151 25.0482C112.074 25.5206 112.446 25.9468 112.93 25.9468H116.846C117.497 25.9468 118.049 25.4825 118.149 24.8502L121.989 0.900892C122.066 0.42816 121.694 0.000734329 121.21 0.000734329H116.825C116.438 0.00187302 116.105 0.28084 116.045 0.65897Z" fill="#469BDB"/>
</svg>
