<svg width="21" height="19" viewBox="0 0 21 19" fill="none" xmlns="http://www.w3.org/2000/svg"><path d="M9.46706 0.550781C4.52004 0.550781 0.490234 4.07565 0.490234 8.40284C0.490234 12.73 4.52004 16.2617 9.46706 16.2617C11.5801 16.2617 13.5234 15.614 15.0593 14.5386L18.7985 17.8076C18.9872 17.9658 19.2392 18.0531 19.5006 18.0507C19.762 18.0484 20.0119 17.9566 20.1969 17.7951C20.3819 17.6335 20.4871 17.4151 20.4902 17.1864C20.4932 16.9578 20.3938 16.7372 20.2131 16.572L16.4739 13.3013C17.7044 11.9558 18.4458 10.2532 18.4458 8.40284C18.4458 4.07565 14.4141 0.550781 9.46706 0.550781ZM9.46706 2.29609C13.3358 2.29609 16.4486 5.01889 16.4486 8.40284C16.4486 11.7868 13.3358 14.5164 9.46706 14.5164C5.59837 14.5164 2.48552 11.7868 2.48552 8.40284C2.48552 5.01889 5.59837 2.29609 9.46706 2.29609Z" fill="#677990"/></svg>
