<svg width="1500" height="786" viewBox="0 0 1500 786" fill="none" xmlns="http://www.w3.org/2000/svg">
<path d="M852 6C870.722 55.4371 935.876 155.092 1046.71 158.214C1185.26 162.117 1168.41 45.0293 1095.39 52.8352C1022.37 60.6411 984.929 145.631 1034.54 216.758C1072.89 271.73 1151.56 296.768 1207.73 322.138C1263.89 347.507 1333.17 372.876 1340.66 439.225C1350.68 528.017 1261.08 534.847 1228.32 493.867C1203.38 462.671 1173.09 339.317 1273.25 268.472C1371.55 198.951 1502.6 207.001 1658 333.846" stroke="#6967FF" stroke-width="30"/>
<path opacity="0.7" d="M1203.77 713.605C1203.77 712.904 1204.02 712.303 1204.53 711.801C1205.03 711.299 1205.63 711.048 1206.33 711.048C1207.03 711.048 1207.63 711.299 1208.13 711.801C1208.64 712.303 1208.89 712.904 1208.89 713.605C1208.89 714.306 1208.64 714.907 1208.13 715.409C1207.63 715.911 1207.03 716.162 1206.33 716.162C1205.87 716.162 1205.44 716.044 1205.05 715.807C1204.66 715.58 1204.35 715.272 1204.11 714.884C1203.89 714.505 1203.77 714.079 1203.77 713.605ZM1203.77 735.871C1203.77 735.17 1204.02 734.569 1204.53 734.067C1205.03 733.565 1205.63 733.314 1206.33 733.314C1207.03 733.314 1207.63 733.565 1208.13 734.067C1208.64 734.569 1208.89 735.17 1208.89 735.871C1208.89 736.571 1208.64 737.173 1208.13 737.675C1207.63 738.177 1207.03 738.428 1206.33 738.428C1205.87 738.428 1205.44 738.309 1205.05 738.072C1204.66 737.845 1204.35 737.537 1204.11 737.149C1203.89 736.77 1203.77 736.344 1203.77 735.871ZM1203.77 758.136C1203.77 757.436 1204.02 756.834 1204.53 756.332C1205.03 755.83 1205.63 755.58 1206.33 755.58C1207.03 755.58 1207.63 755.83 1208.13 756.332C1208.64 756.834 1208.89 757.436 1208.89 758.136C1208.89 758.837 1208.64 759.438 1208.13 759.94C1207.63 760.442 1207.03 760.693 1206.33 760.693C1205.87 760.693 1205.44 760.575 1205.05 760.338C1204.66 760.111 1204.35 759.803 1204.11 759.415C1203.89 759.036 1203.77 758.61 1203.77 758.136ZM1203.77 780.402C1203.77 779.701 1204.02 779.1 1204.53 778.598C1205.03 778.096 1205.63 777.845 1206.33 777.845C1207.03 777.845 1207.63 778.096 1208.13 778.598C1208.64 779.1 1208.89 779.701 1208.89 780.402C1208.89 781.103 1208.64 781.704 1208.13 782.206C1207.63 782.708 1207.03 782.959 1206.33 782.959C1205.87 782.959 1205.44 782.84 1205.05 782.604C1204.66 782.376 1204.35 782.069 1204.11 781.68C1203.89 781.302 1203.77 780.875 1203.77 780.402ZM1163.77 713.605C1163.77 712.904 1164.02 712.303 1164.53 711.801C1165.03 711.299 1165.63 711.048 1166.33 711.048C1167.03 711.048 1167.63 711.299 1168.13 711.801C1168.64 712.303 1168.89 712.904 1168.89 713.605C1168.89 714.306 1168.64 714.907 1168.13 715.409C1167.63 715.911 1167.03 716.162 1166.33 716.162C1165.87 716.162 1165.44 716.044 1165.05 715.807C1164.66 715.58 1164.35 715.272 1164.11 714.884C1163.89 714.505 1163.77 714.079 1163.77 713.605ZM1163.77 735.871C1163.77 735.17 1164.02 734.569 1164.53 734.067C1165.03 733.565 1165.63 733.314 1166.33 733.314C1167.03 733.314 1167.63 733.565 1168.13 734.067C1168.64 734.569 1168.89 735.17 1168.89 735.871C1168.89 736.571 1168.64 737.173 1168.13 737.675C1167.63 738.177 1167.03 738.428 1166.33 738.428C1165.87 738.428 1165.44 738.309 1165.05 738.072C1164.66 737.845 1164.35 737.537 1164.11 737.149C1163.89 736.77 1163.77 736.344 1163.77 735.871ZM1163.77 758.136C1163.77 757.436 1164.02 756.834 1164.53 756.332C1165.03 755.83 1165.63 755.58 1166.33 755.58C1167.03 755.58 1167.63 755.83 1168.13 756.332C1168.64 756.834 1168.89 757.436 1168.89 758.136C1168.89 758.837 1168.64 759.438 1168.13 759.94C1167.63 760.442 1167.03 760.693 1166.33 760.693C1165.87 760.693 1165.44 760.575 1165.05 760.338C1164.66 760.111 1164.35 759.803 1164.11 759.415C1163.89 759.036 1163.77 758.61 1163.77 758.136ZM1163.77 780.402C1163.77 779.701 1164.02 779.1 1164.53 778.598C1165.03 778.096 1165.63 777.845 1166.33 777.845C1167.03 777.845 1167.63 778.096 1168.13 778.598C1168.64 779.1 1168.89 779.701 1168.89 780.402C1168.89 781.103 1168.64 781.704 1168.13 782.206C1167.63 782.708 1167.03 782.959 1166.33 782.959C1165.87 782.959 1165.44 782.84 1165.05 782.604C1164.66 782.376 1164.35 782.069 1164.11 781.68C1163.89 781.302 1163.77 780.875 1163.77 780.402ZM1123.77 713.605C1123.77 712.904 1124.02 712.303 1124.53 711.801C1125.03 711.299 1125.63 711.048 1126.33 711.048C1127.03 711.048 1127.63 711.299 1128.13 711.801C1128.64 712.303 1128.89 712.904 1128.89 713.605C1128.89 714.306 1128.64 714.907 1128.13 715.409C1127.63 715.911 1127.03 716.162 1126.33 716.162C1125.87 716.162 1125.44 716.044 1125.05 715.807C1124.66 715.58 1124.35 715.272 1124.11 714.884C1123.89 714.505 1123.77 714.079 1123.77 713.605ZM1123.77 735.871C1123.77 735.17 1124.02 734.569 1124.53 734.067C1125.03 733.565 1125.63 733.314 1126.33 733.314C1127.03 733.314 1127.63 733.565 1128.13 734.067C1128.64 734.569 1128.89 735.17 1128.89 735.871C1128.89 736.571 1128.64 737.173 1128.13 737.675C1127.63 738.177 1127.03 738.428 1126.33 738.428C1125.87 738.428 1125.44 738.309 1125.05 738.072C1124.66 737.845 1124.35 737.537 1124.11 737.149C1123.89 736.77 1123.77 736.344 1123.77 735.871ZM1123.77 758.136C1123.77 757.436 1124.02 756.834 1124.53 756.332C1125.03 755.83 1125.63 755.58 1126.33 755.58C1127.03 755.58 1127.63 755.83 1128.13 756.332C1128.64 756.834 1128.89 757.436 1128.89 758.136C1128.89 758.837 1128.64 759.438 1128.13 759.94C1127.63 760.442 1127.03 760.693 1126.33 760.693C1125.87 760.693 1125.44 760.575 1125.05 760.338C1124.66 760.111 1124.35 759.803 1124.11 759.415C1123.89 759.036 1123.77 758.61 1123.77 758.136ZM1123.77 780.402C1123.77 779.701 1124.02 779.1 1124.53 778.598C1125.03 778.096 1125.63 777.845 1126.33 777.845C1127.03 777.845 1127.63 778.096 1128.13 778.598C1128.64 779.1 1128.89 779.701 1128.89 780.402C1128.89 781.103 1128.64 781.704 1128.13 782.206C1127.63 782.708 1127.03 782.959 1126.33 782.959C1125.87 782.959 1125.44 782.84 1125.05 782.604C1124.66 782.376 1124.35 782.069 1124.11 781.68C1123.89 781.302 1123.77 780.875 1123.77 780.402Z" fill="#F33558"/>
<path opacity="0.7" d="M84.7727 435.605C84.7727 434.904 85.0237 434.303 85.5256 433.801C86.0275 433.299 86.6288 433.048 87.3295 433.048C88.0303 433.048 88.6316 433.299 89.1335 433.801C89.6354 434.303 89.8864 434.904 89.8864 435.605C89.8864 436.306 89.6354 436.907 89.1335 437.409C88.6316 437.911 88.0303 438.162 87.3295 438.162C86.8655 438.162 86.4394 438.044 86.0511 437.807C85.6629 437.58 85.3504 437.272 85.1136 436.884C84.8864 436.505 84.7727 436.079 84.7727 435.605ZM84.7727 457.871C84.7727 457.17 85.0237 456.569 85.5256 456.067C86.0275 455.565 86.6288 455.314 87.3295 455.314C88.0303 455.314 88.6316 455.565 89.1335 456.067C89.6354 456.569 89.8864 457.17 89.8864 457.871C89.8864 458.571 89.6354 459.173 89.1335 459.675C88.6316 460.177 88.0303 460.428 87.3295 460.428C86.8655 460.428 86.4394 460.309 86.0511 460.072C85.6629 459.845 85.3504 459.537 85.1136 459.149C84.8864 458.77 84.7727 458.344 84.7727 457.871ZM84.7727 480.136C84.7727 479.436 85.0237 478.834 85.5256 478.332C86.0275 477.83 86.6288 477.58 87.3295 477.58C88.0303 477.58 88.6316 477.83 89.1335 478.332C89.6354 478.834 89.8864 479.436 89.8864 480.136C89.8864 480.837 89.6354 481.438 89.1335 481.94C88.6316 482.442 88.0303 482.693 87.3295 482.693C86.8655 482.693 86.4394 482.575 86.0511 482.338C85.6629 482.111 85.3504 481.803 85.1136 481.415C84.8864 481.036 84.7727 480.61 84.7727 480.136ZM84.7727 502.402C84.7727 501.701 85.0237 501.1 85.5256 500.598C86.0275 500.096 86.6288 499.845 87.3295 499.845C88.0303 499.845 88.6316 500.096 89.1335 500.598C89.6354 501.1 89.8864 501.701 89.8864 502.402C89.8864 503.103 89.6354 503.704 89.1335 504.206C88.6316 504.708 88.0303 504.959 87.3295 504.959C86.8655 504.959 86.4394 504.84 86.0511 504.604C85.6629 504.376 85.3504 504.069 85.1136 503.68C84.8864 503.302 84.7727 502.875 84.7727 502.402ZM44.7727 435.605C44.7727 434.904 45.0237 434.303 45.5256 433.801C46.0275 433.299 46.6288 433.048 47.3295 433.048C48.0303 433.048 48.6316 433.299 49.1335 433.801C49.6354 434.303 49.8864 434.904 49.8864 435.605C49.8864 436.306 49.6354 436.907 49.1335 437.409C48.6316 437.911 48.0303 438.162 47.3295 438.162C46.8655 438.162 46.4394 438.044 46.0511 437.807C45.6629 437.58 45.3504 437.272 45.1136 436.884C44.8864 436.505 44.7727 436.079 44.7727 435.605ZM44.7727 457.871C44.7727 457.17 45.0237 456.569 45.5256 456.067C46.0275 455.565 46.6288 455.314 47.3295 455.314C48.0303 455.314 48.6316 455.565 49.1335 456.067C49.6354 456.569 49.8864 457.17 49.8864 457.871C49.8864 458.571 49.6354 459.173 49.1335 459.675C48.6316 460.177 48.0303 460.428 47.3295 460.428C46.8655 460.428 46.4394 460.309 46.0511 460.072C45.6629 459.845 45.3504 459.537 45.1136 459.149C44.8864 458.77 44.7727 458.344 44.7727 457.871ZM44.7727 480.136C44.7727 479.436 45.0237 478.834 45.5256 478.332C46.0275 477.83 46.6288 477.58 47.3295 477.58C48.0303 477.58 48.6316 477.83 49.1335 478.332C49.6354 478.834 49.8864 479.436 49.8864 480.136C49.8864 480.837 49.6354 481.438 49.1335 481.94C48.6316 482.442 48.0303 482.693 47.3295 482.693C46.8655 482.693 46.4394 482.575 46.0511 482.338C45.6629 482.111 45.3504 481.803 45.1136 481.415C44.8864 481.036 44.7727 480.61 44.7727 480.136ZM44.7727 502.402C44.7727 501.701 45.0237 501.1 45.5256 500.598C46.0275 500.096 46.6288 499.845 47.3295 499.845C48.0303 499.845 48.6316 500.096 49.1335 500.598C49.6354 501.1 49.8864 501.701 49.8864 502.402C49.8864 503.103 49.6354 503.704 49.1335 504.206C48.6316 504.708 48.0303 504.959 47.3295 504.959C46.8655 504.959 46.4394 504.84 46.0511 504.604C45.6629 504.376 45.3504 504.069 45.1136 503.68C44.8864 503.302 44.7727 502.875 44.7727 502.402ZM4.77273 435.605C4.77273 434.904 5.02367 434.303 5.52557 433.801C6.02746 433.299 6.62879 433.048 7.32955 433.048C8.0303 433.048 8.63163 433.299 9.13352 433.801C9.63542 434.303 9.88636 434.904 9.88636 435.605C9.88636 436.306 9.63542 436.907 9.13352 437.409C8.63163 437.911 8.0303 438.162 7.32955 438.162C6.86553 438.162 6.43939 438.044 6.05114 437.807C5.66288 437.58 5.35038 437.272 5.11364 436.884C4.88636 436.505 4.77273 436.079 4.77273 435.605ZM4.77273 457.871C4.77273 457.17 5.02367 456.569 5.52557 456.067C6.02746 455.565 6.62879 455.314 7.32954 455.314C8.0303 455.314 8.63163 455.565 9.13352 456.067C9.63542 456.569 9.88636 457.17 9.88636 457.871C9.88636 458.571 9.63542 459.173 9.13352 459.675C8.63163 460.177 8.0303 460.428 7.32954 460.428C6.86553 460.428 6.43939 460.309 6.05114 460.072C5.66288 459.845 5.35038 459.537 5.11364 459.149C4.88636 458.77 4.77273 458.344 4.77273 457.871ZM4.77273 480.136C4.77273 479.436 5.02367 478.834 5.52557 478.332C6.02746 477.83 6.62879 477.58 7.32954 477.58C8.0303 477.58 8.63163 477.83 9.13352 478.332C9.63541 478.834 9.88636 479.436 9.88636 480.136C9.88636 480.837 9.63541 481.438 9.13352 481.94C8.63163 482.442 8.0303 482.693 7.32954 482.693C6.86553 482.693 6.43939 482.575 6.05113 482.338C5.66288 482.111 5.35038 481.803 5.11363 481.415C4.88636 481.036 4.77273 480.61 4.77273 480.136ZM4.77272 502.402C4.77272 501.701 5.02367 501.1 5.52557 500.598C6.02746 500.096 6.62878 499.845 7.32954 499.845C8.0303 499.845 8.63163 500.096 9.13352 500.598C9.63541 501.1 9.88636 501.701 9.88636 502.402C9.88636 503.103 9.63541 503.704 9.13352 504.206C8.63163 504.708 8.0303 504.959 7.32954 504.959C6.86553 504.959 6.43939 504.84 6.05113 504.604C5.66288 504.376 5.35038 504.069 5.11363 503.68C4.88636 503.302 4.77272 502.875 4.77272 502.402Z" fill="#F33558"/>
<circle opacity="0.2" cx="1195" cy="168" r="15" fill="#FFEC40"/>
<circle opacity="0.2" cx="1395" cy="323" r="35" fill="#FF7456"/>
<circle cx="1275" cy="615" r="20" fill="#37367D"/>
</svg>
