<svg width="74" height="55" viewBox="0 0 74 55" fill="none" xmlns="http://www.w3.org/2000/svg">
<path d="M56.957 33.0762C55.5247 33.0762 54.3073 33.6133 53.3047 34.6875C52.3737 35.7617 51.9082 36.9792 51.9082 38.3398C51.9082 39.7005 52.3737 40.918 53.3047 41.9922C54.3073 42.9948 55.5247 43.4961 56.957 43.4961C58.3893 43.4961 59.6426 42.9948 60.7168 41.9922C61.791 40.918 62.3281 39.7005 62.3281 38.3398C62.3281 36.9792 61.791 35.7617 60.7168 34.6875C59.6426 33.6133 58.3893 33.0762 56.957 33.0762ZM44.0664 48.3301C42.6341 46.3249 41.5599 44.0332 40.8438 41.4551C40.1992 38.877 39.877 36.1198 39.877 33.1836C39.877 30.1758 40.2708 27.1322 41.0586 24.0527C41.918 20.9017 43.2786 17.9297 45.1406 15.1367C49.0794 8.90625 54.8802 4.2513 62.543 1.17188C63.2591 0.885417 64.1543 0.742188 65.2285 0.742188C66.3743 0.742188 67.4844 1.35091 68.5586 2.56836C69.6328 3.78581 70.1699 5.03906 70.1699 6.32812C70.1699 9.04948 68.7376 10.9473 65.873 12.0215C60.7168 13.9551 56.7422 17.321 53.9492 22.1191C54.5221 21.9759 55.0234 21.9043 55.4531 21.9043H56.957C61.4688 21.9043 65.3359 23.5156 68.5586 26.7383C71.8529 30.0326 73.5 33.9355 73.5 38.4473C73.5 42.959 71.8529 46.7904 68.5586 49.9414C65.2643 53.0924 61.7552 54.668 58.0312 54.668C54.3789 54.668 51.4785 54.0951 49.3301 52.9492C47.2533 51.8034 45.4987 50.2637 44.0664 48.3301ZM17.4258 33.0762C15.9935 33.0762 14.776 33.6133 13.7734 34.6875C12.8424 35.7617 12.377 36.9792 12.377 38.3398C12.377 39.7005 12.8424 40.918 13.7734 41.9922C14.776 42.9948 15.9935 43.4961 17.4258 43.4961C18.8581 43.4961 20.0755 42.9948 21.0781 41.9922C22.1523 40.918 22.6895 39.7005 22.6895 38.3398C22.6895 36.9792 22.1523 35.7617 21.0781 34.6875C20.0755 33.6133 18.8581 33.0762 17.4258 33.0762ZM4.42773 48.3301C2.99544 46.3249 1.92122 44.0332 1.20508 41.4551C0.560547 38.877 0.238281 36.1198 0.238281 33.1836C0.238281 30.1758 0.632161 27.1322 1.41992 24.0527C2.2793 20.9017 3.60417 17.9297 5.39453 15.1367C9.40495 8.90625 15.2415 4.2513 22.9043 1.17188C23.6204 0.885417 24.5156 0.742188 25.5898 0.742188C26.7357 0.742188 27.8457 1.35091 28.9199 2.56836C30.0658 3.78581 30.6387 5.03906 30.6387 6.32812C30.6387 8.97786 29.2064 10.8398 26.3418 11.9141C21.1139 13.9909 17.1035 17.3926 14.3105 22.1191C14.8835 21.9759 15.4206 21.9043 15.9219 21.9043H17.4258C21.9375 21.9043 25.8047 23.5156 29.0273 26.7383C32.25 29.9609 33.8613 33.8639 33.8613 38.4473C33.8613 45.5371 30.4954 50.5143 23.7637 53.3789C21.7585 54.2383 19.4668 54.668 16.8887 54.668C14.3105 54.668 11.9473 54.0951 9.79883 52.9492C7.65039 51.8034 5.86003 50.2637 4.42773 48.3301Z" fill="#01FFFF"/>
</svg>
