<svg width="57" height="44" viewBox="0 0 57 44" fill="none" xmlns="http://www.w3.org/2000/svg">
<path d="M23.9075 3.17249L21.875 0.0474854C7.8125 9.49998 0 20.985 0 30.4375C0 39.5775 6.72 43.875 12.4225 43.875C19.61 43.875 24.6875 37.78 24.6875 31.375C24.6875 25.985 21.25 21.375 16.64 19.655C15.3125 19.185 14.0625 18.795 14.0625 16.53C14.0625 13.64 16.1725 9.34499 23.9075 3.17249ZM54.9225 3.17249L52.89 0.0474854C38.9825 9.49998 31.015 20.985 31.015 30.4375C31.015 39.5775 37.89 43.875 43.5925 43.875C50.8575 43.875 56.015 37.78 56.015 31.375C56.015 25.985 52.5 21.375 47.7325 19.655C46.405 19.185 45.2325 18.795 45.2325 16.53C45.2325 13.64 47.42 9.34249 54.92 3.16999L54.9225 3.17249Z" fill="white"/>
</svg>
