<svg width="14" height="23" viewBox="0 0 14 23" fill="none" xmlns="http://www.w3.org/2000/svg">
<path d="M6.92 0.339998C9 0.339998 10.67 0.909999 11.93 2.05C13.21 3.17 13.85 4.72 13.85 6.7C13.85 8.66 13.22 10.16 11.96 11.2C10.7 12.22 9.03 12.73 6.95 12.73L6.83 15.04H3.14L2.99 9.94H4.34C6.08 9.94 7.42 9.71 8.36 9.25C9.3 8.79 9.77 7.95 9.77 6.73C9.77 5.85 9.51 5.15 8.99 4.63C8.49 4.11 7.8 3.85 6.92 3.85C6 3.85 5.28 4.1 4.76 4.6C4.26 5.1 4.01 5.79 4.01 6.67H0.05C0.03 5.45 0.29 4.36 0.83 3.4C1.37 2.44 2.16 1.69 3.2 1.15C4.26 0.609998 5.5 0.339998 6.92 0.339998ZM4.97 22.21C4.21 22.21 3.58 21.98 3.08 21.52C2.6 21.04 2.36 20.45 2.36 19.75C2.36 19.05 2.6 18.47 3.08 18.01C3.58 17.53 4.21 17.29 4.97 17.29C5.71 17.29 6.32 17.53 6.8 18.01C7.28 18.47 7.52 19.05 7.52 19.75C7.52 20.45 7.28 21.04 6.8 21.52C6.32 21.98 5.71 22.21 4.97 22.21Z" fill="white"/>
</svg>
